<svg width="228" height="228" viewBox="0 0 228 228" fill="none" xmlns="http://www.w3.org/2000/svg">
<g filter="url(#filter0_b_444_4155)">
<circle cx="114" cy="114" r="113" fill="white" fill-opacity="0.05"/>
<circle cx="114" cy="114" r="113.5" stroke="#0D2F89"/>
</g>
<path d="M125.719 118.395C125.719 128.103 133.589 135.973 143.297 135.973C153.005 135.973 160.875 128.102 160.875 118.395H158.258L146.844 89.3375C147.561 88.7959 148.143 88.0957 148.544 87.2917C148.945 86.4877 149.155 85.6017 149.156 84.7031C149.156 81.4688 146.531 78.8438 143.297 78.8438C142.441 78.8438 141.634 79.0375 140.902 79.3656C139.706 78.9002 138.514 78.4257 137.325 77.9422C132.844 76.1047 127.63 73.9891 122.2 72.7703C121.564 71.1105 120.441 69.6823 118.977 68.6744C117.513 67.6666 115.777 67.1263 114 67.125C112.222 67.1264 110.487 67.6669 109.023 68.6751C107.559 69.6833 106.435 71.1117 105.8 72.7719C100.369 73.9891 95.1547 76.1047 90.6734 77.9437C89.6531 78.3625 88.2172 78.9281 87.0969 79.3672C86.3452 79.0246 85.5292 78.8462 84.7031 78.8438C83.1491 78.8438 81.6588 79.4611 80.5599 80.5599C79.4611 81.6588 78.8438 83.1491 78.8438 84.7031C78.8457 85.6014 79.0553 86.4872 79.4562 87.2911C79.8571 88.095 80.4384 88.7954 81.1547 89.3375L69.7406 118.395H67.125C67.125 128.103 74.9953 135.973 84.7031 135.973C94.4109 135.973 102.281 128.103 102.281 118.395H99.6641L88.25 89.3391C88.9666 88.7968 89.5482 88.0962 89.9494 87.292C90.3505 86.4878 90.5603 85.6018 90.5625 84.7031C90.5625 84.5672 90.5297 84.4391 90.5219 84.3047L91.9828 83.7125C96.0938 82.0234 100.855 80.0813 105.741 78.8953C106.182 80.1176 106.89 81.2267 107.812 82.1428C108.733 83.059 109.847 83.7594 111.072 84.1938V93.15H109.275V121.325H107.322V135.12C97.6297 136.919 90.5625 142.519 90.5625 149.156H87.6328V155.016H81.7734V160.875H146.227V155.016H140.367V149.156H137.438C137.438 142.519 130.367 136.919 120.68 135.12V121.325H118.727V93.1484H116.93V84.1922C118.154 83.7576 119.267 83.057 120.189 82.1409C121.11 81.2247 121.818 80.1158 122.259 78.8937C127.147 80.0797 131.905 82.0219 136.019 83.7109C136.519 83.9172 136.991 84.1063 137.478 84.3047C137.469 84.4391 137.438 84.5672 137.438 84.7031C137.439 85.6014 137.649 86.4872 138.05 87.2911C138.451 88.095 139.032 88.7954 139.748 89.3375L128.334 118.394H125.719V118.395ZM84.7031 81.7734C85.0937 81.7645 85.482 81.8338 85.8454 81.9771C86.2088 82.1204 86.5399 82.3349 86.8192 82.608C87.0985 82.8811 87.3204 83.2072 87.4719 83.5673C87.6234 83.9274 87.7014 84.3141 87.7013 84.7047C87.7012 85.0953 87.623 85.482 87.4713 85.842C87.3196 86.202 87.0976 86.528 86.8181 86.801C86.5386 87.0739 86.2074 87.2882 85.844 87.4313C85.4805 87.5745 85.0921 87.6435 84.7016 87.6344C83.9361 87.6165 83.208 87.2998 82.673 86.752C82.138 86.2042 81.8386 85.4688 81.8388 84.7031C81.839 83.9374 82.1388 83.2022 82.6741 82.6547C83.2094 82.1072 83.9376 81.7909 84.7031 81.7734ZM96.6391 118.395H72.7625L83.7344 90.4656C84.0516 90.5187 84.3719 90.5625 84.7031 90.5625C85.0344 90.5625 85.3531 90.5188 85.6688 90.4641L96.6391 118.395ZM143.297 81.7734C143.687 81.7645 144.076 81.8338 144.439 81.9771C144.803 82.1204 145.134 82.3349 145.413 82.608C145.692 82.8811 145.914 83.2072 146.066 83.5673C146.217 83.9274 146.295 84.3141 146.295 84.7047C146.295 85.0953 146.217 85.482 146.065 85.842C145.913 86.202 145.691 86.528 145.412 86.801C145.132 87.0739 144.801 87.2882 144.438 87.4313C144.074 87.5745 143.686 87.6435 143.295 87.6344C142.53 87.6165 141.802 87.2998 141.267 86.752C140.732 86.2042 140.432 85.4688 140.433 84.7031C140.433 83.9374 140.733 83.2022 141.268 82.6547C141.803 82.1072 142.531 81.7909 143.297 81.7734ZM142.33 90.4656C142.649 90.525 142.972 90.5574 143.297 90.5625C143.627 90.5625 143.947 90.5188 144.262 90.4641L155.233 118.394H131.355L142.33 90.4656Z" fill="white"/>
<defs>
<filter id="filter0_b_444_4155" x="-15" y="-15" width="258" height="258" filterUnits="userSpaceOnUse" color-interpolation-filters="sRGB">
<feFlood flood-opacity="0" result="BackgroundImageFix"/>
<feGaussianBlur in="BackgroundImage" stdDeviation="7.5"/>
<feComposite in2="SourceAlpha" operator="in" result="effect1_backgroundBlur_444_4155"/>
<feBlend mode="normal" in="SourceGraphic" in2="effect1_backgroundBlur_444_4155" result="shape"/>
</filter>
</defs>
</svg>
