<svg width="391" height="391" viewBox="0 0 391 391" fill="none" xmlns="http://www.w3.org/2000/svg">
<path d="M97.75 48.875V97.75H48.875V48.875H97.75ZM24.4375 24.4375V122.188H122.188V24.4375H24.4375ZM219.938 85.5312V134.406H171.062V85.5312H219.938ZM146.625 61.0938V158.844H244.375V61.0938H146.625ZM97.75 195.5V244.375H48.875V195.5H97.75ZM24.4375 171.062V268.812H122.188V171.062H24.4375Z" fill="#464646"/>
<path d="M268.812 122.188V195.5H195.5V268.812H122.188V366.562H366.562V122.188H268.812ZM219.938 219.938H268.812V268.812H219.938V219.938ZM195.5 342.125H146.625V293.25H195.5V342.125ZM268.812 342.125H219.938V293.25H268.812V342.125ZM342.125 342.125H293.25V293.25H342.125V342.125ZM342.125 268.812H293.25V219.938H342.125V268.812ZM293.25 195.5V146.625H342.125V195.5H293.25Z" fill="#464646"/>
</svg>
