<svg width="228" height="228" viewBox="0 0 228 228" fill="none" xmlns="http://www.w3.org/2000/svg">
<g filter="url(#filter0_b_444_4165)">
<circle cx="114" cy="114" r="113" fill="white" fill-opacity="0.05"/>
<circle cx="114" cy="114" r="113.5" stroke="#0D2F89"/>
</g>
<path d="M82.7497 72.333C76.9997 72.333 72.333 76.9997 72.333 82.7497V92.433C72.3352 94.6608 72.9328 96.8476 74.0639 98.7669C75.195 100.686 76.8185 102.268 78.7663 103.35L102.733 116.675C97.713 119.209 93.694 123.362 91.3254 128.462C88.9569 133.562 88.377 139.312 89.6796 144.783C90.9822 150.253 94.0911 155.125 98.504 158.61C102.917 162.096 108.376 163.992 114 163.992C119.623 163.992 125.082 162.096 129.495 158.61C133.908 155.125 137.017 150.253 138.32 144.783C139.622 139.312 139.042 133.562 136.674 128.462C134.305 123.362 130.286 119.209 125.266 116.675L149.241 103.358C151.189 102.275 152.812 100.691 153.941 98.7702C155.071 96.8493 155.666 94.6614 155.666 92.433V82.7497C155.666 76.9997 151 72.333 145.25 72.333H82.7497ZM80.6663 82.7497C80.6663 82.1971 80.8858 81.6672 81.2765 81.2765C81.6672 80.8858 82.1971 80.6663 82.7497 80.6663H97.333V104.141L82.808 96.0747C82.1588 95.7137 81.618 95.1857 81.2414 94.5454C80.8649 93.9051 80.6663 93.1758 80.6663 92.433V82.7497ZM105.666 108.766V80.6663H122.333V108.766L114 113.4L105.666 108.766ZM130.666 104.141V80.6663H145.25C145.802 80.6663 146.332 80.8858 146.723 81.2765C147.114 81.6672 147.333 82.1971 147.333 82.7497V92.433C147.333 93.1758 147.134 93.9051 146.758 94.5454C146.381 95.1857 145.841 95.7137 145.191 96.0747L130.666 104.141ZM130.666 139C130.666 143.42 128.91 147.659 125.785 150.785C122.659 153.91 118.42 155.666 114 155.666C109.579 155.666 105.34 153.91 102.215 150.785C99.089 147.659 97.333 143.42 97.333 139C97.333 134.579 99.089 130.34 102.215 127.215C105.34 124.089 109.579 122.333 114 122.333C118.42 122.333 122.659 124.089 125.785 127.215C128.91 130.34 130.666 134.579 130.666 139Z" fill="white"/>
<defs>
<filter id="filter0_b_444_4165" x="-15" y="-15" width="258" height="258" filterUnits="userSpaceOnUse" color-interpolation-filters="sRGB">
<feFlood flood-opacity="0" result="BackgroundImageFix"/>
<feGaussianBlur in="BackgroundImage" stdDeviation="7.5"/>
<feComposite in2="SourceAlpha" operator="in" result="effect1_backgroundBlur_444_4165"/>
<feBlend mode="normal" in="SourceGraphic" in2="effect1_backgroundBlur_444_4165" result="shape"/>
</filter>
</defs>
</svg>
