<svg width="83" height="86" viewBox="0 0 83 86" fill="none" xmlns="http://www.w3.org/2000/svg">
<path fill-rule="evenodd" clip-rule="evenodd" d="M65.6595 49.965C67.9561 46.2435 69.173 41.9205 69.1663 37.5072C69.1663 24.6833 59.1025 14.2885 46.6871 14.2885C42.2484 14.2885 38.1105 15.6173 34.6262 17.9088C32.3074 18.0431 30.0122 18.4616 27.7891 19.1555C30.2119 16.4874 33.1394 14.3616 36.3901 12.91C39.6409 11.4583 43.1456 10.7117 46.6871 10.7163C61.0115 10.7163 72.6246 22.7115 72.6246 37.5072C72.6289 41.1653 71.906 44.7853 70.5006 48.1429C69.0952 51.5006 67.0373 54.5244 64.4543 57.0271C65.1131 54.7713 65.5264 52.4066 65.6595 49.965Z" fill="#848484"/>
<path fill-rule="evenodd" clip-rule="evenodd" d="M69.0504 51.0867C67.7984 53.2816 66.2509 55.2817 64.4543 57.0271C65.1131 54.7713 65.5264 52.4066 65.6595 49.965C67.9561 46.2435 69.173 41.9205 69.1663 37.5073C69.1663 24.6833 59.1025 14.2885 46.6871 14.2885C42.2484 14.2885 38.1105 15.6173 34.6262 17.9088C32.3074 18.0432 30.0122 18.4616 27.7891 19.1555C29.4789 17.2998 31.4153 15.7014 33.5403 14.4081C37.5235 11.9838 42.0639 10.7088 46.6871 10.7163C61.0115 10.7163 72.6246 22.7115 72.6246 37.5073C72.6328 42.2828 71.3983 46.9728 69.0504 51.0867Z" fill="#848484"/>
<path fill-rule="evenodd" clip-rule="evenodd" d="M62.25 48.2235C62.25 63.0193 50.6369 75.0144 36.3125 75.0144C21.9881 75.0144 10.375 63.0193 10.375 48.2235C10.375 33.4278 21.9881 21.4326 36.3125 21.4326C50.6369 21.4326 62.25 33.4278 62.25 48.2235ZM34.5833 39.2932C33.6661 39.2932 32.7865 39.6696 32.1379 40.3395C31.4894 41.0094 31.125 41.918 31.125 42.8653C31.125 43.8127 31.4894 44.7213 32.1379 45.3912C32.7865 46.0611 33.6661 46.4375 34.5833 46.4375V39.2932ZM38.0417 35.7211V33.935H34.5833V35.7211C32.7489 35.7211 30.9896 36.4738 29.6925 37.8136C28.3954 39.1534 27.6667 40.9706 27.6667 42.8653C27.6667 44.7601 28.3954 46.5773 29.6925 47.9171C30.9896 49.2569 32.7489 50.0096 34.5833 50.0096V57.1538C33.079 57.1538 31.7976 56.1626 31.3204 54.773C31.2496 54.5457 31.1354 54.3353 30.9845 54.1544C30.8336 53.9734 30.6491 53.8256 30.4419 53.7196C30.2347 53.6136 30.0091 53.5515 29.7783 53.5372C29.5475 53.5228 29.3163 53.5564 29.0983 53.636C28.8803 53.7155 28.6799 53.8394 28.5091 54.0004C28.3383 54.1613 28.2004 54.356 28.1037 54.5729C28.007 54.7898 27.9534 55.0245 27.946 55.2632C27.9387 55.5019 27.9777 55.7397 28.0609 55.9625C28.5379 57.3556 29.4212 58.5617 30.5893 59.4148C31.7574 60.2679 33.1528 60.7259 34.5833 60.726V62.512H38.0417V60.726C39.8761 60.726 41.6354 59.9733 42.9325 58.6335C44.2296 57.2937 44.9583 55.4765 44.9583 53.5817C44.9583 51.6869 44.2296 49.8698 42.9325 48.53C41.6354 47.1902 39.8761 46.4375 38.0417 46.4375V39.2932C39.546 39.2932 40.8274 40.2845 41.3046 41.674C41.3754 41.9014 41.4896 42.1117 41.6405 42.2927C41.7914 42.4736 41.9759 42.6215 42.1831 42.7275C42.3903 42.8335 42.6159 42.8955 42.8467 42.9099C43.0775 42.9242 43.3087 42.8907 43.5267 42.8111C43.7447 42.7315 43.9451 42.6076 44.1159 42.4467C44.2867 42.2858 44.4246 42.0911 44.5213 41.8742C44.618 41.6573 44.6716 41.4225 44.679 41.1838C44.6863 40.9451 44.6473 40.7074 44.5641 40.4845C44.0871 39.0914 43.2038 37.8853 42.0357 37.0323C40.8676 36.1792 39.4722 35.7211 38.0417 35.7211ZM38.0417 50.0096V57.1538C38.9589 57.1538 39.8385 56.7775 40.4871 56.1076C41.1356 55.4377 41.5 54.5291 41.5 53.5817C41.5 52.6343 41.1356 51.7257 40.4871 51.0558C39.8385 50.3859 38.9589 50.0096 38.0417 50.0096Z" fill="#848484"/>
</svg>
