<svg width="228" height="228" viewBox="0 0 228 228" fill="none" xmlns="http://www.w3.org/2000/svg">
<g filter="url(#filter0_b_444_4160)">
<circle cx="114" cy="114" r="113" fill="white" fill-opacity="0.05"/>
<circle cx="114" cy="114" r="113.5" stroke="#0D2F89"/>
</g>
<path d="M74.4245 151.981C74.4275 152.195 74.4725 152.405 74.557 152.601C74.6414 152.797 74.7636 152.975 74.9166 153.124C75.0697 153.272 75.2505 153.39 75.4488 153.469C75.6471 153.547 75.859 153.586 76.0725 153.583H151.92C152.134 153.587 152.346 153.548 152.545 153.469C152.743 153.39 152.924 153.273 153.078 153.124C153.231 152.976 153.353 152.798 153.438 152.602C153.522 152.406 153.567 152.195 153.57 151.981V150.069C153.608 149.492 153.685 146.617 151.789 143.436C150.593 141.429 148.858 139.698 146.631 138.286C143.937 136.577 140.51 135.342 136.364 134.598C134.26 134.302 132.172 133.896 130.11 133.381C124.627 131.981 124.147 130.742 124.143 130.729C124.112 130.607 124.065 130.489 124.006 130.377C123.96 130.148 123.85 129.277 124.062 126.946C124.6 121.023 127.777 117.523 130.329 114.711C131.133 113.825 131.893 112.986 132.479 112.165C135.006 108.623 135.239 104.592 135.25 104.342C135.259 103.899 135.198 103.457 135.068 103.033C134.818 102.263 134.354 101.783 134.012 101.429C133.931 101.348 133.853 101.265 133.777 101.179C133.752 101.15 133.685 101.071 133.745 100.673C133.95 99.3911 134.091 98.1 134.168 96.8043C134.285 94.7168 134.375 91.5959 133.835 88.5563C133.756 87.9758 133.636 87.4015 133.477 86.8376C132.908 84.7459 131.995 82.9584 130.727 81.4834C130.508 81.2438 125.2 75.6501 109.789 74.5043C107.658 74.3459 105.552 74.4313 103.477 74.5376C102.863 74.5512 102.252 74.6266 101.654 74.7626C100.062 75.173 99.637 76.1813 99.5266 76.7459C99.3412 77.6834 99.6662 78.4084 99.8808 78.8918C99.912 78.9605 99.9516 79.0459 99.8829 79.2709C99.5266 79.8251 98.962 80.3251 98.3891 80.798C98.2225 80.9376 94.36 84.2709 94.1475 88.623C93.5745 91.9334 93.6162 97.0897 94.2933 100.654C94.335 100.852 94.3912 101.144 94.2975 101.342C93.5683 101.994 92.7433 102.733 92.7454 104.421C92.7537 104.592 92.9891 108.621 95.5162 112.165C96.0995 112.986 96.86 113.823 97.662 114.708L97.6662 114.711C100.218 117.523 103.395 121.023 103.933 126.944C104.143 129.277 104.033 130.146 103.989 130.377C103.929 130.489 103.882 130.607 103.85 130.729C103.847 130.742 103.37 131.977 97.912 133.375C94.762 134.181 91.662 134.594 91.5683 134.604C87.5391 135.286 84.1329 136.492 81.4433 138.19C79.2245 139.592 77.485 141.329 76.2766 143.35C74.3433 146.579 74.3954 149.521 74.4225 150.058V151.981H74.4245Z" stroke="white" stroke-width="7" stroke-linejoin="round"/>
<defs>
<filter id="filter0_b_444_4160" x="-15" y="-15" width="258" height="258" filterUnits="userSpaceOnUse" color-interpolation-filters="sRGB">
<feFlood flood-opacity="0" result="BackgroundImageFix"/>
<feGaussianBlur in="BackgroundImage" stdDeviation="7.5"/>
<feComposite in2="SourceAlpha" operator="in" result="effect1_backgroundBlur_444_4160"/>
<feBlend mode="normal" in="SourceGraphic" in2="effect1_backgroundBlur_444_4160" result="shape"/>
</filter>
</defs>
</svg>
