<svg width="228" height="228" viewBox="0 0 228 228" fill="none" xmlns="http://www.w3.org/2000/svg">
<g filter="url(#filter0_b_444_4154)">
<circle cx="114" cy="114" r="113" fill="white" fill-opacity="0.05"/>
<circle cx="114" cy="114" r="113.5" stroke="#0D2F89"/>
</g>
<path d="M157.248 61.7401C156.123 60.6153 154.597 59.9834 153.006 59.9834C151.415 59.9834 149.889 60.6153 148.764 61.7401L139.74 70.7581C138.615 71.8833 137.983 73.4091 137.983 75.0001C137.983 76.5911 138.615 78.1169 139.74 79.2421L148.758 88.2601C149.883 89.3849 151.409 90.0168 153 90.0168C154.591 90.0168 156.117 89.3849 157.242 88.2601L166.26 79.2421C167.385 78.1169 168.017 76.5911 168.017 75.0001C168.017 73.4091 167.385 71.8833 166.26 70.7581L157.248 61.7401ZM143.988 75.0001L153.006 65.9821L162.024 75.0001L153 84.0181L143.988 75.0001ZM131.988 72.0001H87C83.0218 72.0001 79.2064 73.5805 76.3934 76.3935C73.5804 79.2066 72 83.0219 72 87.0001V141C72 144.978 73.5804 148.794 76.3934 151.607C79.2064 154.42 83.0218 156 87 156H141C144.978 156 148.794 154.42 151.607 151.607C154.42 148.794 156 144.978 156 141V96.0001H131.988V72.0001ZM86.136 149.958C83.909 149.743 81.8419 148.707 80.3377 147.051C78.8335 145.394 78.0001 143.237 78 141V132H96V150H87L86.136 149.958ZM102 132H126V150H102V132ZM149.958 141.87C149.742 144.096 148.705 146.162 147.049 147.665C145.393 149.168 143.236 150 141 150H132V132H150V141L149.958 141.87ZM102 102H126V126H102V102ZM132 126V102H150V126H132ZM102 78.0001H126V96.0001H102V78.0001ZM87 78.0001H96V96.0001H78V87.0001L78.042 86.1361C78.2568 83.9092 79.2933 81.842 80.9495 80.3378C82.6057 78.8336 84.7627 78.0002 87 78.0001ZM78 126V102H96V126H78Z" fill="white"/>
<defs>
<filter id="filter0_b_444_4154" x="-15" y="-15" width="258" height="258" filterUnits="userSpaceOnUse" color-interpolation-filters="sRGB">
<feFlood flood-opacity="0" result="BackgroundImageFix"/>
<feGaussianBlur in="BackgroundImage" stdDeviation="7.5"/>
<feComposite in2="SourceAlpha" operator="in" result="effect1_backgroundBlur_444_4154"/>
<feBlend mode="normal" in="SourceGraphic" in2="effect1_backgroundBlur_444_4154" result="shape"/>
</filter>
</defs>
</svg>
