<svg width="72" height="72" viewBox="0 0 72 72" fill="none" xmlns="http://www.w3.org/2000/svg">
<path d="M63 19.125C63 27.201 50.91 33.75 36 33.75C21.09 33.75 9 27.201 9 19.125C9 11.049 21.09 4.5 36 4.5C50.91 4.5 63 11.049 63 19.125Z" fill="#848484"/>
<path d="M36 37.3955C44.055 37.3955 51.57 35.6375 57.234 32.5685C59.3185 31.4618 61.2348 30.0637 62.925 28.4165C62.973 28.7795 63 29.1485 63 29.5205C63 37.5965 50.91 44.1455 36 44.1455C21.09 44.1455 9 37.5965 9 29.5205C9 29.1485 9.027 28.7795 9.075 28.4165C10.7653 30.0637 12.6815 31.4617 14.766 32.5685C20.427 35.6375 27.945 37.3955 36 37.3955Z" fill="#848484"/>
<path d="M36 47.7915C44.055 47.7915 51.57 46.0335 57.234 42.9645C59.3186 41.8578 61.2348 40.4598 62.925 38.8125C62.973 39.1755 63 39.5445 63 39.9165C63 47.9925 50.91 54.5415 36 54.5415C21.09 54.5415 9 47.9925 9 39.9165C9 39.5445 9.027 39.1755 9.075 38.8125C10.7652 40.4597 12.6815 41.8577 14.766 42.9645C20.427 46.0335 27.945 47.7915 36 47.7915Z" fill="#848484"/>
<path d="M36 58.1875C44.055 58.1875 51.57 56.4295 57.234 53.3605C59.3186 52.2538 61.2348 50.8558 62.925 49.2085C62.973 49.5715 63 49.9405 63 50.3125C63 58.3885 50.91 64.9375 36 64.9375C21.09 64.9375 9 58.3885 9 50.3125C9 49.9405 9.027 49.5715 9.075 49.2085C10.7652 50.8557 12.6815 52.2537 14.766 53.3605C20.427 56.4295 27.945 58.1875 36 58.1875Z" fill="#848484"/>
</svg>
