<svg width="77" height="77" viewBox="0 0 77 77" fill="none" xmlns="http://www.w3.org/2000/svg">
<path d="M61.6002 23.1001H13.4752V21.1751L55.8252 17.7871V21.1751H61.6002V15.4001C61.6002 11.1651 58.1698 8.19287 53.981 8.78962L15.3232 14.3105C11.1305 14.9111 7.7002 18.8651 7.7002 23.1001V61.6001C7.7002 63.6422 8.51144 65.6008 9.95547 67.0448C11.3995 68.4888 13.358 69.3001 15.4002 69.3001H61.6002C63.6424 69.3001 65.6009 68.4888 67.0449 67.0448C68.4889 65.6008 69.3002 63.6422 69.3002 61.6001V30.8001C69.3002 28.7579 68.4889 26.7994 67.0449 25.3553C65.6009 23.9113 63.6424 23.1001 61.6002 23.1001ZM55.8252 50.0732C55.0666 50.0729 54.3154 49.9232 53.6146 49.6327C52.9138 49.3421 52.2771 48.9164 51.7409 48.3798C51.2046 47.8432 50.7793 47.2062 50.4892 46.5052C50.1991 45.8042 50.0499 45.053 50.0502 44.2943C50.0504 43.5357 50.2001 42.7845 50.4907 42.0837C50.7812 41.3829 51.207 40.7462 51.7436 40.21C52.2802 39.6737 52.9172 39.2484 53.6182 38.9583C54.3191 38.6682 55.0704 38.5191 55.829 38.5193C57.3612 38.5198 58.8304 39.129 59.9134 40.2127C60.9964 41.2964 61.6046 42.766 61.604 44.2982C61.6035 45.8303 60.9944 47.2995 59.9107 48.3825C58.8269 49.4655 57.3573 50.0737 55.8252 50.0732Z" fill="#848484"/>
</svg>
