<svg width="228" height="228" viewBox="0 0 228 228" fill="none" xmlns="http://www.w3.org/2000/svg">
<g filter="url(#filter0_b_444_4152)">
<circle cx="114" cy="114" r="113" fill="white" fill-opacity="0.05"/>
<circle cx="114" cy="114" r="113.5" stroke="#0D2F89"/>
</g>
<g clip-path="url(#clip0_444_4152)">
<path d="M113.947 64C100.695 64.0141 87.9913 69.2881 78.6259 78.6634C69.2606 88.0387 64 100.748 64 114C64 127.261 69.2678 139.979 78.6447 149.355C88.0215 158.732 100.739 164 114 164C125.345 163.985 136.349 160.113 145.202 153.018C154.056 145.923 160.233 136.029 162.72 124.959C161.028 126.296 159.032 127.12 156.936 127.489C156.333 129.417 155.601 131.302 154.744 133.131H141.09C141.865 129.67 142.413 126.162 142.729 122.629C141.433 121.156 140.506 119.396 140.025 117.494C140.039 114.667 138.511 112.888 136.437 111.5H116.5V107.387C114.68 106.812 112.984 105.902 111.5 104.703V111.5H90.867C91.079 105.565 91.91 99.946 93.23 94.87H106.344C106.22 93.1747 106.45 91.4721 107.018 89.87H94.75C95.738 87.046 96.88 84.44 98.158 82.12C101.89 75.34 106.571 71.101 111.5 69.878V83.394C112.973 82.1138 114.667 81.114 116.5 80.444V69.682C121.402 70.516 126.101 74.336 129.926 80.666C131.403 80.123 132.807 79.14 134.197 78.092C132.75 75.706 131.145 73.546 129.391 71.695C132.247 72.7336 134.989 74.0608 137.576 75.656C138.244 75.23 138.916 74.841 139.606 74.568C139.559 73.4656 139.657 72.3618 139.898 71.285C132.093 66.5362 123.136 64.0167 114 64C113.982 64 113.965 64 113.947 64ZM99.98 71.232C97.656 73.584 95.57 76.452 93.777 79.707C92.097 82.757 90.652 86.174 89.465 89.869H76.01C81.545 81.163 89.985 74.499 99.98 71.232ZM156.684 88.078C154.8 88.562 152.833 88.652 150.9 88.24C151.274 88.775 151.64 89.317 151.99 89.87H140.648C138.68 91.325 136.749 92.959 134.686 93.775C134.832 94.184 135.031 94.542 135.262 94.869H135.695C135.755 95.101 135.809 95.34 135.867 95.574C137.373 97.032 139.728 97.671 141.676 98.719C141.436 97.4289 141.162 96.1451 140.856 94.869H154.744C155.452 96.3869 156.075 97.9434 156.609 99.531C158.862 100.005 160.913 101.108 162.637 102.629C161.432 97.4954 159.423 92.5848 156.684 88.079V88.078ZM73.256 94.87H88.064C86.819 100.032 86.056 105.63 85.861 111.501H69.072C69.3826 105.74 70.8033 100.093 73.256 94.871V94.87ZM69.072 116.5H85.834C85.963 122.356 86.654 127.954 87.828 133.13H73.256C70.8033 127.908 69.3826 122.261 69.072 116.5ZM90.834 116.5H111.5V133.13H92.98C91.735 128.03 90.974 122.415 90.834 116.5ZM116.5 116.5H138.092C137.952 122.415 137.19 128.03 135.945 133.13H116.5V116.5ZM76.01 138.13H89.146C90.388 142.215 91.946 145.97 93.777 149.295C95.215 151.905 96.845 154.264 98.631 156.312C89.224 152.902 81.295 146.443 76.01 138.131V138.13ZM94.404 138.13H111.5V158.928C111.192 158.911 110.888 158.88 110.582 158.858C105.992 157.358 101.658 153.238 98.158 146.883C96.73 144.289 95.466 141.346 94.404 138.131V138.13ZM116.5 138.13H134.521C133.461 141.346 132.196 144.289 130.768 146.883C127.34 153.108 123.112 157.191 118.627 158.766C117.923 158.837 117.213 158.889 116.5 158.928V138.13ZM139.775 138.13H151.99C146.934 146.086 139.509 152.256 130.762 155.771C132.366 153.851 133.836 151.677 135.148 149.295C136.979 145.97 138.536 142.215 139.775 138.131V138.13Z" fill="white"/>
<path d="M153.808 64C151.105 64 148.513 65.0738 146.601 66.9852C144.69 68.8965 143.616 71.4889 143.616 74.192C143.619 75.0498 143.729 75.9039 143.946 76.734L127.748 86.579C125.852 84.7536 123.324 83.7324 120.692 83.729C119.353 83.729 118.028 83.9927 116.791 84.505C115.555 85.0173 114.431 85.7682 113.484 86.7149C112.538 87.6615 111.787 88.7853 111.275 90.0221C110.763 91.2589 110.5 92.5844 110.5 93.923C110.5 96.6261 111.574 99.2185 113.485 101.13C115.397 103.041 117.989 104.115 120.692 104.115C123.152 104.111 125.527 103.217 127.38 101.598L143.826 111.596C143.687 112.272 143.616 112.961 143.616 113.651C143.616 116.354 144.69 118.946 146.601 120.858C148.513 122.769 151.105 123.843 153.808 123.843C155.147 123.843 156.472 123.579 157.709 123.067C158.945 122.555 160.069 121.804 161.015 120.857C161.962 119.911 162.712 118.787 163.224 117.551C163.737 116.314 164 114.989 164 113.65C164 112.311 163.737 110.986 163.224 109.749C162.712 108.513 161.962 107.389 161.015 106.443C160.069 105.496 158.945 104.745 157.709 104.233C156.472 103.721 155.147 103.457 153.808 103.457C152.439 103.459 151.085 103.736 149.826 104.273C148.567 104.809 147.429 105.594 146.48 106.58L130.455 96.842C130.739 95.8947 130.884 94.911 130.885 93.922C130.882 93.1003 130.779 92.282 130.579 91.485L146.829 81.606C148.717 83.3868 151.213 84.3803 153.808 84.384C156.511 84.384 159.103 83.3102 161.015 81.3988C162.926 79.4875 164 76.8951 164 74.192C164 71.4889 162.926 68.8965 161.015 66.9852C159.103 65.0738 156.511 64 153.808 64V64Z" fill="white"/>
</g>
<defs>
<filter id="filter0_b_444_4152" x="-15" y="-15" width="258" height="258" filterUnits="userSpaceOnUse" color-interpolation-filters="sRGB">
<feFlood flood-opacity="0" result="BackgroundImageFix"/>
<feGaussianBlur in="BackgroundImage" stdDeviation="7.5"/>
<feComposite in2="SourceAlpha" operator="in" result="effect1_backgroundBlur_444_4152"/>
<feBlend mode="normal" in="SourceGraphic" in2="effect1_backgroundBlur_444_4152" result="shape"/>
</filter>
<clipPath id="clip0_444_4152">
<rect width="100" height="100" fill="white" transform="translate(64 64)"/>
</clipPath>
</defs>
</svg>
