<svg width="399" height="339" viewBox="0 0 399 339" fill="none" xmlns="http://www.w3.org/2000/svg">
<path d="M32.1426 242.171L169.576 120.808L285.397 290.383L377.388 181.767L315.322 41.0083" stroke="#001E59" stroke-width="18"/>
<circle cx="307.475" cy="31.5" r="31.5" fill="#001E59"/>
<path d="M307.716 18.0123C300.172 18.0123 294.047 24.1396 294.047 31.6834C294.047 39.227 300.172 45.3542 307.716 45.3542C315.26 45.3542 321.387 39.227 321.387 31.6834C321.387 24.1396 315.26 18.0123 307.716 18.0123ZM314.37 20.9984C317.932 23.2195 320.3 27.1714 320.3 31.6834C320.3 32.6804 320.184 33.6505 319.966 34.5803L317.974 33.5299L319.253 36.7213C318.704 37.9803 317.953 39.131 317.043 40.1345L314.533 38.3353L310.775 41.1106L307.189 41.5158L306.38 39.0859L303.489 40.6472L299.528 39.5458L300.061 41.674C298.409 40.4066 297.081 38.739 296.222 36.8141L297.7 34.7076L299.576 35.7035L303.02 35.1292L303.185 32.7501L301.013 32.6501L301.299 31.6124L303.089 30.1402L301.629 29.2315L305.539 26.9869L302.902 25.2621L299.027 27.5993L296.151 26.7107C296.955 24.8414 298.199 23.2083 299.752 21.9379L299.534 24.5187L302.056 22.5341L306.244 23.8264L304.935 22.2324L306.526 21.3946L308.085 23.0503L312.214 23.6228L312.011 21.6181L314.422 22.3542L314.37 20.9984H314.37ZM314.437 27.9792L309.143 28.601L310.824 31.1145L311.007 34.8638L312.705 35.669L313.37 34.0187L317.014 36.8485L315.993 34.0987L316.365 31.2871L313.821 29.9657L314.437 27.9793L314.437 27.9792ZM305.828 28.192L303.99 29.4242L306.111 30.2838L307.082 29.4242L305.828 28.1919V28.192ZM307.118 36.6069L308.205 39.6657L309.355 37.1902L307.118 36.6069Z" fill="#DBD4D4"/>
<circle cx="165.941" cy="113.85" r="54" fill="#001E59"/>
<path d="M148.441 90.85H138.941V136.554H158.441V127.35H148.441V90.85Z" fill="white"/>
<path d="M158.441 90.85V127.35H168.441V110.85L185.441 136.554H193.941V90.85H184.441V116.35L167.441 90.85H158.441Z" fill="white"/>
<circle cx="281.291" cy="285.725" r="43" fill="#001E59"/>
<path d="M272.519 285.248C274.719 285.248 276.829 284.375 278.384 282.819C279.94 281.263 280.814 279.153 280.814 276.953C280.814 274.753 279.94 272.643 278.384 271.088C276.829 269.532 274.719 268.658 272.519 268.658C270.319 268.658 268.209 269.532 266.653 271.088C265.098 272.643 264.224 274.753 264.224 276.953C264.224 279.153 265.098 281.263 266.653 282.819C268.209 284.375 270.319 285.248 272.519 285.248ZM287.034 298.38C288.387 298.934 290.107 299.286 292.297 299.286C302.506 299.286 302.506 291.629 302.506 291.629C302.506 290.614 302.103 289.641 301.386 288.923C300.669 288.205 299.695 287.801 298.68 287.801H286.868C287.871 289.016 288.474 290.57 288.474 292.267V293.176C288.468 293.391 288.454 293.606 288.43 293.819C288.258 295.414 287.783 296.962 287.034 298.38ZM298.68 278.868C298.68 280.56 298.008 282.183 296.812 283.38C295.615 284.576 293.992 285.248 292.3 285.248C290.607 285.248 288.984 284.576 287.788 283.38C286.591 282.183 285.919 280.56 285.919 278.868C285.919 277.175 286.591 275.552 287.788 274.356C288.984 273.159 290.607 272.487 292.3 272.487C293.992 272.487 295.615 273.159 296.812 274.356C298.008 275.552 298.68 277.175 298.68 278.868ZM259.119 292.906C259.119 291.552 259.657 290.253 260.614 289.296C261.572 288.339 262.87 287.801 264.224 287.801H280.814C282.168 287.801 283.466 288.339 284.424 289.296C285.381 290.253 285.919 291.552 285.919 292.906C285.919 292.906 285.919 303.115 272.519 303.115C259.119 303.115 259.119 292.906 259.119 292.906ZM288.471 293.176L288.463 293.339L288.469 293.176H288.471Z" fill="#E2E2E2"/>
<circle cx="31.5" cy="238.758" r="31.5" fill="#001E59"/>
<path d="M41.7773 241.946C42.9056 241.946 43.9875 242.394 44.7853 243.192C45.5831 243.99 46.0312 245.072 46.0312 246.2V247.214C46.0312 252.286 40.0616 256.126 31.8516 256.126C23.6415 256.126 17.6719 252.486 17.6719 247.214V246.2C17.6719 245.072 18.1201 243.99 18.9178 243.192C19.7156 242.394 20.7976 241.946 21.9258 241.946H41.7773ZM31.8516 222.094C32.9688 222.094 34.0751 222.314 35.1074 222.742C36.1396 223.169 37.0775 223.796 37.8675 224.586C38.6575 225.376 39.2842 226.314 39.7118 227.346C40.1393 228.378 40.3594 229.485 40.3594 230.602C40.3594 231.719 40.1393 232.826 39.7118 233.858C39.2842 234.89 38.6575 235.828 37.8675 236.618C37.0775 237.408 36.1396 238.035 35.1074 238.462C34.0751 238.89 32.9688 239.11 31.8516 239.11C29.5951 239.11 27.4312 238.214 25.8356 236.618C24.2401 235.022 23.3438 232.858 23.3438 230.602C23.3438 228.346 24.2401 226.182 25.8356 224.586C27.4312 222.991 29.5951 222.094 31.8516 222.094Z" fill="#DDDBDB"/>
<circle cx="377.941" cy="179.55" r="21.0583" fill="#001E59"/>
</svg>
