<svg width="25" height="22" viewBox="0 0 25 22" fill="none" xmlns="http://www.w3.org/2000/svg">
<path d="M20.125 13.25C17.7125 13.25 15.75 15.2125 15.75 17.625C15.75 20.0375 17.7125 22 20.125 22C22.5375 22 24.5 20.0375 24.5 17.625C24.5 15.2125 22.5375 13.25 20.125 13.25ZM22.625 18.25H17.625V17H22.625V18.25ZM13.9375 18.25C13.9125 18.0375 13.875 17.8375 13.875 17.625C13.875 14.175 16.675 11.375 20.125 11.375C21.275 11.375 22.325 11.7 23.25 12.2375V3.25C23.25 1.875 22.125 0.75 20.75 0.75H3.25C1.875 0.75 0.75 1.875 0.75 3.25V15.75C0.75 17.125 1.875 18.25 3.25 18.25H13.9375ZM12 10.125L3.25 5.75V3.25L12 7.625L20.75 3.25V5.75L12 10.125Z" fill="white"/>
</svg>
