<svg width="28" height="26" viewBox="0 0 28 26" fill="none" xmlns="http://www.w3.org/2000/svg">
<path d="M23.2605 16.9904C24.0716 15.0633 24.2583 12.9304 23.7944 10.8917C23.3305 8.85299 22.2393 7.01092 20.6742 5.62449C19.1091 4.23807 17.1489 3.37701 15.0691 3.16238C12.9893 2.94775 10.8945 3.39034 9.0793 4.42793L7.8393 2.25668C9.73634 1.17245 11.8845 0.604636 14.0695 0.6099C16.2546 0.615164 18.4 1.19332 20.2918 2.28668C25.9043 5.52668 28.0543 12.4642 25.438 18.2492L27.1155 19.2167L21.9093 21.9842L21.703 16.0917L23.2605 16.9904ZM4.82305 9.23293C4.01198 11.1601 3.82528 13.2929 4.28919 15.3316C4.75311 17.3704 5.84431 19.2124 7.40939 20.5989C8.97446 21.9853 10.9347 22.8463 13.0145 23.061C15.0943 23.2756 17.1891 22.833 19.0043 21.7954L20.2443 23.9667C18.3473 25.0509 16.1991 25.6187 14.014 25.6135C11.829 25.6082 9.68359 25.03 7.7918 23.9367C2.1793 20.6967 0.0292969 13.7592 2.64555 7.97418L0.966797 7.00793L6.17305 4.24043L6.3793 10.1329L4.8218 9.23418L4.82305 9.23293ZM9.6668 15.6117H16.5418C16.7076 15.6117 16.8665 15.5458 16.9837 15.4286C17.101 15.3114 17.1668 15.1524 17.1668 14.9867C17.1668 14.8209 17.101 14.6619 16.9837 14.5447C16.8665 14.4275 16.7076 14.3617 16.5418 14.3617H11.5418C10.713 14.3617 9.91814 14.0324 9.33209 13.4464C8.74604 12.8603 8.4168 12.0655 8.4168 11.2367C8.4168 10.4079 8.74604 9.61302 9.33209 9.02697C9.91814 8.44092 10.713 8.11168 11.5418 8.11168H12.7918V6.86168H15.2918V8.11168H18.4168V10.6117H11.5418C11.376 10.6117 11.2171 10.6775 11.0999 10.7947C10.9826 10.9119 10.9168 11.0709 10.9168 11.2367C10.9168 11.4024 10.9826 11.5614 11.0999 11.6786C11.2171 11.7958 11.376 11.8617 11.5418 11.8617H16.5418C17.3706 11.8617 18.1655 12.1909 18.7515 12.777C19.3376 13.363 19.6668 14.1579 19.6668 14.9867C19.6668 15.8155 19.3376 16.6103 18.7515 17.1964C18.1655 17.7824 17.3706 18.1117 16.5418 18.1117H15.2918V19.3617H12.7918V18.1117H9.6668V15.6117Z" fill="white"/>
</svg>
