<svg width="25" height="19" viewBox="0 0 25 19" fill="none" xmlns="http://www.w3.org/2000/svg">
<path d="M21.0074 7.85253C21.0132 7.76598 21.0189 7.68521 21.0189 7.59866C21.0189 5.89661 19.64 4.51766 17.9379 4.51766C17.5513 4.51766 17.1763 4.58689 16.8359 4.71959C16.8359 4.65036 16.8417 4.58689 16.8417 4.51766C16.8417 2.01939 14.8165 0 12.324 0C10.0681 0 8.19871 1.65013 7.8583 3.81375C7.59289 3.78491 7.32172 3.7676 7.05054 3.7676C3.15601 3.7676 0 6.92361 0 10.8181C0 14.7127 3.15601 17.8687 7.05054 17.8687H7.6679V15.3185C7.6679 14.5742 8.10062 13.9222 8.72952 13.6107V10.9162C8.72952 9.41034 9.95269 8.1814 11.4643 8.1814H14.6434C16.1493 8.1814 17.3783 9.40457 17.3783 10.9162V13.6107C18.0072 13.9222 18.4399 14.5684 18.4399 15.3185V17.8687H19.9342C22.7325 17.8687 25 15.6012 25 12.8029C24.9942 10.3739 23.2864 8.34872 21.0074 7.85253Z" fill="#8A8A8A"/>
<path d="M17.1287 12.3788C17.1287 8.99342 14.3795 6.24414 10.9941 6.24414C7.60865 6.24414 4.85938 8.99342 4.85938 12.3788C4.85938 15.7642 7.60865 18.5135 10.9941 18.5135C14.3795 18.5135 17.1287 15.7642 17.1287 12.3788ZM8.95404 15.8227V8.94223L14.9132 12.3861L8.95404 15.8227Z" fill="white"/>
</svg>
