<svg width="25" height="25" viewBox="0 0 25 25" fill="none" xmlns="http://www.w3.org/2000/svg">
<path d="M6.05957 6.81641V5.5957L6.20117 5.41016C6.20117 5.41016 6.20605 5.40039 6.21582 5.39063L6.41602 5.07813H21.1084V3.23242H3.83789V7.05078C4.35547 6.95801 4.91211 6.88965 5.49805 6.8457C5.68359 6.83594 5.86914 6.82129 6.05957 6.81641Z" fill="white"/>
<path d="M6.78711 5.76172H6.74316V5.8252C6.74805 5.82031 6.75293 5.81055 6.75781 5.80566C6.75293 5.81055 6.74805 5.82031 6.74316 5.8252V6.79199C6.85547 6.79199 6.95801 6.79199 7.07031 6.79199C8.10059 6.79199 9.12598 6.86523 10.0342 7.00684C10.5225 7.08496 10.9766 7.17773 11.377 7.29004C11.5918 7.34863 11.7871 7.40723 11.9727 7.47559H20.8203C20.8203 7.80273 20.9277 8.11035 21.1084 8.35449C21.377 8.7207 21.8115 8.95508 22.2998 8.95508V10.9717C21.8115 10.9717 21.377 11.2109 21.1084 11.5723C21.0742 11.6162 21.0449 11.6602 21.0156 11.709C20.8887 11.9287 20.8154 12.1826 20.8154 12.4512C20.8154 12.4756 20.8154 12.5 20.8154 12.5244H13.8281V14.2383H24.0088V5.76172H6.78711Z" fill="white"/>
<path d="M0.986328 17.6025V19.9805C0.986328 20.9668 3.70605 21.7676 7.06543 21.7676C10.4248 21.7676 13.1445 20.9668 13.1445 19.9805V17.6025C11.8408 18.584 8.95996 18.877 7.06543 18.877C5.1709 18.877 2.29004 18.584 0.986328 17.6025Z" fill="white"/>
<path d="M10.957 14.9072C9.8291 15.166 8.48633 15.3027 7.07031 15.3027C5.17578 15.3027 2.29492 15.0049 0.991211 14.0283V16.4062C0.991211 17.3926 3.71094 18.1934 7.07031 18.1934C10.4297 18.1934 13.1494 17.3926 13.1494 16.4062V14.0234C13.0615 14.0869 12.9687 14.1553 12.8613 14.2188C12.3877 14.4971 11.748 14.7266 10.957 14.9072ZM10.5811 16.8018C9.58984 17.0264 8.33984 17.1533 7.06543 17.1533C6.875 17.1533 6.72363 17.002 6.72363 16.8115C6.72363 16.6211 6.875 16.4697 7.06543 16.4697C8.29102 16.4697 9.48242 16.3525 10.4297 16.1377C10.6152 16.0937 10.7959 16.2109 10.8398 16.3965C10.8838 16.5771 10.7666 16.7578 10.5811 16.8018Z" fill="white"/>
<path d="M11.1914 7.94922C10.8105 7.84668 10.3857 7.75879 9.92187 7.68555C9.07227 7.55371 8.10059 7.47559 7.06543 7.47559C6.95801 7.47559 6.85059 7.47559 6.73828 7.47559C6.32812 7.48047 5.92773 7.5 5.54687 7.5293C4.93164 7.57812 4.35547 7.65137 3.83301 7.74414C2.12402 8.06152 0.986328 8.61816 0.986328 9.25781C0.986328 9.27246 0.986328 9.28711 0.986328 9.30176V9.30664C0.986328 9.32129 0.991211 9.33594 0.991211 9.3457C0.991211 9.3457 0.991211 9.3457 0.991211 9.35059C0.991211 9.36523 0.996094 9.375 1.00098 9.38965C1.00098 9.39453 1.00098 9.39453 1.00586 9.39941C1.01074 9.41406 1.01562 9.42871 1.02051 9.44336C1.02539 9.45801 1.03027 9.47266 1.03516 9.48242V9.4873C1.04004 9.50195 1.0498 9.5166 1.05469 9.53125C1.06445 9.5459 1.06934 9.56055 1.0791 9.5752C1.08398 9.58496 1.09375 9.59961 1.10352 9.60938C1.1084 9.61426 1.11328 9.62402 1.11816 9.62891C1.15723 9.6875 1.21094 9.74609 1.26953 9.7998C1.2793 9.80957 1.29395 9.81934 1.30371 9.8291C1.34277 9.86328 1.3916 9.89746 1.44043 9.93652C1.4502 9.94629 1.46484 9.95117 1.47461 9.96094C1.48926 9.9707 1.50879 9.98535 1.52344 9.99512C1.54297 10.0098 1.5625 10.0195 1.58691 10.0342C1.61621 10.0537 1.64551 10.0684 1.67969 10.0879C1.70898 10.1025 1.73828 10.1221 1.77246 10.1367C1.88477 10.1953 2.00195 10.249 2.13379 10.3027C2.16797 10.3174 2.19727 10.3271 2.23145 10.3418C2.23633 10.3418 2.24121 10.3467 2.24609 10.3467C2.26074 10.3516 2.28027 10.3613 2.29492 10.3662C2.50977 10.4443 2.74902 10.5225 3.00293 10.5859C3.05176 10.6006 3.0957 10.6104 3.14453 10.6201C3.16895 10.625 3.19336 10.6299 3.21777 10.6396C3.41309 10.6885 3.61816 10.7275 3.83301 10.7715C3.8916 10.7813 3.94531 10.791 4.00391 10.8008C4.05273 10.8105 4.10645 10.8203 4.16016 10.8252C4.2041 10.8301 4.24316 10.8398 4.28711 10.8447C4.46777 10.874 4.65332 10.8984 4.84863 10.918C4.90723 10.9229 4.96582 10.9326 5.0293 10.9375C5.08789 10.9424 5.15137 10.9521 5.20996 10.957C5.24902 10.9619 5.29297 10.9668 5.33203 10.9668C5.35644 10.9668 5.38086 10.9717 5.40527 10.9717C5.55176 10.9814 5.69824 10.9961 5.84473 11.001C5.94238 11.0059 6.04492 11.0107 6.14258 11.0156C6.19141 11.0156 6.24512 11.0205 6.29394 11.0205C6.39648 11.0254 6.49902 11.0254 6.60156 11.0303C6.65039 11.0303 6.69922 11.0303 6.74316 11.0352C6.85059 11.0352 6.95801 11.0352 7.07031 11.0352C7.13867 11.0352 7.20703 11.0352 7.27539 11.0352C7.34375 11.0352 7.41211 11.0352 7.47559 11.0303C7.53418 11.0303 7.59277 11.0254 7.64648 11.0254C7.72949 11.0254 7.8125 11.0205 7.89551 11.0156C7.9541 11.0156 8.01269 11.0107 8.06641 11.0059C8.09082 11.0059 8.11523 11.0059 8.13965 11.001C8.18848 11.001 8.2373 10.9961 8.29102 10.9912C8.4082 10.9863 8.52539 10.9766 8.64258 10.9668C8.66211 10.9668 8.68164 10.9619 8.69629 10.9619C8.73047 10.957 8.76953 10.957 8.80371 10.9521C8.85742 10.9473 8.91113 10.9424 8.96484 10.9375C9.16992 10.918 9.37012 10.8936 9.56055 10.8691C9.60449 10.8643 9.64844 10.8594 9.69727 10.8496C9.74121 10.8447 9.78516 10.835 9.8291 10.8301C9.8584 10.8252 9.89258 10.8203 9.92187 10.8154C9.96094 10.8105 10 10.8008 10.0391 10.7959C10.0732 10.791 10.1025 10.7861 10.1367 10.7813C10.3955 10.7373 10.6396 10.6885 10.8691 10.6299C10.9082 10.6201 10.9473 10.6104 10.9863 10.6006C11.1523 10.5615 11.3086 10.5176 11.46 10.4687C11.4844 10.459 11.5088 10.4541 11.5381 10.4443C11.5771 10.4297 11.6211 10.4199 11.6602 10.4053C11.6895 10.3955 11.7187 10.3857 11.748 10.376C11.7725 10.3662 11.7969 10.3564 11.8213 10.3516C11.8506 10.3418 11.8799 10.332 11.9043 10.3174C12.0166 10.2734 12.1191 10.2295 12.2119 10.1855C12.2363 10.1758 12.2559 10.166 12.2803 10.1514C12.3047 10.1367 12.3291 10.127 12.3584 10.1123C12.3926 10.0928 12.4268 10.0781 12.4609 10.0586C12.4805 10.0488 12.4951 10.0391 12.5146 10.0293C12.5439 10.0146 12.5684 9.99512 12.5977 9.98047C12.6221 9.96582 12.6416 9.95117 12.6611 9.93652C12.6807 9.92187 12.7002 9.90723 12.7197 9.89258C12.7393 9.87793 12.7588 9.86328 12.7734 9.84863C12.793 9.83398 12.8076 9.81934 12.8271 9.80469C12.8613 9.77539 12.8906 9.74609 12.9199 9.7168C12.9346 9.70215 12.9443 9.6875 12.959 9.67773C12.9932 9.63867 13.0225 9.59473 13.0469 9.55566C13.0566 9.54102 13.0664 9.52637 13.0713 9.51172C13.0762 9.50195 13.0811 9.49219 13.0859 9.48242C13.0908 9.47754 13.0908 9.46777 13.0957 9.45801C13.0957 9.45312 13.0957 9.45312 13.1006 9.44824C13.1055 9.43848 13.1055 9.42871 13.1104 9.41894C13.1201 9.38965 13.1299 9.36035 13.1348 9.33105C13.1348 9.32617 13.1348 9.32129 13.1396 9.31641C13.1396 9.30176 13.1445 9.29199 13.1445 9.27734C13.1445 9.2627 13.1445 9.24805 13.1445 9.2334C13.1445 9.0625 13.0615 8.89648 12.9053 8.73535C12.5977 8.44727 11.9971 8.16406 11.1914 7.94922Z" fill="white"/>
<path d="M12.9492 10.6006H12.9346C12.9102 10.6152 12.8906 10.6299 12.8662 10.6445C12.8467 10.6543 12.8271 10.6689 12.8076 10.6787L12.8027 10.6836C12.7637 10.7031 12.7246 10.7275 12.6855 10.7471C12.6562 10.7617 12.627 10.7764 12.5977 10.791C12.583 10.8008 12.5635 10.8057 12.5488 10.8154L12.5146 10.8301C12.3975 10.8838 12.2803 10.9326 12.1631 10.9766L12.0654 11.0156C12.041 11.0254 12.0117 11.0352 11.9873 11.0449C11.958 11.0547 11.9238 11.0693 11.8896 11.0791C11.8506 11.0937 11.8018 11.1084 11.7578 11.123C11.7285 11.1328 11.6992 11.1426 11.6699 11.1523C11.5137 11.2012 11.3428 11.25 11.167 11.2939C11.123 11.3037 11.0791 11.3135 11.0352 11.3232C10.7861 11.3818 10.5273 11.4355 10.2637 11.4795L10.1465 11.499C10.1074 11.5039 10.0684 11.5137 10.0293 11.5186C10 11.5234 9.96582 11.5283 9.93164 11.5332C9.88769 11.5381 9.84375 11.5479 9.7998 11.5527C9.75098 11.5625 9.70215 11.5674 9.65332 11.5723C9.45801 11.5967 9.25293 11.6211 9.03809 11.6455C9.01367 11.6455 8.98437 11.6504 8.95996 11.6553L8.70605 11.6748L8.39355 11.7041L8.38867 11.6992C8.36914 11.6992 8.34961 11.7041 8.33008 11.7041C8.28125 11.709 8.23242 11.709 8.17871 11.7139C8.1543 11.7139 8.125 11.7188 8.10059 11.7188C8.04199 11.7236 7.97852 11.7236 7.91992 11.7285C7.83203 11.7334 7.74902 11.7334 7.66113 11.7383C7.60254 11.7383 7.54395 11.7432 7.48535 11.7432H7.48047C7.41211 11.7432 7.34375 11.7432 7.28027 11.748C7.21191 11.748 7.13867 11.748 7.07031 11.748C6.95801 11.748 6.8457 11.748 6.73828 11.7432C6.68457 11.7432 6.63574 11.7432 6.58691 11.7383C6.47949 11.7334 6.37207 11.7334 6.26953 11.7285C6.2207 11.7285 6.17188 11.7236 6.12305 11.7236H6.11816C6.01563 11.7188 5.9082 11.7139 5.80566 11.709C5.6543 11.6992 5.50293 11.6895 5.35645 11.6748C5.32715 11.6748 5.30273 11.6699 5.27832 11.6699C5.23438 11.665 5.19531 11.6602 5.15137 11.6602C5.08789 11.6553 5.02441 11.6455 4.96094 11.6406C4.89746 11.6357 4.83887 11.626 4.77539 11.6211C4.5752 11.5967 4.37988 11.5723 4.19434 11.543C4.14551 11.5381 4.10156 11.5283 4.05273 11.5186C3.99902 11.5088 3.94531 11.5039 3.8916 11.4941C3.83301 11.4844 3.76953 11.4746 3.71094 11.46C3.48145 11.416 3.2666 11.3721 3.06641 11.3232C3.04199 11.3184 3.0127 11.3086 2.98828 11.3037L2.94922 11.2939C2.91016 11.2842 2.86621 11.2744 2.82715 11.2646C2.54883 11.1914 2.29492 11.1133 2.06055 11.0254C2.04102 11.0156 2.02148 11.0107 1.99707 11.001C1.99219 10.9961 1.98242 10.9961 1.97754 10.9912C1.93848 10.9766 1.9043 10.9619 1.86523 10.9473C1.71387 10.8838 1.57715 10.8203 1.4502 10.7568L1.42578 10.7422C1.39648 10.7275 1.36719 10.7129 1.33789 10.6934C1.29883 10.6738 1.26465 10.6494 1.23047 10.6299C1.20117 10.6152 1.17187 10.5957 1.14746 10.5762C1.13281 10.5664 1.11816 10.5566 1.10352 10.5469L1.03516 10.498C1.01563 10.4834 1.00098 10.4736 0.981445 10.459V12.8418C0.981445 13.8281 3.70117 14.6289 7.06055 14.6289C8.4668 14.6289 9.76562 14.4873 10.7959 14.2529C12.2217 13.9258 13.1396 13.418 13.1396 12.8418V10.4639C13.1348 10.4688 13.1299 10.4736 13.125 10.4736L12.9492 10.6006Z" fill="white"/>
<path d="M16.3232 10C16.3232 9.47754 15.8984 9.05762 15.3809 9.05762C14.8584 9.05762 14.4385 9.48242 14.4385 10C14.4385 10.5225 14.8633 10.9424 15.3809 10.9424C15.8984 10.9473 16.3232 10.5225 16.3232 10Z" fill="white"/>
</svg>
