<svg width="15" height="19" viewBox="0 0 15 19" fill="none" xmlns="http://www.w3.org/2000/svg">
<path d="M7.63114 0H2.42578V2.63425H7.63114V0ZM6.72682 1.62344H3.3301C3.15806 1.62344 3.02131 1.48778 3.02131 1.31713C3.02131 1.14647 3.15806 1.01082 3.3301 1.01082H6.72682C6.89886 1.01082 7.03562 1.14647 7.03562 1.31713C7.03562 1.48341 6.89886 1.62344 6.72682 1.62344Z" fill="white"/>
<path d="M1.80864 0H1.13812C0.511713 0 0 0.503221 0 1.12897V2.63425H1.80864V0Z" fill="white"/>
<path d="M10.0577 1.12897C10.0577 0.507597 9.55036 0 8.91955 0H8.24902V2.63425H10.0577V1.12897Z" fill="white"/>
<path d="M0 17.8183C0 18.4396 0.507302 18.9472 1.13812 18.9472H1.80864V16.313H0V17.8183Z" fill="white"/>
<path d="M8.24902 18.9472H8.91955C9.54595 18.9472 10.0577 18.444 10.0577 17.8183V16.313H8.24902V18.9472Z" fill="white"/>
<path d="M2.42578 18.9472H7.63114V16.313H2.42578V18.9472ZM5.02846 17.0394C5.3549 17.0394 5.62399 17.3019 5.62399 17.6301C5.62399 17.9583 5.3549 18.2209 5.02846 18.2209C4.69761 18.2209 4.43293 17.9583 4.43293 17.6301C4.43293 17.3063 4.70202 17.0394 5.02846 17.0394Z" fill="white"/>
<path d="M6.96989 13.5784L3.52906 15.4119L5.34653 12.0206C4.65836 11.0404 4.2834 9.86332 4.2834 8.65996C4.2834 7.11967 4.87893 5.66251 5.96411 4.5598C6.52876 3.98657 7.19046 3.54461 7.90951 3.24268H0V15.7007H10.0578V14.528C10.049 14.528 10.0446 14.528 10.0402 14.528C8.93734 14.4973 7.88304 14.1735 6.96989 13.5784Z" fill="white"/>
<path d="M10.1304 4.03467C7.81443 4.03467 5.87786 5.63622 5.38379 7.78476H5.46319V8.83058H6.2837C6.38516 8.83058 6.48662 8.83934 6.58367 8.86122C6.58367 6.92272 8.17175 5.34742 10.1304 5.34742C12.089 5.34742 13.6771 6.92272 13.6771 8.86559C13.6771 10.8085 12.089 12.3838 10.1304 12.3838C9.21282 12.3838 8.37467 12.0381 7.74826 11.4692V13.0795C8.45407 13.4733 9.26575 13.6965 10.1304 13.6965C12.8213 13.6965 15.0005 11.5349 15.0005 8.86559C14.9961 6.19633 12.8169 4.03467 10.1304 4.03467Z" fill="white"/>
<path d="M10.271 9.68838H9.41524C9.2432 9.68838 9.10645 9.82403 9.10645 9.99469C9.10645 10.1653 9.2432 10.301 9.41524 10.301H9.82108V10.5023C9.82108 10.6729 9.95783 10.8086 10.1299 10.8086C10.3019 10.8086 10.4387 10.6729 10.4387 10.5023V10.2835C10.8445 10.2047 11.1489 9.85029 11.1489 9.43021C11.1489 8.94886 10.7563 8.55941 10.271 8.55941H9.9843C9.83872 8.55941 9.72403 8.44127 9.72403 8.30124C9.72403 8.15684 9.84314 8.04307 9.9843 8.04307H10.8401C11.0121 8.04307 11.1489 7.90741 11.1489 7.73676C11.1489 7.5661 11.0121 7.43045 10.8401 7.43045H10.4387V7.22916C10.4387 7.0585 10.3019 6.92285 10.1299 6.92285C9.95783 6.92285 9.82108 7.0585 9.82108 7.22916V7.44795C9.41524 7.52672 9.10645 7.87678 9.10645 8.30124C9.10645 8.78258 9.49905 9.17203 9.9843 9.17203H10.271C10.4166 9.17203 10.5313 9.2858 10.5313 9.43021C10.5313 9.57023 10.4166 9.68838 10.271 9.68838Z" fill="white"/>
</svg>
