<svg width="28" height="21" viewBox="0 0 28 21" fill="none" xmlns="http://www.w3.org/2000/svg">
<path d="M1 12H27" stroke="white" stroke-width="0.7" stroke-linecap="round" stroke-linejoin="round"/>
<path d="M9 20L9 1" stroke="white" stroke-width="0.7" stroke-linejoin="round" stroke-dasharray="0.7 0.7"/>
<path d="M1 1V20H26.5" stroke="white" stroke-width="2" stroke-linecap="round" stroke-linejoin="round"/>
<circle cx="9" cy="12" r="1" fill="#FD7B7B"/>
<path d="M3.19318 0.766335L3.23011 0.545455H4.39062L4.35369 0.766335H3.90412L3.69957 2H3.43821L3.64276 0.766335H3.19318ZM4.37287 2L4.61435 0.545455H5.1598C5.27154 0.545455 5.36222 0.564867 5.43182 0.603693C5.50142 0.642519 5.54995 0.69697 5.57741 0.767045C5.60488 0.836648 5.6108 0.91785 5.59517 1.01065C5.58002 1.10346 5.54688 1.18419 5.49574 1.25284C5.44508 1.32102 5.37808 1.37382 5.29474 1.41122C5.21188 1.44863 5.11458 1.46733 5.00284 1.46733H4.61435L4.65128 1.24858H5.00497C5.07031 1.24858 5.12524 1.23958 5.16974 1.22159C5.21425 1.20312 5.24929 1.17637 5.27486 1.14134C5.3009 1.10582 5.31818 1.06226 5.3267 1.01065C5.33475 0.959044 5.33168 0.915009 5.31747 0.878551C5.30374 0.841619 5.27746 0.813684 5.23864 0.794744C5.20028 0.775331 5.14844 0.765625 5.0831 0.765625H4.84162L4.63636 2H4.37287ZM5.23366 1.34091L5.48438 2H5.19034L4.94602 1.34091H5.23366Z" fill="white"/>
<path d="M26.669 17.5114H26.9077L27.0398 17.6946L27.1257 17.8139L27.3487 18.125H27.093L26.9418 17.9162L26.8821 17.8168L26.669 17.5114ZM27.4702 17.2898C27.4446 17.4441 27.3942 17.5758 27.3189 17.6847C27.2441 17.7931 27.1527 17.8762 27.0447 17.9339C26.9373 17.9912 26.8215 18.0199 26.6974 18.0199C26.5672 18.0199 26.4555 17.9896 26.3622 17.929C26.2689 17.8679 26.2017 17.7805 26.1605 17.6669C26.1198 17.5533 26.1127 17.4169 26.1392 17.2578C26.1648 17.1039 26.215 16.9723 26.2898 16.8629C26.3646 16.7536 26.4562 16.67 26.5646 16.6122C26.6731 16.5545 26.79 16.5256 26.9155 16.5256C27.0447 16.5256 27.1555 16.5561 27.2479 16.6172C27.3407 16.6778 27.4074 16.7652 27.4482 16.8793C27.4893 16.9934 27.4967 17.1302 27.4702 17.2898ZM27.2109 17.2578C27.2285 17.1503 27.2268 17.0597 27.206 16.9858C27.1856 16.9119 27.1494 16.8563 27.0973 16.8189C27.0452 16.781 26.9811 16.7621 26.9048 16.7621C26.8224 16.7621 26.7462 16.7827 26.6761 16.8239C26.6065 16.8646 26.5473 16.9242 26.4986 17.0028C26.4503 17.0814 26.4171 17.1771 26.3991 17.2898C26.3802 17.3977 26.3814 17.4884 26.4027 17.5618C26.424 17.6352 26.4609 17.6906 26.5135 17.728C26.5661 17.7649 26.6302 17.7834 26.706 17.7834C26.7879 17.7834 26.8636 17.763 26.9332 17.7223C27.0028 17.6816 27.0618 17.6222 27.1101 17.544C27.1589 17.4659 27.1925 17.3705 27.2109 17.2578Z" fill="white"/>
</svg>
