<svg width="22" height="22" viewBox="0 0 22 22" fill="none" xmlns="http://www.w3.org/2000/svg">
<path d="M3.62301 4.248C1.93258 6.0899 0.996322 8.49997 1.00001 11C1.00001 16.523 5.47701 21 11 21C13.4365 21.0037 15.7899 20.1143 17.615 18.5M20.302 14.678C20.7647 13.507 21.0016 12.2591 21 11C21 5.477 16.523 1 11 1C9.76901 1 8.59001 1.223 7.50001 1.63" stroke="white" stroke-width="1.5" stroke-linecap="round" stroke-linejoin="round"/>
<path d="M8 14C8.644 14.86 9.843 15.35 11 15.391C12.114 15.431 13.19 15.055 13.697 14.193M11 15.391V17.5M8.5 8.5C8.5 9.681 9.352 10.165 10.386 10.5M14 7.5C13.315 6.815 12.109 6.339 11 6.309V4.5M2 2L20 20" stroke="white" stroke-width="1.5" stroke-linecap="round" stroke-linejoin="round"/>
</svg>
