<svg width="25" height="25" viewBox="0 0 25 25" fill="none" xmlns="http://www.w3.org/2000/svg">
<path d="M11.4795 0.871143C2.97561 3.2311 12.1809 7.97593 9.01985 9.67856C7.41848 10.5409 4.81916 10.4133 5.86276 6.07134C0.65339 10.3059 2.16818 19.954 8.21106 23.1368C6.88523 21.8832 6.05651 20.1089 6.05651 18.1441C6.05651 14.3539 9.13894 11.2715 12.9291 11.2715C16.7194 11.2715 19.8016 14.354 19.8016 18.1441C19.8016 19.9776 19.0804 21.6455 17.9066 22.879C25.2653 19.1211 23.9077 8.79326 19.0052 6.15371C20.1752 8.89658 19.5694 11.0053 18.1156 12.1811C18.8304 2.82026 8.52053 6.59229 11.4795 0.871094V0.871143ZM12.929 12.1839C9.632 12.1839 6.96906 14.847 6.96906 18.1441C6.96906 21.4412 9.63215 24.1042 12.929 24.1042C16.226 24.1042 18.8892 21.4412 18.8892 18.1441C18.8892 14.8471 16.2261 12.184 12.9291 12.184L12.929 12.1839ZM12.929 14.81C15.2231 14.81 17.0932 16.6801 17.0932 18.9742C17.0932 21.2682 15.2231 23.1368 12.9291 23.1368C10.6351 23.1368 8.76648 21.2682 8.76648 18.9742C8.76648 16.6801 10.6351 14.8101 12.9291 14.8101L12.929 14.81ZM12.929 15.7225C11.1282 15.7225 9.67903 17.1733 9.67903 18.9742C9.67903 20.775 11.1282 22.2243 12.929 22.2243C14.7299 22.2243 16.1807 20.775 16.1807 18.9742C16.1807 17.1734 14.73 15.7225 12.9291 15.7225H12.929ZM12.929 16.6334C14.2205 16.6334 15.2667 17.6812 15.2667 18.9726C15.2667 20.2641 14.2205 21.3103 12.9291 21.3103C11.6377 21.3103 10.59 20.2641 10.59 18.9726C10.59 18.562 10.6969 18.176 10.8829 17.8404C10.9728 18.4427 11.4916 18.9055 12.1189 18.9055C12.8093 18.9055 13.3686 18.3447 13.3686 17.6543C13.3686 17.2334 13.1611 16.8615 12.8422 16.635C12.871 16.6339 12.9001 16.6334 12.9291 16.6334H12.929Z" fill="white"/>
</svg>
