<svg width="25" height="25" viewBox="0 0 25 25" fill="none" xmlns="http://www.w3.org/2000/svg">
<path d="M20.8008 8.70117C21.6125 8.70117 22.2705 8.04315 22.2705 7.23145C22.2705 6.41974 21.6125 5.76172 20.8008 5.76172C19.9891 5.76172 19.3311 6.41974 19.3311 7.23145C19.3311 8.04315 19.9891 8.70117 20.8008 8.70117Z" fill="white"/>
<path d="M4.19922 8.70117C5.01093 8.70117 5.66895 8.04315 5.66895 7.23145C5.66895 6.41974 5.01093 5.76172 4.19922 5.76172C3.38751 5.76172 2.72949 6.41974 2.72949 7.23145C2.72949 8.04315 3.38751 8.70117 4.19922 8.70117Z" fill="white"/>
<path d="M6.99707 11.6504L10.5225 12.334L11.0107 11.7871L7.7832 10.3516L5.70801 9.42871L3.19824 9.74609L0.644531 13.9014L1.11816 14.4971L3.7207 11.5918L3.18848 20.9619H3.82324L5.86426 15.2686L8.34961 20.9619L9.08692 20.708L7.09961 12.085L6.99707 11.6504Z" fill="white"/>
<path d="M24.3555 13.9014L21.8018 9.74609L19.292 9.42871L17.2168 10.3516L13.9893 11.7871L14.4775 12.334L18.0029 11.6504L17.9004 12.085L15.9131 20.708L16.6504 20.9619L19.1357 15.2686L21.1768 20.9619H21.8115L21.2793 11.5918L23.8818 14.4971L24.3555 13.9014Z" fill="white"/>
<path d="M8.37891 13.3936L9.04297 12.7441L7.90039 12.5244L8.0127 13.0225L8.37891 13.3936Z" fill="white"/>
<path d="M17.0996 12.5244L15.957 12.7441L16.6211 13.3936L16.9873 13.0225L17.0996 12.5244Z" fill="white"/>
<path d="M12.447 7.15039C9.51853 7.15039 7.15039 9.51853 7.15039 12.447C7.15039 15.3755 9.51853 17.7436 12.447 17.7436C15.3755 17.7436 17.7436 15.3755 17.7436 12.447C17.7436 9.51853 15.3649 7.15039 12.447 7.15039ZM12.2038 11.707H12.6796C13.6099 11.707 14.3711 12.4681 14.3711 13.3985C14.3711 14.1597 13.8637 14.8046 13.1765 15.016V15.2063C13.1765 15.6186 12.8487 15.9464 12.4364 15.9464C12.0241 15.9464 11.6964 15.6186 11.6964 15.2063V15.09H11.2418C10.8295 15.09 10.5017 14.7623 10.5017 14.35C10.5017 13.9377 10.8295 13.6099 11.2418 13.6099H12.6796C12.7959 13.6099 12.891 13.5148 12.891 13.3985C12.891 13.2822 12.7959 13.187 12.6796 13.187H12.2038C11.2735 13.187 10.5123 12.4259 10.5123 11.4955C10.5123 10.7343 11.0198 10.0894 11.707 9.87799V9.68769C11.707 9.27538 12.0347 8.94764 12.447 8.94764C12.8593 8.94764 13.187 9.27538 13.187 9.68769V9.80398H13.6416C14.054 9.80398 14.3817 10.1317 14.3817 10.544C14.3817 10.9563 14.054 11.2841 13.6416 11.2841H12.2038C12.0876 11.2841 11.9924 11.3792 11.9924 11.4955C11.9924 11.6118 12.0876 11.707 12.2038 11.707Z" fill="white"/>
</svg>
