<svg width="29" height="30" viewBox="0 0 29 30" fill="none" xmlns="http://www.w3.org/2000/svg">
<path d="M5.71094 15.7095L0.337891 21.0825L7.84375 28.5884L13.2168 23.2153L5.71094 15.7095ZM7.68789 25.2579C7.57305 25.3728 7.42539 25.422 7.28594 25.422C7.13828 25.422 6.99063 25.3646 6.87578 25.2497L3.66836 22.0423C3.44688 21.8208 3.44688 21.4517 3.66836 21.2302C3.88984 21.0087 4.25898 21.0087 4.48047 21.2302L7.68789 24.4376C7.90938 24.6755 7.90938 25.0364 7.68789 25.2579Z" fill="#E2E3E3"/>
<path d="M7.9502 16.3244L12.6014 20.9756L22.8799 18.2193L10.7064 6.0459L7.9502 16.3244Z" fill="#E2E3E3"/>
<path d="M0.617188 25.5943L3.33242 28.3096L4.96484 27.3334L1.59336 23.9619L0.617188 25.5943Z" fill="#E2E3E3"/>
<path d="M10.4609 27.5877L14.8004 29.4826L17.1875 27.0873L12.8563 25.1924L10.4609 27.5877Z" fill="#E2E3E3"/>
<path d="M12.2405 4.58616C12.2897 4.86507 12.5276 5.07015 12.8065 5.07015C12.8393 5.07015 12.8721 5.07015 12.8967 5.06195C13.2084 5.01273 13.4217 4.71741 13.3725 4.4057L12.7573 0.632258C12.708 0.32054 12.4127 0.107258 12.101 0.156477C11.7893 0.205696 11.576 0.501008 11.6252 0.812727L12.2405 4.58616Z" fill="#E2E3E3"/>
<path d="M27.5152 14.7087L23.4957 14.7907C23.1758 14.7989 22.9297 15.0614 22.9297 15.3731C22.9379 15.6849 23.1922 15.9392 23.5039 15.9392H23.5121L27.5316 15.8571C27.8516 15.8489 28.0977 15.5864 28.0977 15.2747C28.0977 14.9548 27.8352 14.7005 27.5152 14.7087Z" fill="#E2E3E3"/>
<line x1="19" y1="9.29289" x2="23.2341" y2="5.05882" stroke="white" stroke-linecap="round"/>
</svg>
