<svg width="124" height="124" viewBox="0 0 124 124" fill="none" xmlns="http://www.w3.org/2000/svg">
<path d="M104.923 1.59009C104.045 1.59009 103.333 2.30185 103.333 3.17983C103.333 4.05781 104.045 4.76957 104.923 4.76957C105.801 4.76957 106.512 4.05781 106.512 3.17983C106.512 2.30185 105.801 1.59009 104.923 1.59009Z" fill="#414449"/>
<path d="M62.0001 3.17944C29.5145 3.17944 3.17969 29.5142 3.17969 61.9999C3.17969 94.4855 29.5145 120.82 62.0001 120.82C94.4857 120.82 120.821 94.4855 120.821 61.9999C120.821 29.5142 94.4857 3.17944 62.0001 3.17944Z" fill="#7BA8FF"/>
<path d="M114.462 0C110.95 0 108.103 2.847 108.103 6.35897C108.103 9.87093 110.95 12.7179 114.462 12.7179C117.973 12.7179 120.82 9.87093 120.82 6.35897C120.82 2.847 117.973 0 114.462 0Z" fill="#414449"/>
<path d="M120.82 17.4871C119.064 17.4871 117.641 18.9106 117.641 20.6665C117.641 22.4225 119.064 23.846 120.82 23.846C122.576 23.846 124 22.4225 124 20.6665C124 18.9106 122.576 17.4871 120.82 17.4871Z" fill="#1960EA"/>
<path d="M111.282 100.154C109.526 100.154 108.102 101.577 108.102 103.333C108.102 105.089 109.526 106.513 111.282 106.513C113.038 106.513 114.461 105.089 114.461 103.333C114.461 101.577 113.038 100.154 111.282 100.154ZM6.35897 76.3076C2.847 76.3076 0 79.1546 0 82.6666C0 86.1785 2.847 89.0255 6.35897 89.0255C9.87093 89.0255 12.7179 86.1785 12.7179 82.6666C12.7179 79.1546 9.87093 76.3076 6.35897 76.3076Z" fill="#8BA5D7"/>
<path d="M22.2566 117.641C20.5007 117.641 19.0771 119.065 19.0771 120.821C19.0771 122.577 20.5007 124 22.2566 124C24.0126 124 25.4361 122.577 25.4361 120.821C25.4361 119.065 24.0126 117.641 22.2566 117.641Z" fill="#1960EA"/>
<path d="M11.9245 60.4101C9.72958 60.4101 7.9502 62.1895 7.9502 64.3845C7.9502 66.5794 9.72958 68.3588 11.9245 68.3588C14.1195 68.3588 15.8989 66.5794 15.8989 64.3845C15.8989 62.1895 14.1195 60.4101 11.9245 60.4101ZM108.899 33.3845C107.582 33.3845 106.514 34.4521 106.514 35.7691C106.514 37.0861 107.582 38.1537 108.899 38.1537C110.216 38.1537 111.283 37.0861 111.283 35.7691C111.283 34.4521 110.216 33.3845 108.899 33.3845Z" fill="white"/>
<path d="M90.6144 78.7144C90.6144 94.944 77.4465 108.102 61.2042 108.102C44.9618 108.102 31.7939 94.944 31.7939 78.7144C31.7939 56.6726 58.7528 38.3047 58.7528 17.4871C64.8765 20.5457 74.6836 31.3607 74.6836 45.6509C74.6836 51.773 73.4579 57.8967 73.4579 57.8967C80.8104 55.4469 80.8104 46.8766 80.8104 46.8766C80.8104 46.8766 90.6144 60.3449 90.6144 78.7144Z" fill="#F15B6C"/>
<path d="M61.2047 109.215C44.3741 109.215 30.6816 95.5325 30.6816 78.713C30.6816 67.1937 37.7782 56.7189 44.6428 46.5891C51.3276 36.7232 57.6421 27.4057 57.6421 17.4857C57.6421 17.101 57.8424 16.7417 58.1699 16.5382C58.4973 16.3363 58.9075 16.3172 59.2525 16.4905C66.1217 19.9212 75.7985 31.237 75.7985 45.6496C75.7985 49.6859 75.285 53.6746 74.9162 56.0163C79.6139 53.212 79.6981 47.1582 79.6997 46.8737C79.7013 46.392 80.0129 45.9659 80.4707 45.8181C80.9302 45.6639 81.4294 45.8308 81.7123 46.2203C82.1209 46.783 91.7293 60.1957 91.7293 78.713C91.7277 95.5325 78.0353 109.215 61.2047 109.215ZM59.7962 19.3727C59.0585 29.2816 52.6725 38.7071 46.4837 47.8386C39.8099 57.6903 32.9073 67.8773 32.9073 78.7146C32.9073 94.3068 45.6014 106.99 61.2047 106.99C76.808 106.99 89.5021 94.3052 89.5021 78.7146C89.5021 65.4339 84.1987 54.6586 81.4786 50.007C80.7505 52.9942 78.8381 57.2769 73.8113 58.9525C73.4377 59.0797 73.0212 58.9938 72.7223 58.7299C72.4251 58.4676 72.2899 58.067 72.3678 57.6775C72.3806 57.6187 73.5713 51.5856 73.5713 45.6511C73.5713 33.4054 65.8419 23.3137 59.7962 19.3727Z" fill="#472B29"/>
<path d="M71.1568 67.081C66.2922 58.5409 60.5198 53.6111 60.5198 53.6111C60.5198 70.7549 44.5127 79.3267 44.5127 90.9589C44.5127 100.089 51.9543 107.491 61.135 107.491C70.3158 107.491 77.7574 100.089 77.7574 90.9589C77.7574 89.0623 77.6254 87.2278 77.4029 85.4488C76.4633 78.9706 74.4014 72.8406 71.1568 67.081Z" fill="#F69272"/>
<path d="M73.1022 71.5495C72.8034 71.5495 72.5188 71.3825 72.3821 71.0948C72.1881 70.683 71.991 70.284 71.7907 69.8866C71.5936 69.4939 71.7525 69.0154 72.1452 68.8183C72.5379 68.6227 73.0148 68.7817 73.2119 69.1728C73.417 69.5829 73.6205 69.9947 73.8192 70.4144C74.0068 70.8118 73.8367 71.2856 73.4393 71.4731C73.3312 71.524 73.2167 71.5495 73.1022 71.5495Z" fill="#472B29"/>
<path d="M75.8873 78.8958C75.5424 78.8958 75.226 78.67 75.1243 78.325C74.6505 76.7051 74.083 75.0836 73.436 73.5049C73.2706 73.098 73.4646 72.6338 73.87 72.4684C74.2737 72.3031 74.7395 72.497 74.9065 72.9024C75.5726 74.5319 76.1592 76.2059 76.6488 77.8783C76.7728 78.3012 76.5296 78.7416 76.1083 78.864C76.0368 78.8846 75.9621 78.8958 75.8873 78.8958Z" fill="#472B29"/>
<path d="M61.135 108.285C51.5314 108.285 43.7178 100.511 43.7178 90.9586C43.7178 85.4518 47.1135 80.638 50.7095 75.5397C54.935 69.548 59.7233 62.7598 59.7233 53.6108C59.7233 53.3008 59.9029 53.0194 60.1859 52.8891C60.4689 52.7603 60.7995 52.8064 61.0348 53.0067C61.2749 53.2118 66.9677 58.1257 71.8467 66.688C72.0644 67.068 71.9309 67.5544 71.5494 67.7722C71.1662 67.9868 70.6814 67.8565 70.4652 67.4734C67.0695 61.5134 63.2016 57.3133 61.2574 55.3929C60.6962 64.1365 56.0971 70.6592 52.0083 76.4538C48.4139 81.5537 45.3075 85.9557 45.3075 90.9586C45.3075 99.637 52.4073 106.695 61.135 106.695C69.8627 106.695 76.9624 99.637 76.9624 90.9586C76.9624 89.1908 76.848 87.4199 76.6143 85.5487C76.5602 85.1131 76.8686 84.7157 77.3042 84.6601C77.7462 84.6092 78.1357 84.9144 78.1913 85.35C78.4345 87.2911 78.5522 89.1241 78.5522 90.9586C78.5522 100.513 70.7386 108.285 61.135 108.285Z" fill="#472B29"/>
<path d="M64.3088 75.6527C63.5394 74.4286 62.735 73.2045 61.8622 71.9788C61.8622 82.9988 50.8691 87.8984 50.8691 97.0824C50.8691 102.831 55.5175 107.49 61.2501 107.49C66.9828 107.49 71.6312 102.829 71.6312 97.0824C71.6312 95.6723 71.5103 94.2415 71.2862 92.7964C69.9206 86.7967 67.7983 81.0228 64.3088 75.6527Z" fill="#F9E65C"/>
<path d="M69.2931 86.2433C68.972 86.2433 68.67 86.0478 68.5507 85.7314C68.3981 85.3292 68.2391 84.9302 68.0738 84.5264C67.9069 84.121 68.0992 83.6568 68.5046 83.4899C68.9084 83.3245 69.3742 83.5137 69.5427 83.9207C69.7144 84.3372 69.8782 84.7505 70.0371 85.1654C70.1929 85.5756 69.9879 86.035 69.5761 86.1924C69.4823 86.2258 69.3869 86.2433 69.2931 86.2433Z" fill="#472B29"/>
<path d="M67.706 82.5696C67.4087 82.5696 67.1257 82.4043 66.989 82.1197C66.6027 81.3153 66.1973 80.5109 65.7617 79.7033C65.5519 79.317 65.695 78.8353 66.0813 78.6255C66.466 78.414 66.9493 78.5587 67.1591 78.945C67.609 79.7733 68.0255 80.6031 68.4229 81.4298C68.6137 81.8256 68.4468 82.3009 68.0509 82.4901C67.9381 82.5458 67.822 82.5696 67.706 82.5696Z" fill="#472B29"/>
<path d="M61.2511 108.285C55.0892 108.285 50.0752 103.258 50.0752 97.0808C50.0752 92.4371 52.6379 88.9508 55.35 85.2578C58.1606 81.4329 61.0667 77.4777 61.0667 71.9771C61.0667 71.6306 61.2908 71.3254 61.6199 71.2188C61.9506 71.1203 62.3083 71.2331 62.5102 71.5161C63.3034 72.6289 64.0888 73.8069 64.9822 75.2266C65.2159 75.5986 65.1046 76.0898 64.7326 76.3219C64.3622 76.562 63.871 76.4427 63.6373 76.0739C63.2398 75.4428 62.8647 74.8578 62.5006 74.3093C61.8377 79.1167 59.1971 82.7095 56.6329 86.199C54.0798 89.6741 51.6665 92.957 51.6665 97.0792C51.6665 102.381 55.9668 106.694 61.2527 106.694C66.5386 106.694 70.8404 102.381 70.8404 97.0792C70.8404 95.7533 70.7275 94.3528 70.505 92.9156C70.4382 92.4832 70.7355 92.0762 71.1679 92.0095C71.6003 91.9427 72.0089 92.24 72.0756 92.674C72.3109 94.1906 72.4301 95.6738 72.4301 97.0792C72.4286 103.258 67.4145 108.285 61.2511 108.285Z" fill="#472B29"/>
</svg>
