<svg width="108" height="108" viewBox="0 0 108 108" fill="none" xmlns="http://www.w3.org/2000/svg">
<path d="M83.1601 12.96C82.5636 12.96 82.0801 13.4435 82.0801 14.04C82.0801 14.6364 82.5636 15.12 83.1601 15.12C83.7565 15.12 84.2401 14.6364 84.2401 14.04C84.2401 13.4435 83.7565 12.96 83.1601 12.96Z" fill="#85BDFF"/>
<path d="M54 14.0398C31.9307 14.0398 14.04 31.9305 14.04 53.9998C14.04 76.0691 31.9307 93.9598 54 93.9598C76.0693 93.9598 93.96 76.0691 93.96 53.9998C93.96 31.9305 76.0693 14.0398 54 14.0398Z" fill="#7EA9FE"/>
<path d="M89.6398 11.8799C87.254 11.8799 85.3198 13.814 85.3198 16.1999C85.3198 18.5858 87.254 20.5199 89.6398 20.5199C92.0257 20.5199 93.9598 18.5858 93.9598 16.1999C93.9598 13.814 92.0257 11.8799 89.6398 11.8799Z" fill="#85BDFF"/>
<path d="M93.9598 23.7598C92.7669 23.7598 91.7998 24.7268 91.7998 25.9198C91.7998 27.1127 92.7669 28.0798 93.9598 28.0798C95.1527 28.0798 96.1198 27.1127 96.1198 25.9198C96.1198 24.7268 95.1527 23.7598 93.9598 23.7598Z" fill="#223C57"/>
<path d="M87.4799 79.9197C86.2869 79.9197 85.3199 80.8868 85.3199 82.0797C85.3199 83.2727 86.2869 84.2397 87.4799 84.2397C88.6728 84.2397 89.6399 83.2727 89.6399 82.0797C89.6399 80.8868 88.6728 79.9197 87.4799 79.9197ZM16.1999 63.7197C13.814 63.7197 11.8799 65.6539 11.8799 68.0397C11.8799 70.4256 13.814 72.3597 16.1999 72.3597C18.5858 72.3597 20.5199 70.4256 20.5199 68.0397C20.5199 65.6539 18.5858 63.7197 16.1999 63.7197Z" fill="#8A73CA"/>
<path d="M26.9998 91.7998C25.8069 91.7998 24.8398 92.7669 24.8398 93.9598C24.8398 95.1527 25.8069 96.1198 26.9998 96.1198C28.1928 96.1198 29.1598 95.1527 29.1598 93.9598C29.1598 92.7669 28.1928 91.7998 26.9998 91.7998Z" fill="#223C57"/>
<path d="M19.9798 52.9198C18.4886 52.9198 17.2798 54.1286 17.2798 55.6198C17.2798 57.111 18.4886 58.3198 19.9798 58.3198C21.471 58.3198 22.6798 57.111 22.6798 55.6198C22.6798 54.1286 21.471 52.9198 19.9798 52.9198ZM85.8598 34.5598C84.9651 34.5598 84.2398 35.2851 84.2398 36.1798C84.2398 37.0745 84.9651 37.7998 85.8598 37.7998C86.7545 37.7998 87.4798 37.0745 87.4798 36.1798C87.4798 35.2851 86.7545 34.5598 85.8598 34.5598Z" fill="white"/>
<path d="M41.0402 79.92V72.36C41.0402 69.795 40.2647 64.6509 36.7202 60.48C33.2231 56.3652 30.2402 49.68 31.3202 44.28C32.4002 38.88 35.6402 24.84 49.6802 23.76C63.7202 22.68 73.4402 25.92 77.7602 37.8C78.7991 40.9082 77.7148 42.1653 77.1305 43.2453L82.8459 52.245C83.5663 53.19 84.0155 55.89 82.2163 56.3846C80.0455 56.9818 77.7602 57.24 77.7602 57.24L78.6598 67.095C78.8855 70.2896 77.9848 73.2596 74.5202 73.44C71.2845 73.6084 65.8802 73.44 65.8802 73.44V84.24" fill="#376ED8"/>
<path d="M65.88 84.9958C65.462 84.9958 65.124 84.6578 65.124 84.2399V73.4399C65.124 73.2357 65.2071 73.0392 65.354 72.8966C65.5009 72.7551 65.7169 72.6579 65.9037 72.6849C65.9566 72.6871 71.3145 72.848 74.4811 72.6849C75.5319 72.6299 76.3171 72.2929 76.883 71.6535C77.909 70.4936 78.0062 68.5637 77.9058 67.1478L77.0061 57.309C76.9683 56.8997 77.2653 56.5357 77.6746 56.4893C77.6973 56.486 79.9297 56.2301 82.0141 55.6566C82.324 55.5713 82.5109 55.3855 82.6232 55.0539C82.8835 54.2828 82.567 53.1294 82.243 52.7028L76.491 43.6502C76.3441 43.4191 76.3333 43.1264 76.465 42.8845C76.5331 42.7603 76.6065 42.6329 76.6843 42.5C77.2351 41.5539 77.8593 40.4826 77.0428 38.0396C73.2218 27.5323 64.7989 23.3581 49.7383 24.5148C35.8311 25.584 32.994 39.7676 32.0619 44.4289C31.0154 49.6572 34.0416 56.1599 37.2956 59.9906C40.6134 63.8948 41.796 68.9395 41.796 72.3599V79.9199C41.796 80.3378 41.4579 80.6758 41.04 80.6758C40.622 80.6758 40.284 80.3378 40.284 79.9199V72.3599C40.284 71.2712 40.0842 65.6066 36.1443 60.9691C32.5447 56.7333 29.4278 49.884 30.5791 44.1308C33.2294 30.8814 39.636 23.7739 49.6227 23.0049C65.4771 21.7813 74.372 26.2676 78.4706 37.5407C79.4988 40.6143 78.6175 42.1847 78.0127 43.2236L83.4829 51.8399C84.0715 52.6077 84.483 54.2753 84.0564 55.5378C83.7864 56.337 83.2032 56.8975 82.4148 57.1135C80.9449 57.5185 79.4426 57.768 78.5786 57.8943L79.4124 67.0268C79.5852 69.4849 79.1013 71.4267 78.0148 72.6558C77.1778 73.6019 76.0147 74.1192 74.5588 74.1959C72.0273 74.3287 68.257 74.2596 66.636 74.2175V84.2399C66.636 84.6578 66.2979 84.9958 65.88 84.9958Z" fill="#472B29"/>
<path d="M34.6505 56.2874C33.6774 56.0153 32.7389 55.633 31.849 55.1459C32.3426 53.5356 31.9786 52.0841 30.7776 50.9155C29.9622 50.1239 29.0194 49.7221 27.974 49.7221C27.5258 49.7221 27.0614 49.7977 26.5851 49.9489C26.0872 49.0676 25.6941 48.1388 25.4122 47.1766C26.9426 46.3774 27.7266 45.0706 27.6856 43.3663C27.6467 41.7323 26.8464 40.4924 25.3604 39.7472C25.6304 38.7796 26.0094 37.8454 26.4922 36.9598C26.9858 37.1207 27.4674 37.2038 27.9318 37.2038C29.0064 37.2038 29.9709 36.7772 30.7982 35.937C31.9786 34.7371 32.3026 33.2662 31.7518 31.6537C32.619 31.1677 33.55 30.7789 34.5285 30.4916C35.2996 32.0296 36.5686 32.8374 38.2318 32.8374C38.3592 32.8374 38.4899 32.832 38.6228 32.8223C40.1682 32.71 41.3325 31.901 42.0204 30.4744C42.9849 30.7487 43.9158 31.1321 44.8025 31.6224C44.2593 33.2618 44.5995 34.7414 45.808 35.9316C46.631 36.7438 47.5824 37.1563 48.6354 37.1563C49.1085 37.1563 49.5977 37.071 50.0977 36.9014C50.4801 37.5991 51.0093 38.8606 51.2415 39.6792C49.6906 40.4741 48.8946 41.7841 48.9303 43.5013C48.9637 45.1148 49.7511 46.3525 51.2166 47.1118C50.938 48.0773 50.5492 49.0082 50.0556 49.8917C49.5815 49.747 49.1193 49.6746 48.6765 49.6746C47.4863 49.6746 46.4484 50.1822 45.5909 51.1823C44.6265 52.3066 44.3651 53.6555 44.8209 55.1146C43.9385 55.6027 43.0011 55.9915 42.0258 56.2712C41.2828 54.8543 39.922 54.0238 38.3031 54.0238C36.7446 54.0421 35.3806 54.9137 34.6505 56.2874ZM38.2955 40.1965C36.5448 40.1965 35.1149 41.6146 35.1063 43.3598C35.103 44.2109 35.4313 45.0122 36.0318 45.616C36.6312 46.2197 37.4315 46.5534 38.2836 46.5577C40.0268 46.548 41.4243 45.1915 41.474 43.4711C41.4988 42.6082 41.1834 41.7906 40.5862 41.1707C39.99 40.5508 39.1887 40.2052 38.3279 40.1976C38.3257 40.1965 38.2977 40.1965 38.2955 40.1965Z" fill="#AFABD4"/>
<path d="M42.381 31.3772C42.9038 31.5532 43.4157 31.7649 43.9146 32.0111C43.5572 33.6819 44.0205 35.2306 45.2765 36.4704C46.2312 37.4144 47.3933 37.9122 48.6342 37.9122C48.9863 37.9122 49.3449 37.8723 49.7067 37.7934C49.927 38.2643 50.1624 38.84 50.3374 39.3324C48.8956 40.2828 48.1364 41.7311 48.1742 43.5164C48.2087 45.1882 48.9582 46.5501 50.3158 47.4551C50.1344 47.9876 49.9173 48.5092 49.6635 49.0157C49.3287 48.9509 48.9993 48.9185 48.6764 48.9185C47.2756 48.9185 46.0109 49.5309 45.0162 50.6886C44.0237 51.8453 43.6587 53.2428 43.9427 54.7192C43.4308 54.973 42.9027 55.1922 42.3605 55.3737C41.4382 54.0507 39.9651 53.2655 38.2997 53.2655C38.2932 53.2655 38.2382 53.2655 38.2317 53.2655C36.6538 53.286 35.2142 54.0917 34.3091 55.3942C33.7659 55.216 33.2388 55.0011 32.7237 54.7484C33.0347 53.1057 32.5509 51.5861 31.3035 50.3733C30.3563 49.451 29.204 48.9639 27.9728 48.9639C27.6444 48.9639 27.3096 48.9984 26.9705 49.0665C26.7156 48.5632 26.4964 48.0459 26.3139 47.5156C27.7373 46.562 28.4825 45.1191 28.4404 43.3446C28.4004 41.6512 27.6358 40.285 26.2577 39.3886C26.4316 38.8616 26.6411 38.3453 26.8841 37.8442C27.2384 37.9187 27.5872 37.9565 27.9306 37.9565C29.1975 37.9565 30.3747 37.4392 31.3359 36.4629C32.5606 35.2176 33.0045 33.6797 32.6416 32.0338C33.1352 31.7876 33.6471 31.5737 34.1752 31.3923C35.0975 32.82 36.5004 33.589 38.2317 33.589C38.3764 33.589 38.5254 33.5836 38.6777 33.5717C40.2696 33.4583 41.5473 32.6904 42.381 31.3772ZM38.2878 47.3126C38.29 47.3126 38.2932 47.3126 38.2954 47.3126C40.4403 47.3007 42.1683 45.6224 42.2298 43.4904C42.2601 42.4234 41.8702 41.4136 41.1315 40.6457C40.3938 39.8789 39.4002 39.4512 38.2976 39.4404C36.1311 39.4404 34.361 41.1965 34.3512 43.3554C34.3415 45.5273 36.1041 47.3028 38.2803 47.3126C38.2824 47.3126 38.2846 47.3126 38.2878 47.3126ZM41.5721 29.5779C41.0699 31.0402 40.0947 31.956 38.5665 32.0684C38.452 32.077 38.3408 32.0813 38.2317 32.0813C36.6095 32.0813 35.5425 31.1601 34.9604 29.593C33.4743 29.9559 32.0897 30.5315 30.8045 31.335C31.5119 32.8276 31.4201 34.224 30.258 35.4056C29.556 36.1194 28.7709 36.4478 27.9306 36.4478C27.3636 36.4478 26.7707 36.2987 26.1616 36.0179C25.3743 37.3139 24.8084 38.7006 24.4692 40.1856C25.9802 40.7397 26.8917 41.7765 26.9295 43.3835C26.9694 45.0554 26.0676 46.1505 24.5157 46.7531C24.8732 48.2262 25.4564 49.5968 26.2599 50.8809C26.8496 50.6184 27.423 50.478 27.9728 50.478C28.7914 50.478 29.5582 50.7869 30.2494 51.4587C31.4266 52.6035 31.5692 53.987 30.9179 55.4817C32.2139 56.2701 33.5942 56.8338 35.0694 57.174C35.091 57.1298 35.1083 57.1038 35.1191 57.0758C35.6526 55.6847 36.8644 54.7959 38.25 54.7786C38.2662 54.7786 38.2824 54.7786 38.2986 54.7786C39.7588 54.7786 40.9662 55.6026 41.5278 56.9991C41.57 57.1028 41.6153 57.1352 41.6801 57.1352C41.7125 57.1352 41.7492 57.1276 41.7924 57.1168C43.1284 56.7788 44.3877 56.2593 45.5703 55.554C45.6351 55.5152 45.6966 55.4709 45.7474 55.4374C45.1458 54.082 45.2009 52.7946 46.1621 51.6747C46.8922 50.8236 47.7411 50.4316 48.6742 50.4316C49.2185 50.4316 49.7909 50.5655 50.386 50.8182C51.183 49.5298 51.7576 48.156 52.1075 46.6851C50.6182 46.1148 49.7175 45.0942 49.684 43.4861C49.6484 41.7905 50.5664 40.717 52.1032 40.1208C52.0092 39.1953 50.9314 36.5914 50.3849 35.9715C49.7844 36.2523 49.1969 36.4013 48.6321 36.4013C47.8091 36.4013 47.0337 36.0849 46.336 35.3958C45.1415 34.2165 45.0476 32.8049 45.7409 31.2983C44.4482 30.4991 43.0582 29.9224 41.5721 29.5779ZM38.2868 45.8006C36.94 45.7941 35.8557 44.7033 35.8622 43.3619C35.8686 42.0249 36.9519 40.9514 38.2976 40.9514C38.3051 40.9514 38.3138 40.9514 38.3213 40.9514C39.6767 40.9643 40.7578 42.0875 40.7178 43.4472C40.6822 44.7119 39.654 45.793 38.2868 45.8006Z" fill="#472B29"/>
<path d="M46.7972 41.2105C45.6016 36.5125 40.8226 33.6732 36.1246 34.8698C31.4266 36.0654 28.5873 40.8444 29.7839 45.5424C30.9795 50.2404 35.7585 53.0797 40.4565 51.8831C45.1545 50.6875 47.9938 45.9085 46.7972 41.2105ZM40.0201 50.1691C36.2682 51.1238 32.4526 48.8569 31.4979 45.105C30.5432 41.3531 32.8101 37.5374 36.562 36.5827C40.3139 35.628 44.1295 37.8949 45.0843 41.6468C46.039 45.3988 43.7721 49.2144 40.0201 50.1691Z" fill="#7777AB"/>
<path d="M31.1836 43.6459C31.0345 43.6459 30.9136 43.525 30.9136 43.3759C30.9136 39.3076 34.2227 35.9995 38.29 35.9995C39.384 35.9995 40.4381 36.2339 41.4231 36.6972C41.5581 36.7609 41.6164 36.9218 41.5527 37.0568C41.4889 37.1929 41.328 37.2469 41.193 37.1864C40.2804 36.7577 39.303 36.5395 38.29 36.5395C34.5208 36.5395 31.4536 39.6067 31.4536 43.3759C31.4536 43.525 31.3326 43.6459 31.1836 43.6459ZM38.29 50.7523C35.0489 50.7523 32.2204 48.6766 31.2505 45.5878C31.2063 45.4452 31.2851 45.294 31.4277 45.2497C31.5713 45.2054 31.7214 45.2843 31.7657 45.4258C32.6643 48.2888 35.2854 50.2134 38.29 50.2134C39.8333 50.2134 41.2902 49.7112 42.5031 48.7608C42.6208 48.6679 42.7903 48.6884 42.8821 48.8062C42.9739 48.9228 42.9534 49.0934 42.8368 49.1852C41.5278 50.2102 39.9553 50.7523 38.29 50.7523ZM43.8433 48.0804C43.7839 48.0804 43.7245 48.061 43.6749 48.021C43.5582 47.9281 43.5399 47.7575 43.6327 47.6408C44.6101 46.4194 45.1264 44.9452 45.1264 43.3759C45.1264 42.5162 44.9687 41.6792 44.6587 40.8854C44.6047 40.7472 44.6728 40.5906 44.8121 40.5366C44.9525 40.4837 45.108 40.5517 45.162 40.69C45.4968 41.5453 45.6664 42.4493 45.6664 43.3759C45.6664 45.0445 45.094 46.6796 44.055 47.9789C44.001 48.0448 43.9222 48.0804 43.8433 48.0804Z" fill="#472B29"/>
<path d="M44.1447 39.6177C44.0593 39.6177 43.9751 39.5766 43.9222 39.501C43.5517 38.9653 43.1079 38.4847 42.6013 38.0733C42.4858 37.9782 42.4674 37.8087 42.5625 37.692C42.6564 37.5765 42.8271 37.5613 42.9426 37.6531C43.4891 38.0981 43.9675 38.6165 44.3661 39.1954C44.4514 39.3174 44.4201 39.4859 44.298 39.5712C44.2516 39.6015 44.1976 39.6177 44.1447 39.6177Z" fill="#472B29"/>
<path d="M58.0508 70.7725C59.3781 71.4842 61.1255 72.1829 63.2704 72.5404L58.0508 70.7725Z" fill="#376ED8"/>
<path d="M63.2706 73.0803C63.2415 73.0803 63.2112 73.0782 63.181 73.0728C61.2705 72.7542 59.4582 72.1407 57.795 71.2486C57.5326 71.1082 57.4332 70.7799 57.5747 70.5175C57.7151 70.2561 58.0424 70.1546 58.3059 70.2971C59.8654 71.1331 61.5653 71.7087 63.3592 72.0079C63.653 72.0565 63.8528 72.3351 63.8031 72.6289C63.7588 72.8935 63.5298 73.0803 63.2706 73.0803Z" fill="#472B29"/>
<path d="M54.9902 68.5796C54.9902 68.5796 55.3952 69.0094 56.1858 69.5948L54.9902 68.5796Z" fill="#376ED8"/>
<path d="M56.1848 70.1349C56.0736 70.1349 55.9602 70.1003 55.8641 70.0291C55.0433 69.421 54.6134 68.9685 54.5962 68.9491C54.392 68.732 54.4028 68.3907 54.6188 68.1866C54.8348 67.9835 55.1772 67.9922 55.3813 68.2082C55.3856 68.2125 55.7712 68.6175 56.5067 69.1607C56.7464 69.3389 56.7972 69.677 56.619 69.9167C56.5142 70.0593 56.3512 70.1349 56.1848 70.1349Z" fill="#472B29"/>
</svg>
