<svg width="94" height="94" viewBox="0 0 94 94" fill="none" xmlns="http://www.w3.org/2000/svg">
<path d="M43.9155 19.2407C43.9155 15.5688 40.978 12.6313 37.3062 12.6313C33.6343 12.6313 30.6968 15.5688 30.6968 19.2407C29.4483 18.286 27.9796 17.772 26.2905 17.772C22.2515 17.772 18.9468 21.0767 18.9468 25.1157C18.9468 25.9235 19.0937 26.6579 19.314 27.3188C19.1671 27.3188 19.0937 27.3188 18.9468 27.3188C14.4671 27.3188 10.8687 30.9173 10.8687 35.397C10.8687 37.1595 11.3827 38.7017 12.3374 40.0235C9.25303 42.0063 7.19678 45.3845 7.19678 49.3501C7.19678 53.2423 9.25303 56.6938 12.264 58.6032C11.3827 60.2188 10.8687 62.0548 10.8687 64.0376C10.8687 70.1329 15.789 75.0532 21.8843 75.0532C22.1046 75.0532 22.3249 75.0532 22.5452 75.0532C24.014 79.3126 28.1265 82.397 32.8999 82.397C38.9952 82.397 43.9155 77.4767 43.9155 71.3813C43.9155 65.3595 43.9155 22.9126 43.9155 19.2407Z" fill="#4785FF"/>
<path d="M7.12354 49.2031C7.12354 45.3109 9.17979 41.8594 12.2642 39.8766C11.3095 38.5547 10.7954 36.9391 10.7954 35.25C10.7954 30.7703 14.3938 27.1719 18.8735 27.1719C19.0204 27.1719 19.0938 27.1719 19.2407 27.1719C19.0204 26.4375 18.8735 25.7031 18.8735 24.9688C18.8735 20.9297 22.1782 17.625 26.2173 17.625C27.3188 17.625 28.347 17.8453 29.2282 18.2859C22.7657 26.3641 18.7267 37.7469 18.7267 50.525C18.7267 62.4219 22.2517 73.2172 28.0532 81.1484C25.4829 79.9 23.4267 77.6234 22.472 74.9062C22.2517 74.9062 22.0313 74.9062 21.811 74.9062C15.7157 74.9062 10.7954 69.9859 10.7954 63.8906C10.7954 61.9078 11.3095 60.0719 12.1907 58.4562C9.17979 56.5469 7.12354 53.0953 7.12354 49.2031Z" fill="#4785FF"/>
<path d="M18.2124 62.5688C10.9421 62.5688 4.99365 56.6204 4.99365 49.3501C4.99365 48.1017 5.94834 47.147 7.19678 47.147C8.44521 47.147 9.3999 48.1017 9.3999 49.3501C9.3999 54.197 13.3655 58.1626 18.2124 58.1626C23.0593 58.1626 27.0249 54.197 27.0249 49.3501V45.6782C27.0249 44.4298 27.9796 43.4751 29.228 43.4751C30.4765 43.4751 31.4312 44.4298 31.4312 45.6782V49.3501C31.4312 56.6938 25.4827 62.5688 18.2124 62.5688ZM26.2905 34.6626C21.003 34.6626 16.7437 30.4032 16.7437 25.1157C16.7437 23.8673 17.6983 22.9126 18.9468 22.9126C20.1952 22.9126 21.1499 23.8673 21.1499 25.1157C21.1499 27.9798 23.4265 30.2563 26.2905 30.2563C27.539 30.2563 28.4937 31.211 28.4937 32.4595C28.4937 33.7079 27.539 34.6626 26.2905 34.6626Z" fill="#454B54"/>
<path d="M51.2593 19.2407C51.2593 15.5688 54.1968 12.6313 57.8687 12.6313C61.5405 12.6313 64.478 15.5688 64.478 19.2407C65.7265 18.286 67.1952 17.772 68.8843 17.772C72.9233 17.772 76.228 21.0767 76.228 25.1157C76.228 25.9235 76.0812 26.6579 75.8608 27.3188C76.0077 27.3188 76.0812 27.3188 76.228 27.3188C80.7077 27.3188 84.3062 30.9173 84.3062 35.397C84.3062 37.1595 83.7921 38.7017 82.8374 40.0235C85.9218 42.0063 87.978 45.3845 87.978 49.3501C87.978 53.2423 85.9218 56.6938 82.9108 58.6032C83.7921 60.2188 84.3062 62.0548 84.3062 64.0376C84.3062 70.1329 79.3858 75.0532 73.2905 75.0532C73.0702 75.0532 72.8499 75.0532 72.6296 75.0532C71.1608 79.3126 67.0483 82.397 62.2749 82.397C56.1796 82.397 51.2593 77.4767 51.2593 71.3813C51.2593 65.3595 51.2593 22.9126 51.2593 19.2407Z" fill="#1867FF"/>
<path d="M87.9782 49.3501C87.9782 45.4579 85.922 42.0063 82.8376 40.0235C83.7923 38.7017 84.3064 37.086 84.3064 35.397C84.3064 30.9173 80.7079 27.3188 76.2282 27.3188C76.0814 27.3188 76.0079 27.3188 75.861 27.3188C76.0814 26.5845 76.2282 25.8501 76.2282 25.1157C76.2282 21.0767 72.9235 17.772 68.8845 17.772C67.7829 17.772 66.7548 17.9923 65.8735 18.4329C72.336 26.511 76.3751 37.9673 76.3751 50.672C76.3751 62.5688 72.8501 73.3642 67.0485 81.2954C69.6189 80.047 71.6751 77.7704 72.6298 75.0532C72.8501 75.0532 73.0704 75.0532 73.2907 75.0532C79.386 75.0532 84.3064 70.1329 84.3064 64.0376C84.3064 62.0548 83.7923 60.2188 82.911 58.6032C85.922 56.6938 87.9782 53.3157 87.9782 49.3501Z" fill="#345AA5"/>
<path d="M75.7876 62.5688C68.5173 62.5688 62.5688 56.6204 62.5688 49.3501C62.5688 48.1017 63.5235 47.147 64.772 47.147C66.0204 47.147 66.9751 48.1017 66.9751 49.3501C66.9751 54.197 70.9407 58.1626 75.7876 58.1626C77.036 58.1626 77.9907 59.1173 77.9907 60.3657C77.9907 61.6142 77.036 62.5688 75.7876 62.5688ZM61.8345 27.3188C60.586 27.3188 59.6313 26.3642 59.6313 25.1157C59.6313 19.8282 63.8907 15.5688 69.1782 15.5688C70.4267 15.5688 71.3813 16.5235 71.3813 17.772C71.3813 19.0204 70.4267 19.9751 69.1782 19.9751C66.3142 19.9751 64.0376 22.2517 64.0376 25.1157C64.0376 26.3642 63.0829 27.3188 61.8345 27.3188Z" fill="#454B54"/>
<path d="M62.2749 84.6001C55.0046 84.6001 49.0562 78.6517 49.0562 71.3813V19.2407C49.0562 14.3938 53.0218 10.4282 57.8687 10.4282C61.614 10.4282 64.7718 12.7048 66.0937 16.0095C66.9749 15.7157 67.9296 15.5688 68.8843 15.5688C74.1718 15.5688 78.4312 19.8282 78.4312 25.1157C78.4312 25.1892 78.4312 25.2626 78.4312 25.336C83.0577 26.3642 86.5093 30.4767 86.5093 35.397C86.5093 36.7923 86.2155 38.1876 85.7015 39.436C88.5655 41.9329 90.1812 45.5313 90.1812 49.3501C90.1812 53.2423 88.4921 56.8407 85.628 59.3376C86.2155 60.8064 86.5093 62.422 86.5093 64.0376C86.5093 71.0142 81.0015 76.8157 74.0983 77.2563C71.8952 81.736 67.3421 84.6001 62.2749 84.6001ZM57.8687 14.8345C55.4452 14.8345 53.4624 16.8173 53.4624 19.2407V71.3813C53.4624 76.2282 57.428 80.1938 62.2749 80.1938C66.0202 80.1938 69.3249 77.8438 70.5733 74.3188C70.8671 73.3642 71.8218 72.7767 72.7765 72.8501H72.9968C73.0702 72.8501 73.2171 72.8501 73.2905 72.8501C78.1374 72.8501 82.103 68.8845 82.103 64.0376C82.103 62.4954 81.7358 61.0267 80.928 59.7048C80.3405 58.6767 80.7077 57.4282 81.6624 56.7673C84.2327 55.1517 85.7749 52.361 85.7749 49.3501C85.7749 46.3392 84.2327 43.5485 81.6624 41.9329C81.1483 41.6392 80.7812 41.1251 80.7077 40.5376C80.5608 39.9501 80.7077 39.3626 81.0749 38.8485C81.8093 37.8204 82.1765 36.7188 82.1765 35.4704C82.1765 32.2392 79.5327 29.5954 76.3015 29.5954H76.0811C75.3468 29.5954 74.6858 29.3017 74.2452 28.7142C73.8046 28.1267 73.6577 27.3923 73.878 26.7313C74.0249 26.2173 74.0983 25.7032 74.0983 25.1892C74.0983 22.3251 71.8218 20.0485 68.9577 20.0485C67.8562 20.0485 66.7546 20.4157 65.8733 21.0767C65.2124 21.5907 64.3311 21.6642 63.5968 21.297C62.8624 20.9298 62.3483 20.1954 62.3483 19.3142C62.2749 16.8173 60.2921 14.8345 57.8687 14.8345ZM32.8999 84.6001C27.8327 84.6001 23.2796 81.6626 21.0765 77.2563C14.1733 76.8157 8.66553 71.0876 8.66553 64.0376C8.66553 62.7892 9.62021 61.8345 10.8687 61.8345C12.1171 61.8345 13.0718 62.7892 13.0718 64.0376C13.0718 68.8845 17.0374 72.8501 21.8843 72.8501C21.9577 72.8501 22.1046 72.8501 22.178 72.8501H22.3983C23.4265 72.7767 24.3077 73.3642 24.6015 74.3188C25.8499 77.8438 29.1546 80.1938 32.8999 80.1938C37.7468 80.1938 41.7124 76.2282 41.7124 71.3813V19.2407C41.7124 16.8173 39.7296 14.8345 37.3062 14.8345C34.8827 14.8345 32.8999 16.8173 32.8999 19.1673C32.8999 19.1673 32.8999 19.1673 32.8999 19.2407C32.8999 20.0485 32.4593 20.8563 31.6515 21.2235C30.9171 21.5907 30.0358 21.5173 29.3749 21.0032C28.4937 20.3423 27.3921 19.9751 26.2905 19.9751C23.4265 19.9751 21.1499 22.2517 21.1499 25.1157C21.1499 25.6298 21.2233 26.1438 21.3702 26.6579C21.7374 27.8329 21.0765 29.0813 19.9015 29.4485C18.7265 29.8157 17.478 29.1548 17.1108 27.9798C16.8171 27.0251 16.6702 26.0704 16.6702 25.1157C16.6702 19.8282 20.9296 15.5688 26.2171 15.5688C27.1718 15.5688 28.1265 15.7157 29.0077 16.0095C30.3296 12.7782 33.4874 10.4282 37.2327 10.4282C42.0796 10.4282 46.0452 14.3938 46.0452 19.2407V71.3813C46.1187 78.7251 40.1702 84.6001 32.8999 84.6001Z" fill="#454B54"/>
<path d="M12.264 60.8797C11.8233 60.8797 11.4562 60.7329 11.089 60.5126C7.27022 58.0891 4.99365 53.9032 4.99365 49.35C4.99365 45.5313 6.60928 41.9329 9.47334 39.436C8.95928 38.1876 8.66553 36.7922 8.66553 35.3969C8.66553 34.1485 9.62021 33.1938 10.8687 33.1938C12.1171 33.1938 13.0718 34.1485 13.0718 35.3969C13.0718 36.5719 13.439 37.7469 14.1733 38.775C14.5405 39.2891 14.6874 39.8766 14.5405 40.4641C14.3937 41.0516 14.0999 41.5657 13.5858 41.8594C11.0155 43.475 9.47334 46.2657 9.47334 49.2766C9.47334 52.2875 11.0155 55.0782 13.5858 56.6938C14.614 57.3547 14.9077 58.6766 14.2468 59.7047C13.7327 60.5126 12.9983 60.8797 12.264 60.8797ZM13.6593 31.5047C13.0718 31.5047 12.4843 31.2844 12.1171 30.8438C11.6765 30.4032 11.4562 29.8891 11.4562 29.3016C11.4562 28.7141 11.6765 28.1266 12.1171 27.7594C12.9249 26.9516 14.3937 26.9516 15.2015 27.7594C15.6421 28.2 15.8624 28.7141 15.8624 29.3016C15.8624 29.8891 15.6421 30.4766 15.2015 30.8438C14.8343 31.2844 14.2468 31.5047 13.6593 31.5047ZM61.6874 37.4532C61.0999 37.4532 60.5124 37.2329 60.1452 36.7922C59.7046 36.425 59.4843 35.8375 59.4843 35.25C59.4843 34.6625 59.7046 34.0751 60.1452 33.7079C60.953 32.9001 62.4218 32.9001 63.2296 33.7079C63.6702 34.1485 63.8905 34.6625 63.8905 35.25C63.8905 35.8375 63.6702 36.425 63.2296 36.7922C62.8624 37.2329 62.2749 37.4532 61.6874 37.4532ZM82.8374 42.3H79.1655C77.9171 42.3 76.9624 41.3454 76.9624 40.0969C76.9624 38.8485 77.9171 37.8938 79.1655 37.8938H82.8374C84.0858 37.8938 85.0405 38.8485 85.0405 40.0969C85.0405 41.3454 84.0124 42.3 82.8374 42.3Z" fill="#454B54"/>
<path d="M16.0093 42.3H12.3374C11.089 42.3 10.1343 41.3454 10.1343 40.0969C10.1343 38.8485 11.089 37.8938 12.3374 37.8938H16.0093C17.2577 37.8938 18.2124 38.8485 18.2124 40.0969C18.2124 41.3454 17.2577 42.3 16.0093 42.3Z" fill="#454B54"/>
</svg>
