<svg width="82" height="82" viewBox="0 0 82 82" fill="none" xmlns="http://www.w3.org/2000/svg">
<path d="M19.2188 3.84375H62.7812C64.1965 3.84375 65.3438 4.99102 65.3438 6.40625V67.9062C65.3438 72.1519 61.9019 75.5938 57.6562 75.5938H19.2188C17.8035 75.5938 16.6562 74.4465 16.6562 73.0312V6.40625C16.6562 4.99102 17.8035 3.84375 19.2188 3.84375Z" fill="#558FFF"/>
<path d="M57.6562 11.5312H25.625C24.9174 11.5312 24.3438 12.1049 24.3438 12.8125V38.4375C24.3438 39.1451 24.9174 39.7188 25.625 39.7188H52.5312C55.3617 39.7188 57.6562 37.4242 57.6562 34.5938V11.5312Z" fill="#BBDEF9"/>
<path d="M57.6562 20.9997L38.9372 39.7188H52.5312C55.3617 39.7188 57.6562 37.4242 57.6562 34.5938V20.9997ZM57.6562 11.5312H53.8125L25.625 39.7188H33.3125L57.6562 15.375V11.5312ZM46.125 11.5312L24.3438 33.3125V37.1562L49.9688 11.5312H46.125Z" fill="#DEF0FF"/>
<path d="M49.2256 19.2188L50.3147 21.2175L52.3263 22.3194L50.3147 23.4084L49.2256 25.42L48.1238 23.4084L46.125 22.3194L48.1238 21.2175L49.2256 19.2188Z" fill="white"/>
<path d="M34.5938 49.9688V46.125C34.5938 45.4174 34.0201 44.8438 33.3125 44.8438H30.75C30.0424 44.8438 29.4688 45.4174 29.4688 46.125V49.9688H25.625C24.9174 49.9688 24.3438 50.5424 24.3438 51.25V53.8125C24.3438 54.5201 24.9174 55.0938 25.625 55.0938H29.4688V58.9375C29.4688 59.6451 30.0424 60.2188 30.75 60.2188H33.3125C34.0201 60.2188 34.5938 59.6451 34.5938 58.9375V55.0938H38.4375C39.1451 55.0938 39.7188 54.5201 39.7188 53.8125V51.25C39.7188 50.5424 39.1451 49.9688 38.4375 49.9688H34.5938Z" fill="#ED7899"/>
<path d="M54.4531 44.8438C51.9765 44.8438 49.9688 46.8515 49.9688 49.3281C49.9688 51.8048 51.9765 53.8125 54.4531 53.8125C56.9298 53.8125 58.9375 51.8048 58.9375 49.3281C58.9375 46.8515 56.9298 44.8438 54.4531 44.8438Z" fill="#85CBF8"/>
<path d="M47.4062 56.375C45.991 56.375 44.8438 57.5223 44.8438 58.9375C44.8438 60.3527 45.991 61.5 47.4062 61.5C48.8215 61.5 49.9688 60.3527 49.9688 58.9375C49.9688 57.5223 48.8215 56.375 47.4062 56.375Z" fill="#97E0BB"/>
<path d="M21.7812 66.625H65.3438C65.3438 71.5783 61.3283 75.5938 56.375 75.5938H16.6562V71.75C16.6562 68.9195 18.9508 66.625 21.7812 66.625Z" fill="#315AAB"/>
<path d="M24.3438 41H52.5312C56.0693 41 58.9375 38.1318 58.9375 34.5938V11.5312C58.9375 10.8236 58.3639 10.25 57.6562 10.25H24.3438C23.6361 10.25 23.0625 10.8236 23.0625 11.5312V39.7188C23.0625 40.4264 23.6361 41 24.3438 41ZM25.625 12.8125H56.375V34.5938C56.375 36.7166 54.6541 38.4375 52.5312 38.4375H25.625V12.8125ZM25.625 56.375H28.1875V58.9375C28.1875 60.3527 29.3348 61.5 30.75 61.5H33.3125C34.7277 61.5 35.875 60.3527 35.875 58.9375V56.375H38.4375C39.8527 56.375 41 55.2277 41 53.8125V51.25C41 49.8348 39.8527 48.6875 38.4375 48.6875H35.875V46.125C35.875 44.7098 34.7277 43.5625 33.3125 43.5625H30.75C29.3348 43.5625 28.1875 44.7098 28.1875 46.125V48.6875H25.625C24.2098 48.6875 23.0625 49.8348 23.0625 51.25V53.8125C23.0625 55.2277 24.2098 56.375 25.625 56.375ZM25.625 51.25H29.4688C30.1764 51.25 30.75 50.6764 30.75 49.9688V46.125H33.3125V49.9688C33.3125 50.6764 33.8861 51.25 34.5938 51.25H38.4375V53.8125H34.5938C33.8861 53.8125 33.3125 54.3861 33.3125 55.0938V58.9375H30.75V55.0938C30.75 54.3861 30.1764 53.8125 29.4688 53.8125H25.625V51.25Z" fill="#726C9F"/>
<path d="M62.7812 2.5625H19.2188C17.0959 2.5625 15.375 4.28341 15.375 6.40625V73.0312C15.375 75.1541 17.0959 76.875 19.2188 76.875H57.6562C62.6096 76.875 66.625 72.8596 66.625 67.9062V6.40625C66.625 4.28341 64.9041 2.5625 62.7812 2.5625ZM64.0625 67.9062C64.0625 71.4443 61.1943 74.3125 57.6562 74.3125H19.2188C18.5111 74.3125 17.9375 73.7389 17.9375 73.0312V6.40625C17.9375 5.69864 18.5111 5.125 19.2188 5.125H62.7812C63.4889 5.125 64.0625 5.69864 64.0625 6.40625V67.9062Z" fill="#726C9F"/>
<path d="M30.75 23.0625C30.0424 23.0625 29.4688 23.6361 29.4688 24.3438V26.9062C29.4688 27.6139 30.0424 28.1875 30.75 28.1875C31.4576 28.1875 32.0312 27.6139 32.0312 26.9062V24.3438C32.0312 23.6361 31.4576 23.0625 30.75 23.0625ZM37.1562 23.0625C36.4486 23.0625 35.875 23.6361 35.875 24.3438V26.9062C35.875 27.6139 36.4486 28.1875 37.1562 28.1875C37.8639 28.1875 38.4375 27.6139 38.4375 26.9062V24.3438C38.4375 23.6361 37.8639 23.0625 37.1562 23.0625ZM43.5625 23.0625C42.8549 23.0625 42.2812 23.6361 42.2812 24.3438V26.9062C42.2812 27.6139 42.8549 28.1875 43.5625 28.1875C44.2701 28.1875 44.8438 27.6139 44.8438 26.9062V24.3438C44.8438 23.6361 44.2701 23.0625 43.5625 23.0625ZM49.9688 23.0625C49.2611 23.0625 48.6875 23.6361 48.6875 24.3438V26.9062C48.6875 27.6139 49.2611 28.1875 49.9688 28.1875C50.6764 28.1875 51.25 27.6139 51.25 26.9062V24.3438C51.25 23.6361 50.6764 23.0625 49.9688 23.0625ZM54.4531 43.5625C51.2689 43.5625 48.6875 46.1439 48.6875 49.3281C48.6875 52.5124 51.2689 55.0938 54.4531 55.0938C57.6374 55.0938 60.2188 52.5124 60.2188 49.3281C60.2188 46.1439 57.6374 43.5625 54.4531 43.5625ZM54.4531 52.5312C52.6841 52.5312 51.25 51.0972 51.25 49.3281C51.25 47.5591 52.6841 46.125 54.4531 46.125C56.2222 46.125 57.6562 47.5591 57.6562 49.3281C57.6562 51.0972 56.2222 52.5312 54.4531 52.5312ZM47.4062 55.0938C45.2834 55.0938 43.5625 56.8147 43.5625 58.9375C43.5625 61.0603 45.2834 62.7812 47.4062 62.7812C49.5291 62.7812 51.25 61.0603 51.25 58.9375C51.25 56.8147 49.5291 55.0938 47.4062 55.0938ZM47.4062 60.2188C46.6986 60.2188 46.125 59.6451 46.125 58.9375C46.125 58.2299 46.6986 57.6562 47.4062 57.6562C48.1139 57.6562 48.6875 58.2299 48.6875 58.9375C48.6875 59.6451 48.1139 60.2188 47.4062 60.2188ZM48.6875 69.1875H21.7812C21.0736 69.1875 20.5 69.7611 20.5 70.4688C20.5 71.1764 21.0736 71.75 21.7812 71.75H48.6875C49.3951 71.75 49.9688 71.1764 49.9688 70.4688C49.9688 69.7611 49.3951 69.1875 48.6875 69.1875ZM58.9375 69.1875H53.8125C53.1049 69.1875 52.5312 69.7611 52.5312 70.4688C52.5312 71.1764 53.1049 71.75 53.8125 71.75H58.9375C59.6451 71.75 60.2188 71.1764 60.2188 70.4688C60.2188 69.7611 59.6451 69.1875 58.9375 69.1875Z" fill="#726C9F"/>
<path d="M36.7078 30.75L37.4509 32.1209L38.8219 32.8641L37.4509 33.6072L36.7078 34.9781L35.9647 33.6072L34.5938 32.8641L35.9647 32.1209L36.7078 30.75ZM36.5156 14.0938L38.1044 16.9894L41 18.5781L38.1044 20.1669L36.5156 23.0625L34.9269 20.1669L32.0312 18.5781L34.9269 16.9894L36.5156 14.0938Z" fill="white"/>
</svg>
