<svg width="66" height="67" viewBox="0 0 66 67" fill="none" xmlns="http://www.w3.org/2000/svg">
<path d="M36.2812 19.0781C36.2812 9.31562 28.4063 1.32812 18.7812 1.32812C9.15625 1.32812 1.28125 9.31562 1.28125 19.0781C1.28125 28.175 7.95312 35.6078 16.5938 36.7172V41.2656H13.3125V45.7031H14.4062V61.2344C14.4062 63.675 16.375 65.6719 18.7812 65.6719C21.1875 65.6719 23.1562 63.675 23.1562 61.2344V45.7031H24.25V41.2656H20.9688V36.7172C29.6094 35.6078 36.2812 28.175 36.2812 19.0781ZM5.65625 19.0781C5.65625 11.7563 11.5625 5.76562 18.7812 5.76562C25.7813 5.76562 31.5781 11.4234 31.9062 18.4125C31.9062 18.6344 31.9062 18.8562 31.9062 19.0781C31.9062 26.4 26 32.3906 18.7812 32.3906C11.5625 32.3906 5.65625 26.4 5.65625 19.0781Z" fill="#C6C6C6"/>
<path d="M31.9062 18.4125C31.5781 11.4234 25.7813 5.76562 18.7812 5.76562C11.5625 5.76562 5.65625 11.7563 5.65625 19.0781C5.65625 26.4 11.5625 32.3906 18.7812 32.3906C26 32.3906 31.9062 26.4 31.9062 19.0781C31.9062 18.8562 31.9062 18.6344 31.9062 18.4125Z" fill="#7ED5FC"/>
<path d="M38.4688 45.7031H29.7188V65.6719H38.4688V45.7031Z" fill="#1960EA"/>
<path d="M38.4688 31.2812V45.7031V65.6719H47.2188V31.2812H38.4688Z" fill="#1960EA"/>
<path d="M47.2188 25.7344V31.2812V65.6719H55.9688V25.7344H47.2188Z" fill="#1960EA"/>
<path d="M55.9688 25.7344V65.6719H64.7188V13.5312H55.9688V25.7344Z" fill="#1960EA"/>
<path d="M18.7812 4.65625C10.9063 4.65625 4.5625 11.0906 4.5625 19.0781C4.5625 27.0656 10.9063 33.5 18.7812 33.5C26.6562 33.5 33 27.0656 33 19.0781C33 11.0906 26.6562 4.65625 18.7812 4.65625ZM18.7812 31.2812C12.1094 31.2812 6.75 25.8453 6.75 19.0781C6.75 12.3109 12.1094 6.875 18.7812 6.875C25.0156 6.875 30.1562 11.6453 30.7031 17.8578L14.9531 27.0656L16.0469 28.9516L30.7031 20.4094C30.0469 26.5109 25.0156 31.2812 18.7812 31.2812Z" fill="#40396E"/>
<path d="M64.7188 0.21875H58.1562V2.4375H62.0937L55.75 8.87188L52.0313 6.98594C51.5938 6.76406 51.1562 6.875 50.8281 7.09687L41.6406 15.4172L39.0156 13.6422C38.6875 13.4203 38.25 13.4203 37.8125 13.6422L36.6094 14.3078C34.6406 6.20937 27.4219 0.21875 18.7812 0.21875C8.5 0.21875 0.1875 8.65 0.1875 19.0781C0.1875 28.2859 6.85937 36.0516 15.5 37.6047V40.1562H13.3125C12.6562 40.1562 12.2188 40.6 12.2188 41.2656V45.7031C12.2188 46.3688 12.6562 46.8125 13.3125 46.8125V61.2344C13.3125 64.3406 15.7188 66.7812 18.7812 66.7812C21.8437 66.7812 24.25 64.3406 24.25 61.2344V46.8125C24.9063 46.8125 25.3438 46.3688 25.3438 45.7031V41.2656C25.3438 40.6 24.9063 40.1562 24.25 40.1562H22.0625V37.6047C30.7031 36.0516 37.375 28.2859 37.375 19.0781C37.375 18.3016 37.2656 17.4141 37.1562 16.6375L38.3594 15.9719L41.0938 17.8578C41.3125 17.9687 41.5312 18.0797 41.75 18.0797C41.9688 18.0797 42.2969 17.9687 42.5156 17.7469L51.8125 9.42656L55.5312 11.3125C55.9687 11.5344 56.4062 11.4234 56.8437 11.0906L63.625 3.99063V7.98438H65.8125V1.32812C65.8125 0.6625 65.375 0.21875 64.7188 0.21875ZM22.0625 61.2344C22.0625 63.1203 20.6406 64.5625 18.7812 64.5625C16.9219 64.5625 15.5 63.1203 15.5 61.2344V46.8125H22.0625V61.2344ZM23.1562 44.5938H14.4062V42.375H16.5938H20.9688H23.1562V44.5938ZM19.875 40.1562H17.6875V37.8266C18.0156 37.8266 18.4531 37.9375 18.7812 37.9375C19.1094 37.9375 19.5469 37.9375 19.875 37.8266V40.1562ZM18.7812 35.7188C9.70312 35.7188 2.375 28.2859 2.375 19.0781C2.375 9.87031 9.70312 2.4375 18.7812 2.4375C27.8594 2.4375 35.1875 9.87031 35.1875 19.0781C35.1875 28.2859 27.8594 35.7188 18.7812 35.7188Z" fill="#40396E"/>
<path d="M64.7188 12.4219H55.9688C55.3125 12.4219 54.875 12.8656 54.875 13.5312V24.625H47.2188C46.5625 24.625 46.125 25.0687 46.125 25.7344V30.1719H38.4688C37.8125 30.1719 37.375 30.6156 37.375 31.2812V44.5938H29.7188C29.0625 44.5938 28.625 45.0375 28.625 45.7031V65.6719C28.625 66.3375 29.0625 66.7812 29.7188 66.7812H38.4688H47.2188H55.9688H64.7188C65.375 66.7812 65.8125 66.3375 65.8125 65.6719V13.5312C65.8125 12.8656 65.375 12.4219 64.7188 12.4219ZM30.8125 46.8125H37.375V64.5625H30.8125V46.8125ZM39.5625 45.7031V32.3906H46.125V64.5625H39.5625V45.7031ZM48.3125 31.2812V26.8438H54.875V64.5625H48.3125V31.2812ZM63.625 64.5625H57.0625V25.7344V14.6406H63.625V64.5625Z" fill="#40396E"/>
</svg>
