<svg width="162" height="161" viewBox="0 0 162 161" fill="none" xmlns="http://www.w3.org/2000/svg">
<path d="M21.0891 43.47C20.2351 43.47 19.4161 43.8092 18.8123 44.4131C18.2084 45.017 17.8691 45.836 17.8691 46.69C17.8691 47.544 18.2084 48.363 18.8123 48.9669C19.4161 49.5707 20.2351 49.91 21.0891 49.91C21.9431 49.91 22.7622 49.5707 23.366 48.9669C23.9699 48.363 24.3091 47.544 24.3091 46.69C24.3091 45.836 23.9699 45.017 23.366 44.4131C22.7622 43.8092 21.9431 43.47 21.0891 43.47Z" fill="#78A0CF"/>
<path d="M124.13 19.3201C123.703 19.3201 123.293 19.4897 122.991 19.7916C122.689 20.0936 122.52 20.5031 122.52 20.9301C122.52 21.3571 122.689 21.7666 122.991 22.0685C123.293 22.3704 123.703 22.5401 124.13 22.5401C124.557 22.5401 124.966 22.3704 125.268 22.0685C125.57 21.7666 125.74 21.3571 125.74 20.9301C125.74 20.5031 125.57 20.0936 125.268 19.7916C124.966 19.4897 124.557 19.3201 124.13 19.3201Z" fill="#1960EA"/>
<path d="M80.6589 20.9299C64.8599 20.9299 49.7081 27.206 38.5365 38.3776C27.365 49.5491 21.0889 64.701 21.0889 80.4999C21.0889 96.2989 27.365 111.451 38.5365 122.622C49.7081 133.794 64.8599 140.07 80.6589 140.07C96.4578 140.07 111.61 133.794 122.781 122.622C133.953 111.451 140.229 96.2989 140.229 80.4999C140.229 64.701 133.953 49.5491 122.781 38.3776C111.61 27.206 96.4578 20.9299 80.6589 20.9299Z" fill="#7BA8FF"/>
<path d="M133.79 17.71C132.082 17.71 130.444 18.3885 129.236 19.5962C128.028 20.8039 127.35 22.442 127.35 24.15C127.35 25.858 128.028 27.496 129.236 28.7037C130.444 29.9115 132.082 30.59 133.79 30.59C135.498 30.59 137.136 29.9115 138.343 28.7037C139.551 27.496 140.23 25.858 140.23 24.15C140.23 22.442 139.551 20.8039 138.343 19.5962C137.136 18.3885 135.498 17.71 133.79 17.71Z" fill="#1960EA"/>
<path d="M140.229 35.4199C139.375 35.4199 138.556 35.7592 137.952 36.363C137.348 36.9669 137.009 37.7859 137.009 38.6399C137.009 39.4939 137.348 40.3129 137.952 40.9168C138.556 41.5207 139.375 41.8599 140.229 41.8599C141.083 41.8599 141.902 41.5207 142.506 40.9168C143.11 40.3129 143.449 39.4939 143.449 38.6399C143.449 37.7859 143.11 36.9669 142.506 36.363C141.902 35.7592 141.083 35.4199 140.229 35.4199Z" fill="#78A0CF"/>
<path d="M130.569 119.14C129.715 119.14 128.896 119.479 128.292 120.083C127.688 120.687 127.349 121.506 127.349 122.36C127.349 123.214 127.688 124.033 128.292 124.637C128.896 125.241 129.715 125.58 130.569 125.58C131.423 125.58 132.242 125.241 132.846 124.637C133.45 124.033 133.789 123.214 133.789 122.36C133.789 121.506 133.45 120.687 132.846 120.083C132.242 119.479 131.423 119.14 130.569 119.14ZM24.3091 94.99C22.6011 94.99 20.9631 95.6685 19.7554 96.8762C18.5476 98.084 17.8691 99.722 17.8691 101.43C17.8691 103.138 18.5476 104.776 19.7554 105.984C20.9631 107.191 22.6011 107.87 24.3091 107.87C26.0171 107.87 27.6552 107.191 28.8629 105.984C30.0706 104.776 30.7491 103.138 30.7491 101.43C30.7491 99.722 30.0706 98.084 28.8629 96.8762C27.6552 95.6685 26.0171 94.99 24.3091 94.99Z" fill="#465E8D"/>
<path d="M40.4095 136.85C39.5555 136.85 38.7364 137.189 38.1326 137.793C37.5287 138.397 37.1895 139.216 37.1895 140.07C37.1895 140.924 37.5287 141.743 38.1326 142.347C38.7364 142.951 39.5555 143.29 40.4095 143.29C41.2635 143.29 42.0825 142.951 42.6863 142.347C43.2902 141.743 43.6295 140.924 43.6295 140.07C43.6295 139.216 43.2902 138.397 42.6863 137.793C42.0825 137.189 41.2635 136.85 40.4095 136.85Z" fill="#78A0CF"/>
<path d="M29.9439 82.1101C28.8764 82.1101 27.8527 82.5342 27.0978 83.289C26.343 84.0438 25.9189 85.0676 25.9189 86.1351C25.9189 87.2026 26.343 88.2264 27.0978 88.9812C27.8527 89.736 28.8764 90.1601 29.9439 90.1601C31.0114 90.1601 32.0352 89.736 32.7901 88.9812C33.5449 88.2264 33.9689 87.2026 33.9689 86.1351C33.9689 85.0676 33.5449 84.0438 32.7901 83.289C32.0352 82.5342 31.0114 82.1101 29.9439 82.1101Z" fill="white"/>
<path d="M33.9694 106.26C33.5424 106.26 33.1329 106.43 32.8309 106.732C32.529 107.034 32.3594 107.443 32.3594 107.87C32.3594 108.297 32.529 108.707 32.8309 109.008C33.1329 109.31 33.5424 109.48 33.9694 109.48C34.3964 109.48 34.8059 109.31 35.1078 109.008C35.4098 108.707 35.5794 108.297 35.5794 107.87C35.5794 107.443 35.4098 107.034 35.1078 106.732C34.8059 106.43 34.3964 106.26 33.9694 106.26Z" fill="#1960EA"/>
<path d="M128.96 53.1299C128.533 53.1299 128.123 53.2995 127.821 53.6014C127.519 53.9034 127.35 54.3129 127.35 54.7399C127.35 55.1669 127.519 55.5764 127.821 55.8783C128.123 56.1803 128.533 56.3499 128.96 56.3499C129.387 56.3499 129.796 56.1803 130.098 55.8783C130.4 55.5764 130.57 55.1669 130.57 54.7399C130.57 54.3129 130.4 53.9034 130.098 53.6014C129.796 53.2995 129.387 53.1299 128.96 53.1299Z" fill="white"/>
<path d="M109.64 114.31H51.6799C47.2347 114.31 43.6299 110.705 43.6299 106.26V54.7402C43.6299 50.295 47.2347 46.6902 51.6799 46.6902H109.64C114.085 46.6902 117.69 50.295 117.69 54.7402V106.26C117.69 110.705 114.085 114.31 109.64 114.31Z" fill="#FDFCEE"/>
<path d="M43.6299 57.155H117.69V105.455H43.6299V57.155Z" fill="#EFEDDF"/>
<path d="M42.8242 57.155H76.8355V105.455H42.8242V57.155Z" fill="#836F61"/>
<path d="M109.64 47.3341C113.722 47.3341 117.046 50.6571 117.046 54.7401V106.26C117.046 110.343 113.722 113.666 109.64 113.666H51.6795C47.5966 113.666 44.2735 110.343 44.2735 106.26V54.7401C44.2735 50.6571 47.5966 47.3341 51.6795 47.3341H109.64ZM109.64 45.0801H51.6795C46.344 45.0801 42.0195 49.4045 42.0195 54.7401V106.26C42.0195 111.596 46.344 115.92 51.6795 115.92H109.64C114.975 115.92 119.3 111.596 119.3 106.26V54.7401C119.3 49.4045 114.975 45.0801 109.64 45.0801Z" fill="#472B29"/>
<path d="M91.1245 57.9601H43.227C42.7826 57.9601 42.422 57.5995 42.422 57.1551C42.422 56.7107 42.7826 56.3501 43.227 56.3501H91.1245C91.5688 56.3501 91.9295 56.7107 91.9295 57.1551C91.9295 57.5995 91.5688 57.9601 91.1245 57.9601ZM100.784 57.9601H94.3445C93.9001 57.9601 93.5395 57.5995 93.5395 57.1551C93.5395 56.7107 93.9001 56.3501 94.3445 56.3501H100.784C101.229 56.3501 101.589 56.7107 101.589 57.1551C101.589 57.5995 101.229 57.9601 100.784 57.9601ZM117.891 57.9601H105.614C105.17 57.9601 104.809 57.5995 104.809 57.1551C104.809 56.7107 105.17 56.3501 105.614 56.3501H117.891C118.335 56.3501 118.696 56.7107 118.696 57.1551C118.696 57.5995 118.335 57.9601 117.891 57.9601ZM117.891 106.26H110.444C110 106.26 109.639 105.899 109.639 105.455C109.639 105.011 110 104.65 110.444 104.65H117.891C118.335 104.65 118.696 105.011 118.696 105.455C118.696 105.899 118.335 106.26 117.891 106.26ZM105.614 106.26H43.0257C42.5813 106.26 42.2207 105.899 42.2207 105.455C42.2207 105.011 42.5813 104.65 43.0257 104.65H105.614C106.059 104.65 106.419 105.011 106.419 105.455C106.419 105.899 106.059 106.26 105.614 106.26Z" fill="#472B29"/>
<path d="M52.4832 50.4043C51.9738 50.4043 51.4853 50.6067 51.1251 50.9669C50.7649 51.3271 50.5625 51.8156 50.5625 52.325C50.5625 52.8344 50.7649 53.323 51.1251 53.6832C51.4853 54.0434 51.9738 54.2458 52.4832 54.2458C52.9926 54.2458 53.4812 54.0434 53.8414 53.6832C54.2016 53.323 54.404 52.8344 54.404 52.325C54.404 51.8156 54.2016 51.3271 53.8414 50.9669C53.4812 50.6067 52.9926 50.4043 52.4832 50.4043Z" fill="#EE3E54"/>
<path d="M52.4859 51.1177C53.1509 51.1177 53.6918 51.6586 53.6918 52.3252C53.6918 52.9917 53.1509 53.5327 52.4859 53.5327C51.8194 53.5327 51.2768 52.9917 51.2768 52.3252C51.2768 51.6586 51.8194 51.1177 52.4859 51.1177ZM52.4859 49.9102C51.1529 49.9102 50.0693 50.9937 50.0693 52.3252C50.0693 53.6566 51.1529 54.7402 52.4859 54.7402C53.8158 54.7402 54.8993 53.6566 54.8993 52.3252C54.8993 50.9937 53.8174 49.9102 52.4859 49.9102Z" fill="#472B29"/>
<path d="M58.9246 50.4043C58.4152 50.4043 57.9267 50.6067 57.5665 50.9669C57.2063 51.3271 57.0039 51.8156 57.0039 52.325C57.0039 52.8344 57.2063 53.323 57.5665 53.6832C57.9267 54.0434 58.4152 54.2458 58.9246 54.2458C59.434 54.2458 59.9226 54.0434 60.2828 53.6832C60.643 53.323 60.8454 52.8344 60.8454 52.325C60.8454 51.8156 60.643 51.3271 60.2828 50.9669C59.9226 50.6067 59.434 50.4043 58.9246 50.4043Z" fill="#F1BC19"/>
<path d="M58.9248 51.1177C59.5913 51.1177 60.1323 51.6586 60.1323 52.3252C60.1323 52.9917 59.5913 53.5327 58.9248 53.5327C58.2582 53.5327 57.7173 52.9917 57.7173 52.3252C57.7173 51.6586 58.2582 51.1177 58.9248 51.1177ZM58.9248 49.9102C57.5933 49.9102 56.5098 50.9937 56.5098 52.3252C56.5098 53.6566 57.5933 54.7402 58.9248 54.7402C60.2546 54.7402 61.3398 53.6566 61.3398 52.3252C61.3398 50.9937 60.2562 49.9102 58.9248 49.9102Z" fill="#472B29"/>
<path d="M65.366 50.4043C64.8566 50.4043 64.3681 50.6067 64.0079 50.9669C63.6477 51.3271 63.4453 51.8156 63.4453 52.325C63.4453 52.8344 63.6477 53.323 64.0079 53.6832C64.3681 54.0434 64.8566 54.2458 65.366 54.2458C65.8755 54.2458 66.364 54.0434 66.7242 53.6832C67.0844 53.323 67.2868 52.8344 67.2868 52.325C67.2868 51.8156 67.0844 51.3271 66.7242 50.9669C66.364 50.6067 65.8755 50.4043 65.366 50.4043Z" fill="#88AE45"/>
<path d="M65.3658 51.1177C66.0308 51.1177 66.5717 51.6586 66.5717 52.3252C66.5717 52.9917 66.0308 53.5327 65.3658 53.5327C64.6993 53.5327 64.1567 52.9917 64.1567 52.3252C64.1567 51.6586 64.6993 51.1177 65.3658 51.1177ZM65.3658 49.9102C64.0327 49.9102 62.9492 50.9937 62.9492 52.3252C62.9492 53.6566 64.0327 54.7402 65.3658 54.7402C66.6973 54.7402 67.7792 53.6566 67.7792 52.3252C67.7792 50.9937 66.6973 49.9102 65.3658 49.9102Z" fill="#472B29"/>
<path d="M76.8358 103.04C76.5025 103.04 76.232 102.77 76.232 102.436V60.1738C76.232 59.8405 76.5025 59.5701 76.8358 59.5701C77.1691 59.5701 77.4395 59.8405 77.4395 60.1738V102.436C77.4395 102.77 77.1691 103.04 76.8358 103.04ZM52.6858 103.04C52.3525 103.04 52.082 102.77 52.082 102.436V60.1738C52.082 59.8405 52.3525 59.5701 52.6858 59.5701C53.0191 59.5701 53.2895 59.8405 53.2895 60.1738V102.436C53.2895 102.77 53.0191 103.04 52.6858 103.04Z" fill="#472B29"/>
<path d="M49.4659 62.79H47.4534C47.1201 62.79 46.8496 62.5195 46.8496 62.1863C46.8496 61.853 47.1201 61.5825 47.4534 61.5825H49.4659C49.7991 61.5825 50.0696 61.853 50.0696 62.1863C50.0696 62.5195 49.7991 62.79 49.4659 62.79ZM49.4659 66.01H47.4534C47.1201 66.01 46.8496 65.7395 46.8496 65.4063C46.8496 65.073 47.1201 64.8025 47.4534 64.8025H49.4659C49.7991 64.8025 50.0696 65.073 50.0696 65.4063C50.0696 65.7395 49.7991 66.01 49.4659 66.01ZM49.4659 69.23H47.4534C47.1201 69.23 46.8496 68.9595 46.8496 68.6263C46.8496 68.293 47.1201 68.0225 47.4534 68.0225H49.4659C49.7991 68.0225 50.0696 68.293 50.0696 68.6263C50.0696 68.9595 49.7991 69.23 49.4659 69.23ZM49.4659 72.45H47.4534C47.1201 72.45 46.8496 72.1795 46.8496 71.8463C46.8496 71.513 47.1201 71.2425 47.4534 71.2425H49.4659C49.7991 71.2425 50.0696 71.513 50.0696 71.8463C50.0696 72.1795 49.7991 72.45 49.4659 72.45ZM49.4659 75.67H47.4534C47.1201 75.67 46.8496 75.3995 46.8496 75.0663C46.8496 74.733 47.1201 74.4625 47.4534 74.4625H49.4659C49.7991 74.4625 50.0696 74.733 50.0696 75.0663C50.0696 75.3995 49.7991 75.67 49.4659 75.67ZM49.4659 78.89H47.4534C47.1201 78.89 46.8496 78.6195 46.8496 78.2863C46.8496 77.953 47.1201 77.6825 47.4534 77.6825H49.4659C49.7991 77.6825 50.0696 77.953 50.0696 78.2863C50.0696 78.6195 49.7991 78.89 49.4659 78.89ZM49.4659 82.11H47.4534C47.1201 82.11 46.8496 81.8395 46.8496 81.5063C46.8496 81.173 47.1201 80.9025 47.4534 80.9025H49.4659C49.7991 80.9025 50.0696 81.173 50.0696 81.5063C50.0696 81.8395 49.7991 82.11 49.4659 82.11ZM49.4659 85.33H47.4534C47.1201 85.33 46.8496 85.0595 46.8496 84.7263C46.8496 84.393 47.1201 84.1225 47.4534 84.1225H49.4659C49.7991 84.1225 50.0696 84.393 50.0696 84.7263C50.0696 85.0595 49.7991 85.33 49.4659 85.33ZM49.4659 88.55H47.4534C47.1201 88.55 46.8496 88.2795 46.8496 87.9463C46.8496 87.613 47.1201 87.3425 47.4534 87.3425H49.4659C49.7991 87.3425 50.0696 87.613 50.0696 87.9463C50.0696 88.2795 49.7991 88.55 49.4659 88.55ZM49.4659 91.77H47.4534C47.1201 91.77 46.8496 91.4995 46.8496 91.1663C46.8496 90.833 47.1201 90.5625 47.4534 90.5625H49.4659C49.7991 90.5625 50.0696 90.833 50.0696 91.1663C50.0696 91.4995 49.7991 91.77 49.4659 91.77ZM49.4659 94.99H47.4534C47.1201 94.99 46.8496 94.7195 46.8496 94.3863C46.8496 94.053 47.1201 93.7825 47.4534 93.7825H49.4659C49.7991 93.7825 50.0696 94.053 50.0696 94.3863C50.0696 94.7195 49.7991 94.99 49.4659 94.99ZM49.4659 98.21H47.4534C47.1201 98.21 46.8496 97.9395 46.8496 97.6063C46.8496 97.273 47.1201 97.0025 47.4534 97.0025H49.4659C49.7991 97.0025 50.0696 97.273 50.0696 97.6063C50.0696 97.9395 49.7991 98.21 49.4659 98.21ZM49.4659 101.43H47.4534C47.1201 101.43 46.8496 101.16 46.8496 100.826C46.8496 100.493 47.1201 100.223 47.4534 100.223H49.4659C49.7991 100.223 50.0696 100.493 50.0696 100.826C50.0696 101.16 49.7991 101.43 49.4659 101.43Z" fill="#FDFCEF"/>
<path d="M63.5532 72.4501C63.4856 72.4501 63.4163 72.4388 63.3487 72.4147C63.0348 72.302 62.8721 71.9558 62.9848 71.6419L66.6073 61.5794C66.72 61.2654 67.063 61.0996 67.3801 61.2155C67.6941 61.3282 67.8567 61.6743 67.744 61.9883L64.1215 72.0508C64.033 72.2971 63.8011 72.4501 63.5532 72.4501ZM59.1257 70.8401C58.9437 70.8401 58.765 70.7596 58.6459 70.605L56.6334 67.9888C56.466 67.7714 56.466 67.4703 56.6334 67.253L58.6459 64.6367C58.8488 64.3711 59.2287 64.3228 59.4928 64.5257C59.7568 64.7285 59.8067 65.1085 59.6038 65.3725L57.8747 67.6201L59.6038 69.8676C59.8067 70.1317 59.7568 70.51 59.4928 70.7145C59.3849 70.7998 59.2545 70.8401 59.1257 70.8401ZM71.6032 70.8401C71.4744 70.8401 71.3456 70.7998 71.2361 70.7145C70.9721 70.5116 70.9221 70.1317 71.125 69.8676L72.8541 67.6201L71.125 65.3725C70.9221 65.1085 70.9721 64.7301 71.2361 64.5257C71.5017 64.3228 71.8785 64.3711 72.083 64.6367L74.0955 67.253C74.2629 67.4703 74.2629 67.7714 74.0955 67.9888L72.083 70.605C71.9622 70.7596 71.7835 70.8401 71.6032 70.8401Z" fill="#FDFCEF"/>
<path d="M82.873 66.6138H100.986V78.2863H82.873V66.6138Z" fill="#C5DEF0"/>
<path d="M100.986 78.89H82.8733C82.54 78.89 82.2695 78.6195 82.2695 78.2863V66.6138C82.2695 66.2805 82.54 66.01 82.8733 66.01H100.986C101.319 66.01 101.59 66.2805 101.59 66.6138V78.2863C101.59 78.6195 101.319 78.89 100.986 78.89ZM83.477 77.6825H100.382V67.2175H83.477V77.6825ZM110.847 66.815H105.212C104.99 66.815 104.81 66.6347 104.81 66.4125C104.81 66.1903 104.99 66.01 105.212 66.01H110.847C111.069 66.01 111.25 66.1903 111.25 66.4125C111.25 66.6347 111.069 66.815 110.847 66.815ZM110.847 70.84H105.212C104.99 70.84 104.81 70.6597 104.81 70.4375C104.81 70.2153 104.99 70.035 105.212 70.035H110.847C111.069 70.035 111.25 70.2153 111.25 70.4375C111.25 70.6597 111.069 70.84 110.847 70.84ZM110.847 74.865H105.212C104.99 74.865 104.81 74.6847 104.81 74.4625C104.81 74.2403 104.99 74.06 105.212 74.06H110.847C111.069 74.06 111.25 74.2403 111.25 74.4625C111.25 74.6847 111.069 74.865 110.847 74.865ZM110.847 78.89H105.212C104.99 78.89 104.81 78.7097 104.81 78.4875C104.81 78.2653 104.99 78.085 105.212 78.085H110.847C111.069 78.085 111.25 78.2653 111.25 78.4875C111.25 78.7097 111.069 78.89 110.847 78.89Z" fill="#472B29"/>
<path d="M82.8604 77.7478L100.568 66.476L101.001 67.1551L83.2926 78.4269L82.8604 77.7478Z" fill="#472B29"/>
<path d="M82.8594 67.1501L83.2916 66.471L92.1463 72.1058L91.7141 72.7849L82.8594 67.1501Z" fill="#472B29"/>
<path d="M100.785 78.4875C100.711 78.4875 100.635 78.4666 100.569 78.4247L94.876 74.8022C94.6892 74.6831 94.6329 74.4335 94.752 74.2468C94.8728 74.0584 95.1239 74.0069 95.3075 74.1228L101 77.7453C101.187 77.8644 101.244 78.114 101.124 78.3007C101.047 78.4215 100.918 78.4875 100.785 78.4875Z" fill="#472B29"/>
<path d="M92.5332 85.9338H110.646V97.6063H92.5332V85.9338Z" fill="#C5DEF0"/>
<path d="M110.646 98.2101H92.5334C92.2002 98.2101 91.9297 97.9396 91.9297 97.6063V85.9338C91.9297 85.6006 92.2002 85.3301 92.5334 85.3301H110.646C110.979 85.3301 111.25 85.6006 111.25 85.9338V97.6063C111.25 97.9396 110.979 98.2101 110.646 98.2101ZM93.1372 97.0026H110.042V86.5376H93.1372V97.0026Z" fill="#472B29"/>
<path d="M92.5205 97.0688L110.229 85.7971L110.661 86.4762L92.9528 97.7479L92.5205 97.0688Z" fill="#472B29"/>
<path d="M92.5195 86.468L92.9517 85.7889L101.806 91.4237L101.374 92.1028L92.5195 86.468Z" fill="#472B29"/>
<path d="M110.445 97.8076C110.37 97.8076 110.295 97.7866 110.229 97.7448L104.536 94.1223C104.349 94.0031 104.293 93.7536 104.412 93.5668C104.533 93.3801 104.782 93.3253 104.967 93.4429L110.66 97.0654C110.847 97.1845 110.903 97.4341 110.784 97.6208C110.707 97.7416 110.578 97.8076 110.445 97.8076ZM88.307 86.1351H82.672C82.4499 86.1351 82.2695 85.9548 82.2695 85.7326C82.2695 85.5104 82.4499 85.3301 82.672 85.3301H88.307C88.5292 85.3301 88.7095 85.5104 88.7095 85.7326C88.7095 85.9548 88.5292 86.1351 88.307 86.1351ZM88.307 90.1601H82.672C82.4499 90.1601 82.2695 89.9798 82.2695 89.7576C82.2695 89.5354 82.4499 89.3551 82.672 89.3551H88.307C88.5292 89.3551 88.7095 89.5354 88.7095 89.7576C88.7095 89.9798 88.5292 90.1601 88.307 90.1601ZM88.307 94.1851H82.672C82.4499 94.1851 82.2695 94.0048 82.2695 93.7826C82.2695 93.5604 82.4499 93.3801 82.672 93.3801H88.307C88.5292 93.3801 88.7095 93.5604 88.7095 93.7826C88.7095 94.0048 88.5292 94.1851 88.307 94.1851ZM88.307 98.2101H82.672C82.4499 98.2101 82.2695 98.0298 82.2695 97.8076C82.2695 97.5854 82.4499 97.4051 82.672 97.4051H88.307C88.5292 97.4051 88.7095 97.5854 88.7095 97.8076C88.7095 98.0298 88.5292 98.2101 88.307 98.2101Z" fill="#472B29"/>
</svg>
