<svg width="34" height="34" viewBox="0 0 34 34" fill="none" xmlns="http://www.w3.org/2000/svg">
<path d="M4.25016 29.7487C3.84877 29.7487 3.51255 29.6127 3.2415 29.3407C2.9695 29.0696 2.8335 28.7334 2.8335 28.332C2.8335 27.9306 2.9695 27.5944 3.2415 27.3234C3.51255 27.0514 3.84877 26.9154 4.25016 26.9154H15.5835V11.0841C14.9696 10.8716 14.4384 10.5411 13.9897 10.0924C13.5411 9.64384 13.2106 9.11259 12.9981 8.4987H8.50016L12.3252 17.4237C12.4668 17.7543 12.5669 18.1202 12.6255 18.5216C12.685 18.923 12.6793 19.2418 12.6085 19.4779C12.3252 20.3987 11.7406 21.1604 10.8547 21.7629C9.96972 22.3646 8.94877 22.6654 7.79183 22.6654C6.63489 22.6654 5.61394 22.3646 4.729 21.7629C3.84311 21.1604 3.2585 20.3987 2.97516 19.4779C2.90433 19.2418 2.89819 18.923 2.95675 18.5216C3.01625 18.1202 3.11683 17.7543 3.2585 17.4237L7.0835 8.4987H5.66683C5.26544 8.4987 4.92922 8.36317 4.65816 8.09211C4.38616 7.82011 4.25016 7.48342 4.25016 7.08203C4.25016 6.68064 4.38616 6.34395 4.65816 6.07195C4.92922 5.80089 5.26544 5.66536 5.66683 5.66536H12.9981C13.2814 4.83898 13.7891 4.15992 14.521 3.6282C15.2529 3.09742 16.0793 2.83203 17.0002 2.83203C17.921 2.83203 18.7474 3.09742 19.4793 3.6282C20.2113 4.15992 20.7189 4.83898 21.0022 5.66536H28.3335C28.7349 5.66536 29.0711 5.80089 29.3422 6.07195C29.6142 6.34395 29.7502 6.68064 29.7502 7.08203C29.7502 7.48342 29.6142 7.82011 29.3422 8.09211C29.0711 8.36317 28.7349 8.4987 28.3335 8.4987H26.9168L30.7418 17.4237C30.8835 17.7543 30.9841 18.1202 31.0436 18.5216C31.1021 18.923 31.096 19.2418 31.0252 19.4779C30.7418 20.3987 30.1577 21.1604 29.2727 21.7629C28.3869 22.3646 27.3654 22.6654 26.2085 22.6654C25.0516 22.6654 24.0306 22.3646 23.1457 21.7629C22.2598 21.1604 21.6752 20.3987 21.3918 19.4779C21.321 19.2418 21.3153 18.923 21.3748 18.5216C21.4334 18.1202 21.5335 17.7543 21.6752 17.4237L25.5002 8.4987H21.0022C20.7897 9.11259 20.4592 9.64384 20.0106 10.0924C19.562 10.5411 19.0307 10.8716 18.4168 11.0841V26.9154H29.7502C30.1516 26.9154 30.4878 27.0514 30.7588 27.3234C31.0308 27.5944 31.1668 27.9306 31.1668 28.332C31.1668 28.7334 31.0308 29.0696 30.7588 29.3407C30.4878 29.6127 30.1516 29.7487 29.7502 29.7487H4.25016ZM23.5522 18.4154H28.8647L26.2085 12.2529L23.5522 18.4154ZM5.13558 18.4154H10.4481L7.79183 12.2529L5.13558 18.4154ZM17.0002 8.4987C17.4016 8.4987 17.7382 8.36317 18.0102 8.09211C18.2813 7.82011 18.4168 7.48342 18.4168 7.08203C18.4168 6.68064 18.2813 6.34395 18.0102 6.07195C17.7382 5.80089 17.4016 5.66536 17.0002 5.66536C16.5988 5.66536 16.2626 5.80089 15.9915 6.07195C15.7195 6.34395 15.5835 6.68064 15.5835 7.08203C15.5835 7.48342 15.7195 7.82011 15.9915 8.09211C16.2626 8.36317 16.5988 8.4987 17.0002 8.4987Z" fill="white"/>
</svg>
