<svg width="43" height="34" viewBox="0 0 43 34" fill="none" xmlns="http://www.w3.org/2000/svg">
<path d="M24.2586 8.32422C24.2586 6.85664 23.07 5.66797 21.6024 5.66797C20.1348 5.66797 18.9461 6.85664 18.9461 8.32422C18.9461 9.7918 20.1348 10.9805 21.6024 10.9805C23.07 10.9805 24.2586 9.7918 24.2586 8.32422ZM12.5711 14.6992C12.5711 13.2316 11.3825 12.043 9.91488 12.043C8.4473 12.043 7.25863 13.2316 7.25863 14.6992C7.25863 16.1668 8.4473 17.3555 9.91488 17.3555C11.3825 17.3555 12.5711 16.1668 12.5711 14.6992ZM33.2899 17.3555C34.7575 17.3555 35.9461 16.1668 35.9461 14.6992C35.9461 13.2316 34.7575 12.043 33.2899 12.043C31.8223 12.043 30.6336 13.2316 30.6336 14.6992C30.6336 16.1668 31.8223 17.3555 33.2899 17.3555ZM13.6336 24.3613L15.42 27.675C15.8383 28.452 16.8012 28.7375 17.5782 28.3258C18.3551 27.9141 18.6407 26.9445 18.2289 26.1676L15.8184 21.6852C15.9313 21.5723 16.0309 21.4461 16.1039 21.3L17.8836 17.9863V21.6055C17.8836 22.7809 18.8332 23.7305 20.0086 23.7305H23.1961C24.3715 23.7305 25.3211 22.7809 25.3211 21.6055V17.9863L27.1075 21.3C27.1871 21.4461 27.2801 21.5723 27.393 21.6852L24.9825 26.1676C24.5641 26.9445 24.8563 27.9074 25.6332 28.3258C26.4102 28.7441 27.3731 28.452 27.7914 27.675L29.5711 24.3613V26.918C29.5711 28.0934 30.5207 29.043 31.6961 29.043H34.8836C36.059 29.043 37.0086 28.0934 37.0086 26.918V24.3613L38.795 27.675C39.2133 28.452 40.1762 28.7375 40.9532 28.3258C41.7301 27.9141 42.0157 26.9445 41.6039 26.1676L39.0871 21.4992C38.0711 19.6066 36.0922 18.4246 33.9407 18.4246H32.6391C31.5567 18.4246 30.5207 18.7234 29.6243 19.2613L27.393 15.1242C26.377 13.2316 24.3981 12.0496 22.2465 12.0496H20.9516C18.8 12.0496 16.8278 13.2316 15.8051 15.1242L13.5739 19.2613C12.6774 18.7234 11.6414 18.4246 10.559 18.4246H9.2641C7.11253 18.4246 5.14027 19.6066 4.11761 21.4992L1.60745 26.1609C1.18909 26.9379 1.48128 27.9008 2.25824 28.3191C3.03519 28.7375 3.99808 28.4453 4.41644 27.6684L6.19613 24.3613V26.918C6.19613 28.0934 7.14574 29.043 8.32113 29.043H11.5086C12.684 29.043 13.6336 28.0934 13.6336 26.918V24.3613Z" fill="white"/>
</svg>
