<svg width="103" height="103" viewBox="0 0 103 103" fill="none" xmlns="http://www.w3.org/2000/svg">
<path d="M25.8995 27.7222C32.4475 21.1742 41.3285 17.4956 50.5888 17.4956C59.8491 17.4956 68.7301 21.1742 75.2781 27.7222C81.8261 34.2703 85.5047 43.1513 85.5047 52.4115C85.5047 61.6718 81.8261 70.5528 75.2781 77.1008C68.7301 83.6488 59.8491 87.3275 50.5888 87.3275C41.3285 87.3275 32.4475 83.6488 25.8995 77.1008C19.3515 70.5528 15.6729 61.6718 15.6729 52.4115C15.6729 43.1513 19.3515 34.2703 25.8995 27.7222Z" fill="white" stroke="#40396E" stroke-width="4"/>
<path d="M48.9248 32.9414C47.8948 27.2949 37.9275 23.6724 36.1147 29.9801C34.5048 38.6249 48.9248 36.5454 48.9248 36.5454V32.9414Z" fill="#FDE751"/>
<path d="M45.4212 37.4888C42.5599 37.4888 38.718 37.0438 36.6817 34.922C35.4488 33.6366 35.0203 31.9299 35.4076 29.8472C36.1636 27.2022 38.2164 25.8189 41.0303 25.9435C44.6137 26.1217 48.9263 28.9233 49.635 32.8105L49.6473 32.9403V37.1695L49.0283 37.2591C48.881 37.2807 47.3803 37.4888 45.4212 37.4888ZM40.6709 27.3773C39.4112 27.3773 37.4933 27.7944 36.8084 30.1789C36.522 31.7342 36.8156 32.9805 37.721 33.924C40.1703 36.4753 46.2463 36.0993 48.2043 35.9036V33.0073C47.5894 29.8709 43.9082 27.5297 40.9582 27.3835C40.8676 27.3794 40.7708 27.3773 40.6709 27.3773Z" fill="#40396E"/>
<path d="M54.0752 32.9414C55.1052 27.2949 65.0725 23.6724 66.8853 29.9801C68.4952 38.6249 54.0752 36.5454 54.0752 36.5454V32.9414Z" fill="#FDE751"/>
<path d="M57.5786 37.4889C55.6195 37.4889 54.1188 37.2808 53.9715 37.2582L53.3535 37.1706L53.3659 32.8117C54.0745 28.9244 58.3871 26.1228 61.9705 25.9446C64.7917 25.821 66.8372 27.2033 67.5768 29.7814C67.9805 31.931 67.5521 33.6377 66.3181 34.9232C64.2818 37.045 60.4409 37.4889 57.5786 37.4889ZM54.7955 35.9027C56.7535 36.0963 62.8336 36.4712 65.2799 33.922C66.1842 32.9785 66.4778 31.7322 66.175 30.111C65.4519 27.605 63.2796 27.3238 62.0416 27.3846C59.0916 27.5308 55.4104 29.872 54.7955 33.0084V35.9027Z" fill="#40396E"/>
<path d="M35.8422 75.499C31.8108 75.499 28.5312 72.2195 28.5312 68.1881V45.112C28.5312 41.0805 31.8108 37.801 35.8422 37.801H67.1583C71.1897 37.801 74.4693 41.0805 74.4693 45.112V68.1881C74.4693 72.2195 71.1897 75.499 67.1583 75.499H35.8422Z" fill="#4B86FF"/>
<path d="M67.1587 38.5221C70.7925 38.5221 73.7476 41.4782 73.7476 45.111V68.1881C73.7476 71.822 70.7915 74.777 67.1587 74.777H35.8405C32.2066 74.777 29.2516 71.821 29.2516 68.1881V45.111C29.2516 41.4771 32.2077 38.5221 35.8405 38.5221H67.1587ZM67.1587 37.0801H35.8405C31.4238 37.0801 27.8096 40.6943 27.8096 45.111V68.1881C27.8096 72.6058 31.4238 76.2201 35.8405 76.2201H67.1576C71.5753 76.2201 75.1896 72.6058 75.1896 68.1892V45.111C75.1896 40.6943 71.5753 37.0801 67.1587 37.0801Z" fill="#40396E"/>
<path d="M51.0536 41.5088C49.4252 41.5088 48.1006 40.1842 48.1006 38.5558V35.6049C48.1006 33.9764 49.4252 32.6519 51.0536 32.6519H51.9445C53.573 32.6519 54.8976 33.9764 54.8976 35.6049V38.5558C54.8976 40.1842 53.573 41.5088 51.9445 41.5088H51.0536Z" fill="#FDE751"/>
<path d="M51.9448 33.3719C53.1757 33.3719 54.1769 34.3731 54.1769 35.605V38.5559C54.1769 39.7868 53.1757 40.789 51.9448 40.789H51.0539C49.823 40.789 48.8219 39.7878 48.8219 38.5559V35.605C48.8219 34.3741 49.823 33.3719 51.0539 33.3719H51.9448ZM51.9448 31.9299H51.0539C49.033 31.9299 47.3799 33.5831 47.3799 35.605V38.5559C47.3799 40.5768 49.033 42.2299 51.0549 42.2299H51.9459C53.9667 42.2299 55.6199 40.5768 55.6199 38.5549V35.6039C55.6199 33.5831 53.9667 31.9299 51.9448 31.9299Z" fill="#40396E"/>
<path d="M28.7709 49.7489C28.0705 49.7489 27.502 49.1794 27.502 48.48V44.0108C27.502 40.0185 30.7485 36.772 34.7408 36.772H68.2601C72.2524 36.772 75.4989 40.0185 75.4989 44.0108V48.48C75.4989 49.1804 74.9293 49.7489 74.23 49.7489H28.7709Z" fill="#4B86FF"/>
<path d="M68.2594 37.4921C71.8541 37.4921 74.7783 40.4162 74.7783 44.0109V48.4801C74.7783 48.7819 74.5321 49.028 74.2303 49.028H28.7702C28.4684 49.028 28.2223 48.7819 28.2223 48.4801V44.0109C28.2223 40.4162 31.1464 37.4921 34.7411 37.4921H68.2594ZM68.2594 36.05H34.7411C30.3441 36.05 26.7803 39.6138 26.7803 44.0109V48.4801C26.7803 49.5791 27.6712 50.47 28.7702 50.47H74.2303C75.3293 50.47 76.2203 49.5791 76.2203 48.4801V44.0109C76.2203 39.6138 72.6565 36.05 68.2594 36.05Z" fill="#40396E"/>
<path d="M61.3555 29.8102C62.2165 29.6104 63.1291 29.6464 64.0314 30.0976Z" fill="#FDE751"/>
<path d="M64.0315 30.3552C63.9924 30.3552 63.9533 30.3459 63.9162 30.3284C63.1499 29.9442 62.3063 29.8556 61.4133 30.0606C61.2701 30.0977 61.1362 30.006 61.1043 29.868C61.0724 29.7289 61.1589 29.5899 61.2969 29.559C62.3125 29.3231 63.2704 29.4282 64.1479 29.8669C64.2746 29.9308 64.3261 30.0853 64.2623 30.213C64.2169 30.3026 64.1263 30.3552 64.0315 30.3552Z" fill="#40396E"/>
<path d="M56.6494 33.132C56.6494 33.132 57.8432 31.6004 59.5303 30.5828Z" fill="#FDE751"/>
<path d="M56.6498 33.3895C56.5942 33.3895 56.5385 33.371 56.4922 33.3349C56.3799 33.2474 56.3593 33.0857 56.4469 32.9734C56.4974 32.9085 57.6901 31.3923 59.3978 30.3613C59.5183 30.2892 59.677 30.3263 59.7511 30.4489C59.8243 30.5704 59.7851 30.728 59.6636 30.8022C58.0403 31.7817 56.864 33.2752 56.8527 33.2896C56.8012 33.3555 56.726 33.3895 56.6498 33.3895Z" fill="#40396E"/>
<path d="M39.0107 29.7412C39.0107 29.7412 43.1946 28.7751 46.0271 33.1536Z" fill="#FDE751"/>
<path d="M46.0282 33.411C45.9438 33.411 45.8614 33.3698 45.8119 33.2936C43.1164 29.1283 39.2302 29.9544 39.0685 29.9935C38.9325 30.0265 38.7925 29.9379 38.7605 29.7999C38.7286 29.6618 38.8151 29.5228 38.9531 29.4919C38.9985 29.4826 43.3492 28.5391 46.2445 33.0145C46.3218 33.134 46.2878 33.2936 46.1683 33.3709C46.124 33.3976 46.0756 33.411 46.0282 33.411Z" fill="#40396E"/>
<path d="M65.5304 72.1001H50.9847C50.7004 72.1001 50.4697 71.8694 50.4697 71.5851C50.4697 71.3008 50.7004 71.0701 50.9847 71.0701H65.5304C68.0168 71.0701 70.0397 69.0472 70.0397 66.5608V64.3751C70.0397 64.0908 70.2704 63.8601 70.5547 63.8601C70.839 63.8601 71.0697 64.0908 71.0697 64.3751V66.5608C71.0697 69.6157 68.5854 72.1001 65.5304 72.1001Z" fill="#40396E"/>
<path d="M70.555 60.6846C70.2708 60.6846 70.04 60.4539 70.04 60.1696V53.3026C70.04 53.0183 70.2708 52.7876 70.555 52.7876C70.8393 52.7876 71.07 53.0183 71.07 53.3026V60.1696C71.07 60.4539 70.8393 60.6846 70.555 60.6846Z" fill="#40396E"/>
<path d="M44.8047 72.1001H37.469C34.414 72.1001 31.9297 69.6157 31.9297 66.5608V64.3751C31.9297 64.0908 32.1604 63.8601 32.4447 63.8601C32.729 63.8601 32.9597 64.0908 32.9597 64.3751V66.5608C32.9597 69.0472 34.9826 71.0701 37.469 71.0701H44.8047C45.089 71.0701 45.3197 71.3008 45.3197 71.5851C45.3197 71.8694 45.089 72.1001 44.8047 72.1001Z" fill="#40396E"/>
<path d="M32.4447 61.7999C32.1604 61.7999 31.9297 61.5692 31.9297 61.2849V57.1649C31.9297 56.8806 32.1604 56.6499 32.4447 56.6499C32.729 56.6499 32.9597 56.8806 32.9597 57.1649V61.2849C32.9597 61.5692 32.729 61.7999 32.4447 61.7999Z" fill="#40396E"/>
<path d="M32.4447 55.1049C32.1604 55.1049 31.9297 54.8742 31.9297 54.5899V52.5299C31.9297 52.2456 32.1604 52.0149 32.4447 52.0149C32.729 52.0149 32.9597 52.2456 32.9597 52.5299V54.5899C32.9597 54.8742 32.729 55.1049 32.4447 55.1049Z" fill="#40396E"/>
<path d="M47.0703 36.771H55.9283V75.499H47.0703V36.771Z" fill="#FDE751"/>
<path d="M55.2076 37.4921V74.778H47.7916V37.4921H55.2076ZM56.6496 36.05H46.3496V76.22H56.6496V36.05Z" fill="#40396E"/>
<path d="M53.0446 45.0625C52.9025 45.0625 52.7871 44.9471 52.7871 44.805V39.655C52.7871 39.5128 52.9025 39.3975 53.0446 39.3975C53.1867 39.3975 53.3021 39.5128 53.3021 39.655V44.805C53.3021 44.9471 53.1867 45.0625 53.0446 45.0625Z" fill="#40396E"/>
<path d="M53.0446 71.8425C52.9025 71.8425 52.7871 71.7271 52.7871 71.585V47.895C52.7871 47.7528 52.9025 47.6375 53.0446 47.6375C53.1867 47.6375 53.3021 47.7528 53.3021 47.895V71.585C53.3021 71.7271 53.1867 71.8425 53.0446 71.8425Z" fill="#40396E"/>
</svg>
