<svg width="106" height="106" viewBox="0 0 106 106" fill="none" xmlns="http://www.w3.org/2000/svg">
<g filter="url(#filter0_d_554_1093)">
<circle cx="53" cy="49" r="49" fill="#0667BD" fill-opacity="0.13"/>
<path d="M53.3844 35.2812C53.3202 35.2815 53.2562 35.2873 53.193 35.2988C49.7112 35.9184 46.5817 37.8042 44.407 40.5931C42.2324 43.382 41.1663 46.8768 41.4141 50.4046C41.6619 53.9324 43.2061 57.2439 45.7493 59.7014C48.2924 62.1589 51.6549 63.5887 55.1891 63.7155C55.3685 63.722 55.5479 63.7155 55.7251 63.7155C58.0208 63.717 60.2831 63.1656 62.3207 62.1081C64.3583 61.0505 66.1113 59.5179 67.4315 57.6397C67.5384 57.4778 67.6008 57.2906 67.6125 57.0969C67.6241 56.9033 67.5845 56.71 67.4977 56.5364C67.4109 56.3629 67.2799 56.2153 67.1179 56.1085C66.956 56.0017 66.7687 55.9394 66.5751 55.928C64.39 55.7362 62.2783 55.0446 60.4032 53.9065C58.5281 52.7685 56.9398 51.2146 55.761 49.3648C54.5823 47.515 53.8446 45.419 53.6051 43.2387C53.3656 41.0584 53.6306 38.8522 54.3797 36.7906C54.4435 36.6256 54.4668 36.4478 54.4479 36.2719C54.429 36.096 54.3683 35.9272 54.2709 35.7795C54.1735 35.6319 54.0423 35.5096 53.8881 35.4229C53.7339 35.3362 53.5612 35.2877 53.3844 35.2812Z" fill="#0067FF"/>
</g>
<defs>
<filter id="filter0_d_554_1093" x="0" y="0" width="106" height="106" filterUnits="userSpaceOnUse" color-interpolation-filters="sRGB">
<feFlood flood-opacity="0" result="BackgroundImageFix"/>
<feColorMatrix in="SourceAlpha" type="matrix" values="0 0 0 0 0 0 0 0 0 0 0 0 0 0 0 0 0 0 127 0" result="hardAlpha"/>
<feOffset dy="4"/>
<feGaussianBlur stdDeviation="2"/>
<feComposite in2="hardAlpha" operator="out"/>
<feColorMatrix type="matrix" values="0 0 0 0 0 0 0 0 0 0 0 0 0 0 0 0 0 0 0.25 0"/>
<feBlend mode="normal" in2="BackgroundImageFix" result="effect1_dropShadow_554_1093"/>
<feBlend mode="normal" in="SourceGraphic" in2="effect1_dropShadow_554_1093" result="shape"/>
</filter>
</defs>
</svg>
