<svg width="28" height="31" viewBox="0 0 28 31" fill="none" xmlns="http://www.w3.org/2000/svg">
<path d="M5.49414 16.209L0.121094 21.806L7.62695 29.6248L13 24.0277L5.49414 16.209ZM7.47109 26.1555C7.35625 26.2751 7.20859 26.3264 7.06914 26.3264C6.92148 26.3264 6.77383 26.2665 6.65898 26.1469L3.45156 22.8058C3.23008 22.5751 3.23008 22.1905 3.45156 21.9598C3.67305 21.7291 4.04219 21.7291 4.26367 21.9598L7.47109 25.3009C7.69258 25.5488 7.69258 25.9247 7.47109 26.1555Z" fill="white"/>
<path d="M7.73438 16.8496L12.3855 21.6946L22.6641 18.8235L10.4906 6.14258L7.73438 16.8496Z" fill="white"/>
<path d="M0.398438 26.5052L3.11367 29.3336L4.74609 28.3167L1.37461 24.8047L0.398438 26.5052Z" fill="white"/>
<path d="M10.2422 28.5811L14.5816 30.555L16.9688 28.0598L12.6375 26.0859L10.2422 28.5811Z" fill="white"/>
<path d="M12.0246 4.6217C12.0739 4.91223 12.3117 5.12586 12.5907 5.12586C12.6235 5.12586 12.6563 5.12586 12.6809 5.11731C12.9926 5.06604 13.2059 4.75842 13.1567 4.43371L12.5414 0.502972C12.4922 0.178259 12.1969 -0.0439131 11.8852 0.0073573C11.5735 0.0586277 11.3602 0.36625 11.4094 0.690963L12.0246 4.6217Z" fill="white"/>
<path d="M27.2965 15.1662L23.277 15.2517C22.957 15.2602 22.7109 15.5337 22.7109 15.8584C22.7191 16.1831 22.9734 16.448 23.2852 16.448H23.2934L27.3129 16.3625C27.6328 16.354 27.8789 16.0805 27.8789 15.7558C27.8789 15.4226 27.6164 15.1577 27.2965 15.1662Z" fill="white"/>
<line x1="0.5" y1="-0.5" x2="6.63501" y2="-0.5" transform="matrix(0.692525 -0.721393 0.692525 0.721393 18.7812 10.2617)" stroke="white" stroke-linecap="round"/>
</svg>
