<svg width="34" height="34" viewBox="0 0 34 34" fill="none" xmlns="http://www.w3.org/2000/svg">
<path d="M17 5.66797C18.5725 5.66797 19.8333 6.9288 19.8333 8.5013C19.8333 10.0738 18.5725 11.3346 17 11.3346C15.4275 11.3346 14.1667 10.0738 14.1667 8.5013C14.1667 6.9288 15.4417 5.66797 17 5.66797ZM29.75 22.668V19.8346C26.5767 19.8346 23.8567 18.4746 21.8167 16.038L19.9183 13.7713C19.6548 13.4518 19.3237 13.1946 18.9489 13.0183C18.5742 12.8419 18.165 12.7507 17.7508 12.7513H16.2917C15.4275 12.7513 14.6342 13.1196 14.0958 13.7713L12.1975 16.038C10.1433 18.4746 7.42333 19.8346 4.25 19.8346V22.668C8.17417 22.668 11.6025 21.0105 14.1667 18.0638V21.2513L8.67 23.4471C7.72083 23.8296 7.08333 24.793 7.08333 25.7988C7.08333 27.2013 8.21667 28.3346 9.61917 28.3346H12.75V27.6263C12.75 26.687 13.1231 25.7862 13.7873 25.122C14.4515 24.4578 15.3524 24.0846 16.2917 24.0846H20.5417C20.9383 24.0846 21.25 24.3963 21.25 24.793C21.25 25.1896 20.9383 25.5013 20.5417 25.5013H16.2917C15.1158 25.5013 14.1667 26.4505 14.1667 27.6263V28.3346H24.3808C25.7833 28.3346 26.9167 27.2013 26.9167 25.7988C26.9167 24.793 26.2792 23.8296 25.33 23.4471L19.8333 21.2513V18.0638C22.3975 21.0105 25.8258 22.668 29.75 22.668Z" fill="white"/>
</svg>
