<svg width="57" height="55" viewBox="0 0 57 55" fill="none" xmlns="http://www.w3.org/2000/svg">
<path fill-rule="evenodd" clip-rule="evenodd" d="M49.9431 33.858C52.0048 30.7325 53.0972 27.1019 53.0912 23.3955C53.0912 12.6255 44.0568 3.89553 32.9113 3.89553C28.9266 3.89553 25.2119 5.01153 22.0841 6.93603C20.0024 7.04885 17.9421 7.40032 15.9463 7.98303C18.1213 5.74226 20.7493 3.95698 23.6676 2.73783C26.5858 1.51867 29.732 0.89162 32.9113 0.895526C45.7705 0.895526 56.1958 10.9695 56.1958 23.3955C56.1996 26.4677 55.5506 29.5079 54.289 32.3278C53.0273 35.1477 51.1799 37.6872 48.8612 39.789C49.4526 37.8945 49.8236 35.9085 49.9431 33.858Z" fill="#1960EA"/>
<path fill-rule="evenodd" clip-rule="evenodd" d="M52.9872 34.8C51.8632 36.6434 50.474 38.3232 48.8612 39.789C49.4526 37.8945 49.8236 35.9085 49.9431 33.858C52.0048 30.7325 53.0972 27.102 53.0912 23.3955C53.0912 12.6255 44.0568 3.89554 32.9113 3.89554C28.9266 3.89554 25.2119 5.01154 22.0841 6.93604C20.0024 7.04886 17.9421 7.40033 15.9463 7.98304C17.4633 6.42459 19.2016 5.08219 21.1092 3.99604C24.685 1.96001 28.761 0.889219 32.9113 0.895536C45.7705 0.895536 56.1958 10.9695 56.1958 23.3955C56.2031 27.4062 55.0949 31.345 52.9872 34.8Z" fill="#1960EA"/>
<path fill-rule="evenodd" clip-rule="evenodd" d="M46.8823 32.3955C46.8823 44.8215 36.4571 54.8955 23.5979 54.8955C10.7387 54.8955 0.313477 44.8215 0.313477 32.3955C0.313477 19.9695 10.7387 9.89551 23.5979 9.89551C36.4571 9.89551 46.8823 19.9695 46.8823 32.3955ZM22.0456 24.8955C21.2222 24.8955 20.4326 25.2116 19.8503 25.7742C19.2681 26.3368 18.941 27.0999 18.941 27.8955C18.941 28.6912 19.2681 29.4542 19.8503 30.0168C20.4326 30.5794 21.2222 30.8955 22.0456 30.8955V24.8955ZM25.1502 21.8955V20.3955H22.0456V21.8955C20.3988 21.8955 18.8195 22.5276 17.6551 23.6529C16.4906 24.7781 15.8364 26.3042 15.8364 27.8955C15.8364 29.4868 16.4906 31.0129 17.6551 32.1381C18.8195 33.2634 20.3988 33.8955 22.0456 33.8955V39.8955C20.6951 39.8955 19.5449 39.063 19.1164 37.896C19.0529 37.7051 18.9503 37.5284 18.8149 37.3764C18.6794 37.2245 18.5138 37.1003 18.3278 37.0113C18.1418 36.9222 17.9392 36.8702 17.7321 36.8581C17.5249 36.846 17.3173 36.8743 17.1216 36.9411C16.9259 37.0079 16.7461 37.1119 16.5927 37.2471C16.4393 37.3822 16.3156 37.5457 16.2288 37.7279C16.1419 37.9101 16.0938 38.1072 16.0872 38.3077C16.0806 38.5082 16.1157 38.7079 16.1904 38.895C16.6185 40.065 17.4115 41.0779 18.4601 41.7943C19.5087 42.5108 20.7614 42.8955 22.0456 42.8955V44.3955H25.1502V42.8955C26.797 42.8955 28.3763 42.2634 29.5408 41.1381C30.7052 40.0129 31.3594 38.4868 31.3594 36.8955C31.3594 35.3042 30.7052 33.7781 29.5408 32.6529C28.3763 31.5277 26.797 30.8955 25.1502 30.8955V24.8955C26.5007 24.8955 27.651 25.728 28.0794 26.895C28.143 27.0859 28.2455 27.2626 28.381 27.4146C28.5164 27.5665 28.682 27.6907 28.868 27.7797C29.054 27.8688 29.2566 27.9209 29.4638 27.9329C29.6709 27.945 29.8785 27.9168 30.0742 27.8499C30.2699 27.7831 30.4498 27.6791 30.6031 27.5439C30.7565 27.4088 30.8802 27.2453 30.9671 27.0631C31.0539 26.8809 31.102 26.6838 31.1086 26.4833C31.1152 26.2829 31.0801 26.0831 31.0055 25.896C30.5773 24.726 29.7843 23.7131 28.7357 22.9967C27.6871 22.2802 26.4344 21.8955 25.1502 21.8955ZM25.1502 33.8955V39.8955C25.9736 39.8955 26.7633 39.5794 27.3455 39.0168C27.9277 38.4542 28.2548 37.6912 28.2548 36.8955C28.2548 36.0999 27.9277 35.3368 27.3455 34.7742C26.7633 34.2116 25.9736 33.8955 25.1502 33.8955Z" fill="#1960EA"/>
</svg>
