<svg width="75" height="75" viewBox="0 0 75 75" fill="none" xmlns="http://www.w3.org/2000/svg">
<path d="M72.5449 6.36035V56.0918C72.5449 57.7098 71.2332 59.0215 69.6152 59.0215H52.125C59.6797 52.84 62.5322 42.5763 59.2504 33.3831C55.9686 24.19 47.2614 18.0529 37.5 18.0529C27.7386 18.0529 19.0314 24.19 15.7496 33.3831C12.4678 42.5763 15.3203 52.84 22.875 59.0215H5.38477C3.76674 59.0215 2.45508 57.7098 2.45508 56.0918V6.36035C2.45508 4.74233 3.76674 3.43066 5.38477 3.43066H69.6152C71.2332 3.43066 72.5449 4.74233 72.5449 6.36035Z" fill="#EFEFEF"/>
<path d="M55.1805 59.0215H52.1248C59.6795 52.84 62.532 42.5763 59.2502 33.3831C55.9684 24.19 47.2612 18.0529 37.4998 18.0529C27.7385 18.0529 19.0312 24.19 15.7494 33.3831C12.4676 42.5763 15.3201 52.84 22.8748 59.0215H19.8192C14.5985 53.8652 12.3045 47.4609 12.3543 41.1504C12.4744 28.3154 22.4207 16.0049 37.4998 16.0049C52.5789 16.0049 62.5252 28.3096 62.6453 41.1504C62.7156 47.8795 60.0164 54.3417 55.1805 59.0215Z" fill="#AFAFAF"/>
<path d="M13.8662 56.8359H5.38477C4.98026 56.8359 4.65234 56.508 4.65234 56.1035C4.65234 55.699 4.98026 55.3711 5.38477 55.3711H13.8809C14.2854 55.3711 14.6133 55.699 14.6133 56.1035C14.6133 56.508 14.2854 56.8359 13.8809 56.8359H13.8662Z" fill="white"/>
<path d="M69.6152 56.8359H60.9375C60.533 56.8359 60.2051 56.508 60.2051 56.1035C60.2051 55.699 60.533 55.3711 60.9375 55.3711H68.8828V16.2275C68.8828 15.823 69.2107 15.4951 69.6152 15.4951C70.0197 15.4951 70.3477 15.823 70.3477 16.2275V56.0918C70.3508 56.2881 70.275 56.4774 70.1373 56.6173C69.9996 56.7572 69.8115 56.836 69.6152 56.8359Z" fill="white"/>
<path d="M69.6152 3.43066H19.4766L22.6992 11.2383C23.1516 12.3361 24.2218 13.0523 25.4092 13.0518H72.5449V6.36035C72.5449 4.74233 71.2333 3.43066 69.6152 3.43066Z" fill="#72C2E9"/>
<path d="M66.2168 9.91992C67.1439 9.91992 67.8955 9.16834 67.8955 8.24121C67.8955 7.31408 67.1439 6.5625 66.2168 6.5625C65.2897 6.5625 64.5381 7.31408 64.5381 8.24121C64.5381 9.16834 65.2897 9.91992 66.2168 9.91992Z" fill="#FC5D3D"/>
<path d="M57.8701 9.91992C58.7972 9.91992 59.5488 9.16834 59.5488 8.24121C59.5488 7.31408 58.7972 6.5625 57.8701 6.5625C56.943 6.5625 56.1914 7.31408 56.1914 8.24121C56.1914 9.16834 56.943 9.91992 57.8701 9.91992Z" fill="#F0C020"/>
<path d="M49.5264 9.91992C50.4535 9.91992 51.2051 9.16834 51.2051 8.24121C51.2051 7.31408 50.4535 6.5625 49.5264 6.5625C48.5992 6.5625 47.8477 7.31408 47.8477 8.24121C47.8477 9.16834 48.5992 9.91992 49.5264 9.91992Z" fill="#689BFF"/>
<path d="M60.5952 41.1504C60.5902 52.6185 52.1737 62.3471 40.8257 64.002L37.5005 71.5694L34.1753 64.0049C21.9807 62.2306 13.3273 51.1947 14.5129 38.9289C15.6984 26.6631 26.3053 17.4888 38.614 18.083C50.9226 18.6771 60.5965 28.8304 60.5952 41.1534L60.5952 41.1504Z" fill="#689BFF"/>
<path d="M20.042 66.1816C18.8701 65.8008 17.6982 65.4639 17.0098 62.5664C16.3916 65.2354 15.3984 65.7129 13.9775 66.1816C16.292 66.9463 16.6436 68.2148 17.0098 69.7998C17.6455 67.0664 18.6943 66.627 20.042 66.1816Z" fill="#F0C020"/>
<path d="M64.7109 20.6221C63.5391 20.2383 62.3672 19.9014 61.6816 17.0039C61.0605 19.6729 60.0674 20.1533 58.6494 20.6221C60.9639 21.3867 61.3125 22.6523 61.6816 24.2373C62.3145 21.5039 63.3633 21.0674 64.7109 20.6221Z" fill="#F0C020"/>
<path d="M40.4299 27.5655L44.2385 32.9678L50.6839 35.0186C51.8012 35.3672 52.6769 36.2413 53.0275 37.358C53.3781 38.4748 53.1593 39.6925 52.4417 40.6173L48.4309 45.8057L48.5628 52.5909C48.5869 53.7695 48.0279 54.8841 47.0688 55.5696C46.1097 56.2551 44.8742 56.4231 43.7669 56.0186L37.5003 53.7393L31.2424 56.0186C30.1351 56.4231 28.8996 56.2551 27.9405 55.5696C26.9814 54.8841 26.4224 53.7695 26.4465 52.5909L26.5784 45.8057L22.5589 40.6173C21.8452 39.6928 21.6286 38.4777 21.979 37.3636C22.3293 36.2495 23.2023 35.377 24.3167 35.0274L30.762 32.9766L34.5969 27.5743C35.2664 26.6286 36.3525 26.0657 37.5112 26.064C38.6699 26.0622 39.7576 26.6218 40.4299 27.5655Z" fill="#F1BF21"/>
<path d="M44.508 53.9532L37.5002 51.4014L33.5802 52.8282C33.3308 52.9355 33.0424 52.8959 32.8311 52.7254C32.6197 52.555 32.52 52.2815 32.572 52.015C32.6241 51.7485 32.8193 51.5326 33.0793 51.4542L37.2482 49.9336C37.4111 49.875 37.5893 49.875 37.7521 49.9336L44.8918 52.5352L44.7394 44.8448C44.7359 44.6776 44.7896 44.5143 44.8918 44.3819L49.4591 38.4756L42.2052 36.1553C42.0535 36.1085 41.9217 36.0127 41.8302 35.8829L37.4357 29.6866C37.2296 29.3577 37.3158 28.9252 37.6323 28.7005C37.9487 28.4758 38.3855 28.5369 38.6281 28.8399L42.8879 34.837L50.0304 37.1192C50.4587 37.2554 50.7933 37.5923 50.9264 38.0215C51.0595 38.4507 50.9744 38.9179 50.6984 39.2725L46.216 45.0733L46.3654 52.6348C46.3747 53.0908 46.1576 53.5218 45.7857 53.7857C45.4138 54.0497 44.9353 54.1124 44.508 53.9532ZM29.5666 53.5167C29.4289 53.1373 29.6241 52.718 30.0031 52.5792L30.34 52.4561C30.7202 52.3178 31.1406 52.5139 31.279 52.8941C31.4173 53.2743 31.2212 53.6947 30.841 53.8331L30.5041 53.9532C30.3201 54.0247 30.115 54.0187 29.9356 53.9364C29.7562 53.8542 29.6178 53.7027 29.5519 53.5167H29.5666Z" fill="#F8E5B0"/>
<path d="M15.0645 9.96094C15.469 9.96094 15.7969 9.63302 15.7969 9.22852C15.7969 8.82401 15.469 8.49609 15.0645 8.49609H8.99414C8.58964 8.49609 8.26172 8.82401 8.26172 9.22852C8.26172 9.63302 8.58964 9.96094 8.99414 9.96094H15.0645Z" fill="black"/>
<path d="M68.625 8.24121C68.625 6.90996 67.5461 5.83061 66.2148 5.83008C64.8836 5.82954 63.8038 6.90801 63.8027 8.23926C63.8017 9.57051 64.8797 10.6507 66.2109 10.6523C66.8509 10.6531 67.465 10.3994 67.9178 9.94717C68.3706 9.49492 68.625 8.88119 68.625 8.24121ZM65.2705 8.24121C65.2705 7.85794 65.5017 7.51252 65.856 7.3664C66.2104 7.22029 66.6178 7.30233 66.888 7.57418C67.1582 7.84604 67.2377 8.25401 67.0894 8.60742C66.9411 8.96082 66.5942 9.18987 66.2109 9.1875C65.6906 9.18428 65.2705 8.76155 65.2705 8.24121Z" fill="black"/>
<path d="M60.2812 8.24121C60.2812 6.90958 59.2017 5.83008 57.8701 5.83008C56.5385 5.83008 55.459 6.90958 55.459 8.24121C55.459 9.57284 56.5385 10.6523 57.8701 10.6523C59.2011 10.6507 60.2796 9.57217 60.2812 8.24121ZM56.9268 8.24121C56.9268 7.85821 57.1576 7.51297 57.5116 7.36668C57.8656 7.22038 58.2728 7.30188 58.5432 7.57313C58.8136 7.84437 58.8939 8.25187 58.7465 8.60537C58.5991 8.95888 58.2531 9.18869 57.8701 9.1875C57.3486 9.18589 56.9268 8.76269 56.9268 8.24121Z" fill="black"/>
<path d="M51.9375 8.24121C51.9375 6.90958 50.858 5.83008 49.5264 5.83008C48.1947 5.83008 47.1152 6.90958 47.1152 8.24121C47.1152 9.57284 48.1947 10.6523 49.5264 10.6523C50.8573 10.6507 51.9359 9.57217 51.9375 8.24121ZM48.583 8.24121C48.583 7.85821 48.8139 7.51297 49.1678 7.36668C49.5218 7.22038 49.9291 7.30188 50.1995 7.57313C50.4699 7.84437 50.5501 8.25187 50.4027 8.60537C50.2553 8.95888 49.9094 9.18869 49.5264 9.1875C49.0049 9.18589 48.583 8.76269 48.583 8.24121Z" fill="black"/>
<path d="M34.459 13.7812C34.8635 13.7812 35.1914 13.4533 35.1914 13.0488C35.1914 12.6443 34.8635 12.3164 34.459 12.3164C34.0545 12.3164 33.7266 12.6443 33.7266 13.0488C33.7266 13.4533 34.0545 13.7812 34.459 13.7812Z" fill="black"/>
<path d="M2.45508 20.3232C2.85958 20.3232 3.1875 19.9953 3.1875 19.5908C3.1875 19.1863 2.85958 18.8584 2.45508 18.8584C2.05057 18.8584 1.72266 19.1863 1.72266 19.5908C1.72266 19.9953 2.05057 20.3232 2.45508 20.3232Z" fill="black"/>
<path d="M17.7686 62.4022C17.6861 62.0498 17.3717 61.8005 17.0098 61.8005C16.6478 61.8005 16.3335 62.0498 16.251 62.4022C15.6914 64.8075 14.9121 65.0653 13.7344 65.455C13.4155 65.5606 13.2002 65.8588 13.2002 66.1947C13.2002 66.5307 13.4155 66.8288 13.7344 66.9345C15.6943 67.5819 15.9141 68.5399 16.251 69.9872C16.3335 70.3396 16.6478 70.5889 17.0098 70.5889C17.3717 70.5889 17.6861 70.3396 17.7686 69.9872C18.3281 67.5819 19.1484 67.3095 20.2852 66.9345C20.6041 66.8288 20.8193 66.5307 20.8193 66.1947C20.8193 65.8588 20.6041 65.5606 20.2852 65.455C19.1924 65.0829 18.3398 64.8515 17.7686 62.4022ZM17.0244 67.5028C16.7226 66.9891 16.3116 66.548 15.8203 66.2108C16.3247 65.861 16.7384 65.396 17.0273 64.8544C17.311 65.3865 17.7117 65.8473 18.1992 66.202C17.714 66.536 17.312 66.977 17.0244 67.4911V67.5028Z" fill="black"/>
<path d="M60.9379 24.413C61.0204 24.7654 61.3347 25.0147 61.6967 25.0147C62.0587 25.0147 62.373 24.7654 62.4555 24.413C63.0121 22.0077 63.8354 21.7352 64.9721 21.3602C65.2801 21.2483 65.4852 20.9556 65.4852 20.6278C65.4852 20.3001 65.2801 20.0074 64.9721 19.8954C63.8793 19.535 63.0268 19.3095 62.4555 16.8427C62.373 16.4902 62.0587 16.241 61.6967 16.241C61.3347 16.241 61.0204 16.4902 60.9379 16.8427C60.3783 19.2479 59.599 19.5057 58.4184 19.8954C58.1103 20.0074 57.9053 20.3001 57.9053 20.6278C57.9053 20.9556 58.1103 21.2483 58.4184 21.3602C60.352 22.0077 60.5863 22.9657 60.9379 24.413ZM61.6996 19.2802C61.9831 19.8124 62.3838 20.2732 62.8715 20.6278C62.3939 20.9683 62.0001 21.4132 61.7201 21.9286C61.4147 21.4137 60.9984 20.9733 60.5014 20.6395C60.9966 20.285 61.4019 19.8194 61.685 19.2802H61.6996Z" fill="black"/>
<path d="M50.9151 34.3301L44.7042 32.3437L41.0157 27.1435C40.21 26.0002 38.8987 25.3201 37.5 25.3201C36.1014 25.3201 34.7901 26.0002 33.9844 27.1435L30.2959 32.3437L24.085 34.3301C22.7468 34.7583 21.7013 35.812 21.2837 37.1536C20.866 38.4952 21.1286 39.9562 21.9874 41.0683L25.8428 46.0488L25.7139 52.5762C25.6875 53.9957 26.3619 55.3372 27.517 56.1627C28.6721 56.9882 30.1597 57.1918 31.4942 56.707L37.5 54.5185L43.5059 56.707C44.8404 57.1918 46.328 56.9882 47.4831 56.1627C48.6382 55.3372 49.3126 53.9957 49.2862 52.5762L49.1573 46.0488L53.0127 41.0683C53.8715 39.9562 54.1341 38.4952 53.7164 37.1536C53.2988 35.812 52.2533 34.7583 50.9151 34.3301ZM51.8526 40.1689L47.8418 45.3574C47.7397 45.4898 47.686 45.6531 47.6895 45.8203L47.8213 52.6054C47.8415 53.5419 47.3979 54.4279 46.6361 54.9729C45.8743 55.5179 44.8925 55.6515 44.0127 55.3301L37.7549 53.0508C37.5921 52.9922 37.4139 52.9922 37.251 53.0508L30.9932 55.3301C30.1134 55.6515 29.1317 55.5179 28.3699 54.9729C27.6081 54.4279 27.1645 53.5419 27.1846 52.6054L27.3165 45.8203C27.32 45.6531 27.2662 45.4898 27.1641 45.3574L23.1446 40.1689C22.5765 39.436 22.4022 38.4718 22.6777 37.5863C22.9532 36.7009 23.6437 36.0058 24.5274 35.7246L30.9727 33.6738C31.1241 33.6248 31.2557 33.5282 31.3477 33.3984L35.1827 27.999C35.7156 27.2482 36.5793 26.8021 37.5 26.8021C38.4208 26.8021 39.2845 27.2482 39.8174 27.999L43.6524 33.3984C43.7444 33.5282 43.876 33.6248 44.0274 33.6738L50.4727 35.7246C51.3564 36.0058 52.0469 36.7009 52.3224 37.5863C52.5979 38.4718 52.4236 39.436 51.8555 40.1689H51.8526Z" fill="black"/>
<path d="M56.6955 28.2833C57.0225 28.0462 57.0971 27.5896 56.8625 27.2608C56.6211 26.9413 56.1718 26.8666 55.84 27.0909C55.6768 27.2026 55.5659 27.3757 55.5328 27.5707C55.4996 27.7657 55.5471 27.9657 55.6642 28.1251C55.9055 28.4532 56.3669 28.524 56.6955 28.2833Z" fill="black"/>
<path d="M33.668 64.667L36.8291 71.8652C36.9477 72.1295 37.2104 72.2995 37.5 72.2995C37.7896 72.2995 38.0523 72.1295 38.1709 71.8652L41.332 64.667C45.376 64.0141 49.182 62.3256 52.3799 59.7656H69.6152C71.6364 59.7624 73.2741 58.1247 73.2773 56.1035V6.36035C73.2741 4.33916 71.6364 2.70147 69.6152 2.69824H5.38477C3.36358 2.70147 1.72589 4.33916 1.72266 6.36035V16.6611C1.72266 17.0656 2.05058 17.3936 2.45508 17.3936C2.85959 17.3936 3.1875 17.0656 3.1875 16.6611V6.36035C3.19072 5.14817 4.17259 4.16631 5.38477 4.16309H18.9873L22.0137 11.5166C22.5808 12.8852 23.9189 13.7754 25.4004 13.7695H31.5293C31.9338 13.7695 32.2617 13.4416 32.2617 13.0371C32.2617 12.6326 31.9338 12.3047 31.5293 12.3047H25.4004C24.5101 12.3067 23.7074 11.7692 23.3701 10.9453L20.5693 4.16309H69.6152C70.8274 4.16631 71.8093 5.14817 71.8125 6.36035V12.3047H37.3887C36.9842 12.3047 36.6563 12.6326 36.6563 13.0371C36.6563 13.4416 36.9842 13.7695 37.3887 13.7695H71.8125V56.0918C71.8077 57.3033 70.8268 58.2842 69.6152 58.2891H54.0381C61.7373 50.8684 63.5474 39.2263 58.4648 29.8184C58.2666 29.4757 57.832 29.3526 57.4835 29.5403C57.135 29.728 56.9988 30.1587 57.1758 30.5127C58.9368 33.7403 59.8643 37.3564 59.874 41.0332C59.8945 51.6328 52.2949 61.6113 40.7227 63.2812C40.4738 63.3207 40.2614 63.4825 40.1572 63.7119L37.5 69.75L34.8457 63.709C34.7402 63.4799 34.5267 63.3192 34.2773 63.2812C23.2869 61.6822 15.1355 52.2595 15.1348 41.1533C15.1348 27.6357 26.1064 18.8877 37.4971 18.791C43.7231 18.7269 49.6808 21.3221 53.874 25.9248C54.1542 26.2105 54.6093 26.226 54.9082 25.96C55.204 25.6847 55.221 25.222 54.9463 24.9258C50.4443 20.0713 44.1207 17.3157 37.5 17.3232C23.168 17.3232 13.7842 29.001 13.6729 41.1504C13.6022 47.634 16.2449 53.852 20.9619 58.3008H5.38477C4.17325 58.296 3.19232 57.315 3.1875 56.1035V22.5205C3.1875 22.116 2.85959 21.7881 2.45508 21.7881C2.05058 21.7881 1.72266 22.116 1.72266 22.5205V56.0918C1.72111 57.0646 2.10606 57.9982 2.79284 58.6872C3.47962 59.3761 4.41196 59.7641 5.38477 59.7656H22.6231C25.8201 62.3251 29.6251 64.0136 33.668 64.667Z" fill="black"/>
<path d="M47.918 25.3301C47.5135 25.3301 47.1855 25.658 47.1855 26.0625V27.1055H46.1426C45.7381 27.1055 45.4102 27.4334 45.4102 27.8379C45.4102 28.2424 45.7381 28.5703 46.1426 28.5703H47.1855V29.6104C47.1855 30.0149 47.5135 30.3428 47.918 30.3428C48.3225 30.3428 48.6504 30.0149 48.6504 29.6104V28.5703H49.6904C50.0949 28.5703 50.4229 28.2424 50.4229 27.8379C50.4229 27.4334 50.0949 27.1055 49.6904 27.1055H48.6504V26.0742C48.6535 25.8779 48.5778 25.6886 48.4401 25.5487C48.3024 25.4088 48.1143 25.3301 47.918 25.3301Z" fill="black"/>
</svg>
