<svg width="108" height="106" viewBox="0 0 108 106" fill="none" xmlns="http://www.w3.org/2000/svg">
<g filter="url(#filter0_d_554_1084)">
<ellipse cx="53.5385" cy="49" rx="49.5385" ry="49" fill="#0667BD" fill-opacity="0.13"/>
<mask id="mask0_554_1084" style="mask-type:alpha" maskUnits="userSpaceOnUse" x="37" y="30" width="34" height="34">
<path d="M52.3514 56.0189C53.4087 52.1908 57.1056 49.4564 61.3639 49.9085C65.4181 50.3387 68.641 53.7585 68.8452 57.8272C68.8962 58.8991 68.7504 59.9272 68.4368 60.8824C68.2472 61.4658 67.6785 61.8522 67.0587 61.8522H45.3427C41.6618 61.8522 38.9012 58.4842 39.6231 54.8748L44.0608 32.6855H52.8108L55.7274 37.7897L49.4785 42.2595L47.7066 39.9772" fill="white"/>
<path d="M52.3514 56.0189C53.4087 52.1908 57.1056 49.4564 61.3639 49.9085C65.4181 50.3387 68.641 53.7585 68.8452 57.8272C68.8962 58.8991 68.7504 59.9272 68.4368 60.8824C68.2472 61.4658 67.6785 61.8522 67.0587 61.8522H45.3427C41.6618 61.8522 38.9012 58.4842 39.6231 54.8748L44.0608 32.6855H52.8108L55.7274 37.7897L49.4785 42.2595L47.7066 39.9772M49.4858 42.2595L52.8108 54.5605" stroke="white" stroke-width="4" stroke-miterlimit="2" stroke-linecap="round" stroke-linejoin="round"/>
</mask>
<g mask="url(#mask0_554_1084)">
<path d="M36.7695 29.769H71.7695V64.769H36.7695V29.769Z" fill="#0067FF"/>
</g>
</g>
<defs>
<filter id="filter0_d_554_1084" x="0" y="0" width="107.076" height="106" filterUnits="userSpaceOnUse" color-interpolation-filters="sRGB">
<feFlood flood-opacity="0" result="BackgroundImageFix"/>
<feColorMatrix in="SourceAlpha" type="matrix" values="0 0 0 0 0 0 0 0 0 0 0 0 0 0 0 0 0 0 127 0" result="hardAlpha"/>
<feOffset dy="4"/>
<feGaussianBlur stdDeviation="2"/>
<feComposite in2="hardAlpha" operator="out"/>
<feColorMatrix type="matrix" values="0 0 0 0 0 0 0 0 0 0 0 0 0 0 0 0 0 0 0.25 0"/>
<feBlend mode="normal" in2="BackgroundImageFix" result="effect1_dropShadow_554_1084"/>
<feBlend mode="normal" in="SourceGraphic" in2="effect1_dropShadow_554_1084" result="shape"/>
</filter>
</defs>
</svg>
