<svg width="127" height="152" viewBox="0 0 127 152" fill="none" xmlns="http://www.w3.org/2000/svg">
<path d="M67.3192 133.379C99.8155 133.379 126.159 107.035 126.159 74.5389C126.159 42.0427 99.8155 15.6992 67.3192 15.6992C34.8229 15.6992 8.47949 42.0427 8.47949 74.5389C8.47949 107.035 34.8229 133.379 67.3192 133.379Z" fill="#7BA8FF"/>
<g clip-path="url(#clip0_4583_9949)">
<path d="M121.601 45.6797H12.8545V54.3448H121.601V45.6797Z" fill="#1F3E75"/>
<path d="M104.271 41.3477V141.43L94.9995 150.095L85.7495 141.43L76.4778 150.095L67.2279 141.43L57.9562 150.095L48.7062 141.43L39.4562 150.095L30.1846 141.43V41.3477H104.271Z" fill="#1960EA"/>
<path d="M21.5196 41.3477H12.8545V58.6778H21.5196V41.3477Z" fill="#73A7F9"/>
<path d="M121.602 41.3477H112.937V58.6778H121.602V41.3477Z" fill="#73A7F9"/>
<path d="M21.5196 41.3477H12.8545V50.0128H21.5196V41.3477Z" fill="#C0DAFF"/>
<path d="M121.602 41.3477H112.937V50.0128H121.602V41.3477Z" fill="#C0DAFF"/>
<path d="M30.1846 84.0234C30.1846 84.0234 35.9252 112.835 55.8549 121.283C55.8549 121.283 39.2829 122.951 30.1846 113.853V84.0234Z" fill="#C0DAFF"/>
<path d="M104.272 100.27C104.272 100.27 95.0215 128.583 65.127 130.446C65.127 130.446 76.3916 135.06 87.3746 132.894C98.3576 130.727 104.272 122.214 104.272 122.214V100.27Z" fill="#C0DAFF"/>
<path d="M22.6029 59.7601H11.7715V40.2637H22.6029V59.7601ZM13.9378 57.5939H20.4366V42.4299H13.9378V57.5939Z" fill="#10203C"/>
<path d="M30.1851 53.2617H25.8525V55.428H30.1851V53.2617Z" fill="#10203C"/>
<path d="M30.1846 44.5957H21.5195V46.762H30.1846V44.5957Z" fill="#10203C"/>
<path d="M112.937 53.2617H104.271V55.428H112.937V53.2617Z" fill="#10203C"/>
<path d="M112.937 44.5957H104.271V46.762H112.937V44.5957Z" fill="#10203C"/>
<path d="M122.685 59.7601H111.854V40.2637H122.685V59.7601ZM114.02 57.5939H120.519V42.4299H114.02V57.5939Z" fill="#10203C"/>
<path d="M76.4778 151.177C76.2178 151.177 75.9362 151.09 75.7413 150.895L67.2278 142.902L58.7143 150.874C58.3028 151.264 57.6529 151.264 57.2413 150.874L48.7278 142.902L40.2144 150.874C39.8028 151.264 39.1529 151.264 38.7413 150.874L29.4697 142.209C29.253 142.014 29.123 141.71 29.123 141.407V40.2637H105.376V100.269C105.376 100.378 105.354 100.508 105.333 100.616C105.246 100.919 102.885 107.981 96.7758 115.368C93.1798 119.723 89.0205 123.254 84.428 125.896C78.6657 129.211 72.2102 131.117 65.2348 131.55L65.1049 129.384C77.171 128.626 87.2442 123.47 95.0644 114.047C100.437 107.57 102.841 101.179 103.231 100.096V42.4299H31.2677V140.952L39.4345 148.599L47.948 140.627C48.3596 140.237 49.0094 140.237 49.421 140.627L57.9345 148.599L66.4479 140.627C66.8595 140.237 67.5094 140.237 67.921 140.627L76.4345 148.599L84.9479 140.627C85.3595 140.237 86.0094 140.237 86.421 140.627L94.9344 148.599L103.123 140.952V106.768H105.289V141.429C105.289 141.732 105.159 142.014 104.943 142.23L95.671 150.895C95.2594 151.285 94.6095 151.285 94.1979 150.895L85.6845 142.923L77.171 150.895C77.0194 151.09 76.7594 151.177 76.4778 151.177Z" fill="#10203C"/>
<path d="M55.4216 122.278C47.0165 118.725 39.8028 110.991 34.5604 99.9434C30.6178 91.6683 29.1664 84.5196 29.123 84.2379L31.246 83.8047C31.2677 83.8697 32.7191 91.0184 36.5534 99.0553C40.0627 106.399 46.3233 116.061 56.2881 120.285L55.4216 122.278Z" fill="#10203C"/>
<path d="M63.7031 58.2188L62.5781 79.4062L54.3906 80.1562L50.0156 68.8125L49.3281 80.375H42.2969L42.8594 58.2188L50.6719 57.8438L56.0781 69.0938L56.3281 58.4688L63.7031 58.2188ZM79.7812 58.0938C79.7188 59.0729 79.6615 60.0417 79.6094 61C79.5573 61.9583 79.4896 62.9271 79.4062 63.9062L72.7812 64.25V66.2188H78.5312L78.2188 71.0625L72.75 71.2188L72.7812 80.4688L64.875 80.625L65.375 58.0938H79.7812ZM97.0938 58.2812L96.9375 64.9062L92.2812 65.0938L91.0938 79.9062L84.5 80.25L84.5312 65.4375L79.875 65.6875L80.0625 58.3125L97.0938 58.2812Z" fill="#EBEAE0"/>
<path d="M63.7031 58.2188L65.7003 58.3248L65.816 56.146L63.6354 56.2199L63.7031 58.2188ZM62.5781 79.4062L62.7606 81.3979L64.4836 81.2401L64.5753 79.5123L62.5781 79.4062ZM54.3906 80.1562L52.5246 80.8759L53.0683 82.2857L54.5731 82.1479L54.3906 80.1562ZM50.0156 68.8125L51.8817 68.0928L48.5661 59.4959L48.0192 68.6938L50.0156 68.8125ZM49.3281 80.375V82.375H51.2127L51.3246 80.4937L49.3281 80.375ZM42.2969 80.375L40.2975 80.3242L40.2455 82.375H42.2969V80.375ZM42.8594 58.2188L42.7635 56.2211L40.9072 56.3102L40.86 58.168L42.8594 58.2188ZM50.6719 57.8438L52.4745 56.9775L51.9003 55.7825L50.576 55.8461L50.6719 57.8438ZM56.0781 69.0938L54.2755 69.96L57.8817 77.4644L58.0776 69.1408L56.0781 69.0938ZM56.3281 58.4688L56.2604 56.4699L54.3731 56.5339L54.3287 58.4217L56.3281 58.4688ZM61.7059 58.1127L60.5809 79.3002L64.5753 79.5123L65.7003 58.3248L61.7059 58.1127ZM62.3957 77.4146L54.2082 78.1646L54.5731 82.1479L62.7606 81.3979L62.3957 77.4146ZM56.2567 79.4366L51.8817 68.0928L48.1496 69.5322L52.5246 80.8759L56.2567 79.4366ZM48.0192 68.6938L47.3317 80.2563L51.3246 80.4937L52.0121 68.9312L48.0192 68.6938ZM49.3281 78.375H42.2969V82.375H49.3281V78.375ZM44.2962 80.4258L44.8587 58.2695L40.86 58.168L40.2975 80.3242L44.2962 80.4258ZM42.9553 60.2164L50.7678 59.8414L50.576 55.8461L42.7635 56.2211L42.9553 60.2164ZM48.8692 58.71L54.2755 69.96L57.8808 68.2275L52.4745 56.9775L48.8692 58.71ZM58.0776 69.1408L58.3276 58.5158L54.3287 58.4217L54.0787 69.0467L58.0776 69.1408ZM56.3959 60.4676L63.7709 60.2176L63.6354 56.2199L56.2604 56.4699L56.3959 60.4676ZM79.7812 58.0938L81.7772 58.2212L81.913 56.0938H79.7812V58.0938ZM79.4062 63.9062L79.5099 65.9036L81.2512 65.8132L81.399 64.0758L79.4062 63.9062ZM72.7812 64.25L72.6776 62.2527L70.7812 62.3511V64.25H72.7812ZM72.7812 66.2188H70.7812V68.2188H72.7812V66.2188ZM78.5312 66.2188L80.5271 66.3475L80.6644 64.2188H78.5312V66.2188ZM78.2188 71.0625L78.2759 73.0617L80.0973 73.0096L80.2146 71.1913L78.2188 71.0625ZM72.75 71.2188L72.6929 69.2196L70.7434 69.2753L70.75 71.2255L72.75 71.2188ZM72.7812 80.4688L72.8208 82.4684L74.7879 82.4295L74.7812 80.462L72.7812 80.4688ZM64.875 80.625L62.8755 80.5806L62.8292 82.6658L64.9145 82.6246L64.875 80.625ZM65.375 58.0938V56.0938H63.4189L63.3755 58.0494L65.375 58.0938ZM77.7853 57.9663C77.7224 58.9517 77.6648 59.9267 77.6123 60.8915L81.6064 61.1085C81.6582 60.1566 81.7151 59.1942 81.7772 58.2212L77.7853 57.9663ZM77.6123 60.8915C77.5614 61.8289 77.4951 62.7773 77.4135 63.7367L81.399 64.0758C81.4841 63.0768 81.5532 62.0877 81.6064 61.1085L77.6123 60.8915ZM79.3026 61.9089L72.6776 62.2527L72.8849 66.2473L79.5099 65.9036L79.3026 61.9089ZM70.7812 64.25V66.2188H74.7812V64.25H70.7812ZM72.7812 68.2188H78.5312V64.2188H72.7812V68.2188ZM76.5354 66.09L76.2229 70.9337L80.2146 71.1913L80.5271 66.3475L76.5354 66.09ZM78.1616 69.0633L72.6929 69.2196L72.8071 73.2179L78.2759 73.0617L78.1616 69.0633ZM70.75 71.2255L70.7813 80.4755L74.7812 80.462L74.75 71.212L70.75 71.2255ZM72.7417 78.4691L64.8355 78.6254L64.9145 82.6246L72.8208 82.4684L72.7417 78.4691ZM66.8745 80.6694L67.3745 58.1381L63.3755 58.0494L62.8755 80.5806L66.8745 80.6694ZM65.375 60.0938H79.7812V56.0938H65.375V60.0938ZM97.0938 58.2812L99.0932 58.3284L99.1416 56.2775L97.0901 56.2813L97.0938 58.2812ZM96.9375 64.9062L97.018 66.9046L98.8927 66.8291L98.9369 64.9534L96.9375 64.9062ZM92.2812 65.0938L92.2008 63.0954L90.4293 63.1667L90.2876 64.9339L92.2812 65.0938ZM91.0938 79.9062L91.1979 81.9035L92.9474 81.8123L93.0874 80.0661L91.0938 79.9062ZM84.5 80.25L82.5 80.2458L82.4955 82.3572L84.6041 82.2473L84.5 80.25ZM84.5312 65.4375L86.5312 65.4417L86.5357 63.327L84.424 63.4404L84.5312 65.4375ZM79.875 65.6875L77.8756 65.6367L77.8206 67.8007L79.9822 67.6846L79.875 65.6875ZM80.0625 58.3125L80.0588 56.3125L78.1126 56.3161L78.0631 58.2617L80.0625 58.3125ZM95.0943 58.2341L94.9381 64.8591L98.9369 64.9534L99.0932 58.3284L95.0943 58.2341ZM96.857 62.9079L92.2008 63.0954L92.3617 67.0921L97.018 66.9046L96.857 62.9079ZM90.2876 64.9339L89.1001 79.7464L93.0874 80.0661L94.2749 65.2536L90.2876 64.9339ZM90.9896 77.909L84.3959 78.2527L84.6041 82.2473L91.1979 81.9035L90.9896 77.909ZM86.5 80.2542L86.5312 65.4417L82.5313 65.4333L82.5 80.2458L86.5 80.2542ZM84.424 63.4404L79.7678 63.6904L79.9822 67.6846L84.6385 67.4346L84.424 63.4404ZM81.8744 65.7383L82.0619 58.3633L78.0631 58.2617L77.8756 65.6367L81.8744 65.7383ZM80.0662 60.3125L97.0974 60.2812L97.0901 56.2813L80.0588 56.3125L80.0662 60.3125Z" fill="#10203C"/>
</g>
<path d="M105.308 12.9141C104.415 12.9141 103.691 13.6379 103.691 14.5308C103.691 15.4237 104.415 16.1476 105.308 16.1476C106.201 16.1476 106.925 15.4237 106.925 14.5308C106.925 13.6379 106.201 12.9141 105.308 12.9141Z" fill="#414449"/>
<path d="M94.2063 0C90.6346 0 87.7393 2.89538 87.7393 6.46702C87.7393 10.0387 90.6346 12.934 94.2063 12.934C97.7779 12.934 100.673 10.0387 100.673 6.46702C100.673 2.89538 97.7779 0 94.2063 0Z" fill="#414449"/>
<path d="M113.173 109.452C111.387 109.452 109.939 110.9 109.939 112.686C109.939 114.472 111.387 115.92 113.173 115.92C114.959 115.92 116.406 114.472 116.406 112.686C116.406 110.9 114.959 109.452 113.173 109.452ZM6.46702 85.2012C2.89547 85.2012 0 88.0966 0 91.6682C0 95.2398 2.89547 98.1352 6.46702 98.1352C10.0386 98.1352 12.934 95.2398 12.934 91.6682C12.934 88.0966 10.0386 85.2012 6.46702 85.2012Z" fill="#8BA5D7"/>
<path d="M95.5304 20.2578C93.7446 20.2578 92.2969 21.7055 92.2969 23.4913C92.2969 25.2771 93.7446 26.7248 95.5304 26.7248C97.3162 26.7248 98.7639 25.2771 98.7639 23.4913C98.7639 21.7055 97.3162 20.2578 95.5304 20.2578Z" fill="#1960EA"/>
<defs>
<clipPath id="clip0_4583_9949">
<rect width="110.913" height="110.913" fill="white" transform="translate(11.7715 40.2637)"/>
</clipPath>
</defs>
</svg>
