<svg width="160" height="159" viewBox="0 0 160 159" fill="none" xmlns="http://www.w3.org/2000/svg">
<path d="M22.4193 50.88C24.1755 50.88 25.5993 49.4563 25.5993 47.7C25.5993 45.9438 24.1755 44.52 22.4193 44.52C20.663 44.52 19.2393 45.9438 19.2393 47.7C19.2393 49.4563 20.663 50.88 22.4193 50.88Z" fill="#465E8D"/>
<path d="M124.179 23.8502C125.057 23.8502 125.769 23.1383 125.769 22.2602C125.769 21.382 125.057 20.6702 124.179 20.6702C123.301 20.6702 122.589 21.382 122.589 22.2602C122.589 23.1383 123.301 23.8502 124.179 23.8502Z" fill="#1960EA"/>
<path d="M81.249 139.92C113.74 139.92 140.079 113.581 140.079 81.09C140.079 48.5991 113.74 22.26 81.249 22.26C48.758 22.26 22.4189 48.5991 22.4189 81.09C22.4189 113.581 48.758 139.92 81.249 139.92Z" fill="#7BA8FF"/>
<path d="M133.719 31.8001C137.232 31.8001 140.079 28.9526 140.079 25.4401C140.079 21.9275 137.232 19.0801 133.719 19.0801C130.207 19.0801 127.359 21.9275 127.359 25.4401C127.359 28.9526 130.207 31.8001 133.719 31.8001Z" fill="#1960EA"/>
<path d="M140.079 42.9301C141.836 42.9301 143.259 41.5063 143.259 39.7501C143.259 37.9938 141.836 36.5701 140.079 36.5701C138.323 36.5701 136.899 37.9938 136.899 39.7501C136.899 41.5063 138.323 42.9301 140.079 42.9301Z" fill="#465E8D"/>
<path d="M130.539 125.61C132.296 125.61 133.719 124.186 133.719 122.43C133.719 120.674 132.296 119.25 130.539 119.25C128.783 119.25 127.359 120.674 127.359 122.43C127.359 124.186 128.783 125.61 130.539 125.61Z" fill="#D5E3FF"/>
<path d="M25.5993 108.12C29.1118 108.12 31.9593 105.273 31.9593 101.76C31.9593 98.2476 29.1118 95.4001 25.5993 95.4001C22.0867 95.4001 19.2393 98.2476 19.2393 101.76C19.2393 105.273 22.0867 108.12 25.5993 108.12Z" fill="#D5E3FF"/>
<path d="M41.4993 143.1C43.2556 143.1 44.6793 141.676 44.6793 139.92C44.6793 138.164 43.2556 136.74 41.4993 136.74C39.7431 136.74 38.3193 138.164 38.3193 139.92C38.3193 141.676 39.7431 143.1 41.4993 143.1Z" fill="#465E8D"/>
<path d="M32.7543 89.0401C34.9496 89.0401 36.7293 87.2604 36.7293 85.0651C36.7293 82.8698 34.9496 81.0901 32.7543 81.0901C30.559 81.0901 28.7793 82.8698 28.7793 85.0651C28.7793 87.2604 30.559 89.0401 32.7543 89.0401Z" fill="white"/>
<path d="M35.1388 109.71C36.017 109.71 36.7288 108.998 36.7288 108.12C36.7288 107.242 36.017 106.53 35.1388 106.53C34.2607 106.53 33.5488 107.242 33.5488 108.12C33.5488 108.998 34.2607 109.71 35.1388 109.71Z" fill="#1960EA"/>
<path d="M128.949 57.2401C129.828 57.2401 130.539 56.5282 130.539 55.6501C130.539 54.7719 129.828 54.0601 128.949 54.0601C128.071 54.0601 127.359 54.7719 127.359 55.6501C127.359 56.5282 128.071 57.2401 128.949 57.2401Z" fill="white"/>
<path d="M117.819 79.4999H44.6787L51.0387 65.1899H111.459L117.819 79.4999Z" fill="#836F61"/>
<path d="M44.6807 55.6499H117.821L111.461 65.1899H51.0407L44.6807 55.6499Z" fill="#472B29"/>
<path d="M45.8252 56.127C46.3229 47.8765 52.1979 40.863 55.8088 40.863H106.689C111.797 40.863 116.304 47.8749 116.68 56.127H45.8252Z" fill="#1960EA"/>
<path d="M106.689 41.976C110.912 41.976 114.793 47.9496 115.483 55.014H47.0494C47.9764 47.8033 53.147 41.976 55.8087 41.976H106.689ZM106.689 39.75H55.8087C51.0387 39.75 44.6787 48.495 44.6787 57.24H117.819C117.819 48.495 113.049 39.75 106.689 39.75Z" fill="#472B29"/>
<path d="M67.7339 75.5251C70.3683 75.5251 72.5039 73.3895 72.5039 70.7551C72.5039 68.1207 70.3683 65.9851 67.7339 65.9851C65.0995 65.9851 62.9639 68.1207 62.9639 70.7551C62.9639 73.3895 65.0995 75.5251 67.7339 75.5251Z" fill="#1960EA"/>
<path d="M67.7339 76.3199C64.6652 76.3199 62.1689 73.8236 62.1689 70.7549C62.1689 67.6862 64.6652 65.1899 67.7339 65.1899C70.8026 65.1899 73.2989 67.6862 73.2989 70.7549C73.2989 73.8236 70.8026 76.3199 67.7339 76.3199ZM67.7339 66.7799C65.5413 66.7799 63.7589 68.5639 63.7589 70.7549C63.7589 72.946 65.5413 74.7299 67.7339 74.7299C69.9266 74.7299 71.7089 72.946 71.7089 70.7549C71.7089 68.5639 69.9266 66.7799 67.7339 66.7799Z" fill="#472B29"/>
<path d="M61.3745 78.705C64.0089 78.705 66.1445 76.5694 66.1445 73.935C66.1445 71.3006 64.0089 69.165 61.3745 69.165C58.7401 69.165 56.6045 71.3006 56.6045 73.935C56.6045 76.5694 58.7401 78.705 61.3745 78.705Z" fill="#CBC9BC"/>
<path d="M61.3736 79.5001C58.3049 79.5001 55.8086 77.0038 55.8086 73.9351C55.8086 70.8664 58.3049 68.3701 61.3736 68.3701C64.4423 68.3701 66.9386 70.8664 66.9386 73.9351C66.9386 77.0038 64.4423 79.5001 61.3736 79.5001ZM61.3736 69.9601C59.181 69.9601 57.3986 71.7441 57.3986 73.9351C57.3986 76.1261 59.181 77.9101 61.3736 77.9101C63.5662 77.9101 65.3486 76.1261 65.3486 73.9351C65.3486 71.7441 63.5662 69.9601 61.3736 69.9601Z" fill="#472B29"/>
<path d="M55.0141 81.885C57.6485 81.885 59.7841 79.7494 59.7841 77.115C59.7841 74.4806 57.6485 72.345 55.0141 72.345C52.3797 72.345 50.2441 74.4806 50.2441 77.115C50.2441 79.7494 52.3797 81.885 55.0141 81.885Z" fill="#90EBF5"/>
<path d="M55.0142 82.68C51.9455 82.68 49.4492 80.1837 49.4492 77.115C49.4492 74.0463 51.9455 71.55 55.0142 71.55C58.0829 71.55 60.5792 74.0463 60.5792 77.115C60.5792 80.1837 58.0829 82.68 55.0142 82.68ZM55.0142 73.14C52.8216 73.14 51.0392 74.924 51.0392 77.115C51.0392 79.3061 52.8216 81.09 55.0142 81.09C57.2068 81.09 58.9892 79.3061 58.9892 77.115C58.9892 74.924 57.2068 73.14 55.0142 73.14Z" fill="#472B29"/>
<path d="M62.9643 83.4751C65.5987 83.4751 67.7343 81.3395 67.7343 78.7051C67.7343 76.0707 65.5987 73.9351 62.9643 73.9351C60.3299 73.9351 58.1943 76.0707 58.1943 78.7051C58.1943 81.3395 60.3299 83.4751 62.9643 83.4751Z" fill="#D5E3FF"/>
<path d="M62.9644 84.2699C59.8957 84.2699 57.3994 81.7736 57.3994 78.7049C57.3994 75.6362 59.8957 73.1399 62.9644 73.1399C66.0331 73.1399 68.5294 75.6362 68.5294 78.7049C68.5294 81.7736 66.0331 84.2699 62.9644 84.2699ZM62.9644 74.7299C60.7718 74.7299 58.9894 76.5139 58.9894 78.7049C58.9894 80.8959 60.7718 82.6799 62.9644 82.6799C65.157 82.6799 66.9394 80.8959 66.9394 78.7049C66.9394 76.5139 65.157 74.7299 62.9644 74.7299Z" fill="#472B29"/>
<path d="M74.0942 73.935C76.7286 73.935 78.8642 71.7994 78.8642 69.165C78.8642 66.5306 76.7286 64.395 74.0942 64.395C71.4598 64.395 69.3242 66.5306 69.3242 69.165C69.3242 71.7994 71.4598 73.935 74.0942 73.935Z" fill="#CBC9BC"/>
<path d="M74.0943 74.7301C71.0256 74.7301 68.5293 72.2338 68.5293 69.1651C68.5293 66.0964 71.0256 63.6001 74.0943 63.6001C77.163 63.6001 79.6593 66.0964 79.6593 69.1651C79.6593 72.2338 77.163 74.7301 74.0943 74.7301ZM74.0943 65.1901C71.9017 65.1901 70.1193 66.9741 70.1193 69.1651C70.1193 71.3561 71.9017 73.1401 74.0943 73.1401C76.2869 73.1401 78.0693 71.3561 78.0693 69.1651C78.0693 66.9741 76.2869 65.1901 74.0943 65.1901Z" fill="#472B29"/>
<path d="M82.0444 72.3449C84.6788 72.3449 86.8144 70.2093 86.8144 67.5749C86.8144 64.9405 84.6788 62.8049 82.0444 62.8049C79.41 62.8049 77.2744 64.9405 77.2744 67.5749C77.2744 70.2093 79.41 72.3449 82.0444 72.3449Z" fill="#90EBF5"/>
<path d="M82.0445 73.14C78.9758 73.14 76.4795 70.6437 76.4795 67.575C76.4795 64.5063 78.9758 62.01 82.0445 62.01C85.1132 62.01 87.6095 64.5063 87.6095 67.575C87.6095 70.6437 85.1132 73.14 82.0445 73.14ZM82.0445 63.6C79.8519 63.6 78.0695 65.384 78.0695 67.575C78.0695 69.766 79.8519 71.55 82.0445 71.55C84.2371 71.55 86.0195 69.766 86.0195 67.575C86.0195 65.384 84.2371 63.6 82.0445 63.6Z" fill="#472B29"/>
<path d="M96.354 75.5251C98.9884 75.5251 101.124 73.3895 101.124 70.7551C101.124 68.1207 98.9884 65.9851 96.354 65.9851C93.7196 65.9851 91.584 68.1207 91.584 70.7551C91.584 73.3895 93.7196 75.5251 96.354 75.5251Z" fill="#1960EA"/>
<path d="M96.3541 76.3199C93.2854 76.3199 90.7891 73.8236 90.7891 70.7549C90.7891 67.6862 93.2854 65.1899 96.3541 65.1899C99.4228 65.1899 101.919 67.6862 101.919 70.7549C101.919 73.8236 99.4228 76.3199 96.3541 76.3199ZM96.3541 66.7799C94.1615 66.7799 92.3791 68.5639 92.3791 70.7549C92.3791 72.946 94.1615 74.7299 96.3541 74.7299C98.5467 74.7299 100.329 72.946 100.329 70.7549C100.329 68.5639 98.5467 66.7799 96.3541 66.7799Z" fill="#472B29"/>
<path d="M102.714 77.115C105.349 77.115 107.484 74.9793 107.484 72.345C107.484 69.7106 105.349 67.575 102.714 67.575C100.08 67.575 97.9443 69.7106 97.9443 72.345C97.9443 74.9793 100.08 77.115 102.714 77.115Z" fill="#CBC9BC"/>
<path d="M102.714 77.91C99.6457 77.91 97.1494 75.4137 97.1494 72.345C97.1494 69.2763 99.6457 66.78 102.714 66.78C105.783 66.78 108.279 69.2763 108.279 72.345C108.279 75.4137 105.783 77.91 102.714 77.91ZM102.714 68.37C100.522 68.37 98.7394 70.154 98.7394 72.345C98.7394 74.536 100.522 76.32 102.714 76.32C104.907 76.32 106.689 74.536 106.689 72.345C106.689 70.154 104.907 68.37 102.714 68.37Z" fill="#472B29"/>
<path d="M107.484 81.885C110.118 81.885 112.254 79.7494 112.254 77.115C112.254 74.4806 110.118 72.345 107.484 72.345C104.849 72.345 102.714 74.4806 102.714 77.115C102.714 79.7494 104.849 81.885 107.484 81.885Z" fill="#90EBF5"/>
<path d="M107.484 82.68C104.415 82.68 101.919 80.1837 101.919 77.115C101.919 74.0463 104.415 71.55 107.484 71.55C110.553 71.55 113.049 74.0463 113.049 77.115C113.049 80.1837 110.553 82.68 107.484 82.68ZM107.484 73.14C105.291 73.14 103.509 74.924 103.509 77.115C103.509 79.3061 105.291 81.09 107.484 81.09C109.677 81.09 111.459 79.3061 111.459 77.115C111.459 74.924 109.677 73.14 107.484 73.14Z" fill="#472B29"/>
<path d="M89.9936 75.5251C92.628 75.5251 94.7636 73.3895 94.7636 70.7551C94.7636 68.1207 92.628 65.9851 89.9936 65.9851C87.3592 65.9851 85.2236 68.1207 85.2236 70.7551C85.2236 73.3895 87.3592 75.5251 89.9936 75.5251Z" fill="#D5E3FF"/>
<path d="M89.9937 76.3199C86.925 76.3199 84.4287 73.8236 84.4287 70.7549C84.4287 67.6862 86.925 65.1899 89.9937 65.1899C93.0624 65.1899 95.5587 67.6862 95.5587 70.7549C95.5587 73.8236 93.0624 76.3199 89.9937 76.3199ZM89.9937 66.7799C87.8011 66.7799 86.0187 68.5639 86.0187 70.7549C86.0187 72.946 87.8011 74.7299 89.9937 74.7299C92.1863 74.7299 93.9687 72.946 93.9687 70.7549C93.9687 68.5639 92.1863 66.7799 89.9937 66.7799Z" fill="#472B29"/>
<path d="M77.2739 80.2949C79.9083 80.2949 82.0439 78.1593 82.0439 75.5249C82.0439 72.8905 79.9083 70.7549 77.2739 70.7549C74.6395 70.7549 72.5039 72.8905 72.5039 75.5249C72.5039 78.1593 74.6395 80.2949 77.2739 80.2949Z" fill="#1960EA"/>
<path d="M77.274 81.09C74.2053 81.09 71.709 78.5937 71.709 75.525C71.709 72.4563 74.2053 69.96 77.274 69.96C80.3427 69.96 82.839 72.4563 82.839 75.525C82.839 78.5937 80.3427 81.09 77.274 81.09ZM77.274 71.55C75.0814 71.55 73.299 73.3339 73.299 75.525C73.299 77.716 75.0814 79.5 77.274 79.5C79.4666 79.5 81.249 77.716 81.249 75.525C81.249 73.3339 79.4666 71.55 77.274 71.55Z" fill="#472B29"/>
<path d="M83.6343 80.2949C86.2687 80.2949 88.4043 78.1593 88.4043 75.5249C88.4043 72.8905 86.2687 70.7549 83.6343 70.7549C80.9999 70.7549 78.8643 72.8905 78.8643 75.5249C78.8643 78.1593 80.9999 80.2949 83.6343 80.2949Z" fill="#90EBF5"/>
<path d="M83.6343 81.09C80.5656 81.09 78.0693 78.5937 78.0693 75.525C78.0693 72.4563 80.5656 69.96 83.6343 69.96C86.703 69.96 89.1993 72.4563 89.1993 75.525C89.1993 78.5937 86.703 81.09 83.6343 81.09ZM83.6343 71.55C81.4417 71.55 79.6593 73.3339 79.6593 75.525C79.6593 77.716 81.4417 79.5 83.6343 79.5C85.8269 79.5 87.6093 77.716 87.6093 75.525C87.6093 73.3339 85.8269 71.55 83.6343 71.55Z" fill="#472B29"/>
<path d="M91.5845 83.4751C94.2189 83.4751 96.3545 81.3395 96.3545 78.7051C96.3545 76.0707 94.2189 73.9351 91.5845 73.9351C88.9501 73.9351 86.8145 76.0707 86.8145 78.7051C86.8145 81.3395 88.9501 83.4751 91.5845 83.4751Z" fill="#D5E3FF"/>
<path d="M91.5836 84.2699C88.5149 84.2699 86.0186 81.7736 86.0186 78.7049C86.0186 75.6362 88.5149 73.1399 91.5836 73.1399C94.6523 73.1399 97.1486 75.6362 97.1486 78.7049C97.1486 81.7736 94.6523 84.2699 91.5836 84.2699ZM91.5836 74.7299C89.3909 74.7299 87.6086 76.5139 87.6086 78.7049C87.6086 80.8959 89.3909 82.6799 91.5836 82.6799C93.7762 82.6799 95.5586 80.8959 95.5586 78.7049C95.5586 76.5139 93.7762 74.7299 91.5836 74.7299Z" fill="#472B29"/>
<path d="M101.124 81.885C103.759 81.885 105.894 79.7494 105.894 77.115C105.894 74.4806 103.759 72.345 101.124 72.345C98.4901 72.345 96.3545 74.4806 96.3545 77.115C96.3545 79.7494 98.4901 81.885 101.124 81.885Z" fill="#D5E3FF"/>
<path d="M101.124 82.68C98.0549 82.68 95.5586 80.1837 95.5586 77.115C95.5586 74.0463 98.0549 71.55 101.124 71.55C104.192 71.55 106.689 74.0463 106.689 77.115C106.689 80.1837 104.192 82.68 101.124 82.68ZM101.124 73.14C98.931 73.14 97.1486 74.924 97.1486 77.115C97.1486 79.3061 98.931 81.09 101.124 81.09C103.316 81.09 105.099 79.3061 105.099 77.115C105.099 74.924 103.316 73.14 101.124 73.14Z" fill="#472B29"/>
<path d="M69.3237 80.2949C71.9581 80.2949 74.0937 78.1593 74.0937 75.5249C74.0937 72.8905 71.9581 70.7549 69.3237 70.7549C66.6893 70.7549 64.5537 72.8905 64.5537 75.5249C64.5537 78.1593 66.6893 80.2949 69.3237 80.2949Z" fill="#D5E3FF"/>
<path d="M69.3238 81.09C66.2551 81.09 63.7588 78.5937 63.7588 75.525C63.7588 72.4563 66.2551 69.96 69.3238 69.96C72.3925 69.96 74.8888 72.4563 74.8888 75.525C74.8888 78.5937 72.3925 81.09 69.3238 81.09ZM69.3238 71.55C67.1312 71.55 65.3488 73.3339 65.3488 75.525C65.3488 77.716 67.1312 79.5 69.3238 79.5C71.5164 79.5 73.2988 77.716 73.2988 75.525C73.2988 73.3339 71.5164 71.55 69.3238 71.55Z" fill="#472B29"/>
<path d="M93.1743 123.225C95.8087 123.225 97.9443 121.801 97.9443 120.045C97.9443 118.289 95.8087 116.865 93.1743 116.865C90.5399 116.865 88.4043 118.289 88.4043 120.045C88.4043 121.801 90.5399 123.225 93.1743 123.225Z" fill="#D5E3FF"/>
<path d="M93.1744 124.02C90.0532 124.02 87.6094 122.274 87.6094 120.045C87.6094 117.816 90.0532 116.07 93.1744 116.07C96.2955 116.07 98.7394 117.816 98.7394 120.045C98.7394 122.274 96.2955 124.02 93.1744 124.02ZM93.1744 117.66C91.0199 117.66 89.1994 118.752 89.1994 120.045C89.1994 121.338 91.0199 122.43 93.1744 122.43C95.3288 122.43 97.1494 121.338 97.1494 120.045C97.1494 118.752 95.3288 117.66 93.1744 117.66Z" fill="#472B29"/>
<path d="M83.6343 129.585C86.2687 129.585 88.4043 128.161 88.4043 126.405C88.4043 124.649 86.2687 123.225 83.6343 123.225C80.9999 123.225 78.8643 124.649 78.8643 126.405C78.8643 128.161 80.9999 129.585 83.6343 129.585Z" fill="#D5E3FF"/>
<path d="M83.6343 130.38C80.5132 130.38 78.0693 128.634 78.0693 126.405C78.0693 124.176 80.5132 122.43 83.6343 122.43C86.7555 122.43 89.1993 124.176 89.1993 126.405C89.1993 128.634 86.7555 130.38 83.6343 130.38ZM83.6343 124.02C81.4799 124.02 79.6593 125.112 79.6593 126.405C79.6593 127.698 81.4799 128.79 83.6343 128.79C85.7888 128.79 87.6093 127.698 87.6093 126.405C87.6093 125.112 85.7888 124.02 83.6343 124.02Z" fill="#472B29"/>
<path d="M101.124 124.815C103.759 124.815 105.894 123.391 105.894 121.635C105.894 119.879 103.759 118.455 101.124 118.455C98.4901 118.455 96.3545 119.879 96.3545 121.635C96.3545 123.391 98.4901 124.815 101.124 124.815Z" fill="#D5E3FF"/>
<path d="M101.124 125.61C98.0024 125.61 95.5586 123.864 95.5586 121.635C95.5586 119.406 98.0024 117.66 101.124 117.66C104.245 117.66 106.689 119.406 106.689 121.635C106.689 123.864 104.245 125.61 101.124 125.61ZM101.124 119.25C98.9691 119.25 97.1486 120.342 97.1486 121.635C97.1486 122.928 98.9691 124.02 101.124 124.02C103.278 124.02 105.099 122.928 105.099 121.635C105.099 120.342 103.278 119.25 101.124 119.25Z" fill="#472B29"/>
<path d="M117.819 79.5H44.6787V114.48H117.819V79.5Z" fill="#1960EA"/>
<path d="M110.664 88.6424H93.9024C93.683 88.6424 93.5049 88.4643 93.5049 88.2449C93.5049 88.0255 93.683 87.8474 93.9024 87.8474H110.664C110.884 87.8474 111.062 88.0255 111.062 88.2449C111.062 88.4643 110.884 88.6424 110.664 88.6424Z" fill="#472B29"/>
<path d="M70.7153 88.6424H57.4659C57.2464 88.6424 57.0684 88.4643 57.0684 88.2449C57.0684 88.0255 57.2464 87.8474 57.4659 87.8474H70.7153C70.9348 87.8474 71.1128 88.0255 71.1128 88.2449C71.1128 88.4643 70.9348 88.6424 70.7153 88.6424Z" fill="#472B29"/>
<path d="M54.1519 88.6424H45.4737C45.2543 88.6424 45.0762 88.4643 45.0762 88.2449C45.0762 88.0255 45.2543 87.8474 45.4737 87.8474H54.1519C54.3713 87.8474 54.5494 88.0255 54.5494 88.2449C54.5494 88.4643 54.3713 88.6424 54.1519 88.6424Z" fill="#472B29"/>
<path d="M117.024 96.5926H91.9151C91.6957 96.5926 91.5176 96.4145 91.5176 96.1951C91.5176 95.9757 91.6957 95.7976 91.9151 95.7976H117.024C117.244 95.7976 117.422 95.9757 117.422 96.1951C117.422 96.4145 117.244 96.5926 117.024 96.5926Z" fill="#472B29"/>
<path d="M58.9888 50.4825H47.3946C47.1752 50.4825 46.9971 50.3044 46.9971 50.085C46.9971 49.8656 47.1752 49.6875 47.3946 49.6875H58.9888C59.2083 49.6875 59.3863 49.8656 59.3863 50.085C59.3863 50.3044 59.2083 50.4825 58.9888 50.4825Z" fill="#472B29"/>
<path d="M114.639 50.4825H63.7588C63.5394 50.4825 63.3613 50.3044 63.3613 50.085C63.3613 49.8656 63.5394 49.6875 63.7588 49.6875H114.639C114.858 49.6875 115.036 49.8656 115.036 50.085C115.036 50.3044 114.858 50.4825 114.639 50.4825Z" fill="#472B29"/>
<path d="M112.254 45.7125H97.1495C96.93 45.7125 96.752 45.5344 96.752 45.315C96.752 45.0956 96.93 44.9175 97.1495 44.9175H112.254C112.474 44.9175 112.652 45.0956 112.652 45.315C112.652 45.5344 112.474 45.7125 112.254 45.7125Z" fill="#472B29"/>
<path d="M93.1743 45.7125H49.4493C49.2298 45.7125 49.0518 45.5344 49.0518 45.315C49.0518 45.0956 49.2298 44.9175 49.4493 44.9175H93.1743C93.3937 44.9175 93.5718 45.0956 93.5718 45.315C93.5718 45.5344 93.3937 45.7125 93.1743 45.7125Z" fill="#472B29"/>
<path d="M72.3724 96.5926H64.6211C64.4017 96.5926 64.2236 96.4145 64.2236 96.1951C64.2236 95.9757 64.4017 95.7976 64.6211 95.7976H72.3724C72.5918 95.7976 72.7699 95.9757 72.7699 96.1951C72.7699 96.4145 72.5918 96.5926 72.3724 96.5926Z" fill="#472B29"/>
<path d="M61.4404 96.5926H45.4737C45.2543 96.5926 45.0762 96.4145 45.0762 96.1951C45.0762 95.9757 45.2543 95.7976 45.4737 95.7976H61.4404C61.6599 95.7976 61.8379 95.9757 61.8379 96.1951C61.8379 96.4145 61.6599 96.5926 61.4404 96.5926Z" fill="#472B29"/>
<path d="M117.024 104.543H88.7344C88.515 104.543 88.3369 104.364 88.3369 104.145C88.3369 103.926 88.515 103.748 88.7344 103.748H117.024C117.243 103.748 117.421 103.926 117.421 104.145C117.421 104.364 117.243 104.543 117.024 104.543Z" fill="#472B29"/>
<path d="M74.2256 104.543H45.4737C45.2543 104.543 45.0762 104.364 45.0762 104.145C45.0762 103.926 45.2543 103.748 45.4737 103.748H74.2256C74.4451 103.748 74.6231 103.926 74.6231 104.145C74.6231 104.364 74.4451 104.543 74.2256 104.543Z" fill="#472B29"/>
<path d="M52.6286 104.444V102.681C52.6286 101.294 51.5044 100.17 50.1195 100.17H46.2686V106.53V112.89H52.6286H58.9886V109.039C58.9886 107.654 57.8644 106.53 56.4795 106.53H54.7162C53.5635 106.53 52.6286 105.595 52.6286 104.444Z" fill="#D5E3FF"/>
<path d="M59.3861 113.287H45.8711V99.7725H50.1196C51.7223 99.7725 53.0261 101.076 53.0261 102.679V104.442C53.0261 105.374 53.7845 106.132 54.7163 106.132H56.4796C58.0823 106.132 59.3861 107.436 59.3861 109.039V113.287ZM46.6661 112.492H58.5911V109.039C58.5911 107.875 57.6435 106.927 56.4796 106.927H54.7163C53.3473 106.927 52.2311 105.813 52.2311 104.442V102.679C52.2311 101.515 51.2835 100.567 50.1196 100.567H46.6661V112.492Z" fill="#472B29"/>
<path d="M107.783 106.53H106.019C104.633 106.53 103.509 107.654 103.509 109.039V112.89H109.869H116.229V106.53V100.17H112.378C110.993 100.17 109.869 101.294 109.869 102.679V104.442C109.869 105.595 108.934 106.53 107.783 106.53Z" fill="#D5E3FF"/>
<path d="M116.626 113.287H103.111V109.039C103.111 107.436 104.415 106.132 106.018 106.132H107.781C108.713 106.132 109.471 105.374 109.471 104.442V102.679C109.471 101.076 110.775 99.7725 112.378 99.7725H116.626V113.287ZM103.906 112.492H115.831V100.567H112.378C111.214 100.567 110.266 101.515 110.266 102.679V104.442C110.266 105.813 109.152 106.927 107.781 106.927H106.018C104.854 106.927 103.906 107.875 103.906 109.039V112.492Z" fill="#472B29"/>
<path d="M90.7888 80.4937H73.2988V90.2912C73.2988 91.285 73.7885 92.2135 74.601 92.7589L76.7157 94.1788C77.4551 94.6749 77.5616 95.7402 76.9367 96.3809L75.5248 97.8262C74.7791 98.5894 74.7791 99.8281 75.5248 100.593L80.6923 105.881C81.438 106.644 82.648 106.644 83.3953 105.881L88.5628 100.593C89.3085 99.8296 89.3085 98.591 88.5628 97.8262L87.1509 96.3809C86.526 95.7418 86.6326 94.6749 87.3719 94.1788L89.4866 92.7589C90.2991 92.2135 90.7888 91.2866 90.7888 90.2912V80.4937Z" fill="#D5E3FF"/>
<path d="M82.0442 106.851C81.4257 106.851 80.8438 106.605 80.4097 106.158L75.2422 100.87C74.347 99.9537 74.347 98.4639 75.2422 97.548L76.6541 96.1027C76.8704 95.8817 76.9753 95.5748 76.9451 95.2616C76.9117 94.9516 76.7495 94.6781 76.4967 94.508L74.382 93.0881C73.4566 92.468 72.9033 91.4218 72.9033 90.2913V80.0962H91.1883V90.2913C91.1883 91.4218 90.635 92.468 89.7096 93.0897L87.5949 94.508C87.3421 94.6781 87.1783 94.9532 87.1465 95.2616C87.1147 95.5748 87.2213 95.8801 87.4375 96.1011L88.8494 97.5464C89.7446 98.4623 89.7446 99.9521 88.8494 100.868L83.6819 106.156C83.2447 106.605 82.6627 106.851 82.0442 106.851ZM73.6967 80.8912V90.2913C73.6967 91.1562 74.1181 91.956 74.824 92.4282L76.9387 93.8481C77.3871 94.1502 77.6781 94.6352 77.7337 95.1805C77.7894 95.7291 77.6034 96.2681 77.2218 96.6576L75.8098 98.1029C75.2136 98.7135 75.2136 99.7041 75.8098 100.313L80.9773 105.601C81.5481 106.187 82.5387 106.187 83.1111 105.601L88.2786 100.311C88.8749 99.7025 88.8749 98.7103 88.2786 98.1014L86.8667 96.656C86.4851 96.2665 86.2991 95.7275 86.3547 95.1789C86.4104 94.6336 86.7013 94.1486 87.1497 93.8465L89.2644 92.4266C89.9704 91.9528 90.3917 91.1546 90.3917 90.2897V80.8896L73.6967 80.8912Z" fill="#472B29"/>
<path d="M111.461 65.19L117.781 57.24H115.106L109.607 63.9546L108.928 64.9737L109.425 66.0931L115.593 79.9722V112.254H46.905V79.9722L53.0742 66.0947L53.5719 64.9753L52.8914 63.9561L47.3121 57.24H44.6377L51.0406 65.19L44.679 79.5V114.48H117.819V79.5L111.461 65.19Z" fill="#472B29"/>
<path d="M82.0441 99.375C81.1664 99.375 80.4541 98.6626 80.4541 97.785V91.425C80.4541 90.5473 81.1664 89.835 82.0441 89.835C82.9218 89.835 83.6341 90.5473 83.6341 91.425V97.785C83.6341 98.6626 82.9218 99.375 82.0441 99.375Z" fill="#1960EA"/>
<path d="M82.0441 99.7725C80.9486 99.7725 80.0566 98.8805 80.0566 97.785V91.425C80.0566 90.3295 80.9486 89.4375 82.0441 89.4375C83.1397 89.4375 84.0316 90.3295 84.0316 91.425V97.785C84.0316 98.8805 83.1397 99.7725 82.0441 99.7725ZM82.0441 90.2325C81.3875 90.2325 80.8516 90.7667 80.8516 91.425V97.785C80.8516 98.4433 81.3875 98.9775 82.0441 98.9775C82.7008 98.9775 83.2366 98.4433 83.2366 97.785V91.425C83.2366 90.7667 82.7008 90.2325 82.0441 90.2325Z" fill="#472B29"/>
<path d="M117.024 79.5H45.4736V81.09H117.024V79.5Z" fill="#472B29"/>
<path d="M69.9985 67.7787L64.1318 65.7603L62.1134 71.6269L67.98 73.6454L69.9985 67.7787Z" fill="#3E90EE"/>
<path d="M66.0594 69.7025L64.1339 65.7593L62.1162 71.6264L66.0594 69.7025Z" fill="#98C5F4"/>
<path d="M66.0293 69.6912L67.9548 73.6344L69.9725 67.7673L66.0293 69.6912Z" fill="#98C5F4"/>
<path d="M67.9833 74.0416C67.9404 74.0416 67.8959 74.0352 67.8545 74.0193L61.989 72.0016C61.7807 71.93 61.671 71.7043 61.7426 71.496L63.7587 65.6305C63.7921 65.5303 63.8652 65.4492 63.9606 65.4031C64.0544 65.357 64.1626 65.349 64.2627 65.384L70.1282 67.4017C70.3365 67.4733 70.4462 67.6991 70.3747 67.9073L68.357 73.7744C68.3236 73.8746 68.2504 73.9557 68.155 74.0018C68.1026 74.0288 68.0437 74.0416 67.9833 74.0416ZM62.6218 71.3799L67.7369 73.14L69.4954 68.025L64.3804 66.2665L62.6218 71.3799Z" fill="#472B29"/>
<path d="M91.301 64.9913L86.9141 60.6042L82.527 64.9912L86.9139 69.3783L91.301 64.9913Z" fill="#00A5A5"/>
<path d="M86.9138 64.9913V60.6045L82.5254 64.9913H86.9138Z" fill="#A8DBDB"/>
<path d="M86.8916 64.969V69.3558L91.2784 64.969H86.8916Z" fill="#A8DBDB"/>
<path d="M86.914 69.7756C86.8091 69.7756 86.7073 69.7342 86.6326 69.6595L82.2458 65.2727C82.09 65.1169 82.09 64.8657 82.2458 64.7098L86.6326 60.323C86.782 60.1736 87.046 60.1736 87.1954 60.323L91.5823 64.7098C91.7381 64.8657 91.7381 65.1169 91.5823 65.2727L87.1954 69.6595C87.1191 69.7342 87.019 69.7756 86.914 69.7756ZM83.0885 64.9913L86.9124 68.8168L90.7364 64.9913L86.9124 61.1657L83.0885 64.9913Z" fill="#472B29"/>
<path d="M101.768 73.0722L97.3809 68.6851L92.9938 73.072L97.3807 77.4591L101.768 73.0722Z" fill="#00A5A5"/>
<path d="M97.3809 73.0731V68.6863L92.9941 73.0731H97.3809Z" fill="#A8DBDB"/>
<path d="M97.3584 73.0525V77.4393L101.745 73.0525H97.3584Z" fill="#A8DBDB"/>
<path d="M97.3808 77.8575C97.279 77.8575 97.1773 77.8193 97.0994 77.7414L92.7126 73.3546C92.5567 73.1988 92.5567 72.9476 92.7126 72.7918L97.0994 68.405C97.2552 68.2491 97.5064 68.2491 97.6622 68.405L102.051 72.7918C102.125 72.8665 102.167 72.9667 102.167 73.0732C102.167 73.1797 102.125 73.2799 102.051 73.3546L97.6622 77.7414C97.5827 77.8193 97.4826 77.8575 97.3808 77.8575ZM93.5553 73.0732L97.3792 76.8987L101.205 73.0732L97.3792 69.2476L93.5553 73.0732Z" fill="#472B29"/>
<path d="M88.4039 84.6676H81.3809C81.1615 84.6676 80.9834 84.4895 80.9834 84.2701C80.9834 84.0506 81.1615 83.8726 81.3809 83.8726H88.4039C88.6233 83.8726 88.8014 84.0506 88.8014 84.2701C88.8014 84.4895 88.6233 84.6676 88.4039 84.6676Z" fill="#472B29"/>
<path d="M78.7317 84.6676H75.6836C75.4642 84.6676 75.2861 84.4895 75.2861 84.2701C75.2861 84.0506 75.4642 83.8726 75.6836 83.8726H78.7317C78.9511 83.8726 79.1292 84.0506 79.1292 84.2701C79.1292 84.4895 78.9511 84.6676 78.7317 84.6676Z" fill="#472B29"/>
<path d="M81.2488 47.7C76.8588 47.7 73.2988 51.1709 73.2988 55.4512H89.1988C89.1988 51.1709 85.6388 47.7 81.2488 47.7Z" fill="#D5E3FF"/>
<path d="M89.5964 55.8487H72.9014V55.4512C72.9014 50.9579 76.6458 47.3025 81.2489 47.3025C85.8519 47.3025 89.5964 50.9579 89.5964 55.4512V55.8487ZM73.7075 55.0537H88.7902C88.5772 51.1837 85.2763 48.0975 81.2489 48.0975C77.2214 48.0975 73.9206 51.1837 73.7075 55.0537Z" fill="#472B29"/>
</svg>
