<svg width="36" height="31" viewBox="0 0 36 31" fill="none" xmlns="http://www.w3.org/2000/svg">
<path d="M23.3574 20.7148C24.7374 20.7148 25.8574 21.8348 25.8574 23.2148V26.0748L25.846 26.2291C25.4031 29.2677 22.6746 30.7277 18.096 30.7277C13.5346 30.7277 10.7617 29.2848 10.1631 26.282L10.1431 26.072V23.2148C10.1431 21.8348 11.2631 20.7148 12.6431 20.7148H23.3574ZM24.0631 12.1434H32.6431C34.0231 12.1434 35.1431 13.2634 35.1431 14.6434V17.5034L35.1317 17.6577C34.6888 20.6963 31.9603 22.1563 27.3817 22.1563L27.1417 22.1534C26.9215 21.3705 26.4639 20.6751 25.8319 20.1631C25.1999 19.6512 24.4247 19.3478 23.6131 19.2948L23.3574 19.2863H22.0403C22.7868 18.6843 23.3888 17.9227 23.8022 17.0574C24.2156 16.1922 24.4297 15.2452 24.4288 14.2863C24.4288 13.5348 24.3003 12.8148 24.0631 12.1434ZM3.35742 12.1434H11.9374C11.7003 12.8148 11.5717 13.5348 11.5717 14.2863C11.5717 16.1863 12.3974 17.8963 13.7089 19.072L13.9603 19.2863H12.6431C10.8403 19.2863 9.32028 20.5006 8.85742 22.1577L8.81028 22.1563C4.24885 22.1563 1.47599 20.7134 0.877422 17.7106L0.857422 17.5006V14.6434C0.857422 13.2634 1.97742 12.1434 3.35742 12.1434ZM18.0003 9.28627C19.3264 9.28627 20.5981 9.81306 21.5358 10.7507C22.4735 11.6884 23.0003 12.9602 23.0003 14.2863C23.0003 15.6124 22.4735 16.8841 21.5358 17.8218C20.5981 18.7595 19.3264 19.2863 18.0003 19.2863C16.6742 19.2863 15.4024 18.7595 14.4647 17.8218C13.5271 16.8841 13.0003 15.6124 13.0003 14.2863C13.0003 12.9602 13.5271 11.6884 14.4647 10.7507C15.4024 9.81306 16.6742 9.28627 18.0003 9.28627ZM27.286 0.714844C28.6121 0.714844 29.8838 1.24163 30.8215 2.17931C31.7592 3.11699 32.286 4.38876 32.286 5.71484C32.286 7.04093 31.7592 8.3127 30.8215 9.25038C29.8838 10.1881 28.6121 10.7148 27.286 10.7148C25.9599 10.7148 24.6881 10.1881 23.7505 9.25038C22.8128 8.3127 22.286 7.04093 22.286 5.71484C22.286 4.38876 22.8128 3.11699 23.7505 2.17931C24.6881 1.24163 25.9599 0.714844 27.286 0.714844V0.714844ZM8.71456 0.714844C10.0406 0.714844 11.3124 1.24163 12.2501 2.17931C13.1878 3.11699 13.7146 4.38876 13.7146 5.71484C13.7146 7.04093 13.1878 8.3127 12.2501 9.25038C11.3124 10.1881 10.0406 10.7148 8.71456 10.7148C7.38848 10.7148 6.11671 10.1881 5.17903 9.25038C4.24135 8.3127 3.71456 7.04093 3.71456 5.71484C3.71456 4.38876 4.24135 3.11699 5.17903 2.17931C6.11671 1.24163 7.38848 0.714844 8.71456 0.714844V0.714844Z" fill="white"/>
</svg>
