<svg width="161" height="160" viewBox="0 0 161 160" fill="none" xmlns="http://www.w3.org/2000/svg">
<path d="M25.5002 82.5C21.3581 82.5 17.9537 85.87 18.4495 89.9824C20.1155 103.802 26.3625 116.751 36.306 126.694C48.0271 138.415 63.9242 145 80.5002 145C97.0762 145 112.973 138.415 124.694 126.694C134.638 116.751 140.885 103.802 142.551 89.9824C143.047 85.87 139.642 82.5 135.5 82.5L25.5002 82.5Z" fill="#022974"/>
<path d="M80.5 35C106.734 35 128 56.2665 128 82.5C128 108.734 106.734 130 80.5 130C54.2665 130 33 108.734 33 82.5C33 56.2665 54.2665 35 80.5 35Z" fill="url(#paint0_linear_3766_5005)"/>
<path d="M65.5 76.25C65.5 75.5596 64.9404 75 64.25 75C63.5596 75 63 75.5596 63 76.25V95.75C63 96.4404 63.5596 97 64.25 97C64.9404 97 65.5 96.4404 65.5 95.75L65.5 76.25Z" fill="white"/>
<path d="M65.5 101.75C65.5 101.06 64.9404 100.5 64.25 100.5C63.5596 100.5 63 101.06 63 101.75V104.75C63 105.44 63.5596 106 64.25 106C64.9404 106 65.5 105.44 65.5 104.75L65.5 101.75Z" fill="white"/>
<path d="M96.75 76.5C97.4404 76.5 98 77.0597 98 77.75V92.75C98 93.4404 97.4404 94 96.75 94C96.0596 94 95.5 93.4404 95.5 92.75V77.75C95.5 77.0597 96.0596 76.5 96.75 76.5Z" fill="white"/>
<path d="M98 98.75C98 98.0596 97.4404 97.5 96.75 97.5C96.0596 97.5 95.5 98.0596 95.5 98.75V104.75C95.5 105.44 96.0596 106 96.75 106C97.4404 106 98 105.44 98 104.75V98.75Z" fill="white"/>
<path d="M80.5 82.5C81.1904 82.5 81.75 83.0596 81.75 83.75V101.75C81.75 102.44 81.1904 103 80.5 103C79.8096 103 79.25 102.44 79.25 101.75V83.75C79.25 83.0596 79.8096 82.5 80.5 82.5Z" fill="white"/>
<path d="M81.75 107.75C81.75 107.06 81.1904 106.5 80.5 106.5C79.8096 106.5 79.25 107.06 79.25 107.75V113.75C79.25 114.44 79.8096 115 80.5 115C81.1904 115 81.75 114.44 81.75 113.75V107.75Z" fill="white"/>
<path d="M42.9996 26.5621C42.9996 25.1814 41.8745 24.0435 40.5084 24.2436C39.1082 24.4487 37.7356 24.8265 36.4223 25.3705C34.337 26.2342 32.4422 27.5002 30.8462 29.0962C29.2502 30.6922 27.9842 32.587 27.1205 34.6723C26.5765 35.9856 26.1987 37.3582 25.9936 38.7584C25.7935 40.1245 26.9314 41.2496 28.3121 41.2496L40.4996 41.2496C41.8803 41.2496 42.9996 40.1303 42.9996 38.7496V26.5621Z" fill="url(#paint1_linear_3766_5005)"/>
<path d="M35.1871 18.7496C35.1871 17.3689 34.062 16.231 32.6959 16.4311C31.2957 16.6362 29.9231 17.014 28.6098 17.558C26.5245 18.4217 24.6297 19.6877 23.0337 21.2837C21.4377 22.8797 20.1717 24.7745 19.308 26.8598C18.764 28.1731 18.3862 29.5457 18.1811 30.9459C17.981 32.312 19.1189 33.4371 20.4996 33.4371L32.6871 33.4371C34.0678 33.4371 35.1871 32.3178 35.1871 30.9371V18.7496Z" fill="url(#paint2_linear_3766_5005)"/>
<path d="M130.5 35C130.5 32.9289 132.179 31.25 134.25 31.25C136.321 31.25 138 32.9289 138 35C138 37.0711 136.321 38.75 134.25 38.75C132.179 38.75 130.5 37.0711 130.5 35Z" fill="#022974"/>
<path d="M130.5 22.5C130.5 20.4289 132.179 18.75 134.25 18.75C136.321 18.75 138 20.4289 138 22.5C138 24.5711 136.321 26.25 134.25 26.25C132.179 26.25 130.5 24.5711 130.5 22.5Z" fill="#022974"/>
<path d="M118 22.5C118 20.4289 119.679 18.75 121.75 18.75C123.821 18.75 125.5 20.4289 125.5 22.5C125.5 24.5711 123.821 26.25 121.75 26.25C119.679 26.25 118 24.5711 118 22.5Z" fill="#022974"/>
<path d="M87.3552 78.7483L71.4898 106.248L55.6244 78.7483L71.4898 51.2483L87.3552 78.7483Z" fill="#022974"/>
<path d="M107.355 78.7483L91.4898 106.248L75.6244 78.7483L91.4898 51.2483L107.355 78.7483Z" fill="#6AADFF"/>
<defs>
<linearGradient id="paint0_linear_3766_5005" x1="80.5" y1="35" x2="80.5" y2="130" gradientUnits="userSpaceOnUse">
<stop stop-color="#F3F8FF"/>
<stop offset="1" stop-color="#96C6FF"/>
</linearGradient>
<linearGradient id="paint1_linear_3766_5005" x1="44.5622" y1="43.5934" x2="21.1247" y2="18.8538" gradientUnits="userSpaceOnUse">
<stop stop-color="#F3F8FF"/>
<stop offset="1" stop-color="#BFDCFF"/>
</linearGradient>
<linearGradient id="paint2_linear_3766_5005" x1="36.7497" y1="35.7809" x2="13.3122" y2="11.0413" gradientUnits="userSpaceOnUse">
<stop stop-color="#F3F8FF"/>
<stop offset="1" stop-color="#BFDCFF"/>
</linearGradient>
</defs>
</svg>
