<svg width="160" height="160" viewBox="0 0 160 160" fill="none" xmlns="http://www.w3.org/2000/svg">
<path d="M143.157 80.2753C144.273 81.5742 144.273 83.4258 143.157 84.7247C136.229 92.7867 110.581 120 79.9998 120C49.4188 120 23.7704 92.7868 16.8429 84.7247C15.7268 83.4258 15.7268 81.5742 16.8429 80.2753C23.7704 72.2133 49.4188 45 79.9998 45C110.581 45 136.229 72.2132 143.157 80.2753Z" fill="#1960EA"/>
<path d="M77.5 82.5C77.5 93.5457 68.5457 102.5 57.5 102.5C46.4543 102.5 37.5 93.5457 37.5 82.5C37.5 71.4543 46.4543 62.5 57.5 62.5C68.5457 62.5 77.5 71.4543 77.5 82.5Z" fill="url(#paint0_linear_3766_4976)"/>
<path d="M82.5 82.5C82.5 71.4543 91.4543 62.5 102.5 62.5C113.546 62.5 122.5 71.4543 122.5 82.5C122.5 93.5457 113.546 102.5 102.5 102.5C91.4543 102.5 82.5 93.5457 82.5 82.5Z" fill="url(#paint1_linear_3766_4976)"/>
<path d="M80 97.5C88.2843 97.5 95 90.7843 95 82.5C95 81.4725 94.7089 80.0007 94.4302 78.8269C94.2185 77.9353 93.1259 77.6072 92.3665 78.1201C91.3697 78.7934 90.0689 79.5 89 79.5C85.6863 79.5 83 76.8137 83 73.5C83 72.2913 83.3574 71.166 83.9723 70.2242C84.5162 69.3912 84.337 68.1019 83.3673 67.8795C82.2849 67.6312 81.1578 67.5 80 67.5C71.7157 67.5 65 74.2157 65 82.5C65 90.7843 71.7157 97.5 80 97.5Z" fill="#1960EA"/>
<path d="M26.25 33.75C26.25 31.6789 27.9289 30 30 30H37.5C39.5711 30 41.25 31.6789 41.25 33.75V41.25C41.25 43.3211 39.5711 45 37.5 45H30C27.9289 45 26.25 43.3211 26.25 41.25V33.75Z" fill="#1960EA"/>
<path d="M128.415 38.75C127.453 37.0833 125.048 37.0833 124.085 38.75L118.673 48.125C117.71 49.7917 118.913 51.875 120.838 51.875H131.663C133.588 51.875 134.79 49.7917 133.828 48.125L128.415 38.75Z" fill="url(#paint2_linear_3766_4976)"/>
<path d="M128.415 68.75C127.453 70.4167 125.048 70.4167 124.085 68.75L118.673 59.375C117.71 57.7083 118.913 55.625 120.838 55.625H131.663C133.588 55.625 134.79 57.7083 133.828 59.375L128.415 68.75Z" fill="url(#paint3_linear_3766_4976)"/>
<path d="M131.25 117.5C131.25 119.571 129.571 121.25 127.5 121.25C125.429 121.25 123.75 119.571 123.75 117.5C123.75 115.429 125.429 113.75 127.5 113.75C129.571 113.75 131.25 115.429 131.25 117.5Z" fill="#1960EA"/>
<path d="M127.5 130H135C137.761 130 140 127.761 140 125V117.5" stroke="url(#paint4_linear_3766_4976)" stroke-width="3.75" stroke-linecap="round"/>
<path d="M32.5 43.75C32.5 46.5114 30.2614 48.75 27.5 48.75C24.7386 48.75 22.5 46.5114 22.5 43.75C22.5 40.9886 24.7386 38.75 27.5 38.75C30.2614 38.75 32.5 40.9886 32.5 43.75Z" fill="url(#paint5_linear_3766_4976)"/>
<path d="M105 82.5C105 96.3071 93.8071 107.5 80 107.5C66.1929 107.5 55 96.3071 55 82.5C55 68.6929 66.1929 57.5 80 57.5C93.8071 57.5 105 68.6929 105 82.5Z" fill="url(#paint6_radial_3766_4976)"/>
<path d="M83 84C83 85.6569 81.6569 87 80 87C78.3431 87 77 85.6569 77 84C77 82.3431 78.3431 81 80 81C81.6569 81 83 82.3431 83 84Z" fill="#1960EA"/>
<path d="M114 75C114 76.6569 112.657 78 111 78C109.343 78 108 76.6569 108 75C108 73.3431 109.343 72 111 72C112.657 72 114 73.3431 114 75Z" fill="#1960EA"/>
<path d="M52 91C52 92.6569 50.6569 94 49 94C47.3431 94 46 92.6569 46 91C46 89.3431 47.3431 88 49 88C50.6569 88 52 89.3431 52 91Z" fill="#1960EA"/>
<path d="M72.8251 99H77.1839C78.1869 99 79 98.197 79 97.2065V67.7935C79 66.803 78.1869 66 77.1839 66H76.8222C71.7273 66 67.0964 68.9223 64.9559 73.488L60.1021 83.8414C59.7678 84.5545 60.2952 85.3696 61.091 85.3696H63.3812V91.8261C63.3812 93.0147 64.3569 93.9783 65.5606 93.9783H69.9193C70.5211 93.9783 71.009 94.46 71.009 95.0543V97.2065C71.009 98.197 71.8221 99 72.8251 99Z" fill="#1960EA"/>
<path d="M88.1749 99H83.8161C82.8131 99 82 98.197 82 97.2065V67.7935C82 66.803 82.8131 66 83.8161 66H84.1778C89.2727 66 93.9036 68.9223 96.0441 73.488L100.898 83.8414C101.232 84.5545 100.705 85.3696 99.909 85.3696H97.6188V91.8261C97.6188 93.0147 96.6431 93.9783 95.4394 93.9783H91.0807C90.4789 93.9783 89.991 94.46 89.991 95.0543V97.2065C89.991 98.197 89.1779 99 88.1749 99Z" fill="#1960EA"/>
<circle cx="80.5" cy="83.0749" r="10.925" fill="white"/>
<path d="M92 82.5089C92 87.288 89.094 91.3843 84.9476 93.1222C84.6641 93.2375 84.3717 93.3527 84.0794 93.4503V86.2772H85.9753C86.3209 86.2772 86.5955 86.0023 86.5955 85.6565V83.8743C87.5169 83.6083 88.1814 82.7571 88.1814 81.7552C88.1814 80.5405 87.1891 79.5474 85.9753 79.5474C84.7616 79.5474 83.7693 80.5405 83.7693 81.7552C83.7693 82.7571 84.4426 83.6083 85.3552 83.8743V85.0359H83.4592C83.1136 85.0359 82.839 85.3107 82.839 85.6565V93.6542C82.839 93.6985 82.839 93.734 82.8478 93.7783C82.2897 93.8936 81.7138 93.9734 81.1202 94V85.8161C82.0327 85.5501 82.7061 84.6989 82.7061 83.697C82.7061 82.4823 81.7138 81.4892 80.5 81.4892C79.2862 81.4892 78.2939 82.4823 78.2939 83.697C78.2939 84.6989 78.9673 85.5501 79.8798 85.8161V94C79.2951 93.9734 78.7192 93.8936 78.1522 93.7783C78.161 93.7429 78.161 93.6985 78.161 93.6542V85.6565C78.161 85.3107 77.8864 85.0359 77.5408 85.0359H75.6448V83.8743C76.5574 83.6083 77.2307 82.7571 77.2307 81.7552C77.2307 80.5405 76.2384 79.5474 75.0247 79.5474C73.802 79.5474 72.8186 80.5405 72.8186 81.7552C72.8186 82.7571 73.4919 83.6083 74.4045 83.8743V85.6565C74.4045 86.0023 74.6791 86.2772 75.0247 86.2772H76.9206V93.4503C76.6283 93.3527 76.3359 93.2463 76.0524 93.1222C71.906 91.3843 69 87.288 69 82.5089C69 76.1515 74.1475 71 80.5 71C86.8525 71 92 76.1515 92 82.5089Z" fill="#1960EA"/>
<path d="M24.6427 115.112C23.481 115.046 22.47 115.938 22.5732 117.097C22.679 118.285 22.9314 119.458 23.3264 120.589C23.9537 122.384 24.9285 124.039 26.1952 125.458C27.4619 126.877 28.9957 128.032 30.709 128.858C31.788 129.379 32.9248 129.762 34.0931 130.001C35.233 130.235 36.2338 129.331 36.2996 128.169L36.8808 117.916C36.9466 116.754 36.0583 115.759 34.8966 115.693L24.6427 115.112Z" fill="url(#paint7_linear_3766_4976)"/>
<path d="M25.0744 136.152C30.0861 136.152 34.1489 132.089 34.1489 127.077C34.1489 126.456 33.9728 125.565 33.8042 124.855C33.6761 124.316 33.0151 124.117 32.5557 124.427C31.9527 124.835 31.1658 125.262 30.5191 125.262C28.5144 125.262 26.8893 123.637 26.8893 121.632C26.8893 120.901 27.1056 120.22 27.4776 119.651C27.8066 119.147 27.6982 118.367 27.1115 118.232C26.4567 118.082 25.7748 118.003 25.0744 118.003C20.0628 118.003 16 122.065 16 127.077C16 132.089 20.0628 136.152 25.0744 136.152Z" fill="#1960EA"/>
<defs>
<linearGradient id="paint0_linear_3766_4976" x1="77.5" y1="82.5" x2="37.5" y2="82.5" gradientUnits="userSpaceOnUse">
<stop stop-color="#F3F8FF"/>
<stop offset="0.505208" stop-color="#B9D9FF"/>
<stop offset="1" stop-color="#96C6FF"/>
</linearGradient>
<linearGradient id="paint1_linear_3766_4976" x1="82.5" y1="82.5" x2="122.5" y2="82.5" gradientUnits="userSpaceOnUse">
<stop stop-color="#F3F8FF"/>
<stop offset="0.505208" stop-color="#B9D9FF"/>
<stop offset="1" stop-color="#96C6FF"/>
</linearGradient>
<linearGradient id="paint2_linear_3766_4976" x1="133.75" y1="40" x2="120" y2="70" gradientUnits="userSpaceOnUse">
<stop stop-color="#F2F8FF"/>
<stop offset="1" stop-color="#8EC2FF"/>
</linearGradient>
<linearGradient id="paint3_linear_3766_4976" x1="133.75" y1="40" x2="120" y2="70" gradientUnits="userSpaceOnUse">
<stop stop-color="#F2F8FF"/>
<stop offset="1" stop-color="#8EC2FF"/>
</linearGradient>
<linearGradient id="paint4_linear_3766_4976" x1="140" y1="130" x2="130.625" y2="120.625" gradientUnits="userSpaceOnUse">
<stop stop-color="#ECF4FF"/>
<stop offset="1" stop-color="#D5E8FF"/>
</linearGradient>
<linearGradient id="paint5_linear_3766_4976" x1="22.5" y1="48.75" x2="32.5" y2="38.75" gradientUnits="userSpaceOnUse">
<stop stop-color="#F3F8FF"/>
<stop offset="1" stop-color="#96C6FF"/>
</linearGradient>
<radialGradient id="paint6_radial_3766_4976" cx="0" cy="0" r="1" gradientUnits="userSpaceOnUse" gradientTransform="translate(80 82.5) rotate(90) scale(25)">
<stop stop-color="white"/>
<stop offset="1" stop-color="white"/>
</radialGradient>
<linearGradient id="paint7_linear_3766_4976" x1="39.0465" y1="114.609" x2="17.1142" y2="133.149" gradientUnits="userSpaceOnUse">
<stop stop-color="#F3F8FF"/>
<stop offset="1" stop-color="#BFDCFF"/>
</linearGradient>
</defs>
</svg>
