<svg width="161" height="160" viewBox="0 0 161 160" fill="none" xmlns="http://www.w3.org/2000/svg">
<path fill-rule="evenodd" clip-rule="evenodd" d="M75.5 127.5C101.734 127.5 123 106.234 123 80C123 53.7665 101.734 32.5 75.5 32.5C49.2665 32.5 28 53.7665 28 80C28 106.234 49.2665 127.5 75.5 127.5ZM75.5 103.75C88.6168 103.75 99.25 93.1168 99.25 80C99.25 66.8832 88.6168 56.25 75.5 56.25C62.3832 56.25 51.75 66.8832 51.75 80C51.75 93.1168 62.3832 103.75 75.5 103.75Z" fill="url(#paint0_linear_3766_4961)"/>
<path d="M91.75 137.5H76.75C73.2982 137.5 70.5 134.702 70.5 131.25V28.75C70.5 25.2982 73.2982 22.5 76.75 22.5H77.9947C95.5279 22.5 111.465 32.6836 118.831 48.5944L135.535 84.6745C136.685 87.1597 134.87 90 132.132 90H124.25V112.5C124.25 116.642 120.892 120 116.75 120H101.75C99.6789 120 98 121.679 98 123.75V131.25C98 134.702 95.2018 137.5 91.75 137.5Z" fill="#1960EA"/>
<circle cx="75.5" cy="80" r="13.75" fill="#1960EA"/>
<circle cx="114.25" cy="66.25" r="3.75" fill="white"/>
<path d="M33.7474 60.625C32.304 58.125 28.6956 58.125 27.2522 60.625L20.757 71.875C19.3136 74.375 21.1179 77.5 24.0046 77.5H36.995C39.8817 77.5 41.686 74.375 40.2426 71.875L33.7474 60.625Z" fill="url(#paint1_linear_3766_4961)"/>
<path d="M33.7474 99.375C32.304 101.875 28.6956 101.875 27.2522 99.375L20.757 88.125C19.3136 85.625 21.1179 82.5 24.0046 82.5H36.995C39.8817 82.5 41.686 85.625 40.2426 88.125L33.7474 99.375Z" fill="url(#paint2_linear_3766_4961)"/>
<path d="M83 80C83 84.1421 79.6421 87.5 75.5 87.5C74.2787 87.5 73.1256 87.2081 72.1066 86.6902C70.3901 85.8179 71.4123 83.75 73.3377 83.75H74.25C74.9404 83.75 75.5 83.1904 75.5 82.5C75.5 81.8096 74.9404 81.25 74.25 81.25H69.3594C68.6346 81.25 68 80.7248 68 80C68 75.8579 71.3579 72.5 75.5 72.5C76.7213 72.5 77.8744 72.7919 78.8934 73.3098C80.6099 74.1821 79.5877 76.25 77.6623 76.25H76.75C76.0596 76.25 75.5 76.8096 75.5 77.5C75.5 78.1904 76.0596 78.75 76.75 78.75H81.6406C82.3654 78.75 83 79.2752 83 80Z" fill="url(#paint3_linear_3766_4961)"/>
<path d="M86.75 45C86.75 46.9891 87.5402 48.8968 88.9467 50.3033C90.3532 51.7098 92.2609 52.5 94.25 52.5C96.2391 52.5 98.1468 51.7098 99.5533 50.3033C100.96 48.8968 101.75 46.9891 101.75 45" stroke="url(#paint4_linear_3766_4961)" stroke-width="2.5" stroke-linecap="round"/>
<path d="M94.25 42.5C94.25 40.5109 93.4598 38.6032 92.0533 37.1967C90.6468 35.7902 88.7391 35 86.75 35C84.7609 35 82.8532 35.7902 81.4467 37.1967C80.0402 38.6032 79.25 40.5109 79.25 42.5" stroke="url(#paint5_linear_3766_4961)" stroke-width="2.5" stroke-linecap="round"/>
<path d="M81.4375 121.094C81.4375 122.388 80.3882 123.438 79.0938 123.438C77.7993 123.438 76.75 122.388 76.75 121.094C76.75 119.799 77.7993 118.75 79.0938 118.75C80.3882 118.75 81.4375 119.799 81.4375 121.094Z" fill="url(#paint6_linear_3766_4961)"/>
<path d="M81.4375 128.906C81.4375 130.201 80.3882 131.25 79.0938 131.25C77.7993 131.25 76.75 130.201 76.75 128.906C76.75 127.612 77.7993 126.562 79.0938 126.562C80.3882 126.562 81.4375 127.612 81.4375 128.906Z" fill="url(#paint7_linear_3766_4961)"/>
<path d="M86.9062 131.25C88.2007 131.25 89.25 130.201 89.25 128.906C89.25 127.612 88.2007 126.562 86.9062 126.562C85.6118 126.562 84.5625 127.612 84.5625 128.906C84.5625 130.201 85.6118 131.25 86.9062 131.25Z" fill="url(#paint8_linear_3766_4961)"/>
<defs>
<linearGradient id="paint0_linear_3766_4961" x1="98.625" y1="80" x2="28" y2="80" gradientUnits="userSpaceOnUse">
<stop stop-color="#96C6FF"/>
<stop offset="1" stop-color="#F3F8FF"/>
</linearGradient>
<linearGradient id="paint1_linear_3766_4961" x1="20.4998" y1="78.125" x2="52.97" y2="82.1172" gradientUnits="userSpaceOnUse">
<stop stop-color="#ECF4FF"/>
<stop offset="1" stop-color="#8EC2FF"/>
</linearGradient>
<linearGradient id="paint2_linear_3766_4961" x1="20.4998" y1="78.125" x2="52.97" y2="82.1172" gradientUnits="userSpaceOnUse">
<stop stop-color="#ECF4FF"/>
<stop offset="1" stop-color="#8EC2FF"/>
</linearGradient>
<linearGradient id="paint3_linear_3766_4961" x1="87.375" y1="76.25" x2="73.2983" y2="88.3471" gradientUnits="userSpaceOnUse">
<stop stop-color="#8EC2FF"/>
<stop offset="1" stop-color="#DBEAFF"/>
</linearGradient>
<linearGradient id="paint4_linear_3766_4961" x1="94.25" y1="52.5" x2="94.25" y2="45" gradientUnits="userSpaceOnUse">
<stop stop-color="#BCDBFF"/>
<stop offset="1" stop-color="#639EF8"/>
</linearGradient>
<linearGradient id="paint5_linear_3766_4961" x1="86.75" y1="35" x2="86.75" y2="42.5" gradientUnits="userSpaceOnUse">
<stop stop-color="#BCDBFF"/>
<stop offset="1" stop-color="#639EF8"/>
</linearGradient>
<linearGradient id="paint6_linear_3766_4961" x1="89.25" y1="118.75" x2="85.4858" y2="133.482" gradientUnits="userSpaceOnUse">
<stop stop-color="#639EF8"/>
<stop offset="1" stop-color="#B6D7FF"/>
</linearGradient>
<linearGradient id="paint7_linear_3766_4961" x1="89.25" y1="118.75" x2="85.4858" y2="133.482" gradientUnits="userSpaceOnUse">
<stop stop-color="#639EF8"/>
<stop offset="1" stop-color="#B6D7FF"/>
</linearGradient>
<linearGradient id="paint8_linear_3766_4961" x1="89.25" y1="118.75" x2="85.4858" y2="133.482" gradientUnits="userSpaceOnUse">
<stop stop-color="#639EF8"/>
<stop offset="1" stop-color="#B6D7FF"/>
</linearGradient>
</defs>
</svg>
