<svg width="19" height="18" viewBox="0 0 19 18" fill="none" xmlns="http://www.w3.org/2000/svg">
<path fill-rule="evenodd" clip-rule="evenodd" d="M16.125 9.00006C16.1255 10.5464 15.5951 12.0461 14.6224 13.2482C13.6497 14.4504 12.2937 15.2821 10.7813 15.6043C9.26881 15.9264 7.6916 15.7195 6.31343 15.0181C4.93526 14.3167 3.83971 13.1634 3.21 11.7511L1.1235 12.5986C1.95063 14.4937 3.40505 16.0464 5.24223 16.9954C7.0794 17.9444 9.18731 18.232 11.2116 17.8098C13.2358 17.3875 15.053 16.2812 16.3575 14.6769C17.6621 13.0725 18.3745 11.0679 18.375 9.00006C18.3751 7.12165 17.7874 5.2903 16.6944 3.76265C15.6014 2.235 14.0578 1.08763 12.2799 0.481339C10.5021 -0.124954 8.57906 -0.159781 6.78041 0.38174C4.98176 0.923261 3.39762 2.01399 2.25 3.50105V0.750055H0V6.75005L1.125 7.87505H6.375V5.62505H3.528C4.27066 4.33756 5.41751 3.33119 6.79058 2.76211C8.16365 2.19303 9.68616 2.09305 11.1219 2.47771C12.5576 2.86236 13.8261 3.71013 14.7308 4.88945C15.6354 6.06878 16.1255 7.51372 16.125 9.00006Z" fill="white"/>
</svg>
