<svg width="54" height="61" viewBox="0 0 54 61" fill="none" xmlns="http://www.w3.org/2000/svg">
<path d="M54 15.125C54 23.201 41.91 29.75 27 29.75C12.09 29.75 0 23.201 0 15.125C0 7.049 12.09 0.5 27 0.5C41.91 0.5 54 7.049 54 15.125Z" fill="#1960EA"/>
<path d="M27 33.3955C35.055 33.3955 42.57 31.6375 48.234 28.5685C50.3185 27.4618 52.2348 26.0637 53.925 24.4165C53.973 24.7795 54 25.1485 54 25.5205C54 33.5965 41.91 40.1455 27 40.1455C12.09 40.1455 0 33.5965 0 25.5205C0 25.1485 0.0270003 24.7795 0.0750003 24.4165C1.76525 26.0637 3.68149 27.4617 5.766 28.5685C11.427 31.6375 18.945 33.3955 27 33.3955Z" fill="#1960EA"/>
<path d="M27 43.7915C35.055 43.7915 42.57 42.0335 48.234 38.9645C50.3186 37.8578 52.2348 36.4598 53.925 34.8125C53.973 35.1755 54 35.5445 54 35.9165C54 43.9925 41.91 50.5415 27 50.5415C12.09 50.5415 0 43.9925 0 35.9165C0 35.5445 0.0270003 35.1755 0.0750003 34.8125C1.76523 36.4597 3.68147 37.8577 5.766 38.9645C11.427 42.0335 18.945 43.7915 27 43.7915Z" fill="#1960EA"/>
<path d="M27 54.1875C35.055 54.1875 42.57 52.4295 48.234 49.3605C50.3186 48.2538 52.2348 46.8558 53.925 45.2085C53.973 45.5715 54 45.9405 54 46.3125C54 54.3885 41.91 60.9375 27 60.9375C12.09 60.9375 0 54.3885 0 46.3125C0 45.9405 0.0270003 45.5715 0.0750003 45.2085C1.76523 46.8557 3.68147 48.2537 5.766 49.3605C11.427 52.4295 18.945 54.1875 27 54.1875Z" fill="#1960EA"/>
</svg>
