<svg width="162" height="161" viewBox="0 0 162 161" fill="none" xmlns="http://www.w3.org/2000/svg">
<path d="M124.13 19.3203C123.703 19.3203 123.293 19.4899 122.991 19.7919C122.689 20.0938 122.52 20.5033 122.52 20.9303C122.52 21.3573 122.689 21.7668 122.991 22.0688C123.293 22.3707 123.703 22.5403 124.13 22.5403C124.557 22.5403 124.966 22.3707 125.268 22.0688C125.57 21.7668 125.74 21.3573 125.74 20.9303C125.74 20.5033 125.57 20.0938 125.268 19.7919C124.966 19.4899 124.557 19.3203 124.13 19.3203Z" fill="#1960EA"/>
<path d="M80.6589 20.9297C64.8599 20.9297 49.7081 27.2058 38.5365 38.3773C27.365 49.5489 21.0889 64.7007 21.0889 80.4997C21.0889 96.2986 27.365 111.451 38.5365 122.622C49.7081 133.794 64.8599 140.07 80.6589 140.07C96.4578 140.07 111.61 133.794 122.781 122.622C133.953 111.451 140.229 96.2986 140.229 80.4997C140.229 64.7007 133.953 49.5489 122.781 38.3773C111.61 27.2058 96.4578 20.9297 80.6589 20.9297Z" fill="#7BA8FF"/>
<path d="M133.79 17.7109C132.082 17.7109 130.444 18.3894 129.236 19.5972C128.028 20.8049 127.35 22.4429 127.35 24.1509C127.35 25.8589 128.028 27.497 129.236 28.7047C130.444 29.9124 132.082 30.5909 133.79 30.5909C135.498 30.5909 137.136 29.9124 138.343 28.7047C139.551 27.497 140.23 25.8589 140.23 24.1509C140.23 22.4429 139.551 20.8049 138.343 19.5972C137.136 18.3894 135.498 17.7109 133.79 17.7109Z" fill="#1960EA"/>
<path d="M140.229 35.4199C139.375 35.4199 138.556 35.7592 137.952 36.363C137.348 36.9669 137.009 37.7859 137.009 38.6399C137.009 39.4939 137.348 40.3129 137.952 40.9168C138.556 41.5207 139.375 41.8599 140.229 41.8599C141.083 41.8599 141.902 41.5207 142.506 40.9168C143.11 40.3129 143.449 39.4939 143.449 38.6399C143.449 37.7859 143.11 36.9669 142.506 36.363C141.902 35.7592 141.083 35.4199 140.229 35.4199Z" fill="#8889B9"/>
<path d="M130.569 119.14C129.715 119.14 128.896 119.479 128.292 120.083C127.688 120.687 127.349 121.506 127.349 122.36C127.349 123.214 127.688 124.033 128.292 124.637C128.896 125.241 129.715 125.58 130.569 125.58C131.423 125.58 132.242 125.241 132.846 124.637C133.45 124.033 133.789 123.214 133.789 122.36C133.789 121.506 133.45 120.687 132.846 120.083C132.242 119.479 131.423 119.14 130.569 119.14ZM24.3091 94.9902C22.6011 94.9902 20.9631 95.6687 19.7554 96.8765C18.5476 98.0842 17.8691 99.7222 17.8691 101.43C17.8691 103.138 18.5476 104.776 19.7554 105.984C20.9631 107.192 22.6011 107.87 24.3091 107.87C26.0171 107.87 27.6552 107.192 28.8629 105.984C30.0706 104.776 30.7491 103.138 30.7491 101.43C30.7491 99.7222 30.0706 98.0842 28.8629 96.8765C27.6552 95.6687 26.0171 94.9902 24.3091 94.9902Z" fill="#D5E3FF"/>
<path d="M40.4095 136.85C39.5555 136.85 38.7364 137.189 38.1326 137.793C37.5287 138.397 37.1895 139.216 37.1895 140.07C37.1895 140.924 37.5287 141.743 38.1326 142.346C38.7364 142.95 39.5555 143.29 40.4095 143.29C41.2635 143.29 42.0825 142.95 42.6863 142.346C43.2902 141.743 43.6295 140.924 43.6295 140.07C43.6295 139.216 43.2902 138.397 42.6863 137.793C42.0825 137.189 41.2635 136.85 40.4095 136.85Z" fill="#8889B9"/>
<path d="M29.9439 78.8895C28.8764 78.8895 27.8527 79.3136 27.0978 80.0684C26.343 80.8233 25.9189 81.847 25.9189 82.9145C25.9189 83.982 26.343 85.0058 27.0978 85.7606C27.8527 86.5155 28.8764 86.9395 29.9439 86.9395C31.0114 86.9395 32.0352 86.5155 32.7901 85.7606C33.5449 85.0058 33.9689 83.982 33.9689 82.9145C33.9689 81.847 33.5449 80.8233 32.7901 80.0684C32.0352 79.3136 31.0114 78.8895 29.9439 78.8895ZM128.154 51.5195C127.513 51.5195 126.899 51.774 126.446 52.2269C125.993 52.6798 125.739 53.294 125.739 53.9345C125.739 54.575 125.993 55.1893 126.446 55.6422C126.899 56.0951 127.513 56.3495 128.154 56.3495C128.794 56.3495 129.409 56.0951 129.862 55.6422C130.315 55.1893 130.569 54.575 130.569 53.9345C130.569 53.294 130.315 52.6798 129.862 52.2269C129.409 51.774 128.794 51.5195 128.154 51.5195Z" fill="white"/>
<path d="M56.5089 116.404C50.0286 116.404 44.7559 111.133 44.7559 104.651V56.3507C44.7559 49.8704 50.027 44.5977 56.5089 44.5977H104.809C111.289 44.5977 116.562 49.8688 116.562 56.3507V104.651C116.562 111.131 111.291 116.404 104.809 116.404H56.5089Z" fill="#1960EA"/>
<path d="M104.809 45.7247C110.668 45.7247 115.435 50.4919 115.435 56.3507V104.651C115.435 110.509 110.668 115.277 104.809 115.277H56.5089C50.6501 115.277 45.8829 110.509 45.8829 104.651V56.3507C45.8829 50.4919 50.6501 45.7247 56.5089 45.7247H104.809ZM104.809 43.4707H56.5089C49.4249 43.4707 43.6289 49.2667 43.6289 56.3507V104.651C43.6289 111.735 49.4249 117.531 56.5089 117.531H104.809C111.893 117.531 117.689 111.735 117.689 104.651V56.3507C117.689 49.2667 111.893 43.4707 104.809 43.4707Z" fill="#472B29"/>
<path d="M110.444 77.0786V79.8961V103.04C110.444 107.025 107.184 110.285 103.199 110.285H58.119C54.1343 110.285 50.874 107.025 50.874 103.04V57.9598C50.874 53.9751 54.1343 50.7148 58.119 50.7148H98.9728H103.199C107.184 50.7148 110.444 53.9751 110.444 57.9598V63.3936V66.6136V68.2236V70.0348V74.6636V77.0786Z" fill="#FDFCEE"/>
<path d="M110.445 76.2745C110 76.2745 109.64 75.9139 109.64 75.4695V69.2308C109.64 68.7864 110 68.4258 110.445 68.4258C110.889 68.4258 111.25 68.7864 111.25 69.2308V75.4695C111.25 75.9139 110.889 76.2745 110.445 76.2745Z" fill="#472B29"/>
<path d="M110.445 65.205C110 65.205 109.64 64.8444 109.64 64.4V61.18C109.64 60.7356 110 60.375 110.445 60.375C110.889 60.375 111.25 60.7356 111.25 61.18V64.4C111.25 64.8444 110.889 65.205 110.445 65.205Z" fill="#472B29"/>
<path d="M103.199 111.09H58.1193C53.6806 111.09 50.0693 107.479 50.0693 103.04V57.9602C50.0693 53.5214 53.6806 49.9102 58.1193 49.9102H98.9731C99.4174 49.9102 99.7781 50.2708 99.7781 50.7152C99.7781 51.1595 99.4174 51.5202 98.9731 51.5202H58.1193C54.5677 51.5202 51.6793 54.4085 51.6793 57.9602V103.04C51.6793 106.592 54.5677 109.48 58.1193 109.48H103.199C106.751 109.48 109.639 106.592 109.639 103.04V79.8964C109.639 79.452 110 79.0914 110.444 79.0914C110.889 79.0914 111.249 79.452 111.249 79.8964V103.04C111.249 107.479 107.638 111.09 103.199 111.09Z" fill="#472B29"/>
<path d="M75.5801 94.1895V98.084C75.5801 99.1547 80.5711 100.022 86.7277 100.022C92.8844 100.022 97.8754 99.1547 97.8754 98.084V94.1895H75.5801Z" fill="#1960EA"/>
<path d="M86.7279 100.525C85.5365 100.525 75.0859 100.456 75.0859 98.0844V94.1898C75.0859 93.9113 75.3065 93.6875 75.5802 93.6875H97.8755C98.1492 93.6875 98.3698 93.9129 98.3698 94.1898V98.0844C98.3698 100.456 87.9193 100.525 86.7279 100.525ZM76.0745 94.6921V98.0844C76.3482 98.5304 79.8709 99.5189 86.7279 99.5189C93.5848 99.5189 97.1075 98.5304 97.3925 98.0232L97.3828 94.6905L76.0745 94.6921Z" fill="#472B29"/>
<path d="M86.7277 92.2598C83.7712 92.2598 80.9357 92.464 78.8451 92.8275C76.7546 93.191 75.5801 93.6841 75.5801 94.1982C75.5801 94.7123 76.7546 95.2054 78.8451 95.5689C80.9357 95.9324 83.7712 96.1366 86.7277 96.1366C89.6843 96.1366 92.5197 95.9324 94.6103 95.5689C96.7009 95.2054 97.8754 94.7123 97.8754 94.1982C97.8754 93.6841 96.7009 93.191 94.6103 92.8275C92.5197 92.464 89.6843 92.2598 86.7277 92.2598Z" fill="#7BA8FF"/>
<path d="M86.7279 96.6393C85.5365 96.6393 75.0859 96.5701 75.0859 94.1986C75.0859 91.827 85.5365 91.7578 86.7279 91.7578C87.9193 91.7578 98.3698 91.827 98.3698 94.1986C98.3698 96.5701 87.9193 96.6393 86.7279 96.6393ZM86.7279 92.7625C79.8725 92.7625 76.3466 93.751 76.0632 94.2581C76.3482 94.6461 79.8741 95.6347 86.7279 95.6347C93.324 95.6347 96.8386 94.717 97.3458 94.2002C96.8386 93.6801 93.3256 92.7625 86.7279 92.7625Z" fill="#472B29"/>
<path d="M75.5801 87.752V91.6465C75.5801 92.7172 80.5711 93.585 86.7277 93.585C92.8844 93.585 97.8754 92.7172 97.8754 91.6465V87.752H75.5801Z" fill="#1960EA"/>
<path d="M86.7279 94.0877C85.5365 94.0877 75.0859 94.0184 75.0859 91.6469V87.7523C75.0859 87.4738 75.3065 87.25 75.5802 87.25H97.8755C98.1492 87.25 98.3698 87.4754 98.3698 87.7523V91.6469C98.3698 94.02 87.9193 94.0877 86.7279 94.0877ZM76.0745 88.2546V91.6469C76.3482 92.0929 79.8709 93.0814 86.7279 93.0814C93.5848 93.0814 97.1075 92.0929 97.3925 91.5857L97.3828 88.253H76.0745V88.2546Z" fill="#472B29"/>
<path d="M86.7277 85.8223C83.7712 85.8223 80.9357 86.0265 78.8451 86.39C76.7546 86.7535 75.5801 87.2466 75.5801 87.7607C75.5801 88.2748 76.7546 88.7679 78.8451 89.1314C80.9357 89.4949 83.7712 89.6991 86.7277 89.6991C89.6843 89.6991 92.5197 89.4949 94.6103 89.1314C96.7009 88.7679 97.8754 88.2748 97.8754 87.7607C97.8754 87.2466 96.7009 86.7535 94.6103 86.39C92.5197 86.0265 89.6843 85.8223 86.7277 85.8223Z" fill="#7BA8FF"/>
<path d="M86.7279 90.2018C85.5365 90.2018 75.0859 90.1326 75.0859 87.7611C75.0859 85.3895 85.5365 85.3203 86.7279 85.3203C87.9193 85.3203 98.3698 85.3895 98.3698 87.7611C98.3698 90.1326 87.9193 90.2018 86.7279 90.2018ZM86.7279 86.3233C79.8725 86.3233 76.3466 87.3119 76.0632 87.819C76.3466 88.207 79.8725 89.1956 86.7279 89.1956C93.3256 89.1956 96.8403 88.2779 97.3474 87.7611C96.8403 87.241 93.3272 86.3233 86.7279 86.3233Z" fill="#472B29"/>
<path d="M75.5801 81.3145V85.209C75.5801 86.2797 80.5711 87.1475 86.7277 87.1475C92.8844 87.1475 97.8754 86.2797 97.8754 85.209V81.3145H75.5801Z" fill="#1960EA"/>
<path d="M86.7279 87.6502C85.5365 87.6502 75.0859 87.5809 75.0859 85.2094V81.3148C75.0859 81.0363 75.3065 80.8125 75.5802 80.8125H97.8755C98.1492 80.8125 98.3698 81.0379 98.3698 81.3148V85.2094C98.3698 87.5809 87.9193 87.6502 86.7279 87.6502ZM76.0745 81.8171V85.2094C76.3482 85.6554 79.8709 86.6439 86.7279 86.6439C93.5848 86.6439 97.1075 85.6554 97.3925 85.1482L97.3828 81.8155L76.0745 81.8171Z" fill="#472B29"/>
<path d="M86.7277 79.3848C83.7712 79.3848 80.9357 79.589 78.8451 79.9525C76.7546 80.3161 75.5801 80.8091 75.5801 81.3232C75.5801 81.8373 76.7546 82.3304 78.8451 82.6939C80.9357 83.0574 83.7712 83.2616 86.7277 83.2616C89.6843 83.2616 92.5197 83.0574 94.6103 82.6939C96.7009 82.3304 97.8754 81.8373 97.8754 81.3232C97.8754 80.8091 96.7009 80.3161 94.6103 79.9525C92.5197 79.589 89.6843 79.3848 86.7277 79.3848Z" fill="#7BA8FF"/>
<path d="M86.7279 83.7643C85.5365 83.7643 75.0859 83.6951 75.0859 81.3236C75.0859 78.9504 85.5365 78.8828 86.7279 78.8828C87.9193 78.8828 98.3698 78.952 98.3698 81.3236C98.3698 83.6951 87.9193 83.7643 86.7279 83.7643ZM86.7279 79.8891C79.8725 79.8891 76.3466 80.8776 76.0632 81.3848C76.3466 81.7728 79.8725 82.7613 86.7279 82.7613C93.3256 82.7613 96.8403 81.8436 97.3474 81.3268C96.8403 80.8052 93.3272 79.8891 86.7279 79.8891Z" fill="#472B29"/>
<path d="M75.5801 74.8789V78.7735C75.5801 79.8441 80.5711 80.7119 86.7277 80.7119C92.8844 80.7119 97.8754 79.8441 97.8754 78.7735V74.8789H75.5801Z" fill="#1960EA"/>
<path d="M86.7279 81.2111C85.5365 81.2111 75.0859 81.1418 75.0859 78.7703V74.8773C75.0859 74.5988 75.3065 74.375 75.5802 74.375H97.8755C98.1492 74.375 98.3698 74.6004 98.3698 74.8773V78.7703C98.3698 81.1451 87.9193 81.2111 86.7279 81.2111ZM76.0745 75.3796V78.7703C76.3482 79.2163 79.8709 80.2048 86.7279 80.2048C93.5848 80.2048 97.1075 79.2163 97.3925 78.7091L97.3828 75.378L76.0745 75.3796Z" fill="#472B29"/>
<path d="M86.7277 72.9473C83.7712 72.9473 80.9357 73.1515 78.8451 73.515C76.7546 73.8786 75.5801 74.3716 75.5801 74.8857C75.5801 75.3998 76.7546 75.8929 78.8451 76.2564C80.9357 76.6199 83.7712 76.8241 86.7277 76.8241C89.6843 76.8241 92.5197 76.6199 94.6103 76.2564C96.7009 75.8929 97.8754 75.3998 97.8754 74.8857C97.8754 74.3716 96.7009 73.8786 94.6103 73.515C92.5197 73.1515 89.6843 72.9473 86.7277 72.9473Z" fill="#7BA8FF"/>
<path d="M86.7279 77.3268C85.5365 77.3268 75.0859 77.2576 75.0859 74.8861C75.0859 72.5129 85.5365 72.4453 86.7279 72.4453C87.9193 72.4453 98.3698 72.5145 98.3698 74.8861C98.3698 77.2592 87.9193 77.3268 86.7279 77.3268ZM86.7279 73.4516C79.8725 73.4516 76.3466 74.4401 76.0632 74.9472C76.3466 75.3353 79.8725 76.3238 86.7279 76.3238C93.3256 76.3238 96.8403 75.4061 97.3474 74.8893C96.8403 74.366 93.3272 73.4516 86.7279 73.4516Z" fill="#472B29"/>
<path d="M65.0537 96.7051V100.6C65.0537 101.67 70.0447 102.538 76.2014 102.538C82.358 102.538 87.349 101.67 87.349 100.6V96.7051H65.0537Z" fill="#1960EA"/>
<path d="M76.2015 103.039C75.0101 103.039 64.5596 102.97 64.5596 100.598V96.7035C64.5596 96.425 64.7801 96.2012 65.0538 96.2012H87.3507C87.6244 96.2012 87.845 96.4266 87.845 96.7035V100.598C87.8434 102.97 77.3945 103.039 76.2015 103.039ZM65.5481 97.2058V100.598C65.8218 101.044 69.3477 102.033 76.2015 102.033C83.0552 102.033 86.5811 101.044 86.8661 100.537L86.8565 97.2042L65.5481 97.2058Z" fill="#472B29"/>
<path d="M76.2014 94.7734C73.2448 94.7734 70.4094 94.9777 68.3188 95.3412C66.2282 95.7047 65.0537 96.1978 65.0537 96.7119C65.0537 97.226 66.2282 97.719 68.3188 98.0826C70.4094 98.4461 73.2448 98.6503 76.2014 98.6503C79.1579 98.6503 81.9933 98.4461 84.0839 98.0826C86.1745 97.719 87.349 97.226 87.349 96.7119C87.349 96.1978 86.1745 95.7047 84.0839 95.3412C81.9933 94.9777 79.1579 94.7734 76.2014 94.7734Z" fill="#7BA8FF"/>
<path d="M76.2015 99.153C75.0101 99.153 64.5596 99.0838 64.5596 96.7122C64.5596 94.3407 75.0101 94.2715 76.2015 94.2715C77.3929 94.2715 87.8434 94.3407 87.8434 96.7122C87.8434 99.0854 77.3945 99.153 76.2015 99.153ZM76.2015 95.2761C69.3461 95.2761 65.8218 96.2647 65.5368 96.7702C65.8218 97.1582 69.3461 98.1468 76.2015 98.1468C82.7993 98.1468 86.3123 97.2291 86.8194 96.7122C86.3139 96.1938 82.8009 95.2761 76.2015 95.2761Z" fill="#472B29"/>
<path d="M65.0537 90.2676V94.1622C65.0537 95.2328 70.0447 96.1006 76.2014 96.1006C82.358 96.1006 87.349 95.2328 87.349 94.1622V90.2676H65.0537Z" fill="#1960EA"/>
<path d="M76.2015 96.6013C75.0101 96.6013 64.5596 96.5321 64.5596 94.1606V90.266C64.5596 89.9875 64.7801 89.7637 65.0538 89.7637H87.3507C87.6244 89.7637 87.845 89.9891 87.845 90.266V94.1606C87.8434 96.5321 77.3945 96.6013 76.2015 96.6013ZM65.5481 90.7683V94.1606C65.8218 94.6066 69.3445 95.5951 76.2015 95.5951C83.0585 95.5951 86.5811 94.6065 86.8661 94.0994L86.8565 90.7667L65.5481 90.7683Z" fill="#472B29"/>
<path d="M76.2014 88.3359C73.2448 88.3359 70.4094 88.5402 68.3188 88.9037C66.2282 89.2672 65.0537 89.7603 65.0537 90.2744C65.0537 90.7885 66.2282 91.2815 68.3188 91.6451C70.4094 92.0086 73.2448 92.2128 76.2014 92.2128C79.1579 92.2128 81.9933 92.0086 84.0839 91.6451C86.1745 91.2815 87.349 90.7885 87.349 90.2744C87.349 89.7603 86.1745 89.2672 84.0839 88.9037C81.9933 88.5402 79.1579 88.3359 76.2014 88.3359Z" fill="#7BA8FF"/>
<path d="M76.2015 92.7155C75.0101 92.7155 64.5596 92.6463 64.5596 90.2747C64.5596 87.9016 75.0101 87.834 76.2015 87.834C77.3929 87.834 87.8434 87.9032 87.8434 90.2747C87.8434 92.6463 77.3945 92.7155 76.2015 92.7155ZM76.2015 88.8386C69.3461 88.8386 65.8218 89.8272 65.5368 90.3327C65.8218 90.7207 69.3461 91.7093 76.2015 91.7093C82.7993 91.7093 86.3123 90.7916 86.8194 90.2747C86.3139 89.7563 82.8009 88.8386 76.2015 88.8386Z" fill="#472B29"/>
<path d="M65.0537 84.1289V88.0235C65.0537 89.0942 70.0447 89.9619 76.2014 89.9619C82.358 89.9619 87.349 89.0942 87.349 88.0235V84.1289H65.0537Z" fill="#1960EA"/>
<path d="M76.2015 90.4646C75.0101 90.4646 64.5596 90.3954 64.5596 88.0239V84.1293C64.5596 83.8507 64.7801 83.627 65.0538 83.627H87.3507C87.6244 83.627 87.845 83.8524 87.845 84.1293V88.0239C87.8434 90.3954 77.3945 90.4646 76.2015 90.4646ZM65.5481 84.6316V88.0239C65.8218 88.4698 69.3445 89.4584 76.2015 89.4584C83.0585 89.4584 86.5811 88.4698 86.8661 87.9627L86.8565 84.63H65.5481V84.6316Z" fill="#472B29"/>
<path d="M76.2014 82.1973C73.2448 82.1973 70.4094 82.4015 68.3188 82.765C66.2282 83.1285 65.0537 83.6216 65.0537 84.1357C65.0537 84.6498 66.2282 85.1429 68.3188 85.5064C70.4094 85.8699 73.2448 86.0741 76.2014 86.0741C79.1579 86.0741 81.9933 85.8699 84.0839 85.5064C86.1745 85.1429 87.349 84.6498 87.349 84.1357C87.349 83.6216 86.1745 83.1285 84.0839 82.765C81.9933 82.4015 79.1579 82.1973 76.2014 82.1973Z" fill="#7BA8FF"/>
<path d="M76.2015 86.5788C75.0101 86.5788 64.5596 86.5096 64.5596 84.138C64.5596 81.7665 75.0101 81.6973 76.2015 81.6973C77.3929 81.6973 87.8434 81.7665 87.8434 84.138C87.8434 86.5096 77.3945 86.5788 76.2015 86.5788ZM76.2015 82.7019C69.3461 82.7019 65.8218 83.6904 65.5368 84.1976C65.8218 84.5856 69.3461 85.5741 76.2015 85.5741C82.7993 85.5741 86.3139 84.6564 86.821 84.1396C86.3139 83.6196 82.8025 82.7019 76.2015 82.7019Z" fill="#472B29"/>
<path d="M75.5801 68.4414V72.336C75.5801 73.4067 80.5711 74.2744 86.7277 74.2744C92.8844 74.2744 97.8754 73.4067 97.8754 72.336V68.4414H75.5801Z" fill="#1960EA"/>
<path d="M86.7279 74.7752C85.5365 74.7752 75.0859 74.7059 75.0859 72.3344V68.4398C75.0859 68.1613 75.3065 67.9375 75.5802 67.9375H97.8755C98.1492 67.9375 98.3698 68.1629 98.3698 68.4398V72.3344C98.3698 74.7092 87.9193 74.7752 86.7279 74.7752ZM76.0745 68.9438V72.336C76.3482 72.782 79.8741 73.7705 86.7279 73.7705C93.5816 73.7705 97.1075 72.782 97.3925 72.2765L97.3828 68.9438H76.0745Z" fill="#472B29"/>
<path d="M86.7277 66.5098C83.7712 66.5098 80.9357 66.714 78.8451 67.0775C76.7546 67.441 75.5801 67.9341 75.5801 68.4482C75.5801 68.9623 76.7546 69.4554 78.8451 69.8189C80.9357 70.1824 83.7712 70.3866 86.7277 70.3866C89.6843 70.3866 92.5197 70.1824 94.6103 69.8189C96.7009 69.4554 97.8754 68.9623 97.8754 68.4482C97.8754 67.9341 96.7009 67.441 94.6103 67.0775C92.5197 66.714 89.6843 66.5098 86.7277 66.5098Z" fill="#7BA8FF"/>
<path d="M86.7279 70.8893C85.5365 70.8893 75.0859 70.8201 75.0859 68.4486C75.0859 66.077 85.5365 66.0078 86.7279 66.0078C87.9193 66.0078 98.3698 66.077 98.3698 68.4486C98.3698 70.8201 87.9193 70.8893 86.7279 70.8893ZM86.7279 67.0125C79.8725 67.0125 76.3482 68.001 76.0632 68.5081C76.3466 68.8961 79.8725 69.8847 86.7279 69.8847C93.3256 69.8847 96.8386 68.967 97.3458 68.4502C96.8386 67.9285 93.3256 67.0125 86.7279 67.0125Z" fill="#472B29"/>
<path d="M75.5801 62.0039V65.8985C75.5801 66.9691 80.5711 67.8369 86.7277 67.8369C92.8844 67.8369 97.8754 66.9691 97.8754 65.8985V62.0039H75.5801Z" fill="#1960EA"/>
<path d="M86.7279 68.3377C85.5365 68.3377 75.0859 68.2684 75.0859 65.8969V62.0023C75.0859 61.7238 75.3065 61.5 75.5802 61.5H97.8755C98.1492 61.5 98.3698 61.7254 98.3698 62.0023V65.8969C98.3698 68.2717 87.9193 68.3377 86.7279 68.3377ZM76.0745 62.5046V65.8969C76.3482 66.3429 79.8741 67.3314 86.7279 67.3314C93.5816 67.3314 97.1075 66.3429 97.3925 65.8357L97.3828 62.503H76.0745V62.5046Z" fill="#472B29"/>
<path d="M86.7277 60.0742C83.7712 60.0742 80.9357 60.2784 78.8451 60.642C76.7546 61.0055 75.5801 61.4986 75.5801 62.0127C75.5801 62.5268 76.7546 63.0198 78.8451 63.3833C80.9357 63.7469 83.7712 63.9511 86.7277 63.9511C89.6843 63.9511 92.5197 63.7469 94.6103 63.3833C96.7009 63.0198 97.8754 62.5268 97.8754 62.0127C97.8754 61.4986 96.7009 61.0055 94.6103 60.642C92.5197 60.2784 89.6843 60.0742 86.7277 60.0742Z" fill="#7BA8FF"/>
<path d="M86.7279 64.4534C85.5365 64.4534 75.0859 64.3842 75.0859 62.0127C75.0859 59.6411 85.5348 59.5703 86.7279 59.5703C87.9193 59.5703 98.3698 59.6395 98.3698 62.0111C98.3698 64.3858 87.9193 64.4534 86.7279 64.4534ZM86.7279 60.5766C79.8725 60.5766 76.3482 61.5651 76.0632 62.0706C76.3466 62.4587 79.8725 63.4472 86.7279 63.4472C93.3256 63.4472 96.8386 62.5295 97.3458 62.0127C96.8386 61.4926 93.3256 60.5766 86.7279 60.5766Z" fill="#472B29"/>
</svg>
