<svg width="41" height="50" viewBox="0 0 41 50" fill="none" xmlns="http://www.w3.org/2000/svg">
<path d="M20.8436 0H7.21777V6.9515H20.8436V0ZM18.4764 4.28406H9.58498C9.13463 4.28406 8.77666 3.9261 8.77666 3.47575C8.77666 3.0254 9.13463 2.66744 9.58498 2.66744H18.4764C18.9268 2.66744 19.2847 3.0254 19.2847 3.47575C19.2847 3.91455 18.9268 4.28406 18.4764 4.28406Z" fill="white"/>
<path d="M5.6016 0H3.8464C2.20668 0 0.867188 1.32794 0.867188 2.97922V6.9515H5.6016V0Z" fill="white"/>
<path d="M27.1953 2.97922C27.1953 1.33949 25.8674 0 24.2161 0H22.4609V6.9515H27.1953V2.97922Z" fill="white"/>
<path d="M0.867188 47.0211C0.867188 48.6608 2.19513 50.0003 3.8464 50.0003H5.6016V43.0488H0.867188V47.0211Z" fill="white"/>
<path d="M22.4609 50.0003H24.2161C25.8559 50.0003 27.1953 48.6724 27.1953 47.0211V43.0488H22.4609V50.0003Z" fill="white"/>
<path d="M7.21777 50.0003H20.8436V43.0488H7.21777V50.0003ZM14.0307 44.9657C14.8852 44.9657 15.5896 45.6585 15.5896 46.5246C15.5896 47.3906 14.8852 48.0835 14.0307 48.0835C13.1647 48.0835 12.4718 47.3906 12.4718 46.5246C12.4718 45.6701 13.1762 44.9657 14.0307 44.9657Z" fill="white"/>
<path d="M19.112 35.8315L10.1051 40.6698L14.8626 31.7206C13.0612 29.134 12.0797 26.0278 12.0797 22.8523C12.0797 18.7876 13.6385 14.9423 16.4792 12.0324C17.9573 10.5197 19.6894 9.35341 21.5716 8.55664H0.867188V41.4319H27.1951V38.3372C27.172 38.3372 27.1605 38.3372 27.1489 38.3372C24.2621 38.2564 21.5023 37.4019 19.112 35.8315Z" fill="white"/>
<path d="M27.8458 10.0215C21.7835 10.0215 16.7142 14.2478 15.4209 19.9176H15.6288V22.6774H17.7766C18.0421 22.6774 18.3077 22.7005 18.5618 22.7582C18.5618 17.6427 22.7188 13.4857 27.8458 13.4857C32.9729 13.4857 37.1299 17.6427 37.1299 22.7698C37.1299 27.8968 32.9729 32.0538 27.8458 32.0538C25.444 32.0538 23.25 31.1416 21.6103 29.6404V33.8898C23.4578 34.9291 25.5826 35.518 27.8458 35.518C34.8897 35.518 40.5941 29.8136 40.5941 22.7698C40.5826 15.7259 34.8782 10.0215 27.8458 10.0215Z" fill="white"/>
</svg>
