<svg width="51" height="50" viewBox="0 0 51 50" fill="none" xmlns="http://www.w3.org/2000/svg">
<g clip-path="url(#clip0_1699_20781)">
<path fill-rule="evenodd" clip-rule="evenodd" d="M49.1097 23.4026C46.9047 11.0876 41.9747 7.45508 39.3522 7.45508C35.2597 7.45508 34.2097 10.4976 25.4997 10.6001C16.7897 10.4976 15.7397 7.45508 11.6472 7.45508C9.02468 7.45508 4.09218 11.0876 1.88718 23.4026C0.629679 30.4326 -0.735321 40.9276 2.51718 42.1876C6.56468 43.7551 7.93718 39.8351 12.3822 36.5226C16.8947 33.1651 19.0597 32.3751 25.4997 32.3751C31.9397 32.3751 34.1047 33.1651 38.6172 36.5226C43.0622 39.8326 44.4347 43.7551 48.4822 42.1876C51.7347 40.9276 50.3697 30.4351 49.1097 23.4026ZM15.4997 25.0001C14.1736 25.0001 12.9018 24.4733 11.9641 23.5356C11.0265 22.5979 10.4997 21.3262 10.4997 20.0001C10.4997 18.674 11.0265 17.4022 11.9641 16.4645C12.9018 15.5269 14.1736 15.0001 15.4997 15.0001C16.8258 15.0001 18.0975 15.5269 19.0352 16.4645C19.9729 17.4022 20.4997 18.674 20.4997 20.0001C20.4997 21.3262 19.9729 22.5979 19.0352 23.5356C18.0975 24.4733 16.8258 25.0001 15.4997 25.0001ZM32.9997 25.0001C32.3366 25.0001 31.7008 24.7367 31.2319 24.2678C30.7631 23.799 30.4997 23.1631 30.4997 22.5001C30.4997 21.837 30.7631 21.2012 31.2319 20.7323C31.7008 20.2635 32.3366 20.0001 32.9997 20.0001C33.6627 20.0001 34.2986 20.2635 34.7674 20.7323C35.2363 21.2012 35.4997 21.837 35.4997 22.5001C35.4997 23.1631 35.2363 23.799 34.7674 24.2678C34.2986 24.7367 33.6627 25.0001 32.9997 25.0001ZM37.9997 20.0001C37.3366 20.0001 36.7008 19.7367 36.2319 19.2678C35.7631 18.799 35.4997 18.1631 35.4997 17.5001C35.4997 16.837 35.7631 16.2012 36.2319 15.7323C36.7008 15.2635 37.3366 15.0001 37.9997 15.0001C38.6627 15.0001 39.2986 15.2635 39.7674 15.7323C40.2363 16.2012 40.4997 16.837 40.4997 17.5001C40.4997 18.1631 40.2363 18.799 39.7674 19.2678C39.2986 19.7367 38.6627 20.0001 37.9997 20.0001Z" fill="white"/>
</g>
<defs>
<clipPath id="clip0_1699_20781">
<rect width="50" height="50" fill="white" transform="translate(0.5)"/>
</clipPath>
</defs>
</svg>
