<svg width="94" height="94" viewBox="0 0 94 94" fill="none" xmlns="http://www.w3.org/2000/svg">
<path d="M58.7188 51.3953C58.7188 61.1031 66.5891 68.9734 76.2969 68.9734C86.0047 68.9734 93.875 61.1016 93.875 51.3953H91.2578L79.8438 22.3375C80.5608 21.7959 81.1427 21.0957 81.5439 20.2917C81.9451 19.4877 82.1547 18.6017 82.1562 17.7031C82.1562 14.4688 79.5312 11.8438 76.2969 11.8438C75.4406 11.8438 74.6344 12.0375 73.9016 12.3656C72.7058 11.9002 71.5136 11.4257 70.325 10.9422C65.8438 9.10469 60.6297 6.98906 55.2 5.77031C54.5645 4.11045 53.4405 2.68233 51.9765 1.67445C50.5126 0.66657 48.7774 0.126317 47 0.125C45.2224 0.126438 43.4871 0.666921 42.0231 1.67509C40.5591 2.68327 39.4353 4.11172 38.8 5.77187C33.3688 6.98906 28.1547 9.10469 23.6734 10.9437C22.6531 11.3625 21.2172 11.9281 20.0969 12.3672C19.3452 12.0246 18.5292 11.8462 17.7031 11.8438C16.1491 11.8438 14.6588 12.4611 13.5599 13.5599C12.4611 14.6588 11.8438 16.1491 11.8438 17.7031C11.8457 18.6014 12.0553 19.4872 12.4562 20.2911C12.8571 21.095 13.4384 21.7954 14.1547 22.3375L2.74063 51.3953H0.125C0.125 61.1031 7.99531 68.9734 17.7031 68.9734C27.4109 68.9734 35.2812 61.1031 35.2812 51.3953H32.6641L21.25 22.3391C21.9666 21.7968 22.5482 21.0962 22.9494 20.292C23.3505 19.4878 23.5603 18.6018 23.5625 17.7031C23.5625 17.5672 23.5297 17.4391 23.5219 17.3047L24.9828 16.7125C29.0938 15.0234 33.8547 13.0813 38.7406 11.8953C39.1825 13.1176 39.8898 14.2267 40.8116 15.1428C41.7335 16.059 42.8469 16.7594 44.0719 17.1938V26.15H42.275V54.325H40.3219V68.1203C30.6297 69.9187 23.5625 75.5188 23.5625 82.1562H20.6328V88.0156H14.7734V93.875H79.2266V88.0156H73.3672V82.1562H70.4375C70.4375 75.5188 63.3672 69.9187 53.6797 68.1203V54.325H51.7266V26.1484H49.9297V17.1922C51.1543 16.7576 52.2674 16.057 53.1889 15.1409C54.1105 14.2247 54.8176 13.1158 55.2594 11.8937C60.1469 13.0797 64.9047 15.0219 69.0187 16.7109C69.5187 16.9172 69.9906 17.1063 70.4781 17.3047C70.4688 17.4391 70.4375 17.5672 70.4375 17.7031C70.4395 18.6014 70.6491 19.4872 71.05 20.2911C71.4508 21.095 72.0321 21.7954 72.7484 22.3375L61.3344 51.3937H58.7188V51.3953ZM17.7031 14.7734C18.0937 14.7645 18.482 14.8338 18.8454 14.9771C19.2088 15.1204 19.5399 15.3349 19.8192 15.608C20.0985 15.8811 20.3204 16.2072 20.4719 16.5673C20.6234 16.9274 20.7014 17.3141 20.7013 17.7047C20.7012 18.0953 20.623 18.482 20.4713 18.842C20.3196 19.202 20.0976 19.528 19.8181 19.801C19.5386 20.0739 19.2074 20.2882 18.844 20.4313C18.4805 20.5745 18.0921 20.6435 17.7016 20.6344C16.9361 20.6165 16.208 20.2998 15.673 19.752C15.138 19.2042 14.8386 18.4688 14.8388 17.7031C14.839 16.9374 15.1388 16.2022 15.6741 15.6547C16.2094 15.1072 16.9376 14.7909 17.7031 14.7734ZM29.6391 51.3953H5.7625L16.7344 23.4656C17.0516 23.5187 17.3719 23.5625 17.7031 23.5625C18.0344 23.5625 18.3531 23.5188 18.6688 23.4641L29.6391 51.3953ZM76.2969 14.7734C76.6874 14.7645 77.0758 14.8338 77.4392 14.9771C77.8026 15.1204 78.1337 15.3349 78.413 15.608C78.6923 15.8811 78.9142 16.2072 79.0657 16.5673C79.2171 16.9274 79.2951 17.3141 79.295 17.7047C79.2949 18.0953 79.2167 18.482 79.0651 18.842C78.9134 19.202 78.6913 19.528 78.4118 19.801C78.1324 20.0739 77.8012 20.2882 77.4377 20.4313C77.0742 20.5745 76.6858 20.6435 76.2953 20.6344C75.5298 20.6165 74.8017 20.2998 74.2667 19.752C73.7317 19.2042 73.4323 18.4688 73.4325 17.7031C73.4327 16.9374 73.7325 16.2022 74.2678 15.6547C74.8031 15.1072 75.5314 14.7909 76.2969 14.7734ZM75.3297 23.4656C75.6488 23.525 75.9723 23.5574 76.2969 23.5625C76.6266 23.5625 76.9469 23.5188 77.2625 23.4641L88.2328 51.3937H64.3547L75.3297 23.4656Z" fill="#1960EA"/>
</svg>
