<svg width="50" height="50" viewBox="0 0 50 50" fill="none" xmlns="http://www.w3.org/2000/svg">
<path d="M19.1406 10.0254C19.1406 6.78931 21.7639 4.16602 25 4.16602C28.2361 4.16602 30.8594 6.78931 30.8594 10.0254C30.8594 13.2614 28.2361 15.8848 25 15.8848C21.7639 15.8848 19.1406 13.2614 19.1406 10.0254ZM39.8622 10.1371C38.8453 9.12012 37.1964 9.12012 36.1794 10.1371L29.1296 17.1868H20.8703L13.8205 10.1371C12.8036 9.12012 11.1547 9.12012 10.1378 10.1371C9.12075 11.1541 9.12075 12.803 10.1378 13.82L17.8385 21.5207V43.2285C17.8385 44.6667 19.0045 45.8327 20.4427 45.8327H21.7448C23.183 45.8327 24.3489 44.6667 24.3489 43.2285V34.1139H25.651V43.2285C25.651 44.6667 26.817 45.8327 28.2552 45.8327H29.5573C30.9955 45.8327 32.1614 44.6667 32.1614 43.2285V21.5207L39.8622 13.8199C40.8792 12.8029 40.8792 11.1541 39.8622 10.1371V10.1371Z" fill="white"/>
</svg>
