<svg width="84" height="92" viewBox="0 0 84 92" fill="none" xmlns="http://www.w3.org/2000/svg">
<path d="M10.7497 0.333008C4.99968 0.333008 0.333008 4.99967 0.333008 10.7497V20.433C0.335227 22.6608 0.932808 24.8476 2.0639 26.7669C3.19499 28.6863 4.81848 30.2684 6.76634 31.3497L30.733 44.6747C25.713 47.209 21.694 51.3618 19.3254 56.4621C16.9569 61.5624 16.377 67.3123 17.6796 72.7828C18.9822 78.2533 22.0911 83.1249 26.504 86.6105C30.917 90.096 36.3762 91.992 41.9997 91.992C47.6231 91.992 53.0824 90.096 57.4953 86.6105C61.9083 83.1249 65.0172 78.2533 66.3198 72.7828C67.6223 67.3123 67.0425 61.5624 64.6739 56.4621C62.3053 51.3618 58.2864 47.209 53.2663 44.6747L77.2413 31.358C79.1889 30.275 80.8115 28.691 81.9412 26.7702C83.0708 24.8493 83.6664 22.6614 83.6664 20.433V10.7497C83.6664 4.99967 78.9997 0.333008 73.2497 0.333008H10.7497ZM8.66634 10.7497C8.66634 10.1971 8.88584 9.66724 9.27654 9.27654C9.66724 8.88583 10.1971 8.66634 10.7497 8.66634H25.333V32.1413L10.808 24.0747C10.1588 23.7137 9.61796 23.1857 9.24141 22.5454C8.86485 21.9051 8.66631 21.1758 8.66634 20.433V10.7497ZM33.6663 36.7663V8.66634H50.333V36.7663L41.9997 41.3997L33.6663 36.7663ZM58.6663 32.1413V8.66634H73.2497C73.8022 8.66634 74.3321 8.88583 74.7228 9.27654C75.1135 9.66724 75.333 10.1971 75.333 10.7497V20.433C75.333 21.1758 75.1345 21.9051 74.7579 22.5454C74.3814 23.1857 73.8405 23.7137 73.1913 24.0747L58.6663 32.1413ZM58.6663 66.9997C58.6663 71.4199 56.9104 75.6592 53.7848 78.7848C50.6592 81.9104 46.42 83.6663 41.9997 83.6663C37.5794 83.6663 33.3402 81.9104 30.2146 78.7848C27.089 75.6592 25.333 71.4199 25.333 66.9997C25.333 62.5794 27.089 58.3402 30.2146 55.2146C33.3402 52.089 37.5794 50.333 41.9997 50.333C46.42 50.333 50.6592 52.089 53.7848 55.2146C56.9104 58.3402 58.6663 62.5794 58.6663 66.9997Z" fill="#1960EA"/>
</svg>
