<svg width="88" height="88" viewBox="0 0 88 88" fill="none" xmlns="http://www.w3.org/2000/svg">
<path d="M4.42454 81.9813C4.42753 82.1947 4.47252 82.4055 4.55696 82.6015C4.6414 82.7975 4.76362 82.975 4.91665 83.1237C5.06967 83.2725 5.25051 83.3897 5.44882 83.4685C5.64714 83.5474 5.85905 83.5865 6.07245 83.5834H81.9204C82.1339 83.5867 82.3461 83.5479 82.5446 83.4692C82.7432 83.3904 82.9243 83.2733 83.0775 83.1245C83.2308 82.9757 83.3532 82.7981 83.4377 82.602C83.5223 82.4058 83.5674 82.1949 83.5704 81.9813V80.0688C83.6079 79.4918 83.6849 76.6168 81.7891 73.4355C80.5933 71.4293 78.8579 69.698 76.6308 68.2855C73.937 66.5772 70.51 65.3418 66.3641 64.598C64.2596 64.3019 62.172 63.8957 60.11 63.3813C54.6266 61.9813 54.1475 60.7418 54.1433 60.7293C54.1116 60.6068 54.0655 60.4887 54.0058 60.3772C53.96 60.148 53.8495 59.2772 54.062 56.9459C54.5995 51.023 57.7766 47.523 60.3287 44.7105C61.1329 43.8251 61.8933 42.9855 62.4787 42.1647C65.0058 38.623 65.2391 34.5918 65.2495 34.3418C65.2591 33.8988 65.1979 33.4571 65.0683 33.0334C64.8183 32.2626 64.3537 31.7834 64.012 31.4293C63.9312 31.3482 63.8527 31.2648 63.7766 31.1793C63.7516 31.1501 63.685 31.0709 63.7454 30.673C63.9497 29.3911 64.0908 28.1 64.1683 26.8043C64.285 24.7168 64.3745 21.5959 63.835 18.5563C63.7557 17.9758 63.636 17.4015 63.4766 16.8376C62.9079 14.7459 61.9954 12.9584 60.7266 11.4834C60.5079 11.2438 55.1995 5.6501 39.7891 4.50426C37.6579 4.34593 35.5516 4.43135 33.4766 4.5376C32.863 4.55124 32.2523 4.62662 31.6537 4.7626C30.062 5.17301 29.637 6.18135 29.5266 6.74593C29.3412 7.68343 29.6662 8.40843 29.8808 8.89176C29.912 8.96051 29.9516 9.04593 29.8829 9.27093C29.5266 9.8251 28.962 10.3251 28.3891 10.798C28.2225 10.9376 24.36 14.2709 24.1475 18.623C23.5745 21.9334 23.6162 27.0897 24.2933 30.6543C24.335 30.8522 24.3912 31.1438 24.2975 31.3418C23.5683 31.9938 22.7433 32.7334 22.7454 34.4209C22.7537 34.5918 22.9891 38.6209 25.5162 42.1647C26.0995 42.9855 26.86 43.823 27.662 44.7084L27.6662 44.7105C30.2183 47.523 33.3954 51.023 33.9329 56.9438C34.1433 59.2772 34.0329 60.1459 33.9891 60.3772C33.9286 60.4885 33.8818 60.6067 33.8495 60.7293C33.8475 60.7418 33.3704 61.9772 27.912 63.3751C24.762 64.1813 21.662 64.5938 21.5683 64.6043C17.5391 65.2855 14.1329 66.4918 11.4433 68.1897C9.22454 69.5918 7.48495 71.3293 6.27662 73.3501C4.34329 76.5793 4.39537 79.5209 4.42245 80.0584V81.9813H4.42454Z" stroke="#1960EA" stroke-width="7" stroke-linejoin="round"/>
</svg>
