<svg width="53" height="50" viewBox="0 0 53 50" fill="none" xmlns="http://www.w3.org/2000/svg">
<path d="M6.14052 30.7791C9.32851 30.7791 11.9129 28.1947 11.9129 25.0067C11.9129 21.8187 9.32851 19.2344 6.14052 19.2344C2.95254 19.2344 0.368164 21.8187 0.368164 25.0067C0.368164 28.1947 2.95254 30.7791 6.14052 30.7791Z" fill="white"/>
<path d="M46.8602 30.7791C50.0482 30.7791 52.6326 28.1947 52.6326 25.0067C52.6326 21.8187 50.0482 19.2344 46.8602 19.2344C43.6723 19.2344 41.0879 21.8187 41.0879 25.0067C41.0879 28.1947 43.6723 30.7791 46.8602 30.7791Z" fill="white"/>
<path d="M46.8603 38.4553C43.9915 38.4553 41.599 40.5575 41.1576 43.3101C41.1344 43.3101 41.1112 43.3101 41.0879 43.3101H32.2842C32.261 43.3101 32.2378 43.3101 32.2145 43.3101C31.7732 40.5575 29.3922 38.4553 26.5119 38.4553C23.6315 38.4553 21.2505 40.5575 20.8092 43.3101C20.786 43.3101 20.7627 43.3101 20.7395 43.3101H11.9358C11.9126 43.3101 11.8893 43.3101 11.8661 43.3101C11.7267 42.4622 11.4131 41.6725 10.9486 40.9988C10.9718 40.9872 10.9834 40.964 11.0066 40.9524L22.9695 29.6516C22.9927 29.6283 23.0043 29.6167 23.0276 29.5935C24.0032 30.3368 25.2111 30.7782 26.5351 30.7782C29.7291 30.7782 32.3075 28.1882 32.3075 25.0058C32.3075 23.8095 31.9358 22.6945 31.3086 21.7654C31.3318 21.7538 31.3435 21.7305 31.3667 21.7189L43.3295 10.4181C43.3528 10.3949 43.3644 10.3833 43.3876 10.36C44.3632 11.1034 45.5711 11.5447 46.8951 11.5447C50.0891 11.5447 52.6675 8.9547 52.6675 5.77236C52.6675 2.59001 50.0775 0 46.8951 0C44.0264 0 41.6338 2.10221 41.1925 4.85482C41.1692 4.85482 41.146 4.85482 41.1228 4.85482H32.3191C32.2958 4.85482 32.2726 4.85482 32.2494 4.85482C31.808 2.10221 29.4271 0 26.5467 0C23.6663 0 21.2854 2.10221 20.844 4.85482C20.8208 4.85482 20.7976 4.85482 20.7744 4.85482H11.9706C11.9474 4.85482 11.9242 4.85482 11.901 4.85482C11.4596 2.10221 9.07865 0 6.19828 0C2.95786 0 0.367851 2.59001 0.367851 5.77236C0.367851 8.96632 2.95786 11.5447 6.14021 11.5447C9.00897 11.5447 11.4015 9.44251 11.8429 6.6899C11.8661 6.6899 11.8893 6.6899 11.9126 6.6899H20.7163C20.7395 6.6899 20.7627 6.6899 20.786 6.6899C21.2273 9.44251 23.6083 11.5447 26.4886 11.5447C29.369 11.5447 31.75 9.44251 32.1913 6.6899C32.2145 6.6899 32.2378 6.6899 32.261 6.6899H41.0647C41.0879 6.6899 41.1112 6.6899 41.1344 6.6899C41.2738 7.53775 41.5874 8.32753 42.0519 9.00116C42.0287 9.01278 42.0171 9.036 41.9939 9.04762L30.031 20.3484C30.0078 20.3717 29.9962 20.3833 29.973 20.4065C28.9974 19.6632 27.7895 19.2218 26.4654 19.2218C23.2715 19.2218 20.6931 21.8118 20.6931 24.9942C20.6931 26.1905 21.0647 27.3055 21.6919 28.2346C21.6687 28.2462 21.6571 28.2695 21.6338 28.2811L9.67099 39.5819C9.64776 39.6051 9.63614 39.6167 9.61292 39.6399C8.63731 38.8966 7.42941 38.4553 6.10537 38.4553C2.91141 38.4553 0.333008 41.0453 0.333008 44.2276C0.333008 47.41 2.92302 50 6.10537 50C8.97412 50 11.3667 47.8978 11.808 45.1452C11.8313 45.1452 11.8545 45.1452 11.8777 45.1452H20.6814C20.7047 45.1452 20.7279 45.1452 20.7511 45.1452C21.1925 47.8978 23.5734 50 26.4538 50C29.3342 50 31.7151 47.8978 32.1565 45.1452C32.1797 45.1452 32.2029 45.1452 32.2262 45.1452H41.0299C41.0531 45.1452 41.0763 45.1452 41.0996 45.1452C41.5409 47.8978 43.9219 50 46.8022 50C49.9962 50 52.5746 47.41 52.5746 44.2276C52.5746 41.0453 50.0426 38.4553 46.8603 38.4553Z" fill="white"/>
</svg>
