<svg width="97" height="97" viewBox="0 0 97 97" fill="none" xmlns="http://www.w3.org/2000/svg">
<path d="M85.248 2.74012C84.1228 1.61529 82.597 0.983398 81.006 0.983398C79.415 0.983398 77.8892 1.61529 76.764 2.74012L67.74 11.7581C66.6152 12.8833 65.9833 14.4091 65.9833 16.0001C65.9833 17.5911 66.6152 19.1169 67.74 20.2421L76.758 29.2601C77.8832 30.3849 79.409 31.0168 81 31.0168C82.591 31.0168 84.1168 30.3849 85.242 29.2601L94.26 20.2421C95.3848 19.1169 96.0167 17.5911 96.0167 16.0001C96.0167 14.4091 95.3848 12.8833 94.26 11.7581L85.248 2.74012ZM71.988 16.0001L81.006 6.98212L90.024 16.0001L81 25.0181L71.988 16.0001ZM59.988 13.0001H15C11.0218 13.0001 7.20644 14.5805 4.3934 17.3935C1.58035 20.2066 0 24.0219 0 28.0001V82.0001C0 85.9784 1.58035 89.7937 4.3934 92.6067C7.20644 95.4198 11.0218 97.0001 15 97.0001H69C72.9782 97.0001 76.7936 95.4198 79.6066 92.6067C82.4196 89.7937 84 85.9784 84 82.0001V37.0001H59.988V13.0001ZM14.136 90.9581C11.909 90.7433 9.84191 89.7068 8.33771 88.0506C6.83352 86.3945 6.00011 84.2374 6 82.0001V73.0001H24V91.0001H15L14.136 90.9581ZM30 73.0001H54V91.0001H30V73.0001ZM77.958 82.8701C77.7418 85.096 76.7047 87.1617 75.0486 88.6646C73.3926 90.1676 71.2364 91.0002 69 91.0001H60V73.0001H78V82.0001L77.958 82.8701ZM30 43.0001H54V67.0001H30V43.0001ZM60 67.0001V43.0001H78V67.0001H60ZM30 19.0001H54V37.0001H30V19.0001ZM15 19.0001H24V37.0001H6V28.0001L6.042 27.1361C6.25678 24.9092 7.29332 22.842 8.94949 21.3378C10.6057 19.8336 12.7627 19.0002 15 19.0001ZM6 67.0001V43.0001H24V67.0001H6Z" fill="#1960EA"/>
</svg>
