<svg width="100" height="100" viewBox="0 0 100 100" fill="none" xmlns="http://www.w3.org/2000/svg">
<path d="M82.617 27.5504L59.617 4.48793C58.3993 3.23296 56.9421 2.23523 55.3317 1.55389C53.7214 0.872558 51.9906 0.521484 50.242 0.521484C48.4934 0.521484 46.7626 0.872558 45.1522 1.55389C43.5418 2.23523 42.0846 3.23296 40.867 4.48793L17.8045 27.5504L50.117 43.6754L82.617 27.5504ZM91.442 36.8629L96.0045 41.4254C97.2673 42.6385 98.272 44.0943 98.9583 45.7053C99.6446 47.3163 99.9984 49.0493 99.9984 50.8004C99.9984 52.5515 99.6446 54.2846 98.9583 55.8956C98.272 57.5066 97.2673 58.9623 96.0045 60.1754L59.2503 97.2921C58.3791 98.1833 57.3652 98.9226 56.2503 99.4796V54.4879L91.442 36.8629ZM8.55447 36.8629L3.99197 41.4254C2.72916 42.6385 1.72445 44.0943 1.03814 45.7053C0.35182 47.3163 -0.00195312 49.0493 -0.00195312 50.8004C-0.00195312 52.5515 0.35182 54.2846 1.03814 55.8956C1.72445 57.5066 2.72916 58.9623 3.99197 60.1754L40.7503 97.2921C41.6253 98.1838 42.6378 98.9254 43.7503 99.4796V54.4879L8.55447 36.8629Z" fill="#1960EA"/>
</svg>
