<svg width="51" height="50" viewBox="0 0 51 50" fill="none" xmlns="http://www.w3.org/2000/svg">
<g clip-path="url(#clip0_444_4130)">
<path d="M25.4735 3.51125e-06C18.8477 0.00702688 12.4956 2.64405 7.81296 7.3317C3.13028 12.0193 0.499996 18.3742 0.5 25C0.5 31.6304 3.13392 37.9893 7.82233 42.6777C12.5107 47.3661 18.8696 50 25.5 50C31.1727 49.9927 36.6743 48.0564 41.1011 44.509C45.5279 40.9617 48.6167 36.0143 49.86 30.4795C49.014 31.148 48.016 31.56 46.968 31.7445C46.6667 32.7085 46.3005 33.651 45.872 34.5655H39.045C39.4327 32.835 39.7065 31.0809 39.8645 29.3145C39.2163 28.5782 38.7528 27.6981 38.5125 26.747C38.5195 25.3335 37.7555 24.444 36.7185 23.75H26.75V21.6935C25.8402 21.4062 24.9922 20.951 24.25 20.3515V23.75H13.9335C14.0395 20.7825 14.455 17.973 15.115 15.435H21.672C21.6102 14.5873 21.725 13.7361 22.009 12.935H15.875C16.369 11.523 16.94 10.22 17.579 9.06C19.445 5.67 21.7855 3.5505 24.25 2.939V9.697C24.9863 9.05688 25.8336 8.55698 26.75 8.222V2.841C29.201 3.258 31.5505 5.168 33.463 8.333C34.2015 8.0615 34.9035 7.57 35.5985 7.046C34.875 5.853 34.0725 4.773 33.1955 3.8475C34.6235 4.36678 35.9947 5.03038 37.288 5.828C37.622 5.615 37.958 5.4205 38.303 5.284C38.2796 4.73281 38.3287 4.18092 38.449 3.6425C34.5465 1.2681 30.0681 0.00833101 25.5 3.51125e-06C25.4912 -1.17042e-06 25.4823 -1.17042e-06 25.4735 3.51125e-06ZM18.49 3.616C17.328 4.792 16.285 6.226 15.3885 7.8535C14.5485 9.3785 13.826 11.087 13.2325 12.9345H6.505C9.2725 8.5815 13.4925 5.2495 18.49 3.616ZM46.842 12.039C45.9 12.281 44.9165 12.326 43.95 12.12C44.137 12.3875 44.32 12.6585 44.495 12.935H38.824C37.84 13.6625 36.8745 14.4795 35.843 14.8875C35.916 15.092 36.0155 15.271 36.131 15.4345H36.3475C36.3775 15.5505 36.4045 15.67 36.4335 15.787C37.1865 16.516 38.364 16.8355 39.338 17.3595C39.2178 16.7144 39.0811 16.0726 38.928 15.4345H45.872C46.2261 16.1935 46.5375 16.9717 46.8045 17.7655C47.931 18.0025 48.9565 18.554 49.8185 19.3145C49.2162 16.7477 48.2116 14.2924 46.842 12.0395V12.039ZM5.128 15.435H12.532C11.9095 18.016 11.528 20.815 11.4305 23.7505H3.036C3.19129 20.87 3.90164 18.0466 5.128 15.4355V15.435ZM3.036 26.25H11.417C11.4815 29.178 11.827 31.977 12.414 34.565H5.128C3.90164 31.9539 3.19129 29.1305 3.036 26.25ZM13.917 26.25H24.25V34.565H14.99C14.3675 32.015 13.987 29.2075 13.917 26.25ZM26.75 26.25H37.546C37.476 29.2075 37.095 32.015 36.4725 34.565H26.75V26.25ZM6.505 37.065H13.073C13.694 39.1075 14.473 40.985 15.3885 42.6475C16.1075 43.9525 16.9225 45.132 17.8155 46.156C13.112 44.451 9.1475 41.2215 6.505 37.0655V37.065ZM15.702 37.065H24.25V47.464C24.096 47.4555 23.944 47.44 23.791 47.429C21.496 46.679 19.329 44.619 17.579 41.4415C16.865 40.1445 16.233 38.673 15.702 37.0655V37.065ZM26.75 37.065H35.7605C35.2305 38.673 34.598 40.1445 33.884 41.4415C32.17 44.554 30.056 46.5955 27.8135 47.383C27.4615 47.4185 27.1065 47.4445 26.75 47.464V37.065ZM38.3875 37.065H44.495C41.9668 41.0431 38.2546 44.128 33.881 45.8855C34.683 44.9255 35.418 43.8385 36.074 42.6475C36.9895 40.985 37.768 39.1075 38.3875 37.0655V37.065Z" fill="white"/>
<path d="M45.404 0C44.0525 0 42.7563 0.536898 41.8006 1.49258C40.8449 2.44827 40.308 3.74446 40.308 5.096C40.3093 5.52492 40.3647 5.95197 40.473 6.367L32.374 11.2895C31.4261 10.3768 30.1619 9.86619 28.846 9.8645C28.1767 9.8645 27.514 9.99634 26.8956 10.2525C26.2773 10.5087 25.7155 10.8841 25.2422 11.3574C24.769 11.8308 24.3937 12.3926 24.1376 13.011C23.8816 13.6294 23.7499 14.2922 23.75 14.9615C23.75 16.313 24.2869 17.6092 25.2426 18.5649C26.1983 19.5206 27.4945 20.0575 28.846 20.0575C30.076 20.0553 31.2637 19.6083 32.19 18.799L40.413 23.798C40.3433 24.1361 40.3081 24.4803 40.308 24.8255C40.308 26.177 40.8449 27.4732 41.8006 28.4289C42.7563 29.3846 44.0525 29.9215 45.404 29.9215C46.0733 29.9215 46.736 29.7897 47.3543 29.5335C47.9726 29.2774 48.5344 28.902 49.0076 28.4287C49.4808 27.9555 49.8562 27.3936 50.1122 26.7753C50.3683 26.157 50.5001 25.4943 50.5 24.825C50.5001 24.1557 50.3683 23.493 50.1122 22.8747C49.8562 22.2564 49.4808 21.6945 49.0076 21.2213C48.5344 20.748 47.9726 20.3726 47.3543 20.1165C46.736 19.8603 46.0733 19.7285 45.404 19.7285C44.7197 19.7294 44.0426 19.8682 43.4131 20.1365C42.7836 20.4047 42.2146 20.7971 41.74 21.29L33.7275 16.421C33.8696 15.9473 33.9421 15.4555 33.9425 14.961C33.9408 14.5502 33.8894 14.141 33.7895 13.7425L41.9145 8.803C42.8584 9.69338 44.1064 10.1901 45.404 10.192C46.7555 10.192 48.0517 9.6551 49.0074 8.69942C49.9631 7.74373 50.5 6.44754 50.5 5.096C50.5 3.74446 49.9631 2.44827 49.0074 1.49258C48.0517 0.536898 46.7555 0 45.404 0V0Z" fill="white"/>
</g>
<defs>
<clipPath id="clip0_444_4130">
<rect width="50" height="50" fill="white" transform="translate(0.5)"/>
</clipPath>
</defs>
</svg>
