<svg width="50" height="50" viewBox="0 0 50 50" fill="none" xmlns="http://www.w3.org/2000/svg">
<path d="M40.625 6.24935C39.244 6.25046 37.9199 6.79954 36.9434 7.77606C35.9669 8.75257 35.4178 10.0767 35.4167 11.4577C35.4167 12.2014 35.5792 12.9077 35.8625 13.5514L31.7896 18.1327C30.406 17.1776 28.7646 16.6661 27.0833 16.666C25.5417 16.666 24.1167 17.116 22.8771 17.8452L18.1396 13.1098L18.0917 13.1577C18.5 12.3285 18.75 11.4056 18.75 10.416C18.75 9.17989 18.3834 7.97151 17.6967 6.94371C17.0099 5.9159 16.0338 5.11482 14.8918 4.64177C13.7497 4.16872 12.4931 4.04495 11.2807 4.28611C10.0683 4.52727 8.95466 5.12252 8.08059 5.9966C7.20651 6.87068 6.61125 7.98432 6.37009 9.1967C6.12894 10.4091 6.25271 11.6658 6.72576 12.8078C7.1988 13.9498 7.99988 14.9259 9.02769 15.6127C10.0555 16.2995 11.2639 16.666 12.5 16.666C13.4896 16.666 14.4104 16.416 15.2417 16.0077L15.1938 16.0556L19.9313 20.791C19.1659 22.0619 18.7578 23.5158 18.75 24.9994C18.75 27.0764 19.5417 28.9556 20.8021 30.4181L15.4333 35.7848C14.8316 35.5439 14.1898 35.4188 13.5417 35.416C10.6708 35.416 8.33334 37.7514 8.33334 40.6244C8.33334 43.4973 10.6708 45.8327 13.5417 45.8327C16.4125 45.8327 18.75 43.4973 18.75 40.6244C18.75 39.9556 18.6125 39.3202 18.3813 38.7306L24.2938 32.8181C25.1708 33.1306 26.1 33.3327 27.0833 33.3327C31.6792 33.3327 35.4167 29.5952 35.4167 24.9994C35.4167 23.6744 35.0771 22.4389 34.525 21.3244L38.9354 16.3598C39.4688 16.5431 40.0313 16.666 40.625 16.666C43.4979 16.666 45.8333 14.3306 45.8333 11.4577C45.8333 8.58477 43.4979 6.24935 40.625 6.24935ZM27.0833 29.166C24.7854 29.166 22.9167 27.2973 22.9167 24.9994C22.9167 22.7014 24.7854 20.8327 27.0833 20.8327C29.3813 20.8327 31.25 22.7014 31.25 24.9994C31.25 27.2973 29.3813 29.166 27.0833 29.166Z" fill="white"/>
</svg>
