<svg width="100" height="100" viewBox="0 0 100 100" fill="none" xmlns="http://www.w3.org/2000/svg">
<g clip-path="url(#clip0_444_4130)">
<path d="M49.947 7.0225e-06C36.6954 0.0140538 23.9913 5.2881 14.6259 14.6634C5.26056 24.0387 -7.44477e-06 36.7484 0 50C0 63.2608 5.26784 75.9785 14.6447 85.3553C24.0215 94.7322 36.7392 100 50 100C61.3455 99.9854 72.3487 96.1127 81.2023 89.0181C90.0558 81.9234 96.2333 72.0286 98.72 60.959C97.028 62.296 95.032 63.12 92.936 63.489C92.3334 65.4169 91.6011 67.3019 90.744 69.131H77.09C77.8654 65.67 78.4129 62.1618 78.729 58.629C77.4325 57.1565 76.5056 55.3962 76.025 53.494C76.039 50.667 74.511 48.888 72.437 47.5H52.5V43.387C50.6804 42.8124 48.9845 41.902 47.5 40.703V47.5H26.867C27.079 41.565 27.91 35.946 29.23 30.87H42.344C42.2204 29.1747 42.4499 27.4721 43.018 25.87H30.75C31.738 23.046 32.88 20.44 34.158 18.12C37.89 11.34 42.571 7.10101 47.5 5.87801V19.394C48.9727 18.1138 50.6673 17.114 52.5 16.444V5.68201C57.402 6.51601 62.101 10.336 65.926 16.666C67.403 16.123 68.807 15.14 70.197 14.092C68.75 11.706 67.145 9.54601 65.391 7.69501C68.2469 8.73355 70.9895 10.0608 73.576 11.656C74.244 11.23 74.916 10.841 75.606 10.568C75.5592 9.46561 75.6574 8.36185 75.898 7.28501C68.093 2.53621 59.1361 0.016662 50 7.0225e-06C49.9823 -2.34083e-06 49.9647 -2.34083e-06 49.947 7.0225e-06ZM35.98 7.23201C33.656 9.58401 31.57 12.452 29.777 15.707C28.097 18.757 26.652 22.174 25.465 25.869H12.01C17.545 17.163 25.985 10.499 35.98 7.23201ZM92.684 24.078C90.8 24.562 88.833 24.652 86.9 24.24C87.274 24.775 87.64 25.317 87.99 25.87H76.648C74.68 27.325 72.749 28.959 70.686 29.775C70.832 30.184 71.031 30.542 71.262 30.869H71.695C71.755 31.101 71.809 31.34 71.867 31.574C73.373 33.032 75.728 33.671 77.676 34.719C77.4357 33.4289 77.1622 32.1451 76.856 30.869H90.744C91.4523 32.3869 92.0749 33.9434 92.609 35.531C94.862 36.005 96.913 37.108 98.637 38.629C97.4323 33.4954 95.4231 28.5848 92.684 24.079V24.078ZM9.256 30.87H24.064C22.819 36.032 22.056 41.63 21.861 47.501H5.072C5.38259 41.7399 6.80329 36.0931 9.256 30.871V30.87ZM5.072 52.5H21.834C21.963 58.356 22.654 63.954 23.828 69.13H9.256C6.80329 63.9079 5.38259 58.2611 5.072 52.5ZM26.834 52.5H47.5V69.13H28.98C27.735 64.03 26.974 58.415 26.834 52.5ZM52.5 52.5H74.092C73.952 58.415 73.19 64.03 71.945 69.13H52.5V52.5ZM12.01 74.13H25.146C26.388 78.215 27.946 81.97 29.777 85.295C31.215 87.905 32.845 90.264 34.631 92.312C25.224 88.902 17.295 82.443 12.01 74.131V74.13ZM30.404 74.13H47.5V94.928C47.192 94.911 46.888 94.88 46.582 94.858C41.992 93.358 37.658 89.238 34.158 82.883C32.73 80.289 31.466 77.346 30.404 74.131V74.13ZM52.5 74.13H70.521C69.461 77.346 68.196 80.289 66.768 82.883C63.34 89.108 59.112 93.191 54.627 94.766C53.923 94.837 53.213 94.889 52.5 94.928V74.13ZM75.775 74.13H87.99C82.9335 82.0861 75.5091 88.256 66.762 91.771C68.366 89.851 69.836 87.677 71.148 85.295C72.979 81.97 74.536 78.215 75.775 74.131V74.13Z" fill="#1960EA"/>
<path d="M89.808 0C87.1049 0 84.5125 1.0738 82.6012 2.98517C80.6898 4.89654 79.616 7.48891 79.616 10.192C79.6186 11.0498 79.7295 11.9039 79.946 12.734L63.748 22.579C61.8522 20.7536 59.3237 19.7324 56.692 19.729C55.3534 19.729 54.0279 19.9927 52.7912 20.505C51.5545 21.0173 50.4309 21.7682 49.4845 22.7149C48.538 23.6615 47.7873 24.7853 47.2752 26.0221C46.7632 27.2589 46.4997 28.5844 46.5 29.923C46.5 32.6261 47.5738 35.2185 49.4852 37.1298C51.3965 39.0412 53.9889 40.115 56.692 40.115C59.152 40.1106 61.5275 39.2166 63.38 37.598L79.826 47.596C79.6866 48.2721 79.6162 48.9607 79.616 49.651C79.616 52.3541 80.6898 54.9465 82.6012 56.8578C84.5125 58.7692 87.1049 59.843 89.808 59.843C91.1465 59.843 92.4719 59.5793 93.7085 59.0671C94.9452 58.5548 96.0688 57.804 97.0152 56.8575C97.9616 55.911 98.7123 54.7873 99.2245 53.5506C99.7366 52.3139 100 50.9885 100 49.65C100 48.3115 99.7366 46.986 99.2245 45.7494C98.7123 44.5127 97.9616 43.389 97.0152 42.4425C96.0688 41.496 94.9452 40.7452 93.7085 40.2329C92.4719 39.7207 91.1465 39.457 89.808 39.457C88.4394 39.4589 87.0853 39.7364 85.8263 40.2729C84.5673 40.8095 83.4292 41.5941 82.48 42.58L66.455 32.842C66.7393 31.8947 66.8841 30.911 66.885 29.922C66.8816 29.1003 66.7789 28.282 66.579 27.485L82.829 17.606C84.7168 19.3868 87.2128 20.3803 89.808 20.384C92.5111 20.384 95.1035 19.3102 97.0148 17.3988C98.9262 15.4875 100 12.8951 100 10.192C100 7.48891 98.9262 4.89654 97.0148 2.98517C95.1035 1.0738 92.5111 0 89.808 0V0Z" fill="#1960EA"/>
</g>
<defs>
<clipPath id="clip0_444_4130">
<rect width="100" height="100" fill="white"/>
</clipPath>
</defs>
</svg>
