<svg width="58" height="57" viewBox="0 0 58 57" fill="none" xmlns="http://www.w3.org/2000/svg">
<path d="M50.6002 13.6H5.60019V11.8L45.2002 8.63195V11.8H50.6002V6.39995C50.6002 2.43995 47.3926 -0.339249 43.4758 0.218751L7.3282 5.38115C3.4078 5.94275 0.200195 9.63995 0.200195 13.6V49.6C0.200195 51.5095 0.958764 53.3409 2.30903 54.6911C3.65929 56.0414 5.49064 56.8 7.4002 56.8H50.6002C52.5098 56.8 54.3411 56.0414 55.6914 54.6911C57.0416 53.3409 57.8002 51.5095 57.8002 49.6V20.8C57.8002 18.8904 57.0416 17.059 55.6914 15.7088C54.3411 14.3585 52.5098 13.6 50.6002 13.6ZM45.2002 38.8216C44.4908 38.8213 43.7884 38.6814 43.1332 38.4097C42.4779 38.138 41.8825 37.7399 41.3811 37.2381C40.8796 36.7364 40.4819 36.1407 40.2107 35.4853C39.9394 34.8298 39.8 34.1273 39.8002 33.418C39.8004 32.7086 39.9404 32.0062 40.2121 31.3509C40.4838 30.6956 40.8818 30.1003 41.3836 29.5988C41.8854 29.0974 42.481 28.6997 43.1365 28.4284C43.7919 28.1572 44.4944 28.0177 45.2038 28.018C46.6364 28.0184 48.0102 28.588 49.0229 29.6014C50.0356 30.6147 50.6043 31.9889 50.6038 33.4216C50.6033 34.8542 50.0337 36.228 49.0204 37.2407C48.007 38.2534 46.6328 38.822 45.2002 38.8216Z" fill="#1960EA"/>
</svg>
