<svg width="1761" height="532" viewBox="0 0 1761 532" fill="none" xmlns="http://www.w3.org/2000/svg">
<path d="M138.333 169C174.232 169 203.333 139.899 203.333 104V65C203.333 29.1015 232.435 0 268.333 0H1696C1731.9 0 1761 29.1015 1761 65V467C1761 502.899 1731.9 532 1696 532H1322.62C1298.32 532 1278.62 512.301 1278.62 488V488C1278.62 463.699 1258.92 444 1234.62 444H521.497C497.197 444 477.497 463.699 477.497 488V488C477.497 512.301 457.798 532 433.497 532H65C29.1015 532 0 502.899 0 467V234C0 198.101 29.1015 169 65 169H138.333Z" fill="#141515"/>
</svg>
