<svg width="2652" height="578" viewBox="0 0 2652 578" fill="none" xmlns="http://www.w3.org/2000/svg">
<g opacity="0.3">
<path d="M1014.67 577.971C1005.2 577.971 995.983 577.499 987.124 576.557C968.543 574.58 951.377 570.521 936.102 564.492C919.684 558.014 905.284 549.187 893.299 538.257C869.212 516.289 857.161 489.979 845.506 464.535C843.216 459.539 840.849 454.373 838.445 449.361C822.045 415.197 801.255 385.271 774.892 357.873C722.303 303.219 648.344 256.576 561.009 222.987C460.006 184.143 351.412 164.793 255.228 168.503C198.696 170.685 124.001 191.43 90.6179 226.86C70.8066 247.887 69.2091 271.221 86.0013 294.336L85.6678 294.434C76.8632 282.311 73.027 270.158 74.2691 258.312C75.4086 247.445 80.802 236.822 90.3028 226.739C105.413 210.701 130.332 196.487 162.367 185.632C191.968 175.602 224.937 169.436 255.206 168.268C305.542 166.328 359.077 170.634 414.323 181.068C464.403 190.528 513.82 204.563 561.199 222.785C648.586 256.393 722.589 303.061 775.208 357.747C801.585 385.164 822.386 415.106 838.797 449.289C841.204 454.301 843.571 459.469 845.857 464.466C857.502 489.891 869.545 516.182 893.6 538.118C916.862 559.335 948.351 572.189 987.186 576.32C1040.97 582.042 1106.27 570.075 1161.88 544.305C1242.01 507.171 1297.62 453.119 1351.41 400.85C1360.84 391.688 1370.58 382.214 1380.23 373.066C1405.29 349.311 1439.22 318.529 1479.55 291.106C1520.77 263.075 1562.65 242.481 1607.6 228.144C1635.12 219.368 1664.28 213.455 1694.27 210.571C1721.97 207.905 1751.3 207.74 1781.43 210.075C1833.11 214.083 1888.78 225.404 1951.64 244.681C2075.42 282.644 2199.05 328.721 2319.12 381.637C2433.25 431.932 2545.18 488.844 2651.8 550.787L2651.55 550.96C2430.53 422.554 2194.99 319.578 1951.48 244.891C1813.91 202.695 1704.69 197.438 1607.77 228.351C1509.17 259.798 1440.29 316.549 1380.54 373.194C1370.89 382.34 1361.14 391.814 1351.72 400.976C1297.92 453.264 1242.29 507.331 1162.1 544.491C1136.19 556.5 1107.04 565.867 1077.8 571.577C1062.36 574.594 1047 576.566 1032.17 577.441C1026.25 577.797 1020.41 577.971 1014.67 577.971Z" fill="#1960EA"/>
<path d="M1023.93 564.943C999.781 564.943 977.408 562.024 957.414 556.263C935.118 549.838 915.878 539.883 900.226 526.676C898.841 525.506 897.466 524.297 896.14 523.078C872.309 501.204 859.723 475.237 847.555 450.124C845.093 445.048 842.55 439.799 839.971 434.705C824.607 404.374 806.108 377.641 783.409 352.984C780.613 349.948 777.719 346.906 774.799 343.943C721.436 289.759 646.877 243.707 559.182 210.764C457.45 172.583 348.548 154.033 252.536 158.534C196.414 161.192 122.064 182.278 88.5382 217.435C68.463 238.487 66.1914 261.868 81.9613 285.051L81.6242 285.144C73.3582 272.993 69.9617 260.817 71.5335 248.956C72.9771 238.064 78.5904 227.418 88.2231 217.314C103.487 201.304 128.333 187.074 160.067 176.162C189.398 166.077 222.224 159.734 252.503 158.301C302.777 155.945 356.371 159.839 411.793 169.873C461.994 178.963 511.645 192.654 559.365 210.564C647.111 243.525 721.711 289.605 775.106 343.819C778.027 346.785 780.925 349.83 783.721 352.867C806.434 377.541 824.945 404.288 840.315 434.635C842.898 439.729 845.441 444.979 847.903 450.056C860.068 475.153 872.643 501.102 896.441 522.945C897.763 524.16 899.137 525.369 900.519 526.537C932.865 553.837 977.309 564.943 1024.05 564.943C1024.3 564.943 1024.56 564.943 1024.81 564.943C1024.52 564.941 1024.23 564.943 1023.93 564.943ZM1033.9 564.781C1077.36 563.364 1122.19 552.765 1160.66 536.997C1243.63 502.844 1303.26 450.096 1360.93 399.085C1363.31 396.982 1365.68 394.884 1368.06 392.786C1373.27 388.18 1379.45 382.728 1385.76 377.232C1414.06 352.584 1448.32 323.904 1487.77 298.09C1529.74 270.623 1571.68 250.24 1615.97 235.775C1643.18 226.897 1671.94 220.642 1701.44 217.186C1728.78 213.983 1757.67 213.078 1787.3 214.495C1838.49 216.944 1893.53 226.229 1955.57 242.883C2016.06 259.095 2065.78 274.356 2112.05 290.91C2177.59 314.384 2240.02 341.43 2292.45 364.79C2414.34 419.256 2533.93 481.101 2647.91 548.61L2647.66 548.78C2533.69 481.28 2414.11 419.439 2292.24 364.981C2239.82 341.624 2177.4 314.582 2111.87 291.115C2065.62 274.565 2015.91 259.309 1955.43 243.102C1820.29 206.821 1712.47 204.558 1616.14 235.984C1516.15 268.637 1444.95 326.086 1386.06 377.372C1379.74 382.868 1373.57 388.318 1368.35 392.925C1365.98 395.021 1363.6 397.121 1361.23 399.224C1303.54 450.252 1243.89 503.019 1160.85 537.197C1140.27 545.635 1118.36 552.339 1095.74 557.119C1074.68 561.564 1053.92 564.134 1033.9 564.781Z" fill="#1960EA"/>
<path d="M1034.15 552.214C1031.24 552.214 1028.35 552.174 1025.49 552.093C1001.36 551.416 979.024 547.901 959.113 541.642C937.338 534.797 918.472 524.658 903.043 511.504C901.672 510.332 900.306 509.12 898.987 507.901C875.423 486.135 862.314 460.514 849.64 435.74C846.998 430.577 844.265 425.236 841.495 420.054C825.373 389.825 806.386 363.307 783.442 338.982C780.602 335.974 777.664 332.957 774.699 330.017C720.563 276.306 645.403 230.845 557.35 198.548C454.893 161.03 345.683 143.278 249.839 148.57C195.876 151.596 121.741 171.479 86.4935 207.978C66.1288 229.065 63.1646 252.509 77.9196 275.773L77.5789 275.859C69.8478 263.671 66.8983 251.467 68.8035 239.586C70.5549 228.658 76.4027 217.984 86.182 207.857C101.608 191.884 126.373 177.649 157.803 166.687C186.858 156.553 219.534 150.038 249.806 148.34C300.022 145.569 353.674 149.049 409.268 158.683C459.594 167.406 509.476 180.75 557.533 198.348C645.638 230.665 720.838 276.152 775.007 329.894C777.971 332.837 780.914 335.853 783.753 338.865C806.708 363.205 825.706 389.739 841.835 419.984C844.605 425.169 847.339 430.509 849.98 435.673C862.651 460.433 875.75 486.035 899.284 507.776C900.603 508.995 901.962 510.204 903.332 511.372C966.027 564.818 1077.14 559.08 1159.43 529.687C1245.87 498.544 1310.1 446.784 1372.22 396.729L1372.86 396.215C1378.87 391.363 1385.1 386.348 1391.29 381.396C1456.63 329.154 1528.45 275.466 1624.33 243.403C1651.25 234.42 1679.62 227.823 1708.63 223.797C1735.62 220.052 1764.07 218.408 1793.19 218.91C1843.97 219.785 1898.37 227.037 1959.51 241.081C2023.76 255.788 2072.12 269.307 2116.29 284.917C2179.23 307.202 2240.19 335.363 2293.98 360.209C2413.74 415.825 2531.51 478.478 2644.03 546.422L2643.77 546.59C2531.27 478.652 2413.51 416.007 2293.76 360.395C2239.98 335.553 2179.03 307.397 2116.11 285.119C2071.95 269.514 2023.62 256 1959.39 241.298C1826.86 210.855 1720.45 211.588 1624.5 243.605C1528.68 275.648 1456.89 329.313 1391.57 381.536C1385.38 386.488 1379.16 391.505 1373.14 396.354L1372.51 396.868C1341.55 421.812 1309.54 447.605 1274.97 470.644C1236.13 496.534 1198.39 515.912 1159.61 529.884C1119.03 544.375 1074.83 552.214 1034.15 552.214Z" fill="#1960EA"/>
<path d="M2639.89 544.396C2528.85 476.022 2412.91 412.571 2295.29 355.808C2290.31 353.421 2285.32 351.023 2280.31 348.618C2229.37 324.144 2176.69 298.838 2120.36 279.122C2065.71 260.049 2010.32 248.387 1963.35 239.495C1833.69 214.797 1728.69 218.526 1632.88 251.225C1534.54 284.891 1458.33 340.787 1397.1 385.701C1393.43 388.397 1389.76 391.098 1386.09 393.8C1383.37 395.796 1380.66 397.792 1377.94 399.785C1343.08 425.385 1311.37 448.273 1276.33 469.158C1236.3 493.015 1197.72 510.488 1158.37 522.576C1121.5 533.906 1082.1 539.9 1045.46 539.902C1038.79 539.902 1032.21 539.705 1025.75 539.302C1002.15 537.834 980.306 533.711 960.82 527.044C939.558 519.771 921.066 509.439 905.849 496.334C904.49 495.16 903.134 493.946 901.822 492.724C878.537 471.072 864.918 445.812 851.75 421.384C848.914 416.123 845.979 410.68 843.011 405.398C826.12 375.265 806.642 348.958 783.471 324.972C780.587 321.988 777.601 318.999 774.596 316.085C719.684 262.845 643.926 217.975 555.517 186.323C452.335 149.468 342.821 132.518 247.146 138.594C181.739 142.829 114.856 167.452 84.4962 198.469C63.8128 219.601 60.1451 243.119 73.8815 266.481L73.5371 266.562C66.3446 254.33 63.8384 242.088 66.0881 230.177C68.1583 219.21 74.2479 208.501 84.1847 198.346C99.7715 182.42 124.456 168.185 155.571 157.183C184.348 147.007 216.855 140.322 247.109 138.363C297.266 135.177 350.973 138.245 406.74 147.479C457.186 155.834 507.306 168.834 555.7 186.118C644.165 217.789 719.962 262.685 774.908 315.957C777.916 318.874 780.902 321.865 783.786 324.849C806.972 348.848 826.457 375.169 843.359 405.316C846.327 410.601 849.262 416.041 852.098 421.305C865.259 445.719 878.871 470.963 902.126 492.589C903.438 493.808 904.79 495.02 906.146 496.192C971.596 552.56 1082.84 545.52 1158.21 522.364C1248.14 494.736 1316.95 444.211 1377.67 399.632C1380.38 397.636 1383.1 395.64 1385.81 393.647C1389.48 390.944 1393.15 388.244 1396.83 385.548C1431.78 359.911 1466.29 334.997 1504.24 312.04C1547.87 285.638 1589.9 265.678 1632.71 251.02C1659.35 241.928 1687.31 234.989 1715.82 230.4C1742.47 226.109 1770.48 223.727 1799.09 223.318C1849.54 222.596 1903.31 227.816 1963.46 239.271C2010.45 248.168 2065.86 259.835 2120.54 278.92C2176.89 298.642 2229.58 323.956 2280.54 348.434C2285.54 350.839 2290.54 353.238 2295.52 355.624C2413.14 412.392 2529.1 475.849 2640.15 544.231L2639.89 544.396Z" fill="#1960EA"/>
<path d="M2636.01 542.205C2524.33 472.086 2410.22 407.828 2296.82 351.221C2290.04 347.834 2283.1 344.343 2276.38 340.968C2228.31 316.796 2178.6 291.801 2124.61 273.126C2070.69 254.543 2014.84 244.784 1967.31 237.689C1840.81 218.623 1737.2 225.345 1641.26 258.844C1549.75 290.912 1478.05 339.135 1408.72 385.768L1401.1 390.888C1395.09 394.933 1388.87 399.113 1382.74 403.213C1313.34 449.579 1243.86 493.036 1157.13 515.263C1136.09 520.657 1114.48 524.395 1092.89 526.379C1069.72 528.507 1047.21 528.537 1025.98 526.467C1002.93 524.218 981.578 519.494 962.525 512.425C941.79 504.733 923.668 494.213 908.667 481.159C907.315 479.978 905.971 478.761 904.67 477.542C881.671 456.018 867.561 431.13 853.916 407.06C850.871 401.69 847.72 396.135 844.54 390.741C826.864 360.701 806.903 334.606 783.512 310.965C780.588 308.011 777.558 305.045 774.505 302.154C718.82 249.387 642.465 205.107 553.693 174.099C449.781 137.912 339.96 121.76 244.45 128.624C179.64 133.381 113.061 158.176 82.5474 188.923C61.5195 210.108 57.1264 233.717 69.8406 257.197L69.4925 257.274C62.8386 244.988 60.7831 232.7 63.3809 220.754C65.7772 209.74 72.1196 198.99 82.2323 188.802C97.9876 172.929 122.584 158.708 153.369 147.674C181.861 137.46 214.192 130.615 244.406 128.396C294.504 124.795 348.266 127.449 404.208 136.284C454.779 144.271 505.13 156.924 553.865 173.897C642.688 204.921 719.087 249.229 774.806 302.026C777.858 304.92 780.892 307.887 783.816 310.841C807.221 334.494 827.194 360.604 844.877 390.66C848.057 396.054 851.208 401.611 854.253 406.981C867.89 431.037 881.993 455.913 904.967 477.412C906.264 478.626 907.608 479.84 908.957 481.022C972.832 536.606 1078.96 535.045 1156.99 515.049C1243.65 492.84 1313.1 449.4 1382.47 403.055C1388.6 398.954 1394.82 394.775 1400.83 390.73L1408.45 385.61C1442.48 362.72 1477.67 339.049 1515.89 317.029C1559.18 292.089 1600.13 272.991 1641.08 258.639C1667.44 249.433 1695.01 242.153 1723 237.003C1749.32 232.16 1776.9 229.039 1804.97 227.725C1855.21 225.373 1908.33 228.56 1967.39 237.461C2014.94 244.56 2070.82 254.322 2124.77 272.921C2178.8 291.603 2228.52 316.605 2276.61 340.784C2283.32 344.159 2290.26 347.648 2297.05 351.037C2410.45 407.649 2524.58 471.911 2636.26 542.037L2636.01 542.205Z" fill="#1960EA"/>
<path d="M2632.12 540.014C2521.41 469.115 2409.11 404.053 2298.35 346.636C2290.03 342.322 2281.49 337.835 2273.24 333.497C2227.76 309.586 2180.73 284.861 2128.85 267.134C2075.19 248.871 2019.08 241.09 1971.27 235.889C1848.28 222.303 1746.07 232.021 1649.63 266.469C1565.47 296.658 1496.37 339.442 1429.54 380.817C1422.51 385.171 1415.24 389.672 1408.15 394.033C1399.83 399.155 1393.47 403.046 1387.54 406.647C1355.77 425.92 1317.94 448.112 1278.25 466.571C1236.18 486.13 1196.16 499.667 1155.89 507.957C1134.72 512.316 1113.2 515.065 1091.93 516.126C1069.09 517.266 1046.98 516.428 1026.21 513.635C1003.71 510.609 982.856 505.285 964.225 497.811C944.021 489.707 926.276 478.999 911.481 465.987C910.147 464.808 908.81 463.589 907.513 462.365C884.818 440.985 870.235 416.481 856.129 392.784C852.857 387.287 849.475 381.605 846.063 376.086C827.593 346.129 807.144 320.248 783.544 296.958C780.576 294.03 777.502 291.092 774.406 288.224C717.947 235.929 640.992 192.24 551.861 161.877C447.227 126.354 337.098 111.005 241.756 118.653C187.507 123.1 116.652 143.587 80.6491 179.328C59.2439 200.579 54.1069 224.294 65.7988 247.91L65.4507 247.98C59.3354 235.631 57.7379 223.289 60.6985 211.297C63.4318 200.227 70.038 189.43 80.3413 179.203C96.2651 163.395 120.77 149.198 151.214 138.14C179.42 127.896 211.557 120.895 241.712 118.423C291.752 114.408 345.573 116.648 401.683 125.082C452.375 132.702 502.961 145.011 552.033 161.672C641.215 192.052 718.215 235.766 774.707 288.091C777.803 290.959 780.88 293.902 783.848 296.832C807.459 320.134 827.919 346.029 846.401 375.999C849.815 381.521 853.197 387.204 856.469 392.7C870.565 416.385 885.144 440.876 907.813 462.233C909.11 463.454 910.444 464.671 911.778 465.847C964.917 512.586 1056.13 528.244 1155.78 507.731C1246.01 489.156 1319.62 447.523 1387.29 406.474C1393.22 402.874 1399.57 398.982 1407.89 393.861C1414.98 389.499 1422.25 384.999 1429.28 380.644C1462.18 360.276 1496.2 339.214 1532.49 319.492C1573.51 297.188 1611.78 279.776 1649.46 266.262C1675.57 256.935 1702.73 249.313 1730.19 243.609C1756.2 238.206 1783.35 234.347 1810.87 232.135C1860.98 228.111 1913.47 229.263 1971.34 235.654C2019.17 240.86 2075.31 248.643 2129.02 266.923C2180.93 284.661 2227.98 309.393 2273.47 333.311C2281.72 337.649 2290.26 342.135 2298.58 346.45C2409.35 403.874 2521.66 468.941 2632.38 539.844L2632.12 540.014Z" fill="#1960EA"/>
<path d="M2628.24 537.823C2518.48 466.141 2408.01 400.271 2299.87 342.05C2290.67 337.098 2281.23 331.899 2272.09 326.873C2228.56 302.929 2183.56 278.171 2133.09 261.138C2079.39 243.093 2023.16 237.336 1975.23 234.085C1857.81 225.904 1754.04 238.99 1658 274.089C1581.53 302.164 1515.98 339.721 1452.58 376.044C1439.78 383.38 1426.54 390.967 1413.67 398.199C1405.79 402.625 1398.82 406.512 1392.33 410.08C1362.17 426.655 1322.06 447.907 1279.19 465.276C1236.11 482.725 1195.37 494.297 1154.64 500.649C1110.21 507.578 1065.87 507.629 1026.42 500.8C1004.48 497.002 984.126 491.08 965.912 483.197C946.248 474.686 928.88 463.792 914.286 450.82C912.964 449.638 911.637 448.417 910.348 447.193C887.975 425.976 872.938 401.874 858.399 378.568C854.882 372.929 851.247 367.101 847.579 361.437C828.299 331.56 807.363 305.888 783.572 282.958C780.561 280.055 777.442 277.143 774.302 274.301C717.07 222.478 639.518 179.378 550.028 149.663C444.672 114.808 334.235 100.259 239.058 108.691C174.557 114.529 110.154 139.045 78.805 169.692C56.9894 191.019 51.094 214.858 61.7563 238.632L61.4046 238.695C55.8316 226.272 54.6957 213.865 58.0263 201.821C61.1041 190.689 67.9925 179.836 78.4973 169.564C94.5896 153.831 118.999 139.666 149.088 128.599C176.997 118.334 208.933 111.18 239.007 108.458C288.988 104.03 342.867 105.858 399.15 113.89C449.967 121.142 500.787 133.107 550.196 149.454C639.738 179.187 717.334 222.31 774.603 274.166C777.743 277.008 780.861 279.923 783.876 282.828C807.678 305.771 828.625 331.455 847.916 361.346C851.584 367.01 855.219 372.841 858.736 378.479C873.268 401.774 888.297 425.864 910.648 447.061C911.938 448.284 913.26 449.501 914.583 450.682C966.81 497.118 1056.52 515.712 1154.55 500.423C1243.92 486.484 1321.54 448.68 1392.09 409.906C1398.57 406.337 1405.55 402.453 1413.42 398.027C1426.29 390.795 1439.53 383.21 1452.33 375.874C1515.74 339.545 1581.31 301.978 1657.82 273.891C1683.7 264.432 1710.46 256.47 1737.37 250.222C1763.1 244.249 1789.81 239.651 1816.75 236.555C1866.84 230.798 1918.7 229.916 1975.27 233.857C2023.22 237.111 2079.5 242.87 2133.26 260.936C2183.76 277.981 2228.78 302.748 2272.33 326.701C2281.46 331.727 2290.91 336.923 2300.11 341.875C2408.25 400.102 2518.74 465.976 2628.5 537.662L2628.24 537.823Z" fill="#1960EA"/>
<path d="M2624.35 535.632C2515.58 463.159 2406.92 396.487 2301.4 337.465C2291.71 332.041 2281.73 326.298 2272.09 320.744C2230.15 296.598 2186.78 271.628 2137.33 255.144C2083.41 237.252 2027.13 233.547 1979.19 232.282C1866.21 229.081 1763.88 245.249 1666.38 281.711C1597.99 307.404 1537.04 339.921 1478.08 371.366C1457.81 382.18 1438.66 392.393 1419.19 402.365C1411.27 406.423 1404.05 410.071 1397.13 413.511C1352.45 435.689 1315.27 451.724 1280.13 463.973C1236.05 479.341 1194.6 488.947 1153.4 493.338C1137.42 495.041 1121.49 495.89 1105.86 495.89C1078.14 495.89 1051.33 493.229 1026.64 487.958C981.958 478.42 945.105 460.819 917.101 435.645C915.782 434.452 914.467 433.23 913.192 432.012C891.16 410.978 875.701 387.304 860.752 364.407C856.963 358.606 853.05 352.61 849.104 346.778C829 316.971 807.572 291.513 783.61 268.949C780.554 266.071 777.392 263.185 774.208 260.368C716.203 209.017 638.049 166.508 548.2 137.438C442.123 103.253 331.381 89.5015 236.37 98.717C171.601 105.13 109.056 129.18 77.0358 159.99C54.7769 181.406 48.101 205.387 57.7228 229.342L57.3674 229.4C52.344 216.891 51.6771 204.41 55.3888 192.303C58.8256 181.096 66.0035 170.183 76.7317 159.862C92.9927 144.216 117.296 130.097 147.019 119.03C174.627 108.749 206.339 101.455 236.315 98.4867C286.237 93.644 340.175 95.0582 396.627 102.69C447.567 109.577 498.618 121.198 548.368 137.228C638.269 166.317 716.466 208.85 774.508 260.231C777.692 263.05 780.854 265.936 783.914 268.816C807.891 291.392 829.329 316.864 849.441 346.683C853.387 352.514 857.304 358.513 861.089 364.314C876.031 387.199 891.482 410.864 913.496 431.879C914.771 433.095 916.082 434.317 917.401 435.507C969.694 482.52 1055.69 503.515 1153.34 493.106C1246.29 483.197 1328.62 447.217 1396.9 413.325C1403.82 409.885 1411.04 406.24 1418.96 402.181C1438.43 392.209 1457.58 381.998 1477.85 371.185C1536.81 339.733 1597.78 307.211 1666.19 281.509C1691.88 271.903 1718.24 263.599 1744.56 256.826C1770.05 250.266 1796.32 244.928 1822.64 240.962C1872.84 233.401 1924.06 230.484 1979.21 232.047C2027.19 233.312 2083.51 237.022 2137.5 254.935C2186.99 271.43 2230.37 296.411 2272.33 320.567C2281.98 326.121 2291.95 331.864 2301.64 337.286C2407.16 396.312 2515.83 462.991 2624.61 535.469L2624.35 535.632Z" fill="#1960EA"/>
<path d="M2620.47 533.441C2511.15 459.14 2407.28 393.535 2302.93 332.878C2292.97 327.091 2283.17 321.181 2272.79 314.924C2232.22 290.464 2190.26 265.174 2141.58 249.15C2086.98 231.266 2028.23 229.777 1983.15 230.479C1875.31 231.94 1774.43 251.192 1674.75 289.336C1614.94 312.333 1559.72 339.949 1506.32 366.659C1478.25 380.696 1451.74 393.952 1424.71 406.533C1416.68 410.271 1409.23 413.676 1401.92 416.944C1356.63 437.171 1318.23 451.699 1281.07 462.668C1235.97 475.982 1193.8 483.623 1152.15 486.028C1130.75 487.263 1109.5 487.03 1088.99 485.337C1067.27 483.544 1046.36 480.104 1026.85 475.114C983.603 464.054 947.626 445.672 919.915 420.475C918.607 419.279 917.303 418.056 916.035 416.837C894.373 396.019 878.526 372.797 863.2 350.339C859.111 344.348 854.883 338.151 850.629 332.127C829.681 302.385 807.771 277.139 783.643 254.946C780.54 252.095 777.333 249.234 774.113 246.443C715.335 195.564 636.584 153.645 546.375 125.219C463.114 99.0916 377.252 85.459 298.515 85.459C276.256 85.459 254.584 86.5476 233.68 88.7503C169.692 95.6259 107.539 119.763 75.3324 150.242C52.6008 171.758 45.1152 195.901 53.6853 220.061L53.3263 220.112C48.8525 207.506 48.6656 194.938 52.7693 182.762C56.5726 171.474 64.0618 160.488 75.0246 150.112C91.4541 134.563 115.644 120.502 144.985 109.447C172.682 99.0102 203.331 91.7741 233.614 88.5224C283.478 83.2656 337.475 84.2682 394.099 91.4973C445.161 98.0147 496.45 109.289 546.537 125.008C636.796 153.45 715.595 195.392 774.41 246.301C777.634 249.092 780.844 251.955 783.947 254.809C808.086 277.013 830.008 302.271 850.966 332.027C855.22 338.051 859.452 344.248 863.541 350.242C878.86 372.69 894.699 395.903 916.343 416.704C917.611 417.921 918.915 419.144 920.219 420.338C972.04 467.455 1056.56 491.31 1152.12 485.793C1248.82 480.208 1336.3 445.961 1401.72 416.749C1409.02 413.481 1416.47 410.075 1424.5 406.34C1451.53 393.763 1478.03 380.505 1506.1 366.47C1559.51 339.759 1614.73 312.135 1674.56 289.131C1725.89 269.493 1776.25 255.181 1828.53 245.375C1878.96 235.917 1929.54 230.968 1983.15 230.242C2013.74 229.765 2038.7 230.593 2061.69 232.845C2091.38 235.752 2117.57 241.016 2141.75 248.938C2190.48 264.976 2232.46 290.28 2273.05 314.752C2283.43 321.009 2293.23 326.917 2303.18 332.704C2407.54 393.363 2511.42 458.972 2620.74 533.278L2620.47 533.441Z" fill="#1960EA"/>
<path d="M2616.58 531.25C2508.27 456.134 2406.17 389.748 2304.45 328.291C2294.39 322.211 2284.47 315.947 2273.97 309.316C2234.61 284.47 2193.91 258.775 2145.82 243.153C2090.77 225.353 2032.09 226.064 1987.11 228.672C1885.35 234.368 1785.91 256.705 1683.12 296.953C1632.48 316.88 1584.26 339.684 1537.63 361.739C1500.76 379.172 1465.95 395.64 1430.23 410.692C1422.16 414.097 1414.24 417.353 1406.71 420.368C1361.34 438.52 1320.54 451.924 1282.01 461.349C1235.87 472.635 1192.98 478.315 1150.91 478.71C1129.5 478.91 1108.33 477.682 1088.01 475.056C1066.7 472.302 1046.2 467.997 1027.06 462.256C985.3 449.726 950.195 430.563 922.726 405.295C921.436 404.102 920.139 402.876 918.875 401.651C897.62 381.087 881.429 358.355 865.769 336.372C861.339 330.152 856.755 323.718 852.15 317.464C830.345 287.777 807.947 262.745 783.676 240.932C780.529 238.106 777.279 235.271 774.014 232.505C714.463 182.099 635.111 140.771 544.544 112.989C437.027 80.1463 325.666 67.9954 230.984 78.774C167.824 86.0892 106.085 110.289 73.6987 140.422C50.4541 162.051 42.1368 186.376 49.6407 210.771L49.2816 210.815C45.3685 198.099 45.6689 185.434 50.1793 173.174C54.3673 161.793 62.1753 150.728 73.3946 140.289C89.9853 124.852 114.054 110.861 143 99.8288C170.378 89.3945 200.778 82.035 230.918 78.5437C280.727 72.8753 334.779 73.4615 391.571 80.2906C442.757 86.4451 494.277 97.3749 544.701 112.778C635.324 140.573 714.719 181.927 774.304 232.363C777.572 235.129 780.826 237.967 783.973 240.795C808.258 262.62 830.664 287.663 852.479 317.362C857.089 323.616 861.669 330.05 866.102 336.272C881.755 358.245 897.939 380.968 919.179 401.518C920.443 402.741 921.74 403.967 923.026 405.158C975.393 453.325 1056.32 479.366 1150.9 478.473C1227.64 477.752 1308.87 459.223 1406.52 420.165C1414.04 417.151 1421.95 413.897 1430.02 410.492C1465.73 395.442 1500.55 378.979 1537.4 361.546C1584.04 339.489 1632.27 316.68 1682.93 296.749C1734.75 276.455 1784.3 261.094 1834.42 249.783C1885.18 238.325 1935.12 231.34 1987.08 228.432C2032.1 225.82 2090.85 225.111 2145.99 242.94C2194.13 258.579 2234.85 284.286 2274.23 309.144C2284.73 315.775 2294.65 322.037 2304.71 328.115C2406.43 389.574 2508.53 455.965 2616.85 531.084L2616.58 531.25Z" fill="#1960EA"/>
<path d="M2612.7 529.058C2505.39 453.127 2405.07 385.955 2305.98 323.707C2295.93 317.387 2285.99 310.821 2275.48 303.868C2237.24 278.578 2197.69 252.427 2150.07 237.159C2094.5 219.424 2035.91 222.343 1991.08 226.867C1895.32 236.345 1800.13 261.038 1691.5 304.575C1650.75 320.978 1610.93 338.972 1572.43 356.373C1525.66 377.507 1481.49 397.471 1435.75 414.857C1427.51 417.993 1419.35 421.003 1411.51 423.798C1365.32 440.252 1323.26 452.105 1282.95 460.032C1260.37 464.473 1238.08 467.69 1216.69 469.595C1193.88 471.625 1171.33 472.232 1149.66 471.4C1105.7 469.709 1064.52 462.307 1027.28 449.403C987.061 435.465 952.832 415.522 925.546 390.123C924.263 388.92 922.977 387.692 921.721 386.473C900.92 366.212 884.439 344.019 868.504 322.56C863.679 316.064 858.692 309.346 853.676 302.81C830.992 273.172 808.107 248.352 783.712 226.927C780.52 224.124 777.223 221.315 773.918 218.577C713.593 168.64 633.644 127.903 542.718 100.771C434.483 68.6 322.818 57.2492 228.293 68.807C127.082 81.3743 28.4575 135.674 45.6052 201.488L45.2424 201.525C40.9519 185.062 43.4654 168.843 52.7097 153.315C61.1516 139.133 75.0053 125.787 93.886 113.65C111.44 102.364 132.501 92.6204 156.478 84.6888C179.283 77.1457 204.092 71.5726 228.22 68.5768C277.97 62.4943 332.08 62.6688 389.045 69.0978C440.356 74.8871 492.11 85.4727 542.872 100.561C633.849 127.713 713.846 168.473 774.207 218.437C777.516 221.177 780.813 223.987 784.008 226.792C808.414 248.226 831.311 273.061 854.006 302.71C859.022 309.246 864.009 315.963 868.834 322.462C884.765 343.915 901.239 366.098 922.028 386.348C923.281 387.566 924.564 388.795 925.846 389.995C978.289 438.808 1057.78 467.634 1149.69 471.169C1227.49 474.158 1313.07 458.6 1411.33 423.598C1419.17 420.802 1427.32 417.795 1435.56 414.66C1481.29 397.277 1525.46 377.316 1572.22 356.184C1610.73 338.781 1650.55 320.785 1691.3 304.38C1799.98 260.824 1895.21 236.122 1991.02 226.636C2021.14 223.596 2046.08 222.624 2069.52 223.58C2099.47 224.801 2125.87 229.174 2150.23 236.95C2197.9 252.234 2237.47 278.401 2275.74 303.706C2286.25 310.656 2296.18 317.222 2306.24 323.539C2405.33 385.792 2505.66 452.966 2612.96 528.902L2612.7 529.058Z" fill="#1960EA"/>
<path d="M2608.81 526.867C2502.53 450.107 2403.97 382.154 2307.51 319.12C2297.53 312.598 2287.67 305.766 2277.23 298.53C2240.02 272.756 2201.54 246.103 2154.31 231.163C2097.53 213.278 2036.22 219.114 1995.04 225.059C1883.27 240.997 1783.11 278.05 1699.87 312.198C1669.96 324.521 1640.12 337.574 1611.25 350.197C1553.36 375.52 1498.68 399.438 1441.28 419.023C1432.83 421.905 1424.44 424.666 1416.31 427.231C1369.22 442.069 1325.9 452.368 1283.9 458.714C1236.28 465.908 1190.7 467.717 1148.43 464.089C1104.99 460.36 1064.31 451.094 1027.51 436.545C988.905 421.286 955.552 400.564 928.365 374.953C927.097 373.75 925.818 372.52 924.569 371.296C904.285 351.407 887.599 329.824 871.459 308.951C866.171 302.11 860.701 295.039 855.205 288.156C831.297 258.146 808.591 234.242 783.753 212.922C780.518 210.145 777.18 207.363 773.827 204.649C712.722 155.187 632.172 115.04 540.887 88.5499C431.933 57.0538 319.961 46.5008 225.598 58.8378C124.024 72.2936 27.4144 125.856 41.5648 192.205L41.2021 192.235C37.6919 175.774 40.7294 159.571 50.2266 144.078C58.9323 129.883 72.8665 116.522 91.6483 104.371C109.162 93.039 130.113 83.2234 153.922 75.1918C176.591 67.5439 201.353 61.8104 225.524 58.6075C275.22 52.1111 329.385 51.8738 386.518 57.9004C437.953 63.3246 489.942 73.5659 541.041 88.3382C632.381 114.843 712.975 155.013 774.109 204.505C777.462 207.221 780.803 210.006 784.042 212.783C808.895 234.112 831.609 258.03 855.527 288.052C861.023 294.934 866.494 302.008 871.781 308.848C887.917 329.715 904.6 351.29 924.869 371.171C926.119 372.394 927.394 373.622 928.661 374.825C981.511 424.61 1059.57 456.229 1148.47 463.859C1228.2 470.702 1315.75 458.651 1416.14 427.022C1424.27 424.459 1432.67 421.7 1441.1 418.818C1498.49 399.238 1553.16 375.325 1611.05 350.004C1639.91 337.381 1669.75 324.325 1699.67 312C1755.64 289.04 1802.2 272.077 1846.2 258.616C1897.98 242.772 1946.64 231.721 1994.95 224.831C2024.41 220.58 2050.08 218.654 2073.43 218.947C2103.51 219.324 2130.02 223.25 2154.47 230.953C2201.77 245.912 2240.26 272.582 2277.49 298.372C2287.94 305.606 2297.8 312.437 2307.77 318.955C2404.24 381.991 2502.8 449.949 2609.09 526.711L2608.81 526.867Z" fill="#1960EA"/>
<path d="M2604.93 524.674C2499.67 447.084 2402.88 378.346 2309.04 314.531C2299.2 307.839 2289.46 300.77 2279.15 293.285C2242.92 266.992 2205.47 239.804 2158.56 225.167C2101.16 207.324 2040.01 215.528 1999 223.252C1897.74 242.165 1807.41 278.176 1708.25 319.818C1690.36 327.356 1672.27 335.137 1654.78 342.664C1587.49 371.608 1517.92 401.536 1446.8 423.187C1438.16 425.82 1429.51 428.334 1421.1 430.66C1373.69 443.76 1327.85 452.752 1284.84 457.388C1236.12 462.64 1189.81 462.433 1147.18 456.776C1104.35 451.094 1064.16 439.959 1027.72 423.682C990.84 407.21 958.355 385.71 931.167 359.783C929.911 358.578 928.643 357.345 927.401 356.122C907.729 336.697 890.937 315.817 874.698 295.625C868.846 288.35 862.797 280.827 856.718 273.507C831.876 243.528 808.698 219.828 783.775 198.923C780.503 196.178 777.117 193.419 773.717 190.726C711.85 141.729 630.707 102.173 539.055 76.3294C429.387 45.5078 317.11 35.7549 222.901 48.8688C124.551 62.7084 26.1575 114.392 37.5197 182.92L37.1569 182.943C34.4272 166.482 37.9887 150.298 47.7386 134.839C56.7045 120.628 70.723 107.256 89.4022 95.0907C123.866 72.6497 172.495 55.7188 222.82 48.6386C272.457 41.7304 326.681 41.0791 383.986 46.7033C435.546 51.7647 487.766 61.6594 539.201 76.1154C630.905 101.973 712.096 141.555 774.003 190.575C777.407 193.27 780.792 196.029 784.068 198.776C809.002 219.694 832.191 243.402 857.041 273.393C863.119 280.716 869.172 288.238 875.024 295.514C891.259 315.701 908.047 336.576 927.709 355.991C928.947 357.215 930.215 358.445 931.472 359.65C985.864 411.524 1060.48 445.03 1147.25 456.546C1227.59 467.208 1319.67 458.428 1420.95 430.446C1429.35 428.12 1437.99 425.608 1446.63 422.977C1517.73 401.334 1587.29 371.41 1654.56 342.47C1672.06 334.944 1690.15 327.163 1708.04 319.625C1751.44 301.396 1801.95 280.488 1852.08 263.031C1904.52 244.772 1952.54 231.689 1998.89 223.031C2028.07 217.535 2053.74 214.683 2077.35 214.316C2107.12 213.851 2134.49 217.433 2158.71 224.96C2179.72 231.517 2200.87 241.302 2223.37 254.876C2243.23 266.862 2261.63 280.218 2279.42 293.132C2289.72 300.614 2299.46 307.683 2309.3 314.373C2403.15 378.191 2499.94 446.93 2605.2 524.523L2604.93 524.674Z" fill="#1960EA"/>
<path d="M2601.04 522.482C2496.82 444.055 2401.8 374.534 2310.57 309.946C2300.9 303.107 2291.33 295.825 2281.2 288.117C2245.92 261.277 2209.44 233.523 2162.8 219.174C2119.22 205.807 2066.93 206.551 2002.96 221.449C1913.51 242.162 1833.56 276.808 1748.9 313.491C1738.36 318.059 1727.47 322.781 1716.62 327.444C1712.37 329.275 1708.12 331.11 1703.88 332.943C1623.22 367.76 1539.81 403.764 1452.32 427.354C1443.47 429.741 1434.59 432.009 1425.9 434.093C1377.45 445.706 1330.31 453.098 1285.8 456.062C1235.96 459.379 1188.9 457.16 1145.94 449.465C1103.78 441.913 1064.09 428.911 1027.96 410.819C992.935 393.283 961.322 371.01 933.992 344.612C932.746 343.405 931.49 342.17 930.255 340.944C911.33 322.129 894.593 302.091 878.401 282.713C871.847 274.865 865.064 266.75 858.253 258.851C832.451 228.892 808.803 205.398 783.822 184.915C780.502 182.194 777.077 179.463 773.632 176.795C710.981 128.273 629.237 89.3056 537.226 64.1082C426.847 33.9635 314.259 25.0085 220.207 38.8992C123.664 53.2761 25.4096 105.383 33.4814 173.636L33.115 173.655C31.1694 157.192 35.2512 141.026 45.2539 125.607C54.4836 111.379 68.5828 97.9908 87.163 85.8166C121.48 63.329 169.941 46.147 220.123 38.6736C269.705 31.3514 323.984 30.2861 381.457 35.5103C433.142 40.2041 485.6 49.7546 537.373 63.8942C629.435 89.1079 711.23 128.096 773.907 176.644C777.351 179.312 780.785 182.047 784.104 184.769C809.096 205.263 832.759 228.764 858.568 258.735C865.383 266.634 872.162 274.751 878.72 282.599C894.904 301.972 911.642 322.006 930.559 340.814C931.794 342.04 933.047 343.273 934.293 344.48C989.865 398.154 1063.08 434.377 1146.04 449.235C1227.92 463.903 1322.04 458.732 1425.77 433.87C1434.45 431.785 1443.33 429.52 1452.17 427.136C1539.64 403.555 1623.03 367.558 1703.67 332.745C1707.92 330.91 1712.16 329.077 1716.41 327.247C1727.26 322.583 1738.15 317.861 1748.69 313.295C1833.37 276.605 1913.35 241.95 2002.83 221.228C2031.73 214.497 2057.39 210.722 2081.27 209.682C2111.16 208.382 2138.64 211.506 2162.96 218.963C2183.85 225.389 2204.73 235.219 2226.81 249.014C2246.28 261.186 2264.18 274.8 2281.48 287.965C2291.62 295.671 2301.18 302.952 2310.84 309.788C2402.08 374.378 2497.1 443.902 2601.32 522.331L2601.04 522.482Z" fill="#1960EA"/>
<path d="M2597.16 520.292C2502.03 447.209 2406.12 374.895 2312.09 305.359C2302.52 298.321 2293.03 290.759 2282.99 282.756C2250.33 256.718 2213.3 227.209 2167.05 213.181C2122.95 199.837 2070.58 201.951 2006.92 219.642C1931.23 240.609 1864.24 271.437 1793.33 304.075C1771.12 314.296 1748.15 324.867 1724.99 335.065C1684.56 352.902 1640.82 371.778 1594.97 388.969C1545.87 407.382 1501.01 421.298 1457.83 431.518C1448.76 433.665 1439.63 435.687 1430.68 437.522C1381.2 447.67 1332.78 453.445 1286.77 454.687C1235.83 456.06 1188.03 451.845 1144.69 442.15C1064.66 424.026 994.713 386.106 936.795 329.44C935.561 328.231 934.315 326.993 933.087 325.768C915.123 307.783 898.678 288.81 882.777 270.46C875.291 261.824 867.553 252.892 859.767 244.2C832.983 214.248 808.859 190.961 783.848 170.913C780.481 168.215 777.011 165.51 773.526 162.87C710.113 114.815 627.768 76.4409 535.398 51.8878C424.305 22.4176 311.412 14.2651 217.515 28.9304C120.385 44.1865 24.5928 95.6023 29.4403 164.354L29.0739 164.363C27.9124 147.895 32.5217 131.748 42.77 116.369C52.2672 102.122 66.4469 88.7198 84.9209 76.5363C102.325 65.0576 122.953 55.0209 146.231 46.7032C168.831 38.6297 192.782 32.5729 217.423 28.7024C266.95 20.9686 321.287 19.4892 378.929 24.311C430.739 28.6443 483.427 37.8482 535.537 51.6715C627.962 76.2385 710.355 114.636 773.805 162.714C777.289 165.356 780.766 168.064 784.134 170.762C809.155 190.821 833.29 214.118 860.085 244.079C867.871 252.774 875.61 261.705 883.095 270.344C898.997 288.691 915.438 307.662 933.395 325.64C934.619 326.868 935.868 328.103 937.099 329.312C994.973 385.934 1064.86 423.824 1144.81 441.929C1227.17 460.351 1325.98 458.751 1430.57 437.298C1439.51 435.463 1448.64 433.444 1457.7 431.3C1554.25 408.452 1642.58 371.136 1724.78 334.871C1747.94 324.674 1770.9 314.105 1793.11 303.885C1864.04 271.24 1931.04 240.404 2006.77 219.428C2070.52 201.709 2123 199.595 2167.2 212.969C2187.92 219.252 2208.49 229.1 2230.09 243.072C2249.13 255.393 2266.49 269.23 2283.28 282.609C2293.32 290.613 2302.8 298.172 2312.37 305.206C2406.4 374.743 2502.31 447.058 2597.44 520.143L2597.16 520.292Z" fill="#1960EA"/>
<path d="M2593.27 518.101C2499.6 444.614 2405.51 371.494 2313.62 300.773C2304.35 293.658 2295.15 285.963 2285.4 277.818C2253.54 251.174 2217.43 220.973 2171.29 207.182C2126.67 193.861 2074.2 197.346 2010.87 217.831C1944.53 239.262 1883.57 269.523 1824.63 298.791C1795.07 313.466 1764.5 328.64 1733.36 342.682C1684.2 364.868 1642.84 381.791 1603.2 395.945C1554.31 413.397 1508.56 426.394 1463.35 435.68C1454.07 437.587 1444.69 439.359 1435.48 440.948C1387.46 449.222 1340.31 453.408 1295.21 453.411C1292.7 453.411 1290.21 453.397 1287.72 453.371C1235.57 452.831 1187.03 446.593 1143.45 434.833C1122.41 429.125 1101.8 421.88 1082.21 413.297C1063.8 405.23 1045.7 395.729 1028.42 385.057C997.343 365.858 968.287 342.701 939.605 314.266C938.374 313.042 937.146 311.817 935.926 310.586C919.284 293.809 903.54 276.271 888.316 259.31C879.526 249.52 870.439 239.395 861.287 229.54C833.107 199.176 809.235 176.772 783.877 156.902C780.466 154.229 776.952 151.549 773.423 148.935C709.241 101.357 626.298 63.5738 533.569 39.6651C421.765 10.8717 308.565 3.51931 214.821 18.9592C119.513 34.7014 23.8449 86.508 25.4021 155.066L25.0357 155.069C24.3102 123.135 44.2462 92.7695 82.6854 67.2559C100.06 55.7236 120.579 45.6149 143.677 37.2042C166.152 29.0214 190.056 22.8063 214.729 18.7312C264.197 10.5833 318.594 8.69229 376.404 13.1117C428.338 17.0821 481.261 25.9418 533.705 39.4464C626.492 63.3715 709.482 101.178 773.705 148.784C777.234 151.401 780.755 154.082 784.166 156.755C809.536 176.637 833.418 199.048 861.605 229.423C870.758 239.281 879.849 249.406 888.635 259.196C903.859 276.155 919.6 293.69 936.238 310.463C937.458 311.693 938.682 312.919 939.913 314.14C1000.86 374.565 1067.48 413.974 1143.59 434.619C1249 463.061 1360.45 453.639 1435.38 440.725C1444.59 439.136 1453.96 437.366 1463.24 435.459C1567.22 414.102 1662.1 374.558 1733.15 342.494C1764.29 328.457 1794.85 313.282 1824.4 298.61C1883.37 269.337 1944.33 239.067 2010.71 217.626C2039.04 208.459 2064.69 202.83 2089.1 200.421C2119.22 197.448 2146.92 199.653 2171.44 206.975C2192.1 213.151 2212.48 223.078 2233.72 237.322C2252.44 249.873 2269.35 264.008 2285.7 277.68C2295.44 285.824 2304.63 293.516 2313.9 300.626C2405.79 371.348 2499.88 444.467 2593.56 517.954L2593.27 518.101Z" fill="#1960EA"/>
<path d="M2589.39 515.91L2315.15 296.188C2306.19 289.012 2297.3 281.204 2287.88 272.94C2256.81 245.665 2221.58 214.753 2175.53 201.19C2131 188.076 2076.94 193.068 2014.83 216.028C1955.13 238.099 1900.68 267.451 1848.02 295.837C1813.7 314.34 1778.2 333.471 1741.74 350.309C1632.13 400.918 1536.34 430.809 1440.28 444.381C1400.43 450.01 1361.11 452.843 1322.99 452.843C1311.43 452.843 1299.99 452.582 1288.68 452.061C1235.3 449.605 1186.02 441.348 1142.21 427.522C1101.6 414.706 1064.46 396.615 1028.66 372.21C1000.07 352.723 972.669 329.491 942.423 299.098C926.458 283.058 911 266.392 896.051 250.275C862.217 213.804 827.233 176.091 783.921 142.899C717.485 91.9901 630.281 52.0669 531.737 27.4441C419.226 -0.670056 305.718 -7.22467 212.128 8.98975C121.517 24.6878 23.1706 74.1893 21.3605 145.783L20.9941 145.778C21.8039 113.778 42.3627 83.4165 80.4466 57.9772C114.881 34.9756 161.612 17.4982 212.033 8.76413C261.446 0.204515 315.9 -2.10053 373.876 1.91644C425.935 5.52171 479.092 14.0395 531.873 27.2278C580.633 39.4113 626.943 55.4489 669.519 74.8964C712.45 94.5068 751.036 117.334 784.199 142.745C827.53 175.949 862.525 213.672 896.366 250.152C911.315 266.267 926.773 282.93 942.734 298.968C986.863 343.315 1049.44 397.978 1142.37 427.308C1248.95 460.944 1363.15 455.032 1440.19 444.148C1536.21 430.586 1631.95 400.706 1741.52 350.116C1777.97 333.285 1813.46 314.154 1847.78 295.655C1900.45 267.264 1954.92 237.906 2014.65 215.823C2076.86 192.824 2131.04 187.828 2175.69 200.976C2196.31 207.049 2216.49 217.063 2237.4 231.593C2255.8 244.384 2272.26 258.83 2288.18 272.8C2297.59 281.065 2306.49 288.868 2315.44 296.041L2589.68 515.763L2589.39 515.91Z" fill="#1960EA"/>
<path d="M2587.18 499.018C2517.35 437.84 2457.43 388.197 2398.62 342.791C2370.08 320.734 2340.92 299.023 2311.97 278.261C2303.21 271.981 2294.54 265.301 2285.35 258.228C2262.27 240.45 2238.4 222.068 2210.93 208.426C2196.18 201.088 2181.98 195.833 2167.52 192.363C2123.14 181.605 2071.07 188.718 2012.75 213.506C1982.57 226.315 1955.09 240.892 1932.19 253.462C1907.95 266.769 1884.03 281.443 1860.9 295.634C1827.66 316.033 1793.28 337.125 1756.33 355.24C1733.84 366.295 1711.05 376.174 1688.58 384.603C1643.62 401.466 1595.36 415.362 1545.15 425.903C1514.13 432.344 1482.95 437.212 1452.5 440.371C1426.26 443.083 1399.96 444.648 1374.35 445.023C1336.01 445.586 1298.66 443.439 1263.33 438.636C1225.77 433.528 1190.22 425.375 1157.68 414.401C1128.66 404.616 1101.25 392.295 1073.88 376.732C1022.88 347.755 982.21 314.249 952.473 288.296C937.865 275.487 923.601 262.424 909.806 249.791C870.084 213.411 832.564 179.049 785.614 148.441C747.321 123.642 703.631 102.24 655.746 84.8282C618.948 71.4468 578.926 60.5031 536.793 52.2994C526.758 50.3479 516.531 48.5289 506.408 46.8984C462.821 39.8902 413.752 35.3267 360.569 33.3333C306.949 31.2771 260.559 33.0565 218.756 38.7784C195.123 41.9883 172.227 47.024 150.693 53.7438C74.6723 77.4688 25.8565 117.297 20.1113 160.285L19.6533 160.26C21.1849 148.8 25.6807 137.512 33.0124 126.705C39.9777 116.441 49.5444 106.541 61.4452 97.2815C83.9313 79.7901 114.724 64.6433 150.492 53.481C172.058 46.7496 194.991 41.7068 218.661 38.4923C260.508 32.7658 306.935 30.9841 360.598 33.0426C413.811 35.0359 462.905 39.6041 506.521 46.617C516.656 48.2498 526.886 50.0687 536.929 52.0226C579.095 60.2309 619.15 71.184 655.977 84.577C703.895 102.001 747.621 123.421 785.932 148.237C832.913 178.863 870.439 213.234 910.176 249.624C923.967 262.256 938.231 275.317 952.836 288.124C982.558 314.065 1023.21 347.555 1074.18 376.513C1101.52 392.06 1128.9 404.369 1157.89 414.143C1221.58 435.619 1294.4 445.911 1374.33 444.732C1399.93 444.357 1426.2 442.792 1452.43 440.082C1482.86 436.924 1514.01 432.06 1545 425.624C1595.19 415.09 1643.41 401.204 1688.34 384.349C1710.8 375.927 1733.58 366.053 1756.04 355.007C1792.98 336.902 1827.35 315.814 1860.58 295.423C1883.71 281.229 1907.63 266.55 1931.89 253.239C1954.8 240.662 1982.29 226.08 2012.5 213.262C2038.46 202.225 2063.6 194.601 2087.22 190.598C2116.24 185.68 2143.31 186.183 2167.68 192.091C2182.19 195.573 2196.42 200.841 2211.21 208.196C2238.72 221.859 2262.6 240.253 2285.7 258.042C2294.89 265.113 2303.56 271.793 2312.31 278.068C2341.27 298.832 2370.43 320.545 2398.98 342.607C2457.79 388.018 2517.71 437.666 2587.55 498.848L2587.18 499.018Z" fill="#1960EA"/>
<path d="M2584.97 482.122C2520.22 419.909 2459.46 367.849 2399.19 322.969C2369.81 301.047 2339.39 279.974 2308.79 260.335C2300.67 255.125 2292.66 249.71 2284.17 243.979C2258.76 226.816 2232.48 209.068 2203.05 196.79C2188.19 190.563 2173.95 186.227 2159.51 183.534C2104.22 173.216 2048.06 192.763 2010.67 210.978C1984.19 223.845 1960 238.394 1935.49 253.413C1914.05 266.56 1893.87 280.702 1872.51 295.672C1840.8 317.894 1808.02 340.872 1770.92 360.167C1748.9 371.678 1725.92 381.631 1702.62 389.748C1659.22 404.872 1611.7 416.616 1557.33 425.655C1526.9 430.711 1495.75 434.314 1464.72 436.359C1438.54 438.064 1412.41 438.673 1387.04 438.164C1349.31 437.415 1312.43 434.047 1277.42 428.155C1240.65 421.966 1205.56 412.922 1173.14 401.276C1144.73 391.074 1117.3 378.416 1089.28 362.581C1038.39 333.862 994.804 302.024 962.517 277.494C950.565 268.413 938.803 259.277 927.426 250.438C882.121 215.242 839.328 181.994 787.307 153.984C748.428 133.051 704.778 115.35 657.578 101.375C621.865 90.8015 584.012 82.8792 541.861 77.155C532.133 75.8361 522.237 74.6476 512.45 73.6218C469.464 69.1396 423.586 67.444 368.08 65.6902C328.069 64.3621 275.692 63.4875 225.374 68.5628C201.543 70.9213 178.507 75.0174 156.9 80.7323C80.828 100.859 29.224 136.019 18.8548 174.788L18.3125 174.73C21.0605 164.449 26.6298 154.366 34.8555 144.757C42.6965 135.602 52.9998 126.824 65.4758 118.66C89.1857 103.15 120.726 89.9223 156.688 80.409C178.335 74.6824 201.415 70.5794 225.286 68.2162C275.651 63.1339 328.069 64.0108 368.106 65.339C423.63 67.0928 469.522 68.7884 512.538 73.2729C522.332 74.301 532.236 75.4896 541.975 76.8084C584.166 82.5396 622.056 90.4689 657.809 101.054C705.057 115.043 748.743 132.758 787.662 153.712C839.72 181.743 882.531 215 927.851 250.21C939.224 259.047 950.986 268.183 962.938 277.262C995.218 301.782 1038.79 333.608 1089.65 362.313C1117.63 378.132 1145.03 390.776 1173.41 400.967C1237.16 423.866 1309.05 436.261 1387.06 437.81C1412.4 438.317 1438.51 437.71 1464.66 436.005C1495.66 433.963 1526.79 430.365 1557.19 425.31C1611.51 416.281 1659 404.546 1702.36 389.437C1725.63 381.328 1748.58 371.389 1770.57 359.89C1807.64 340.612 1840.41 317.643 1872.11 295.432C1893.48 280.455 1913.66 266.311 1935.12 253.157C1959.63 238.129 1983.83 223.576 2010.34 210.694C2034.58 198.885 2058.48 190.391 2081.39 185.441C2109.17 179.44 2135.51 178.684 2159.67 183.192C2174.16 185.897 2188.45 190.247 2203.36 196.492C2232.84 208.794 2259.14 226.557 2284.58 243.735C2293.06 249.464 2301.08 254.876 2309.19 260.084C2339.8 279.729 2370.22 300.81 2399.62 322.739C2459.89 367.631 2520.68 419.7 2585.43 481.927L2584.97 482.122Z" fill="#1960EA"/>
<path d="M2582.76 465.227C2522.16 401.134 2462.31 348.118 2399.77 303.15C2369.53 281.363 2337.85 260.929 2305.62 242.412C2298.73 238.453 2291.63 234.252 2284.77 230.191C2256.45 213.411 2227.16 196.062 2195.18 185.155C2180.17 180.001 2165.88 176.582 2151.51 174.705C2096.33 167.496 2043.34 189.077 2008.59 208.448C1985.05 221.524 1963.52 236.346 1942.7 250.681L1938.8 253.365C1919.9 266.369 1902.17 280.632 1883.4 295.735C1853.5 319.783 1822.59 344.648 1785.51 365.093C1763.93 377.077 1740.77 387.104 1716.67 394.896C1674.64 408.482 1627.88 418.177 1569.5 425.406C1539.31 429.144 1508.17 431.479 1476.93 432.344C1450.81 433.04 1424.84 432.691 1399.73 431.302C1323.7 427.118 1252.66 412.599 1188.59 388.151C1160.89 377.581 1133.44 364.591 1104.68 348.43C1056.01 321.139 1012.72 293.088 972.563 266.695C967.177 263.157 961.85 259.643 956.563 256.156C901.709 219.989 849.899 185.828 789.011 159.535C749.26 142.369 705.654 128.371 659.41 117.927C625.46 110.261 588.665 105.055 546.932 102.013C537.527 101.332 527.96 100.771 518.496 100.348C494.687 99.301 469.434 99.1312 442.698 98.9521C421.223 98.8079 399.019 98.659 375.588 98.052C330.334 96.7797 279.045 95.3399 231.984 98.3543C207.702 99.9104 184.527 103.064 163.1 107.73C87.0571 124.291 32.661 154.787 17.5909 189.307L16.9717 189.198C20.9435 180.096 27.5827 171.218 36.7024 162.81C45.4228 154.769 56.4588 147.107 69.5028 140.038C94.4511 126.52 126.746 115.215 162.888 107.344C184.363 102.667 207.585 99.5057 231.914 97.9473C279.023 94.9305 330.337 96.3726 375.61 97.6449C399.027 98.2497 421.231 98.4009 442.698 98.5451C469.445 98.7242 494.705 98.894 518.536 99.943C528.008 100.369 537.585 100.929 546.998 101.611C588.783 104.655 625.621 109.868 659.619 117.546C705.918 128.001 749.571 142.015 789.366 159.2C850.31 185.516 902.145 219.694 957.021 255.877C962.308 259.363 967.639 262.876 973.021 266.416C1013.18 292.804 1056.45 320.848 1105.1 348.13C1133.83 364.272 1161.25 377.251 1188.92 387.807C1252.91 412.225 1323.86 426.722 1399.78 430.902C1424.87 432.289 1450.81 432.638 1476.9 431.942C1508.1 431.077 1539.22 428.744 1569.37 425.011C1627.69 417.788 1674.41 408.105 1716.37 394.538C1740.43 386.762 1763.54 376.753 1785.08 364.791C1822.12 344.371 1853.01 319.52 1882.89 295.486C1901.67 280.376 1919.41 266.106 1938.33 253.093L1942.22 250.408C1963.05 236.066 1984.59 221.236 2008.17 208.145C2043.02 188.712 2096.2 167.068 2151.63 174.309C2166.07 176.196 2180.41 179.626 2195.48 184.802C2227.53 195.732 2256.85 213.1 2285.21 229.898C2292.06 233.959 2299.16 238.16 2306.04 242.116C2338.29 260.643 2369.98 281.088 2400.24 302.887C2462.81 347.874 2522.68 400.909 2583.3 465.022L2582.76 465.227Z" fill="#1960EA"/>
<path d="M2580.55 448.328C2524.91 383.268 2464.28 327.754 2400.34 283.333C2369.26 261.682 2336.32 241.886 2302.45 224.492C2297.56 221.98 2292.55 219.373 2287.7 216.851C2255.69 200.195 2222.59 182.969 2187.33 173.525C2172.19 169.429 2157.86 166.929 2143.52 165.877C2088.5 161.849 2038.65 185.427 2006.52 205.917C1986.57 218.575 1968.57 232.652 1951.15 246.266C1948.14 248.622 1945.13 250.973 1942.11 253.316C1925.55 266.183 1910.06 280.558 1893.66 295.774C1865.79 321.644 1836.96 348.393 1800.1 370.024C1778.45 382.726 1755.76 392.547 1730.71 400.05C1678.32 415.744 1625.97 421.552 1581.67 425.166C1551.7 427.609 1520.57 428.678 1489.14 428.339C1463.1 428.025 1437.29 426.715 1412.42 424.45C1338.67 417.749 1268.57 401.123 1204.05 375.032C1177.2 364.179 1149.74 350.851 1120.08 334.288C1090.13 317.597 1062.22 301.536 1035.22 286.003C1016.88 275.445 999.545 265.474 982.621 255.907C918.647 219.743 860.049 187.946 790.729 165.091C750.124 151.705 706.563 141.406 661.253 134.481C628.779 129.518 594.066 127.101 552.014 126.871C542.942 126.829 533.701 126.896 524.552 127.073C510.655 127.359 496.277 127.957 481.06 128.592C451.858 129.808 418.754 131.188 383.095 130.416C369.517 130.12 355.663 129.704 342.264 129.299C307.8 128.259 272.164 127.185 238.59 128.145C213.935 128.852 190.617 131.067 169.292 134.728C93.3775 147.765 36.1931 173.6 16.3194 203.835L15.6416 203.656C20.8445 195.738 28.5536 188.067 38.5527 180.854C48.1562 173.928 59.925 167.385 73.5258 161.409C99.7346 149.896 132.78 140.515 169.095 134.279C190.47 130.609 213.84 128.387 238.55 127.68C272.16 126.717 307.811 127.794 342.293 128.834C355.689 129.239 369.542 129.655 383.117 129.95C418.743 130.723 451.822 129.346 481.009 128.129C496.233 127.494 510.614 126.896 524.527 126.61C533.687 126.433 542.935 126.366 552.018 126.408C594.129 126.636 628.893 129.059 661.422 134.03C706.786 140.964 750.406 151.275 791.062 164.68C822.375 175.002 854.106 188.081 888.067 204.661C918.472 219.503 948.047 235.743 983.105 255.56C1000.03 265.129 1017.36 275.101 1035.71 285.658C1062.7 301.189 1090.61 317.25 1120.56 333.939C1150.18 350.486 1177.62 363.8 1204.43 374.641C1268.86 400.697 1338.87 417.3 1412.51 423.992C1437.36 426.255 1463.14 427.562 1489.14 427.876C1520.54 428.216 1551.64 427.148 1581.56 424.706C1625.81 421.098 1678.1 415.297 1730.39 399.632C1755.37 392.149 1778.01 382.354 1799.6 369.685C1836.39 348.09 1865.2 321.362 1893.05 295.514C1909.46 280.288 1924.95 265.906 1941.54 253.025C1944.55 250.683 1947.56 248.331 1950.57 245.977C1968 232.354 1986.02 218.268 2005.99 205.594C2026.9 192.263 2048.34 182.008 2069.73 175.114C2095.07 166.947 2119.92 163.686 2143.59 165.422C2158 166.478 2172.4 168.99 2187.6 173.102C2222.95 182.571 2256.1 199.818 2288.15 216.495C2293 219.017 2298.01 221.624 2302.89 224.134C2336.79 241.542 2369.75 261.357 2400.86 283.023C2434.81 306.611 2468.06 333.485 2499.68 362.9C2527.63 388.897 2555.05 417.567 2581.17 448.11L2580.55 448.328Z" fill="#1960EA"/>
<path d="M2578.33 431.425C2526.84 364.5 2467.15 308.006 2400.92 263.512C2368.98 241.999 2334.79 222.843 2299.29 206.57C2297.6 205.795 2295.91 205.021 2294.22 204.244C2257.3 187.302 2219.13 169.782 2179.49 161.895C2164.13 158.839 2149.75 157.255 2135.55 157.05C2080.75 156.264 2034.02 181.812 2004.47 203.381C1987.08 216 1971.64 229.83 1956.71 243.204C1953.02 246.512 1949.2 249.931 1945.44 253.262C1931.09 265.948 1917.75 280.371 1903.62 295.643C1877.94 323.423 1851.38 352.146 1814.71 374.95C1793.49 388.143 1770.61 398.038 1744.76 405.202C1693.84 419.314 1642.13 423.019 1593.84 424.922C1564.06 426.094 1532.94 425.894 1501.34 424.328C1475.4 423.003 1449.75 420.735 1425.11 417.59C1353.87 408.519 1284.69 389.785 1219.51 361.908C1193.4 350.746 1166.71 337.474 1135.5 320.141C1076.19 287.289 1032.15 264.15 992.701 245.116C914.243 207.261 854.362 184.99 792.48 170.648C751.051 161.046 707.534 154.447 663.129 151.033C632.322 148.665 599.628 148.876 557.125 151.726C548.416 152.316 539.505 153.012 530.638 153.796C522.262 154.547 513.754 155.408 504.745 156.317C471.479 159.678 433.773 163.488 390.618 162.776C367.871 162.402 344.638 161.376 322.17 160.385C296.635 159.26 270.233 158.094 245.2 157.936C220.101 157.778 196.641 159.053 175.488 161.727C99.8262 171.29 39.8461 192.468 15.0443 218.377L14.3408 218.105C20.7822 211.373 29.5612 204.909 40.4324 198.892C50.9261 193.082 63.4204 187.66 77.5709 182.773C105.058 173.278 138.863 165.821 175.327 161.213C196.538 158.534 220.05 157.255 245.207 157.413C270.262 157.571 296.679 158.736 322.225 159.864C344.685 160.855 367.908 161.881 390.636 162.255C433.714 162.965 471.38 159.16 504.609 155.803C513.623 154.891 522.138 154.033 530.517 153.279C539.395 152.496 548.314 151.8 557.03 151.207C599.599 148.355 632.348 148.141 663.221 150.516C707.688 153.935 751.267 160.543 792.755 170.159C854.721 184.52 914.664 206.814 993.192 244.702C1032.65 263.743 1076.71 286.888 1136.03 319.75C1167.22 337.069 1193.89 350.327 1219.96 361.478C1285.06 389.315 1354.13 408.023 1425.26 417.081C1449.87 420.221 1475.49 422.484 1501.4 423.81C1532.96 425.373 1564.04 425.573 1593.78 424.403C1642 422.503 1693.62 418.807 1744.43 404.727C1770.18 397.591 1792.98 387.729 1814.12 374.583C1850.71 351.828 1877.25 323.134 1902.91 295.385C1917.04 280.104 1930.39 265.669 1944.76 252.964C1948.53 249.636 1952.35 246.216 1956.03 242.909C1970.97 229.523 1986.42 215.683 2003.84 203.044C2023.12 188.967 2043.34 177.833 2063.93 169.947C2088.05 160.711 2112.15 156.201 2135.56 156.533C2149.85 156.738 2164.29 158.331 2179.73 161.402C2219.5 169.317 2257.73 186.86 2294.7 203.828C2296.39 204.605 2298.08 205.381 2299.77 206.154C2335.31 222.445 2369.54 241.625 2401.51 263.161C2467.8 307.694 2527.54 364.232 2579.07 431.204L2578.33 431.425Z" fill="#1960EA"/>
<path d="M1612.07 424.68C1610.01 424.68 1607.99 424.678 1605.99 424.671C1576.37 424.592 1545.26 423.126 1513.54 420.312C1487.69 417.974 1462.2 414.748 1437.79 410.727C1402.91 404.991 1367.9 396.747 1333.73 386.227C1300.74 376.067 1267.51 363.47 1234.97 348.781C1203.08 334.39 1173.29 318.355 1150.91 305.992C1098.53 277.146 1048.69 253.034 1002.78 234.327C928.419 204.028 862.155 185.558 794.235 176.2C753.261 170.555 709.3 167.578 666.973 167.578C666.317 167.578 665.665 167.578 665.009 167.58C628.647 167.659 594.125 171.948 562.24 176.572C553.941 177.784 545.357 179.108 536.724 180.51C531.994 181.287 527.256 182.087 522.244 182.934C486.89 188.914 446.816 195.69 398.133 195.134C368.483 194.794 338.2 192.845 308.914 190.959C290.004 189.74 270.452 188.481 251.802 187.721C226.165 186.676 202.573 187.011 181.673 188.721C106.414 194.871 43.6383 211.395 13.7435 232.924L13.0547 232.54C28.3886 221.499 51.4537 211.939 81.6086 204.124C110.408 196.662 144.971 191.135 181.556 188.146C202.51 186.435 226.165 186.095 251.861 187.144C270.529 187.905 290.091 189.165 309.009 190.384C338.277 192.27 368.542 194.22 398.151 194.557C446.71 195.113 486.714 188.347 522.009 182.378C527.025 181.529 531.763 180.729 536.497 179.952C545.137 178.549 553.729 177.224 562.035 176.012C593.975 171.381 628.556 167.085 665.005 167.003C708.006 166.908 752.755 169.894 794.43 175.637C829.483 180.468 863.467 187.579 898.316 197.376C931.878 206.812 966.21 218.74 1003.27 233.843C1049.21 252.565 1099.09 276.694 1151.5 305.56C1173.87 317.915 1203.63 333.939 1235.49 348.314C1301.53 378.119 1369.67 398.929 1438.02 410.171C1462.4 414.188 1487.85 417.409 1513.67 419.744C1545.35 422.554 1576.41 424.02 1605.99 424.096C1652.28 424.217 1706.03 423.226 1758.46 409.817C1784.99 403.03 1807.95 393.105 1828.64 379.477C1864.98 355.543 1889.06 324.823 1912.36 295.114C1924.35 279.832 1935.67 265.397 1947.97 252.902C1951.92 248.899 1955.9 244.775 1959.74 240.786C1972.74 227.309 1986.18 213.376 2001.67 200.497C2019.36 185.681 2038.35 173.663 2058.11 164.777C2081.01 154.476 2104.36 148.712 2127.5 147.646C2141.79 146.988 2156.29 147.66 2171.83 149.703C2213.38 155.159 2254.57 171.013 2296.62 188.172C2333.28 203.133 2369.77 222.194 2402.14 243.298C2438.1 266.672 2471.89 294.093 2502.56 324.798C2529.88 352.154 2554.91 382.266 2576.95 414.299L2576.11 414.532C2528.78 345.739 2470.03 288.264 2401.49 243.705C2369.16 222.631 2332.73 203.598 2296.13 188.663C2254.15 171.534 2213.04 155.711 2171.64 150.273C2156.19 148.242 2141.77 147.574 2127.57 148.228C2085.04 150.189 2040.59 168.876 2002.4 200.851C1986.94 213.707 1973.51 227.628 1960.52 241.09C1956.68 245.082 1952.69 249.208 1948.75 253.211C1936.47 265.683 1925.15 280.106 1913.18 295.374C1901.75 309.951 1889.93 325.026 1876.37 339.517C1860.99 355.945 1845.6 369.147 1829.3 379.882C1808.52 393.57 1785.46 403.539 1758.8 410.359C1735.29 416.374 1710.02 420.349 1681.55 422.517C1657.43 424.343 1633.22 424.68 1612.07 424.68Z" fill="#1960EA"/>
<path d="M1670.82 425.845C1652.14 425.845 1634.19 425.138 1618.14 424.422C1588.62 423.105 1557.52 420.372 1525.73 416.297C1499.98 412.95 1474.66 408.768 1450.45 403.862C1384.18 390.458 1318.74 368.145 1250.41 335.653C1220.61 321.486 1192.52 306.241 1166.31 291.843C1114.56 263.501 1062.93 240.52 1012.85 223.536C939.206 198.557 870.301 185.278 796.002 181.747C753.667 179.736 709.025 180.557 666.896 184.12C631.633 187.102 598.39 194.298 567.356 201.411C559.591 203.2 551.333 205.154 542.814 207.217C540.685 207.736 538.538 208.264 536.362 208.796C500.619 217.57 460.176 227.497 408.271 227.497C407.395 227.497 406.523 227.495 405.64 227.488C370.524 227.262 334.672 224.08 299.995 221.001C286.248 219.78 272.032 218.519 258.391 217.498C231.746 215.507 208.67 214.918 187.84 215.704C112.079 218.565 48.1306 230.14 12.399 247.466L11.7871 246.956C29.4514 238.392 54.9933 230.956 85.6428 225.453C115.79 220.04 151.108 216.449 187.777 215.065C208.666 214.276 231.801 214.865 258.504 216.861C272.16 217.882 286.38 219.145 300.131 220.363C334.774 223.438 370.594 226.618 405.644 226.844C458.629 227.188 499.732 217.095 535.992 208.194C538.164 207.661 540.315 207.133 542.444 206.612C550.97 204.547 559.232 202.593 567.004 200.804C598.089 193.677 631.395 186.472 666.753 183.48C708.948 179.912 753.664 179.089 796.067 181.103C832.887 182.852 867.992 186.983 903.387 193.729C939.84 200.676 975.799 210.238 1013.32 222.966C1063.46 239.974 1115.15 262.982 1166.95 291.352C1193.16 305.746 1221.23 320.981 1251 335.134C1319.24 367.582 1384.58 389.862 1450.75 403.246C1474.92 408.142 1500.21 412.32 1525.92 415.662C1557.67 419.733 1588.72 422.463 1618.2 423.775C1667.8 425.985 1720.57 427.12 1772.48 414.892C1799.8 408.456 1822.91 398.469 1843.15 384.357C1879.19 359.22 1901.63 324.933 1921.42 294.681C1931.38 279.46 1940.79 265.083 1951.17 252.827C1954.92 248.405 1958.69 243.835 1962.33 239.416C1973.74 225.588 1985.53 211.29 1999.48 197.936C2015.63 182.38 2033.39 169.478 2052.28 159.588C2073.97 148.23 2096.56 141.215 2119.43 138.742C2133.73 137.196 2148.28 136.949 2163.92 137.982C2207.61 140.873 2252 155.159 2293.46 170.169C2331.75 184.027 2369.54 202.439 2402.77 223.415C2439.73 246.68 2473.78 274.375 2503.98 305.727C2530.98 333.764 2554.82 364.598 2574.83 397.375L2573.89 397.606C2531.36 327.933 2471.94 267.855 2402.06 223.866C2368.9 202.93 2331.18 184.553 2292.97 170.722C2251.6 155.748 2207.33 141.496 2163.82 138.617C2148.27 137.589 2133.81 137.835 2119.61 139.37C2077.38 143.936 2035.02 164.859 2000.33 198.285C1986.4 211.611 1974.62 225.895 1963.23 239.709C1959.59 244.13 1955.82 248.701 1952.07 253.127C1941.71 265.355 1932.31 279.718 1922.36 294.923C1902.53 325.221 1880.06 359.564 1843.89 384.785C1823.55 398.973 1800.3 409.017 1772.83 415.49C1749 421.105 1723.28 424.357 1694.21 425.424C1686.36 425.727 1678.53 425.845 1670.82 425.845Z" fill="#1960EA"/>
<path d="M1707.7 428.364C1707.43 428.364 1707.17 428.364 1706.9 428.364C1680.5 428.323 1654.58 426.271 1630.28 424.173C1600.81 421.628 1569.73 417.625 1537.92 412.28C1512.29 407.928 1487.13 402.786 1463.13 396.999C1399.5 381.677 1336.82 358.015 1265.86 322.528C1240.31 309.751 1215.17 295.993 1190.84 282.691C1187.8 281.025 1184.76 279.362 1181.71 277.699C1129.69 249.364 1076.28 227.511 1022.95 212.751C949.92 192.54 876.269 184.213 797.786 187.295C754.752 188.986 710.15 193.608 668.801 200.66C636.177 206.226 607.106 215.156 572.489 226.251C565.472 228.509 557.979 230.947 548.914 233.924L548.409 234.092C530.92 239.874 511.098 246.426 488.865 251.408C463.33 257.13 438.558 259.884 413.155 259.852C373.543 259.789 333.118 255.109 294.026 250.58C284.449 249.471 274.541 248.324 264.978 247.287C237.553 244.317 214.338 242.816 194.006 242.702C119.143 242.284 52.4501 249.327 11.032 262.022L10.5557 261.394C30.8434 255.174 58.2099 250.127 89.6949 246.796C121.238 243.458 157.314 241.802 194.017 242.007C214.407 242.121 237.681 243.623 265.165 246.601C274.735 247.638 284.643 248.785 294.224 249.894C333.268 254.416 373.642 259.091 413.159 259.154C413.334 259.154 413.514 259.154 413.69 259.154C470.215 259.154 513.278 244.919 547.903 233.473L548.412 233.305C557.481 230.326 564.974 227.888 571.994 225.63C606.67 214.516 635.792 205.57 668.519 199.988C709.937 192.922 754.612 188.293 797.72 186.6C836.126 185.092 872.352 186.241 908.476 190.116C947.402 194.292 984.992 201.486 1023.39 212.113C1076.82 226.902 1130.33 248.789 1182.43 277.171C1185.48 278.834 1188.52 280.499 1191.56 282.165C1215.87 295.463 1241.01 309.216 1266.54 321.983C1337.4 357.427 1399.99 381.056 1463.52 396.352C1487.48 402.132 1512.61 407.265 1538.2 411.613C1569.97 416.951 1601 420.947 1630.43 423.487C1683.15 428.041 1734.75 431.2 1786.53 419.998C1814.62 413.918 1837.9 403.867 1857.67 389.269C1893.39 362.9 1912.91 326.361 1930.13 294.12C1938.19 279.027 1945.8 264.769 1954.39 252.788C1957.7 248.178 1961.01 243.409 1964.22 238.797C1974.24 224.376 1984.61 209.466 1997.32 195.408C2011.95 179.105 2028.49 165.317 2046.46 154.427C2066.96 142.015 2088.79 133.753 2111.37 129.874C2125.37 127.468 2139.66 126.296 2155.01 126.296C2155.34 126.296 2155.68 126.296 2156.01 126.299C2203.74 126.457 2252.86 140.222 2290.32 152.196C2330.22 164.954 2369.33 182.715 2403.41 203.561C2441.37 226.718 2475.7 254.686 2505.42 286.689C2532.09 315.408 2554.74 346.964 2572.72 380.486L2571.68 380.712C2544.92 330.834 2493.86 259.701 2402.65 204.065C2368.65 183.266 2329.63 165.547 2289.82 152.819C2252.47 140.878 2203.51 127.152 2156.01 126.996C2140.37 126.938 2125.87 128.106 2111.66 130.548C2069.83 137.738 2029.56 160.895 1998.27 195.755C1985.59 209.78 1975.24 224.674 1965.22 239.078C1962.02 243.693 1958.7 248.464 1955.39 253.076C1946.83 265.027 1939.22 279.267 1931.17 294.344C1913.92 326.642 1894.37 363.251 1858.51 389.723C1838.6 404.419 1815.17 414.537 1786.88 420.656C1762.91 425.841 1737 428.364 1707.7 428.364Z" fill="#1960EA"/>
<path d="M1737.03 431.639C1731.34 431.639 1725.53 431.523 1719.58 431.29C1693.53 430.274 1668.22 427.224 1642.43 423.921C1612.53 420.093 1582.33 414.971 1550.11 408.263C1524.61 402.908 1499.61 396.81 1475.8 390.132C1415.39 373.217 1355.41 348.318 1281.32 309.399C1262.92 299.735 1244.53 289.598 1226.74 279.794C1217.05 274.458 1207.04 268.939 1197.12 263.55C1144.49 235.024 1089.28 214.304 1033.05 201.962C958.746 185.655 882.381 182.668 799.581 192.833C755.837 198.203 711.275 206.626 670.718 217.188C638.137 225.673 609.756 237.589 579.707 250.205L577.63 251.078C572.936 253.055 568.191 255.06 563.387 257.088C560.621 258.258 557.836 259.435 555.026 260.621C537.505 268.057 518.58 275.814 496.878 281.785C471.681 288.717 446.758 292.127 420.677 292.21C377.259 292.345 332.972 285.939 290.147 279.738C284.035 278.852 277.711 277.938 271.574 277.071C242.8 273 220.116 270.658 200.177 269.695C126.596 266.143 57.1551 268.646 9.65473 276.563L9.35059 275.833C56.9756 267.895 126.559 265.382 200.268 268.941C220.263 269.906 243.005 272.256 271.834 276.333C277.975 277.203 284.299 278.117 290.414 279.003C332.715 285.128 376.442 291.457 419.285 291.457C419.747 291.457 420.208 291.457 420.674 291.454C476.088 291.278 515.535 276.47 554.37 259.993C557.181 258.807 559.965 257.63 562.732 256.46C567.535 254.429 572.276 252.427 576.974 250.447L579.051 249.575C609.151 236.938 637.58 225.001 670.267 216.488C710.897 205.905 755.536 197.468 799.358 192.088C882.366 181.898 958.937 184.894 1033.44 201.246C1089.82 213.62 1145.15 234.386 1197.9 262.975C1207.82 268.367 1217.83 273.884 1227.52 279.222C1245.3 289.024 1263.69 299.158 1282.08 308.816C1356.08 347.69 1415.98 372.554 1476.28 389.441C1500.06 396.107 1525.02 402.199 1550.48 407.544C1582.65 414.243 1612.81 419.358 1642.67 423.179C1687.99 428.983 1744.4 436.207 1800.57 425.08C1829.45 419.36 1852.88 409.247 1872.19 394.16C1907.57 366.528 1923.97 327.663 1938.45 293.376C1944.74 278.48 1950.68 264.41 1957.61 252.734C1960.31 248.184 1963.02 243.479 1965.63 238.927C1974.41 223.661 1983.49 207.877 1995.15 192.865C2008.3 175.804 2023.61 161.13 2040.64 149.249C2059.94 135.786 2081.03 126.279 2103.3 120.992C2117.6 117.599 2132.25 115.508 2148.1 114.598C2169.32 113.38 2191.91 114.682 2217.16 118.571C2238.52 121.865 2261.42 126.977 2287.17 134.204C2328.7 145.86 2369.11 162.972 2404.04 183.689C2443.02 206.737 2477.61 234.982 2506.85 267.634C2533.18 297.037 2554.64 329.317 2570.61 363.581L2569.47 363.795C2535.74 291.457 2476.7 227.69 2403.23 184.243C2368.39 163.581 2328.09 146.518 2286.68 134.897C2231.2 119.327 2187.21 113.114 2148.21 115.352C2132.46 116.254 2117.92 118.332 2103.72 121.7C2050.72 134.276 2016 167.524 1996.22 193.198C1984.59 208.173 1975.52 223.938 1966.75 239.185C1964.13 243.739 1961.42 248.447 1958.72 252.999C1951.81 264.64 1945.88 278.694 1939.6 293.571C1925.1 327.933 1908.66 366.879 1873.11 394.637C1853.65 409.842 1830.03 420.037 1800.92 425.803C1781.19 429.711 1760.15 431.639 1737.03 431.639Z" fill="#1960EA"/>
<path d="M1762.43 435.393C1723.68 435.393 1686.43 429.074 1654.56 423.668C1624.58 418.584 1594.4 412.229 1562.28 404.244C1536.93 397.894 1512.09 390.837 1488.46 383.266C1417.62 360.597 1354.46 328.059 1296.77 296.272C1284.99 289.782 1273.09 283.093 1261.58 276.624C1245.61 267.641 1229.08 258.354 1212.53 249.403C1159.11 220.596 1102.12 201.004 1043.16 191.172C966.884 178.456 887.796 180.808 801.376 198.364C756.88 207.403 712.363 219.626 672.634 233.712C641.991 244.575 616.065 258.289 588.618 272.807C586.672 273.835 584.723 274.868 582.762 275.901L581.7 276.464C575.028 279.997 568.128 283.649 561.134 287.314C544.374 296.137 525.919 305.262 504.572 312.233C479.792 320.325 454.811 324.36 428.192 324.57C381.468 324.94 333.847 316.601 287.798 308.537C284.57 307.971 281.356 307.409 278.158 306.853C247.79 301.563 225.637 298.428 206.335 296.683C134.601 290.203 62.4053 288.166 8.25833 291.094L8.14844 290.282C62.3833 287.347 134.685 289.387 206.515 295.876C225.872 297.626 248.072 300.768 278.495 306.066C281.693 306.622 284.907 307.185 288.138 307.753C334.1 315.801 381.63 324.118 428.174 323.756C485.981 323.3 526.692 304.382 560.313 286.686C567.308 283.021 574.207 279.369 580.879 275.838L581.942 275.275C583.902 274.24 585.851 273.21 587.797 272.182C615.292 257.637 641.262 243.9 672.007 233C711.809 218.889 756.411 206.645 800.984 197.59C841.955 189.267 880.439 184.462 918.629 182.899C961.23 181.157 1003.23 183.676 1043.48 190.386C1102.63 200.248 1159.78 219.896 1213.36 248.782C1229.92 257.737 1246.45 267.027 1262.43 276.013C1273.93 282.481 1285.83 289.168 1297.6 295.655C1355.24 327.407 1418.32 359.911 1489.03 382.538C1512.63 390.097 1537.43 397.145 1562.75 403.486C1594.81 411.459 1624.95 417.804 1654.89 422.882C1700.86 430.679 1758.07 440.383 1814.6 430.172C1844.26 424.812 1867.84 414.636 1886.69 399.062C1921.71 370.129 1934.81 328.873 1946.37 292.471C1951.01 277.845 1955.4 264.031 1960.81 252.688C1962.81 248.491 1964.82 244.156 1966.76 239.962C1974.36 223.559 1982.22 206.596 1992.96 190.33C2004.66 172.497 2018.73 156.932 2034.79 144.071C2052.91 129.559 2073.24 118.809 2095.21 112.117C2109.48 107.772 2124.18 104.76 2140.16 102.906C2161.69 100.41 2185.58 100.494 2211.17 103.155C2233.57 105.486 2258.07 109.879 2283.99 116.218C2327.14 126.771 2368.86 143.232 2404.66 163.821C2444.65 186.762 2479.51 215.279 2508.27 248.582C2534.25 278.669 2554.52 311.674 2568.49 346.68L2567.24 346.88C2537.64 272.705 2479.6 207.908 2403.8 164.426C2368.12 143.904 2326.53 127.496 2283.53 116.978C2227.79 103.346 2180.97 99.003 2140.39 103.708C2124.53 105.548 2109.93 108.54 2095.77 112.852C2043.49 128.773 2011.65 163.942 1994.15 190.644C1983.43 206.868 1975.58 223.808 1967.99 240.19C1966.05 244.384 1964.04 248.722 1962.04 252.922C1956.65 264.229 1952.26 278.024 1947.63 292.632C1942.06 310.144 1935.76 329.992 1926.61 348.599C1916.13 369.919 1903.4 386.587 1887.71 399.557C1878.64 407.056 1868.21 413.438 1856.71 418.528C1844.35 424.001 1830.3 428.183 1814.95 430.955C1797.38 434.13 1779.75 435.393 1762.43 435.393Z" fill="#1960EA"/>
<path d="M1785.33 439.512C1772.52 439.512 1759.1 438.721 1744.92 437.142C1717 434.032 1690.28 428.389 1666.7 423.414C1636.98 417.141 1605.94 409.337 1574.46 400.222C1549.27 392.886 1524.6 384.87 1501.12 376.394C1433.75 352.095 1375.71 319.785 1312.21 283.141C1306.57 279.885 1300.84 276.563 1295.3 273.349C1273.48 260.698 1250.92 247.616 1227.94 235.256C1173.63 206.112 1114.86 187.65 1053.27 180.384C975.575 171.217 891.427 179.126 803.172 203.893C757.884 216.602 713.407 232.623 674.55 250.229C645.293 263.484 621.209 279.113 595.711 295.66C593.121 297.341 590.519 299.028 587.903 300.721C581.392 304.94 574.379 309.469 567.245 314.002C552.285 323.541 534.053 334.41 512.27 342.675C487.886 351.927 462.843 356.591 435.714 356.928C386.052 357.549 335.5 347.11 286.61 337.016L284.749 336.632C260.812 331.691 235.49 326.7 212.502 323.669C142.431 314.433 69.4035 308.02 6.87695 305.612L6.96122 304.743C69.5537 307.152 142.647 313.57 212.78 322.815C235.834 325.855 261.2 330.854 285.174 335.801L287.035 336.185C335.818 346.257 386.268 356.67 435.689 356.054C492.763 355.342 532.181 335.125 566.274 313.381C573.408 308.85 580.414 304.322 586.925 300.105C589.541 298.414 592.142 296.725 594.733 295.046C620.275 278.471 644.402 262.814 673.755 249.514C712.685 231.874 757.247 215.823 802.618 203.09C844.026 191.472 884.773 183.466 923.722 179.298C968.225 174.536 1011.9 174.611 1053.52 179.521C1115.35 186.815 1174.33 205.342 1228.83 234.586C1251.83 246.958 1274.4 260.044 1296.23 272.702C1301.77 275.914 1307.5 279.236 1313.15 282.492C1376.58 319.101 1434.56 351.376 1501.81 375.634C1525.25 384.096 1549.89 392.099 1575.04 399.426C1606.48 408.528 1637.46 416.32 1667.14 422.584C1713.66 432.404 1771.56 444.622 1828.65 435.26C1859.1 430.266 1882.84 420.03 1901.22 403.962C1935.85 373.689 1945.87 328.061 1953.92 291.396C1957.06 277.115 1960.02 263.626 1964.03 252.648C1965.3 249.186 1966.58 245.621 1967.81 242.171C1974.22 224.252 1980.86 205.721 1990.81 187.801C2006.17 159.915 2035.35 122.611 2087.14 103.252C2101.45 97.907 2116.2 93.9714 2132.25 91.2221C2174.24 83.9255 2224.23 86.2864 2280.84 98.2349C2325.61 107.685 2368.64 123.495 2405.3 143.957C2446.3 166.789 2481.43 195.58 2509.71 229.537C2522.69 245.111 2534.15 261.747 2543.8 278.98C2553.01 295.441 2560.61 312.535 2566.38 329.786L2565.04 329.968C2539.59 253.95 2482.53 188.122 2404.39 144.61C2367.87 124.225 2325 108.476 2280.4 99.0607C2224.06 87.1656 2174.33 84.8117 2132.61 92.0618C2116.68 94.7902 2102.03 98.6955 2087.84 104.001C2036.41 123.225 2007.39 160.339 1992.1 188.088C1982.18 205.96 1975.56 224.466 1969.15 242.362C1967.91 245.811 1966.64 249.38 1965.37 252.843C1961.37 263.784 1958.41 277.254 1955.28 291.515C1951.23 309.964 1946.64 330.875 1938.79 350.611C1929.77 373.289 1917.84 390.909 1902.33 404.474C1893.48 412.212 1883.12 418.739 1871.56 423.87C1859.1 429.399 1844.78 433.516 1828.99 436.102C1815.14 438.377 1800.67 439.512 1785.33 439.512Z" fill="#1960EA"/>
<path d="M1806.44 443.863C1791.08 443.863 1774.89 442.6 1757.6 440.067C1729.58 435.966 1702.62 429.16 1678.83 423.154C1648.88 415.595 1617.87 406.526 1586.64 396.196C1561.62 387.881 1537.1 378.907 1513.79 369.522C1449.62 343.715 1394.59 310.454 1336.32 275.243C1333.44 273.501 1330.56 271.756 1327.67 270.012C1300.57 253.655 1272.55 236.741 1243.35 221.11C1188.09 191.596 1127.54 174.263 1063.39 169.592C982.8 163.724 895.857 177.124 804.967 209.415C759.504 225.567 713.868 245.926 676.466 266.741C648.224 282.458 625.573 300.142 601.592 318.867C598.752 321.083 595.905 323.307 593.036 325.535C587.306 329.994 580.487 335.281 573.349 340.689C560.129 350.73 542.117 363.491 519.964 373.09C495.969 383.489 470.87 388.79 443.232 389.29C420.516 389.651 395.446 387.425 366.588 382.482C341.812 378.24 317.846 372.694 291.326 366.414C267.118 360.611 241.568 354.617 218.646 350.658C150.748 338.931 79.0286 328.661 5.48438 320.13L5.74817 319.215C79.3364 327.75 151.096 338.028 219.031 349.76C242.015 353.731 267.601 359.734 291.839 365.542C336.291 376.072 391.614 389.181 443.192 388.36C502.161 387.29 540.058 364.528 572.224 340.089C579.358 334.686 586.173 329.401 591.9 324.944C594.769 322.716 597.616 320.492 600.452 318.278C624.473 299.524 647.165 281.809 675.499 266.041C712.978 245.184 758.701 224.785 804.252 208.603C895.417 176.214 982.661 162.779 1063.56 168.669C1094.57 170.927 1125.04 176.172 1154.1 184.257C1185.29 192.931 1215.63 205.094 1244.29 220.401C1273.53 236.048 1301.57 252.972 1328.68 269.339C1331.57 271.086 1334.45 272.828 1337.34 274.571C1395.55 309.751 1450.53 342.98 1514.57 368.738C1537.86 378.109 1562.33 387.071 1587.32 395.373C1618.5 405.686 1649.47 414.744 1679.37 422.291C1726.37 434.154 1784.86 448.917 1842.69 440.355C1874.02 435.717 1897.91 425.417 1915.73 408.87C1950.05 377.265 1956.16 328.985 1961.07 290.192C1962.83 276.317 1964.49 263.213 1967.24 252.616C1967.81 250.429 1968.38 248.231 1968.95 246.022C1974.08 226.062 1979.4 205.421 1988.63 185.278C2001.82 156.306 2028.2 117.02 2079.06 94.3931C2093.25 88.0804 2108.05 83.2237 2124.32 79.544C2146.93 74.3827 2172.13 71.9567 2199.21 72.3288C2223.93 72.6684 2250.33 75.3363 2277.67 80.2558C2324.05 88.5991 2368.4 103.758 2405.92 124.091C2447.93 146.811 2483.33 175.882 2511.14 210.49C2523.9 226.369 2534.94 243.347 2543.97 260.95C2552.62 277.808 2559.45 295.286 2564.26 312.896L2562.82 313.054C2541.84 236.318 2484.3 167.701 2404.97 124.798C2367.61 104.553 2323.45 89.4574 2277.27 81.1466C2220.32 70.8984 2167.61 70.6471 2124.81 80.4163C2108.66 84.0681 2093.97 88.8875 2079.9 95.1514C2029.39 117.623 2003.15 156.706 1990.04 185.534C1980.83 205.624 1975.52 226.234 1970.39 246.168C1969.82 248.378 1969.25 250.578 1968.69 252.765C1965.94 263.322 1964.29 276.41 1962.53 290.264C1957.6 329.168 1951.47 377.588 1916.93 409.396C1908.34 417.372 1898.07 424.047 1886.41 429.232C1873.86 434.81 1859.26 438.857 1843.02 441.262C1831.3 442.993 1819.16 443.863 1806.44 443.863Z" fill="#1960EA"/>
<path d="M1826.27 448.392C1808.77 448.392 1790.24 446.596 1770.27 442.991C1742.01 437.89 1714.88 429.923 1690.95 422.896C1660.71 414.016 1629.71 403.677 1598.81 392.173C1573.97 382.892 1549.62 372.958 1526.44 362.651C1469.36 337.279 1420.59 306.197 1368.94 273.289C1360.5 267.909 1351.77 262.348 1343.11 256.879C1312.66 237.667 1286.66 221.825 1258.75 206.964C1202.51 177.059 1140.18 160.854 1073.5 158.797C989.711 156.213 899.961 175.1 806.748 214.933C760.442 234.722 714.847 258.982 678.365 283.247C650.881 301.527 629.395 321.425 606.649 342.492C603.831 345.102 601.002 347.721 598.155 350.342C593.084 355.02 586.372 361.183 579.443 367.364C550.285 393.433 512.19 420.273 450.741 421.645C448.825 421.685 446.901 421.703 444.981 421.703C396.997 421.703 348.009 409.648 297.892 396.187L294.763 395.341C269.94 388.614 246.49 382.262 224.784 377.637C142.985 360.211 63.875 345.502 4.09277 334.635L4.52148 333.683C64.3183 344.555 143.45 359.267 225.279 376.7C247.043 381.336 270.519 387.697 295.375 394.431L298.501 395.278C350.453 409.231 401.189 421.678 450.686 420.659C511.454 419.3 549.23 392.668 578.172 366.794C585.097 360.618 591.802 354.459 596.873 349.784C599.72 347.16 602.545 344.543 605.363 341.934C628.145 320.835 649.664 300.903 677.236 282.565C713.792 258.25 759.479 233.941 805.876 214.112C848.939 195.709 892.017 181.578 933.912 172.109C981.98 161.244 1028.97 156.434 1073.57 157.809C1140.6 159.874 1203.24 176.159 1259.75 206.203C1287.7 221.087 1313.72 236.946 1344.2 256.175C1352.86 261.643 1361.59 267.207 1370.04 272.587C1421.63 305.462 1470.37 336.514 1527.33 361.835C1550.48 372.13 1574.79 382.048 1599.6 391.314C1630.45 402.805 1661.4 413.127 1691.6 421.994C1739.01 435.915 1798.01 453.239 1856.73 445.44C1888.82 441.176 1912.87 430.816 1930.23 413.769C1964.11 380.724 1966.15 329.727 1967.79 288.75C1968.32 275.38 1968.83 262.75 1970.45 252.574L1970.48 252.342C1974.11 229.554 1977.85 205.992 1986.45 182.743C1993.89 162.466 2004.25 144.235 2017.25 128.553C2031.91 110.873 2049.98 96.3961 2070.96 85.5221C2085 78.2464 2099.86 72.4663 2116.37 67.8539C2160.99 55.3192 2215.66 53.384 2274.49 62.2623C2298.16 65.835 2321.51 71.2475 2343.9 78.3464C2366.41 85.4872 2387.49 94.1934 2406.54 104.218C2449.57 126.829 2485.24 156.174 2512.56 191.438C2537.12 223.134 2554.26 259.292 2562.14 295.998L2560.6 296.13C2543.74 217.568 2487.23 147.896 2405.54 104.979C2367.35 84.8778 2321.9 70.4381 2274.13 63.2299C2215.64 54.4028 2161.31 56.3171 2117.01 68.7657C2100.62 73.3432 2085.89 79.0768 2071.95 86.2943C2032.77 106.598 2003.73 140.029 1987.97 182.974C1979.4 206.161 1975.66 229.691 1972.04 252.446L1972 252.679C1970.39 262.818 1969.88 275.429 1969.35 288.78C1967.7 329.883 1965.66 381.033 1931.53 414.311C1923.16 422.531 1912.96 429.351 1901.23 434.58C1888.58 440.218 1873.72 444.198 1857.04 446.414C1847.11 447.731 1836.88 448.392 1826.27 448.392Z" fill="#1960EA"/>
<path d="M451.88 454.087C430.423 454.087 407.058 451.433 380.688 446.014C354.486 440.629 328.574 433.195 304.473 425.966C300.109 424.649 295.778 423.335 291.476 422.03C270.064 415.534 249.838 409.398 230.936 404.618C155.563 385.566 83.7188 368.442 14.238 351.886L2.72559 349.141L3.30449 348.162L14.8169 350.906C84.3014 367.467 156.157 384.591 231.544 403.648C250.498 408.44 270.749 414.583 292.187 421.088C296.485 422.393 300.816 423.707 305.176 425.022C354.651 439.861 407.215 454.243 458.197 452.961C520.866 451.305 558.422 420.314 584.136 393.502C590.724 386.645 597.07 379.811 601.863 374.624C604.508 371.766 607.135 368.91 609.755 366.06C631.483 342.44 652.005 320.129 678.994 299.093C714.62 271.33 760.262 243.106 807.521 219.626C851.365 197.841 895.608 180.628 939.026 168.468C988.828 154.519 1037.47 147.281 1083.6 146.953C1153.02 146.297 1217.5 161.458 1275.21 192.009C1307.21 208.966 1335.89 227.308 1359.74 243.016C1372.71 251.564 1385.69 260.326 1398.24 268.799C1442.66 298.797 1488.59 329.814 1540.1 354.937C1563.11 366.163 1587.27 377.039 1611.88 387.262C1642.35 399.885 1673.29 411.473 1703.85 421.702C1751.61 437.691 1811.05 457.59 1870.77 450.528C1903.64 446.642 1927.84 436.221 1944.74 418.672C1978.18 384.128 1975.92 330.338 1974.1 287.116C1973.57 274.335 1973.06 262.261 1973.67 252.541C1975.04 230.628 1977.11 205.16 1984.28 180.217C1990.33 159.08 1999.45 139.958 2011.4 123.384C2024.92 104.634 2042.25 88.9148 2062.89 76.6615C2076.57 68.5415 2091.9 61.6496 2108.45 56.1743C2132.06 48.3357 2158.57 43.407 2187.22 41.5276C2214.06 39.7668 2242.35 40.6926 2271.32 44.2769C2295.74 47.3007 2319.82 52.2736 2342.88 59.0608C2366.08 65.8899 2387.71 74.3983 2407.17 84.3489C2429.6 95.8067 2450.22 109.337 2468.47 124.565C2485.75 138.993 2501.07 155.084 2514 172.39C2538.19 204.765 2554.11 241.669 2560.03 279.106L2558.39 279.21C2545.67 198.817 2490.18 128.091 2406.13 85.1653C2367.64 65.4829 2319.66 51.3269 2271 45.305C2210.84 37.8595 2154.9 41.9393 2109.21 57.1024C2092.79 62.5335 2077.58 69.3719 2064.01 77.4268C2025.12 100.514 1998.83 135.16 1985.9 180.405C1978.75 205.281 1976.68 230.704 1975.31 252.583C1974.71 262.268 1975.21 274.323 1975.75 287.088C1976.64 308.411 1977.66 332.58 1974.26 355.945C1970.31 383.056 1961.12 403.753 1946.15 419.218C1938 427.68 1927.88 434.646 1916.07 439.922C1903.32 445.62 1888.18 449.535 1871.08 451.556C1862.45 452.577 1853.83 453.04 1845.26 453.04C1793.93 453.04 1744.2 436.391 1703.08 422.626C1672.48 412.38 1641.49 400.776 1610.99 388.134C1586.33 377.897 1562.14 367.005 1539.1 355.763C1487.48 330.589 1441.5 299.539 1397.04 269.513C1384.49 261.042 1371.52 252.282 1358.56 243.739C1334.74 228.05 1306.1 209.733 1274.16 192.809C1216.76 162.421 1152.66 147.348 1083.63 147.995C975.223 148.767 874.199 187.818 808.539 220.444C761.376 243.879 715.825 272.042 680.277 299.749C653.368 320.722 632.875 342.998 611.181 366.581C608.561 369.431 605.93 372.287 603.285 375.148C598.488 380.337 592.139 387.175 585.547 394.039C574.753 405.295 557.807 421.679 535.361 433.96C524.46 439.924 512.86 444.611 500.882 447.893C487.527 451.552 473.186 453.608 458.266 454.001C456.152 454.059 454.023 454.087 451.88 454.087Z" fill="#1960EA"/>
<path d="M458.769 486.47C437.287 486.47 413.969 483.611 387.738 477.778C360.58 471.74 333.73 463.25 311.05 455.739C304.081 453.427 297.127 451.083 290.4 448.815C271.596 442.476 253.833 436.487 237.085 431.598C176.94 414.037 117.187 396.892 59.3977 380.31C40.2825 374.825 20.5188 369.155 1.36328 363.647L2.08142 362.639C21.2369 368.147 41.0007 373.818 60.1159 379.303C117.905 395.885 177.665 413.032 237.814 430.595C254.606 435.499 272.391 441.493 291.217 447.84C297.94 450.108 304.895 452.45 311.856 454.762C358.895 470.332 413.456 486.814 465.701 485.263C529.847 483.314 565.876 449.473 590.102 420.21C596.313 412.713 602.318 405.186 606.854 399.467C609.184 396.531 611.5 393.598 613.812 390.672C634.594 364.354 654.223 339.496 680.757 315.624C715.269 284.577 760.875 252.444 809.167 225.144C876.42 187.288 980.364 141.113 1093.63 136.105C1165.67 132.835 1231.97 146.87 1290.69 177.824C1317.07 191.738 1343.15 207.787 1375.28 229.868C1391.52 241.026 1407.63 252.59 1423.21 263.771C1463.74 292.862 1505.65 322.944 1552.88 348.053C1575.75 360.22 1599.74 372.053 1624.17 383.222C1653.76 396.734 1684.68 409.587 1716.09 421.426C1764.34 439.502 1824.38 462.001 1884.82 455.632C1917.95 452.213 1942.99 441.432 1959.25 423.592C1992.22 387.486 1985.15 328.415 1979.98 285.284C1978.53 273.18 1977.16 261.748 1976.89 252.525C1976.29 232.029 1976.34 205.003 1982.12 177.708C1992.09 130.409 2016.55 93.435 2054.81 67.8189C2068.22 58.7941 2083.61 50.9533 2100.52 44.5126C2124.59 35.3389 2151.74 29.1681 2181.23 26.1746C2209.02 23.3555 2238.26 23.3997 2268.14 26.3072C2293.36 28.8146 2318.16 33.3595 2341.85 39.8118C2365.78 46.3292 2387.96 54.633 2407.8 64.4928C2430.73 75.8855 2451.68 89.4622 2470.06 104.849C2487.49 119.43 2502.75 135.749 2515.44 153.357C2539.26 186.414 2553.94 224.062 2557.92 262.231L2556.18 262.304C2547.62 180.076 2493.15 108.293 2406.73 65.365C2367.55 45.8896 2318.23 32.4059 2267.88 27.4004C2205.81 21.3645 2148.25 27.6097 2101.42 45.4616C2084.64 51.8488 2069.39 59.6268 2056.08 68.5795C2018.07 94.0258 1993.77 130.79 1983.85 177.856C1978.09 205.077 1978.04 232.05 1978.63 252.507C1978.91 261.697 1980.27 273.115 1981.72 285.203C1984.39 307.497 1987.42 332.769 1985.69 357.441C1983.67 386.169 1975.52 407.989 1960.76 424.148C1952.82 432.863 1942.78 439.981 1930.91 445.303C1918.05 451.073 1902.64 454.916 1885.11 456.725C1857.92 459.589 1828.66 457.016 1795.65 448.859C1766.96 441.767 1739.47 431.468 1715.21 422.382C1683.76 410.527 1652.79 397.655 1623.16 384.125C1598.69 372.939 1574.67 361.09 1551.76 348.907C1504.44 323.747 1462.48 293.632 1421.9 264.511C1406.33 253.332 1390.23 241.774 1374.01 230.626C1341.93 208.585 1315.89 192.566 1289.57 178.685C1231.21 147.907 1165.33 133.956 1093.75 137.205C980.969 142.195 877.369 188.228 810.317 225.969C762.121 253.214 716.61 285.28 682.172 316.262C655.71 340.066 636.111 364.889 615.362 391.168C613.05 394.096 610.734 397.029 608.404 399.964C603.864 405.689 597.855 413.223 591.637 420.726C567.198 450.25 530.807 484.393 465.778 486.368C463.466 486.435 461.125 486.47 458.769 486.47Z" fill="#1960EA"/>
<path d="M465.796 518.854C407.099 518.854 345.51 495.969 290.912 475.679C274.135 469.446 258.288 463.556 243.229 458.576L0 378.151L0.846411 377.121L244.075 457.546C259.175 462.538 275.04 468.434 291.839 474.677C348.548 495.75 412.825 519.636 473.205 517.566C538.765 515.321 573.302 478.631 596.067 446.921C603.512 436.549 610.701 425.996 617.655 415.79C636.675 387.878 656.34 359.015 682.512 332.152C703.294 310.823 729.111 288.454 757.17 267.467C787.952 244.442 820.91 223.317 855.121 204.682C892.842 184.136 931.197 167.14 969.116 154.168C1011.06 139.822 1052.38 130.455 1091.93 126.326C1171.18 118.057 1243.25 130.606 1306.14 163.628C1358.41 191.068 1402.83 224.999 1445.79 257.814C1483.19 286.377 1521.85 315.91 1565.64 341.156C1616.21 370.315 1670.95 397.224 1728.33 421.133C1776.68 441.278 1836.85 466.352 1898.86 460.716C1951.24 455.957 1981.52 433.712 1991.43 392.705C1999.87 357.824 1991.84 316.447 1985.4 283.202C1983.2 271.872 1981.13 261.17 1980.11 252.492C1974.49 204.651 1978.07 165.159 1991.06 131.76C1999.16 110.921 2011.12 92.346 2026.6 76.5503C2043.89 58.9054 2066.09 44.1959 2092.59 32.8311C2115.5 22.9992 2141.33 15.8584 2169.36 11.6065C2196.04 7.55932 2224.12 6.20327 2252.84 7.5756C2309.32 10.2737 2364.57 23.4295 2408.41 44.6169C2431.84 55.9421 2453.12 69.5677 2471.65 85.1122C2489.21 99.845 2504.42 116.394 2516.86 134.304C2540.3 168.043 2553.76 206.438 2555.79 245.335L2553.96 245.375C2549.64 162.542 2494.81 87.8382 2407.3 45.5449C2314.36 0.630215 2182.43 -4.31249 2093.6 33.7964C2005.61 71.5471 1969.08 143.055 1981.93 252.406C1982.94 261.056 1985.02 271.744 1987.21 283.06C1993.67 316.378 2001.71 357.843 1993.24 392.881C1988.62 411.966 1979.35 427.304 1965.67 438.471C1957.97 444.748 1948.7 449.88 1938.1 453.717C1926.82 457.802 1913.7 460.544 1899.12 461.87C1893.16 462.412 1887.09 462.684 1880.93 462.684C1858.45 462.684 1834.52 459.077 1808.29 451.768C1778.74 443.534 1750.23 431.653 1727.32 422.107C1669.86 398.164 1615.05 371.22 1564.4 342.019C1520.51 316.72 1481.81 287.152 1444.37 258.558C1401.47 225.785 1357.1 191.896 1304.96 164.526C1242.49 131.73 1170.92 119.262 1092.22 127.475C933.032 144.087 769.053 245.537 684.058 332.766C657.956 359.555 638.317 388.378 619.322 416.253C612.364 426.464 605.172 437.024 597.719 447.405C582.605 468.457 567.678 483.532 550.743 494.841C540.172 501.898 528.704 507.462 516.657 511.376C503.261 515.728 488.671 518.203 473.289 518.731C470.805 518.812 468.302 518.854 465.796 518.854Z" fill="#1960EA"/>
</g>
</svg>
