<svg width="472" height="485" viewBox="0 0 472 485" fill="none" xmlns="http://www.w3.org/2000/svg">
<path d="M236 60.625C259.244 60.625 282.26 65.3293 303.735 74.4694C325.21 83.6095 344.722 97.0063 361.158 113.895C377.594 130.784 390.632 150.833 399.527 172.899C408.422 194.966 413 218.616 413 242.5C413 266.384 408.422 290.034 399.527 312.101C390.632 334.167 377.594 354.216 361.158 371.105C344.722 387.994 325.21 401.391 303.735 410.531C282.26 419.671 259.244 424.375 236 424.375C189.057 424.375 144.036 405.213 110.842 371.105C77.6482 336.997 59 290.736 59 242.5C59 194.264 77.6482 148.003 110.842 113.895C144.036 79.7868 189.057 60.625 236 60.625V60.625ZM236 90.9375C196.881 90.9375 159.363 106.906 131.702 135.329C104.04 163.753 88.5 202.303 88.5 242.5C88.5 282.697 104.04 321.247 131.702 349.671C159.363 378.094 196.881 394.063 236 394.063C275.119 394.063 312.637 378.094 340.298 349.671C367.96 321.247 383.5 282.697 383.5 242.5C383.5 202.303 367.96 163.753 340.298 135.329C312.637 106.906 275.119 90.9375 236 90.9375V90.9375ZM236 318.281C241.868 318.281 247.495 320.676 251.645 324.94C255.794 329.204 258.125 334.986 258.125 341.016C258.125 347.045 255.794 352.828 251.645 357.091C247.495 361.355 241.868 363.75 236 363.75C230.132 363.75 224.505 361.355 220.355 357.091C216.206 352.828 213.875 347.045 213.875 341.016C213.875 334.986 216.206 329.204 220.355 324.94C224.505 320.676 230.132 318.281 236 318.281ZM236 136.406C251.648 136.406 266.655 142.794 277.719 154.163C288.784 165.532 295 180.953 295 197.031C295 219.159 288.746 231.588 272.757 248.805L264.969 256.989C253.848 268.872 250.75 275.298 250.75 287.969C250.75 291.988 249.196 295.844 246.43 298.686C243.664 301.528 239.912 303.125 236 303.125C232.088 303.125 228.336 301.528 225.57 298.686C222.804 295.844 221.25 291.988 221.25 287.969C221.25 265.841 227.504 253.413 243.493 236.195L251.281 228.011C262.403 216.128 265.5 209.702 265.5 197.031C265.5 188.992 262.392 181.282 256.86 175.597C251.327 169.912 243.824 166.719 236 166.719C228.176 166.719 220.673 169.912 215.14 175.597C209.608 181.282 206.5 188.992 206.5 197.031C206.5 201.051 204.946 204.906 202.18 207.748C199.414 210.591 195.662 212.188 191.75 212.188C187.838 212.188 184.086 210.591 181.32 207.748C178.554 204.906 177 201.051 177 197.031C177 180.953 183.216 165.532 194.281 154.163C205.345 142.794 220.352 136.406 236 136.406V136.406Z" fill="#BDDDFF" fill-opacity="0.15"/>
<g clip-path="url(#clip0_1191_863)">
<path d="M54.5045 104.209C57.2808 102.727 60.3081 101.815 63.4137 101.526C66.5192 101.238 69.6421 101.577 72.6041 102.525C75.5661 103.472 78.3091 105.011 80.6766 107.051C83.0441 109.091 84.9897 111.594 86.4022 114.417C87.8148 117.239 88.6667 120.326 88.9093 123.5C89.1519 126.675 88.7804 129.875 87.8161 132.919C86.8518 135.963 85.3135 138.79 83.2891 141.239C81.2647 143.688 78.7938 145.711 76.0175 147.193C70.4105 150.186 63.8999 150.792 57.9179 148.877C51.9359 146.963 46.9726 142.685 44.1198 136.985C41.267 131.285 40.7584 124.629 42.7059 118.483C44.6534 112.336 48.8975 107.201 54.5045 104.209V104.209ZM56.2972 107.791C51.6247 110.285 48.088 114.563 46.4651 119.686C44.8422 124.808 45.266 130.354 47.6433 135.104C50.0207 139.854 54.1568 143.419 59.1417 145.014C64.1267 146.61 69.5523 146.105 74.2248 143.611C78.8973 141.117 82.434 136.838 84.0569 131.716C85.6798 126.594 85.256 121.047 82.8787 116.297C80.5013 111.547 76.3652 107.983 71.3803 106.387C66.3953 104.792 60.9697 105.297 56.2972 107.791V107.791ZM69.7429 134.656C70.4438 134.282 71.2576 134.206 72.0053 134.445C72.7531 134.685 73.3735 135.219 73.7301 135.932C74.0867 136.644 74.1503 137.476 73.9068 138.245C73.6634 139.013 73.1329 139.655 72.432 140.029C71.7311 140.403 70.9173 140.479 70.1696 140.239C69.4218 140 68.8014 139.465 68.4448 138.753C68.0882 138.04 68.0246 137.209 68.2681 136.44C68.5115 135.672 69.042 135.03 69.7429 134.656ZM58.9864 113.164C60.8554 112.166 63.0256 111.964 65.0196 112.602C67.0136 113.241 68.668 114.666 69.6189 116.566C70.9277 119.181 70.9157 121.049 70.0242 124.103L69.578 125.566C68.9524 127.679 68.9625 128.636 69.7119 130.134C69.9496 130.609 69.992 131.163 69.8297 131.675C69.6674 132.188 69.3138 132.616 68.8465 132.865C68.3793 133.114 67.8367 133.165 67.3382 133.005C66.8397 132.846 66.4261 132.489 66.1884 132.014C64.8796 129.399 64.8916 127.532 65.7831 124.478L66.2293 123.014C66.8549 120.901 66.8448 119.944 66.0954 118.447C65.6199 117.497 64.7927 116.784 63.7957 116.465C62.7987 116.146 61.7136 116.247 60.7791 116.746C59.8446 117.245 59.1373 118.1 58.8127 119.125C58.4881 120.149 58.5729 121.259 59.0483 122.209C59.2861 122.684 59.3285 123.238 59.1662 123.75C59.0039 124.263 58.6502 124.69 58.1829 124.94C57.7157 125.189 57.1731 125.24 56.6746 125.08C56.1761 124.921 55.7625 124.564 55.5248 124.089C54.5739 122.189 54.4043 119.971 55.0535 117.922C55.7027 115.873 57.1174 114.161 58.9864 113.164V113.164Z" fill="#BDDDFF" fill-opacity="0.15"/>
</g>
<path d="M33.3533 172.504C33.0921 170.112 33.2947 167.687 33.9494 165.369C34.604 163.051 35.698 160.885 37.1688 158.994C38.6396 157.103 40.4584 155.525 42.5214 154.349C44.5845 153.174 46.8513 152.424 49.1924 152.142C51.5336 151.861 53.9033 152.054 56.1661 152.709C58.429 153.365 60.5408 154.471 62.3809 155.964C64.221 157.457 65.7534 159.307 66.8906 161.41C68.0278 163.513 68.7475 165.827 69.0086 168.219C69.536 173.051 68.1635 177.911 65.1931 181.73C62.2227 185.548 57.8976 188.013 53.1695 188.581C48.4413 189.149 43.6972 187.775 39.981 184.76C36.2647 181.745 33.8807 177.337 33.3533 172.504V172.504ZM36.3246 172.147C36.764 176.174 38.7508 179.848 41.8476 182.36C44.9445 184.873 48.8979 186.018 52.838 185.545C56.7782 185.071 60.3824 183.017 62.8577 179.835C65.3331 176.653 66.4768 172.603 66.0373 168.576C65.5978 164.55 63.6111 160.876 60.5143 158.363C57.4174 155.851 53.464 154.705 49.5238 155.179C45.5837 155.653 41.9795 157.706 39.5041 160.889C37.0288 164.071 35.8851 168.121 36.3246 172.147V172.147ZM58.6091 169.469C58.5432 168.865 58.7148 168.258 59.0861 167.78C59.4574 167.303 59.998 166.995 60.589 166.924C61.1801 166.853 61.7731 167.025 62.2376 167.401C62.7021 167.778 63.0001 168.329 63.0661 168.933C63.132 169.537 62.9604 170.145 62.5891 170.622C62.2178 171.099 61.6772 171.408 61.0862 171.479C60.4951 171.55 59.9021 171.378 59.4376 171.001C58.9731 170.624 58.6751 170.073 58.6091 169.469ZM40.7815 171.612C40.6057 170.001 41.0632 168.381 42.0533 167.108C43.0434 165.835 44.4851 165.014 46.0612 164.824C48.2302 164.564 49.5187 165.061 51.386 166.504L52.2758 167.209C53.5654 168.214 54.2302 168.457 55.4721 168.308C55.8662 168.26 56.2615 168.375 56.5712 168.626C56.8809 168.878 57.0795 169.245 57.1235 169.648C57.1674 170.05 57.0531 170.455 56.8055 170.773C56.558 171.092 56.1976 171.297 55.8036 171.344C53.6345 171.605 52.3461 171.108 50.4787 169.665L49.589 168.96C48.2993 167.955 47.6346 167.712 46.3926 167.861C45.6046 167.956 44.8837 168.366 44.3887 169.003C43.8936 169.639 43.6649 170.449 43.7528 171.255C43.8406 172.06 44.238 172.795 44.8574 173.297C45.4767 173.8 46.2674 174.029 47.0554 173.934C47.4495 173.887 47.8448 174.001 48.1545 174.252C48.4642 174.504 48.6628 174.871 48.7068 175.274C48.7507 175.676 48.6364 176.081 48.3888 176.4C48.1413 176.718 47.7809 176.923 47.3869 176.971C45.8108 177.16 44.2295 176.702 42.9907 175.697C41.752 174.692 40.9573 173.222 40.7815 171.612V171.612Z" fill="#BDDDFF" fill-opacity="0.15"/>
<defs>
<clipPath id="clip0_1191_863">
<rect width="63.9016" height="64.0868" fill="white" transform="matrix(0.882241 -0.470896 0.447581 0.894293 22.7305 112.09)"/>
</clipPath>
</defs>
</svg>
