<svg width="3422" height="2052" viewBox="0 0 3422 2052" fill="none" xmlns="http://www.w3.org/2000/svg">
<g filter="url(#filter0_f_309_744)">
<ellipse cx="1019" cy="1057.67" rx="319" ry="293.666" fill="black" fill-opacity="0.4"/>
</g>
<g filter="url(#filter1_f_309_744)">
<ellipse cx="1711" cy="1055.67" rx="319" ry="293.666" fill="black" fill-opacity="0.4"/>
</g>
<g filter="url(#filter2_f_309_744)">
<ellipse cx="2403" cy="993.666" rx="319" ry="293.666" fill="black" fill-opacity="0.4"/>
</g>
<path d="M2205 795.216C2336.98 698.1 2595.83 878.718 2637.5 933V1161.5L578 1161.5V1048.49C779.982 1085.7 1002 1030.36 1201.64 932.784C1332.72 868.713 1496 869.856 1768.96 966.094C1923.47 999.403 2034 921.045 2205 795.216Z" fill="#BFBFBF"/>
<path d="M2198 850.559C2329.98 752.263 2596.33 934.856 2638 989.798V1156.5H577.5V1107C779.482 1144.66 995 1088.56 1194.64 989.798C1325.72 924.949 1489 926.105 1761.96 1023.51C1916.47 1057.23 2027 977.916 2198 850.559Z" fill="#D1D2D2"/>
<defs>
<filter id="filter0_f_309_744" x="0" y="64" width="2038" height="1987.33" filterUnits="userSpaceOnUse" color-interpolation-filters="sRGB">
<feFlood flood-opacity="0" result="BackgroundImageFix"/>
<feBlend mode="normal" in="SourceGraphic" in2="BackgroundImageFix" result="shape"/>
<feGaussianBlur stdDeviation="350" result="effect1_foregroundBlur_309_744"/>
</filter>
<filter id="filter1_f_309_744" x="692" y="62" width="2038" height="1987.33" filterUnits="userSpaceOnUse" color-interpolation-filters="sRGB">
<feFlood flood-opacity="0" result="BackgroundImageFix"/>
<feBlend mode="normal" in="SourceGraphic" in2="BackgroundImageFix" result="shape"/>
<feGaussianBlur stdDeviation="350" result="effect1_foregroundBlur_309_744"/>
</filter>
<filter id="filter2_f_309_744" x="1384" y="0" width="2038" height="1987.33" filterUnits="userSpaceOnUse" color-interpolation-filters="sRGB">
<feFlood flood-opacity="0" result="BackgroundImageFix"/>
<feBlend mode="normal" in="SourceGraphic" in2="BackgroundImageFix" result="shape"/>
<feGaussianBlur stdDeviation="350" result="effect1_foregroundBlur_309_744"/>
</filter>
</defs>
</svg>
