<svg width="2061" height="390" viewBox="0 0 2061 390" fill="none" xmlns="http://www.w3.org/2000/svg">
<g clip-path="url(#clip0_2268_640)">
<path d="M1627.5 28.2157C1759.48 -68.9002 2018.33 111.718 2060 166V386H0.5V281.491C202.482 318.696 424.5 263.364 624.138 165.784C755.221 101.713 918.5 102.856 1191.46 199.094C1345.97 232.403 1456.5 154.045 1627.5 28.2157Z" fill="#0D1220"/>
<path d="M1620.5 83.5586C1752.48 -14.7368 2018.83 167.856 2060.5 222.798V389.5H0V340C201.982 377.657 417.5 321.563 617.138 222.798C748.221 157.949 911.5 159.105 1184.46 256.512C1338.97 290.226 1449.5 210.916 1620.5 83.5586Z" fill="#050505"/>
</g>
<defs>
<clipPath id="clip0_2268_640">
<rect width="2061" height="390" fill="white"/>
</clipPath>
</defs>
</svg>
