<svg width="1750" height="456" viewBox="0 0 1750 456" fill="none" xmlns="http://www.w3.org/2000/svg">
<path fill-rule="evenodd" clip-rule="evenodd" d="M1672.55 1717.84L1616.21 1746.19L1240.79 1500.87L1181.46 1461.78L1155.38 1444.55L1123.67 1423.56C1090.83 1401.75 1056.1 1378.27 1022.33 1353.23C1017.58 1349.71 1012.85 1346.16 1008.14 1342.57C988.86 1327.75 970.388 1312.17 952.847 1295.91C935.329 1279.68 918.723 1262.77 903.159 1245.3C872.279 1210.51 842.68 1171.05 812.671 1124.67C794.269 1096.22 776.047 1066.64 758.244 1037.47L744.974 1015.69C739.927 1007.4 734.881 999.108 729.823 990.827L724.95 982.896C695.812 935.761 668.447 896.737 641.443 863.803C609.596 824.959 574.587 792.645 537.321 767.679L533.397 765.082C494.66 739.772 449.549 719.809 399.314 705.748C355.289 693.42 306.788 683.865 246.676 675.681L194.177 668.575C159.394 663.842 124.059 658.87 89.7098 653.214C34.8055 644.178 -13.5859 632.637 -58.2245 617.945C-102.995 603.149 -147.53 583.493 -190.579 559.542C-228.308 538.399 -265.125 515.448 -299.734 493.304L-312.824 484.904C-349.05 461.555 -385.18 438.144 -421.254 414.76L-798.365 168.394L-794.759 105.577L-402.344 362.005C-385.142 373.166 -367.92 384.327 -350.682 395.485L-310.144 421.7L-282.751 439.386L-273.599 445.256C-232.817 471.348 -197.263 493.156 -159.673 513.264C-115.966 536.502 -70.0038 554.872 -23.0721 567.862C22.2796 580.41 72.3666 589.969 130.061 597.083C156.202 600.308 182.885 603.234 209.205 606.034L259.094 611.312L290.414 614.681C297.8 615.494 305.044 616.347 312.157 617.232C362.007 623.45 405.276 631.488 443.886 641.686C492.504 654.524 536.111 673.162 573.552 697.105L577.229 699.488C615.051 724.314 650.384 757.21 682.256 797.269C710.574 832.865 738.68 875.065 768.188 926.284C774.685 937.556 781.151 948.869 787.604 960.193L809.746 999.077C822.304 1021.09 835.105 1043.37 847.934 1065.06C877.286 1114.69 905.76 1156.46 934.975 1192.77C965.284 1230.43 999.987 1265.02 1038.12 1295.56C1075.86 1325.58 1115.85 1352.84 1153.44 1377.84C1182.14 1396.88 1210.84 1415.82 1239.49 1434.7L1270.77 1455.3L1672.55 1717.84ZM1552.41 1778.34L1207.02 1552.64C1177.78 1533.4 1148.48 1514.11 1119.15 1494.74L1089.82 1475.33C1054.68 1452.03 1013.4 1424.29 973.676 1395.2C934.301 1366.2 897.971 1334.93 865.7 1302.25C832.911 1268.92 800.802 1230.86 770.261 1189.12C744.764 1154.28 719.747 1117.45 695.399 1081.25L682.779 1062.45C649.447 1012.79 620.351 973.987 591.214 940.34C558.712 902.806 523.447 871.214 486.317 846.359L482.054 843.539C443.336 818.26 398.66 797.688 349.27 782.398C306.722 769.229 259.265 758.116 199.915 747.416L178.356 743.523C135.064 735.681 90.8528 727.439 47.7277 717.761C-3.1303 706.342 -51.2464 691.936 -95.2664 674.946C-139.085 657.953 -181.489 637.424 -224.896 612.173C-267.606 587.251 -308.554 561.223 -346.45 536.813L-378.395 516.166C-395.418 505.161 -412.435 494.152 -429.421 483.137L-462.004 462.006L-583.856 382.4L-802.385 239.598L-798.78 176.789L-476.33 387.5L-472.77 389.82C-460.625 397.757 -448.508 405.676 -436.35 413.626C-409.811 430.835 -383.263 448.051 -356.673 465.242L-316.512 491.158L-303.607 499.439C-268.91 521.638 -231.99 544.655 -194.09 565.895C-150.65 590.064 -105.697 609.898 -60.4724 624.854C-15.4769 639.664 33.2704 651.29 88.5545 660.389C127.278 666.766 167.202 672.268 206.179 677.539L245.721 682.883C305.488 691.023 353.676 700.512 397.382 712.752C445.519 726.244 488.858 745.192 526.257 769.108L530.116 771.608C567.98 796.462 603.542 829.022 635.805 868.387C664.161 902.979 692.878 944.261 723.606 994.593L731.184 1007.02L738.753 1019.45C760.754 1055.59 783.5 1092.95 806.552 1128.59C836.765 1175.28 866.583 1215.02 897.713 1250.1C912.567 1266.78 928.397 1282.93 945.041 1298.51C963.629 1315.92 983.226 1332.59 1003.75 1348.35C1008.54 1352 1013.36 1355.62 1018.19 1359.2C1052.22 1384.43 1086.89 1407.86 1119.63 1429.59L1124.35 1432.71C1142.07 1444.46 1159.8 1456.18 1177.5 1467.86L1236.99 1507.06L1608.74 1749.98L1552.41 1778.34ZM1488.56 1810.48L1173.21 1604.42C1143.95 1585.17 1114.64 1565.89 1085.3 1546.53L1045.13 1519.97C1014.48 1499.62 976.657 1474.22 939.226 1447.78C916.555 1431.66 895.399 1415.57 875.364 1399.24L867.381 1392.7L865.447 1391.06C852.726 1380.44 840.437 1369.7 828.533 1358.76C794.313 1327.26 760.464 1291.8 727.942 1253.37C720.351 1244.39 712.849 1235.33 705.337 1226.1L699.7 1219.14C682.775 1198.15 665.666 1176.16 647.193 1152.02L632.047 1132.17L629.451 1128.79C595.723 1084.76 566.777 1050.1 538.791 1020.2C533.347 1014.37 527.827 1008.73 522.265 1003.21L518.086 999.086C516.16 997.201 514.252 995.268 512.314 993.414L509.123 990.447C484.512 967.217 458.955 946.656 432.743 929.121L428.065 926.027C389.417 900.788 345.35 879.38 297.08 862.391C289.485 859.714 281.689 857.079 273.655 854.462L267.265 852.4C235.062 842.112 199.039 832.168 156.461 821.779L152.182 820.739C105.033 809.315 54.6728 796.735 5.89343 782.175C-0.175215 780.353 -6.21007 778.492 -12.21 776.598C-54.2029 763.317 -94.442 748.196 -132.065 731.556C-173.889 712.96 -215.474 691.115 -259.195 664.777C-282.035 650.934 -304.931 636.676 -327.489 622.514L-358.865 602.77L-380.578 589.091L-806.524 310.749L-802.925 247.944L-470.279 465.323L-433.378 489.219C-416.38 500.242 -399.355 511.256 -382.313 522.273C-371.668 529.156 -361.07 536.052 -350.403 542.928L-337.638 551.136C-303.306 573.164 -266.657 596.237 -228.577 618.462C-184.838 643.9 -142.098 664.599 -97.9107 681.725C-53.5536 698.849 -5.09675 713.357 46.113 724.855C92.9677 735.373 141.036 744.183 187.825 752.629L198.599 754.572C257.66 765.217 304.842 776.271 347.097 789.352C395.841 804.435 439.903 824.72 478.054 849.632L478.952 850.221C516.753 875.034 552.663 906.95 585.704 945.104C613.228 976.892 640.744 1013.35 671.903 1059.36L676.964 1066.86L689.134 1084.99C713.589 1121.36 738.724 1158.37 764.378 1193.42C795.157 1235.47 827.497 1273.8 860.506 1307.35C893.052 1340.32 929.67 1371.84 969.349 1401.06C1008.83 1429.99 1048.64 1456.77 1085.79 1481.4C1114.44 1500.39 1143.09 1519.27 1171.69 1538.11L1203.14 1558.81L1544.89 1782.12L1488.56 1810.48ZM1481.07 1814.25L1424.73 1842.6L1021.88 1579.35L1004.99 1567.95L967.462 1542.68C946.714 1528.69 925.654 1514.44 904.923 1500.2C862.461 1470.83 825.471 1442.83 791.843 1414.6C756.639 1385.04 721.204 1351.95 686.521 1316.28L680.661 1310.21C648.521 1276.81 617.967 1242.79 593.58 1215.22L578.278 1197.91C552.534 1168.91 520.24 1133.5 486.149 1100.31C479.516 1093.85 472.806 1087.61 466.062 1081.47C437.654 1055.56 408.444 1032.51 378.891 1012.78L373.57 1009.26C335.153 984.152 291.805 961.748 244.728 942.664C200.369 924.675 154.787 909.251 117.763 897.265L93.8082 889.563C42.1105 872.895 1.99998 859.072 -35.0431 845.183C-81.7547 827.632 -126.639 808.217 -168.437 787.478C-208.055 767.709 -248.936 744.72 -293.42 717.196C-314.387 704.14 -335.529 690.793 -356.317 677.624L-401.937 648.704C-406.094 646.072 -410.248 643.444 -414.398 640.821L-810.584 381.926L-806.986 319.13L-384.519 595.201L-361.819 609.485L-340.155 623.135C-314.726 639.134 -288.808 655.324 -262.945 670.987C-218.887 697.533 -177.036 719.513 -135.003 738.194C-129.594 740.586 -124.131 742.948 -118.618 745.273C-80.0201 761.577 -38.9225 776.302 3.81386 789.126C36.4443 798.866 69.7336 807.701 102.311 815.909C113.172 818.646 123.96 821.318 134.612 823.926L154.929 828.878L163.586 831.01C204.987 841.286 240.037 851.141 271.36 861.344C279.351 863.947 287.104 866.575 294.671 869.242C342.436 886.061 385.983 907.21 424.096 932.102L425.015 932.705C462.782 957.495 499.278 988.594 533.494 1025.15L537.576 1029.54C564.841 1059.05 593.251 1093.34 626.393 1136.73L635.423 1148.57C666.72 1189.58 693.891 1224.33 722.404 1258.06C755.11 1296.71 789.165 1332.39 823.622 1364.1C829.505 1369.5 835.485 1374.86 841.557 1380.17L849.39 1386.99C855.231 1392.01 861.208 1396.99 867.245 1401.96C888.447 1419.39 910.881 1436.53 935.031 1453.7L941.701 1458.4C981.713 1486.5 1021.4 1512.98 1051.95 1533.19C1091.09 1559.09 1130.21 1584.82 1169.34 1610.55L1481.07 1814.25ZM1360.9 1874.72L988.064 1631.08L963.549 1614.65L938.991 1598.22C916.241 1583.02 893.471 1567.79 870.743 1552.44L862.879 1547.1C821.398 1518.8 787.162 1494.06 755.689 1469.67C719.177 1441.34 682.38 1410.29 646.315 1377.38L640.178 1371.76C605.481 1339.88 572.205 1307.54 545.954 1281.74L532.384 1268.4C505.289 1241.85 471.268 1209.15 435.402 1177.56C399.151 1145.63 363.639 1118.19 327.042 1093.85L321.671 1090.31L320.88 1089.79C282.109 1064.46 240.701 1041.66 194.3 1020.09L186.718 1016.58C144.988 997.413 102.928 980.089 68.9203 966.425L44.5125 956.632C9.55607 942.549 -32.9748 925.062 -74.815 906.429C-119.822 886.374 -163.378 864.888 -204.257 842.565L-210.888 838.92C-246.359 819.325 -283.631 797.118 -327.501 769.449C-343.057 759.6 -358.578 749.716 -374.084 739.822L-397.334 724.974C-414.296 714.14 -431.246 703.309 -448.177 692.547L-814.678 453.051L-811.079 390.272L-418.337 646.92L-400.123 658.451L-350.439 689.949C-332.803 701.108 -314.977 712.338 -297.261 723.372C-252.585 751.013 -211.512 774.107 -171.689 793.98C-129.672 814.828 -84.5627 834.343 -37.6129 851.981L-29.8355 854.878C14.2402 871.195 58.2234 885.735 93.6592 897.15L115.88 904.3C152.821 916.27 198.155 931.626 241.984 949.391C287.002 967.644 328.576 988.956 365.631 1012.77L370.878 1016.18C408.433 1040.83 445.499 1070.88 481.066 1105.51C515.15 1138.72 547.283 1173.96 572.872 1202.78L592.334 1224.78C617.522 1253.19 648.691 1287.73 681.295 1321.34C716.165 1357.21 751.786 1390.46 787.154 1420.16C820.851 1448.46 858.014 1476.6 900.784 1506.18C924.984 1522.8 949.61 1539.42 973.668 1555.63L983.941 1562.54C995.236 1570.15 1006.53 1577.75 1017.84 1585.39L1417.22 1846.38L1360.9 1874.72ZM1297.09 1906.85L836.075 1605.61C826.587 1598.9 817.068 1592.22 807.536 1585.56L793.23 1575.56C769.177 1558.77 744.302 1541.41 720.112 1523.87C685.276 1498.6 649.761 1471.21 614.439 1442.36L607.378 1436.57C573.752 1408.9 540.641 1380.39 513.233 1356.51L485.721 1332.48C457.697 1308.05 423.236 1278.46 387.858 1249.92C348.429 1218.07 310.332 1190.19 271.673 1164.97C232.911 1139.64 192.135 1115.96 147.031 1092.58L139.671 1088.78C102.847 1069.85 65.875 1052.05 34.7567 1037.35L-0.699329 1020.67C-45.0908 999.723 -80.4051 982.525 -113.419 965.79C-157.348 943.439 -199.808 920.243 -239.614 896.84C-258.947 885.468 -278.353 873.706 -297.42 862.067L-339.288 836.473C-346.926 831.817 -354.557 827.181 -362.175 822.584L-818.718 524.245L-815.118 461.463L-452.148 698.655L-427.178 714.561L-402.217 730.496C-386.504 740.532 -370.786 750.573 -355.043 760.589L-331.399 775.592L-323.219 780.735C-279.994 807.829 -243.113 829.607 -207.762 848.935C-166.865 871.279 -123.136 892.852 -77.7883 913.061L-70.2831 916.388C-30.2665 934.05 9.44638 950.354 42.2732 963.57L75.6118 976.959C109.837 990.795 150.902 1007.91 191.222 1026.67C234.765 1046.91 275.475 1069.18 312.307 1092.9L318.457 1096.89C354.871 1120.8 390.148 1147.73 426.089 1179.07L430.585 1183.01C458.929 1207.97 488.508 1235.65 525.304 1271.65L550.923 1296.79C577.257 1322.56 609.075 1353.23 641.403 1382.74C677.734 1415.89 714.678 1447.06 751.223 1475.41L757.172 1480C789.087 1504.51 824.082 1529.59 866.659 1558.46C881.821 1568.7 897.003 1578.88 912.179 1589.03L934.938 1604.26C951.312 1615.21 967.672 1626.14 984.035 1637.14L1353.4 1878.51L1297.09 1906.85ZM-790.611 34.5051L-368.884 310.091L-340.466 328.489C-320.146 341.65 -299.822 354.812 -279.473 367.959L-248.925 387.668L-241.061 392.715C-206.587 414.793 -167.004 439.428 -125.279 460.787C-81.6998 482.878 -34.839 499.91 13.9991 511.418C59.7244 522.193 110.752 530.287 170.002 536.16C188.576 538.002 207.448 539.745 226.087 541.431L272.044 545.566C291.955 547.368 312.11 549.238 331.929 551.229C390.815 557.142 441.193 565.707 485.944 577.405C535.987 590.489 580.664 609.738 618.739 634.609L619.503 635.11C657.286 659.911 692.546 692.837 724.3 732.984C752.994 769.251 780.917 811.709 809.676 862.779C821.832 884.343 834 906.438 845.876 928.074L863.655 960.468C871.632 974.978 879.717 989.619 887.768 1004C916.621 1055.56 944.133 1098.77 971.878 1136.08C1001.69 1176.19 1035.52 1212.12 1072.43 1242.91C1109.78 1273.88 1149.67 1301.21 1187.22 1326.14C1213.62 1343.65 1240.01 1361.06 1266.37 1378.42L1304.56 1403.58L1736.36 1685.74L1680.07 1714.07L1274.78 1449.24L1272.14 1447.5C1234 1422.37 1195.74 1397.18 1157.49 1371.8L1145.6 1363.87C1111.72 1341.19 1076.31 1316.66 1042.68 1289.89C1005.02 1259.73 970.698 1225.52 940.664 1188.23C911.694 1152.25 883.415 1110.76 854.212 1061.38C841.312 1039.57 828.432 1017.15 815.796 994.994L803.248 972.962C793.69 956.173 784.132 939.375 774.503 922.665L769.701 914.387C741.756 866.555 714.966 826.697 687.963 792.752C656.502 753.183 621.675 720.49 584.387 695.51L580.576 692.987C541.812 667.678 496.455 648.057 445.769 634.672C406.843 624.393 363.261 616.296 313.086 610.038C305.918 609.144 298.616 608.287 291.173 607.468L259.77 604.087L209.849 598.804C183.611 596.011 157.016 593.096 130.978 589.886C73.6467 582.815 23.8964 573.326 -21.1053 560.873C-67.5895 547.993 -113.052 529.822 -156.222 506.863C-194.858 486.216 -231.543 463.601 -274.201 436.236L-291.518 425.086L-320.77 406.193L-352.411 385.71C-368.107 375.537 -383.574 365.498 -398.616 355.73L-794.207 97.2204L-790.611 34.5051ZM-788.865 2.02646L-754.106 -15.4704L-335.068 258.355L-318.405 269.167C-295.511 284.017 -272.601 298.881 -249.655 313.726L-215.207 335.976C-178.841 359.404 -136.253 386.251 -91.022 408.411C-48.08 429.312 -0.534053 445.314 50.2954 455.976C95.9348 465.554 147.472 472.844 207.844 478.27C219.155 479.283 230.479 480.268 241.809 481.245L286.441 485.087C314.237 487.503 342.41 490.047 369.996 492.918C428.135 498.969 478.315 507.83 523.402 519.996C571.781 533.071 615.273 551.833 652.738 575.785L656.634 578.311C694.441 603.127 729.823 635.856 761.811 675.592C790.964 711.801 819.087 753.956 847.794 804.462C866.473 837.328 884.992 871.396 902.903 904.348C910.464 918.264 918.028 932.169 925.616 946.025C954.51 998.759 981.5 1042.73 1008.13 1080.44C1037.89 1122.56 1071.04 1159.55 1106.65 1190.4C1143.2 1221.83 1183.2 1249.36 1220.99 1274.43C1248.46 1292.63 1275.93 1310.74 1303.35 1328.79L1338.36 1351.83L1761.57 1628.38L1758.94 1674.37L1743.89 1681.95L1308.59 1397.5L1305.41 1395.4C1267.44 1370.39 1229.37 1345.32 1191.28 1320.08C1153.8 1295.18 1114.03 1267.92 1077.12 1237.31C1040.66 1206.9 1007.22 1171.38 977.752 1131.73C950.214 1094.69 922.863 1051.75 894.145 1000.44C886.114 986.089 878.045 971.475 870.081 956.99L846.342 913.748C836.355 895.584 826.2 877.21 816.046 859.197C787.034 807.687 758.901 764.926 730.043 728.46C698.62 688.76 663.799 655.988 626.472 630.978L622.755 628.517C583.99 603.203 538.596 583.639 487.828 570.37C442.74 558.577 391.992 549.947 332.7 543.985C308.933 541.601 284.697 539.391 260.981 537.257L226.919 534.196C208.254 532.508 189.354 530.762 170.761 528.921C111.815 523.073 61.097 515.031 15.7103 504.335C-32.6439 492.936 -78.9611 476.1 -121.936 454.298C-162.317 433.629 -200.318 410.265 -244.955 381.547C-284.897 355.812 -324.718 329.985 -364.473 304.203L-790.248 25.9775L-788.865 2.02646ZM-690.186 -47.5816L-301.167 206.622C-261.309 232.524 -221.388 258.45 -181.344 284.3L-172.446 290.031C-136.645 313.018 -98.3489 336.638 -56.822 356.289C-14.1973 376.317 33.7549 391.7 85.7016 402.002C131.443 411.074 181.607 417.971 243.578 423.712L296.639 428.599C332.628 431.937 369.203 435.478 404.822 439.683C462.018 446.43 511.726 455.997 556.793 468.926C605.92 483.015 650.248 502.842 688.562 527.852L689.402 528.403C727.366 553.323 762.992 585.673 795.306 624.564C825.122 660.462 853.707 701.9 882.686 751.253C903.639 786.946 924.247 824.113 944.271 860.438L961.344 891.421L965.707 899.293C992.447 947.353 1016.27 986.433 1040.04 1021.26L1043.52 1026.33C1073.38 1069.61 1106.12 1107.21 1140.82 1138.1C1174.6 1168.09 1210.83 1193.63 1254.84 1222.75C1294.02 1248.66 1333.18 1274.41 1372.24 1300.09L1765.71 1557.2L1762.11 1620.01L1342.39 1345.75L1282.16 1306.09C1263.14 1293.55 1244.1 1280.98 1225.06 1268.37L1215.21 1261.82C1180.59 1238.67 1144.56 1213.38 1111.45 1184.89C1076.27 1154.44 1043.53 1117.89 1014.12 1076.24L1009.7 1069.93C984.64 1033.86 959.183 992.091 932.038 942.528C927.019 933.367 922.015 924.182 917.014 914.986L909.513 901.188C891.53 868.101 872.936 833.889 854.165 800.867C825.237 750.007 796.9 707.538 767.529 671.034C735.978 631.813 701.092 599.293 663.788 574.301L659.87 571.708C621.082 546.377 575.828 526.62 525.358 512.982C479.968 500.717 429.415 491.79 370.809 485.688C343.218 482.816 315.058 480.272 287.28 477.857L259.663 475.477C242.612 474.01 225.564 472.55 208.555 471.025L198.629 470.111C142.832 464.836 94.7268 457.871 51.8466 448.866C1.59256 438.325 -45.3873 422.512 -87.777 401.875C-129.575 381.405 -169.175 356.836 -203.644 334.728L-211.215 329.86C-233.467 315.514 -255.679 301.136 -277.859 286.759L-331.014 252.284L-746.512 -19.2308L-690.186 -47.5816ZM-626.414 -79.7643L-147.813 232.984L-135.669 240.668C-101.474 262.253 -63.4682 285.588 -22.9125 304.37C19.3558 323.943 67.3962 339.171 119.878 349.638L126.201 350.879C168.577 359.08 215.445 365.807 272.718 371.915L307.304 375.571C350.316 380.146 394.113 385.006 436.551 390.92C492.618 398.741 541.691 409.275 586.582 423.126C634.953 438.051 678.995 458.366 717.485 483.497L718.398 484.096C756.511 509.113 792.441 540.987 825.208 578.843C855.827 614.226 885.051 654.703 914.544 702.592C937.772 740.323 960.17 779.196 981.918 817.37L994.89 840.175C1025.54 894.09 1051.86 936.607 1077.71 973.974C1107.85 1017.53 1140.48 1055.29 1174.7 1086.18C1211.55 1119.45 1252.81 1147.44 1288.59 1171.07C1327.77 1196.95 1366.93 1222.67 1406.03 1248.35L1769.77 1486.03L1766.17 1548.82L1376.2 1293.99C1337.15 1268.33 1298 1242.57 1258.83 1216.67L1250.46 1211.11C1210.45 1184.43 1176.93 1160.44 1145.63 1132.66C1111.32 1102.09 1078.97 1064.93 1049.47 1022.18L1047.62 1019.48L1045.76 1016.76C1020.89 980.272 995.978 939.147 967.717 887.939L957.28 869.011C950.433 856.579 943.489 844.01 936.508 831.412C926.568 813.478 916.522 795.474 906.346 777.654C903.828 773.246 901.283 768.911 898.752 764.528L892.223 753.207L888.93 747.557C859.771 697.878 830.964 656.124 800.867 619.899C769.022 581.573 733.987 549.498 696.663 524.495L692.509 521.745C653.598 496.343 608.605 476.215 558.783 461.921C513.316 448.881 463.23 439.241 405.652 432.446C369.991 428.238 333.402 424.695 297.404 421.355L244.226 416.456C182.654 410.768 132.725 403.904 87.0986 394.855C35.7312 384.669 -11.6581 369.473 -53.7458 349.697C-98.2738 328.628 -139.262 302.814 -177.429 278.177C-217.466 252.328 -257.385 226.407 -297.232 200.507L-682.72 -51.3916L-626.414 -79.7643ZM-562.536 -111.851L-114.005 181.247L-101.875 188.967C-67.7188 210.653 -29.7563 234.097 10.7377 252.919C52.7602 272.457 100.609 287.958 152.951 298.994L158.83 300.219C199.239 308.541 244.573 315.834 300.329 322.993L308.563 324.039C327.097 326.37 345.466 328.706 363.672 331.105L373.361 332.391C381.44 333.471 389.475 334.571 397.486 335.689C404.459 336.664 411.411 337.656 418.336 338.669C423.383 339.404 428.425 340.153 433.442 340.912C439.331 341.805 445.204 342.716 451.058 343.647L465.801 346.021C520.769 355.138 569.118 366.776 613.622 381.602C661.23 397.462 704.961 418.298 743.599 443.521C782.241 468.79 818.855 500.349 852.378 537.404C883.742 572.069 913.681 611.45 943.91 657.795C948.048 664.144 952.162 670.537 956.256 676.956C976.439 708.609 996.232 741.262 1015.21 772.981L1031.08 799.566C1052.34 835.038 1071.36 865.279 1089.38 892.194L1091.31 895.065C1097.93 904.915 1104.42 914.317 1110.84 923.369C1141.5 966.62 1174.31 1004.09 1208.35 1034.71C1243.32 1066.18 1280.57 1091.82 1322.17 1119.72L1773.85 1414.87L1770.25 1477.64L1409.97 1242.22C1370.92 1216.57 1331.77 1190.86 1292.59 1164.98L1285.16 1160.06C1251.4 1137.64 1213.54 1111.43 1179.56 1080.76C1145.79 1050.27 1113.53 1012.94 1083.68 969.812L1080.1 964.607C1055.6 928.8 1030.41 887.914 1001.21 836.556L988.172 813.648C966.326 775.308 943.857 736.308 920.72 698.756C891.015 650.516 861.568 609.731 830.699 574.067C798.501 536.856 763.266 505.349 725.899 480.328L721.455 477.388C682.409 451.889 637.753 431.292 588.727 416.163C543.468 402.191 494.022 391.577 437.559 383.705C390.606 377.157 342.061 371.907 294.73 366.909L277.797 365.127L265.02 363.754C209.002 357.605 163.056 350.8 121.303 342.488C69.4392 332.158 21.9444 317.11 -19.8545 297.754C-64.8498 276.921 -106.87 250.298 -143.897 226.84L-618.849 -83.5263L-562.536 -111.851ZM-498.774 -144.018L-80.2032 129.5L-63.9672 139.875C-30.9128 160.911 5.5607 183.369 44.0974 201.76C86.2853 221.891 132.365 237.608 184.982 249.813L190.559 251.093C231.622 260.429 276.437 268.675 334.42 277.564L355.041 280.715C398.278 287.358 446.536 295.087 492.985 304.165C546.836 314.693 594.436 327.484 638.512 343.279C685.317 360.04 728.737 381.388 767.562 406.743L768.532 407.38L773.312 410.617C776.265 412.598 779.215 414.57 782.147 416.616C809.482 435.765 835.858 457.791 860.82 482.334C862.08 483.574 863.359 484.774 864.615 486.027L865.467 486.904C869.478 490.929 873.461 495.011 877.397 499.169C909.497 533.069 940.199 571.301 971.26 616.061L976.435 623.554C1001.39 659.847 1025.61 697.414 1053.56 741.598L1060.72 752.91C1092.35 802.743 1117.86 840.414 1142.95 874.33C1174.79 917.359 1207.11 953.112 1241.77 983.631C1277.22 1014.85 1316.01 1041.33 1355.98 1067.98L1777.91 1343.68L1774.31 1406.49L1326.16 1113.64L1312.54 1104.47C1276.63 1080.19 1243.95 1056.99 1213.18 1029.29C1179.54 999.013 1147.09 961.953 1116.74 919.139C1108.12 906.982 1099.37 894.195 1090.35 880.543L1087.33 875.96C1071.13 851.278 1053.98 823.741 1035.03 792.026L1022.9 771.695C1003.04 738.469 982.221 704.065 960.724 670.459C957.149 664.871 953.566 659.315 949.97 653.805C919.545 607.144 889.377 567.47 857.743 532.51C825.134 496.471 789.654 465.544 752.208 440.502L747.547 437.42C708.389 411.852 664.101 390.749 615.901 374.691C571.04 359.744 522.324 348.017 466.971 338.837L461.026 337.904C452.208 336.468 443.344 335.077 434.428 333.725C429.508 332.982 424.566 332.247 419.624 331.524C412.56 330.49 405.47 329.477 398.353 328.485L386.539 326.853L369.478 324.552L364.264 323.864C350.658 322.074 337.002 320.305 323.244 318.555L301.25 315.768C243.011 308.294 196.179 300.666 154.438 291.862C102.627 280.942 55.3089 265.619 13.7769 246.313C-31.2452 225.388 -73.1542 198.656 -110.099 175.092L-555.074 -115.681L-498.774 -144.018ZM-371.093 -208.236L-12.6345 25.9983L-0.355476 33.9286C7.76059 39.1615 15.7457 44.2893 23.6521 49.331L33.1838 55.3961L38.7642 58.9175L48.2256 64.8571C68.5494 77.5509 88.6419 89.6979 109.306 101.47L109.542 101.594C154.259 123.043 200.443 140.933 246.82 154.77L254.835 157.135C291.595 167.861 331.889 177.998 383.053 189.391L417.086 196.898C422.621 198.124 428.07 199.338 433.449 200.544L446.883 203.573L455.933 205.637L468.854 208.607L475.315 210.115L487.096 212.891L494.114 214.566L505.968 217.428L512.399 219.012L525.073 222.161C528.484 223.02 531.882 223.9 535.283 224.774C537.925 225.45 540.58 226.12 543.214 226.808C594.913 240.285 641.029 255.383 684.198 272.956C695.562 277.581 706.765 282.444 717.782 287.531C750.481 302.641 781.583 319.78 810.632 338.673L811.621 339.301C846.72 362.415 880.836 389.187 912.96 419.205L916.965 422.974C919.082 424.984 921.22 426.964 923.324 429.001C956.721 461.381 988.931 497.344 1021.79 538.956C1051.08 576.017 1079.96 615.118 1107.04 652.31L1117.47 666.644C1151.32 713.022 1178.5 748.082 1205.03 779.641C1235.93 816.363 1270.29 851.316 1307.35 883.693C1342.09 909.998 1378.43 934.588 1411.03 956.181L1424.24 964.902L1786.08 1201.34L1782.48 1264.15L1393.77 1010.15L1381.9 1002.27C1348.06 979.742 1312.72 955.588 1278.76 929.013C1243.05 896.109 1209.82 860.122 1179.98 822.053L1174.87 815.495C1150.97 784.628 1126.1 749.97 1095.54 704.917L1091.13 698.41C1063.42 657.416 1033.56 613.764 1002.9 572.35C970.776 528.943 939.1 491.599 906.054 458.181C871.5 423.232 834.245 392.559 795.3 366.996L794.024 366.163C754.637 340.448 711.052 318.366 664.467 300.53C620.517 283.698 573.342 269.65 520.25 257.581C474.465 247.182 428.332 238.247 373.705 228.189L368.214 227.179C306.548 215.843 260.226 205.87 218.018 194.847C170.798 182.514 124.175 166.084 79.4296 146.014C38.3126 123.391 -1.69463 97.9206 -42.4491 71.6515L-427.393 -179.899L-371.093 -208.236ZM-299.721 -244.188L-243.418 -272.523L55.0006 -77.5245C91.4037 -53.7235 127.184 -30.4512 163.603 -7.92552L175.921 -0.353552C217.718 22.4426 261.744 43.5163 306.921 62.3417C348.806 77.6407 393.072 92.3422 442.051 107.221L471.685 116.177C511.013 128.081 551.169 140.397 590.751 153.5C640.605 170.006 685.3 187.317 727.392 206.418C769.97 225.753 810.634 247.833 848.348 272.101L854.997 276.42C893.526 301.71 931.121 330.71 966.759 362.639C1001.15 393.439 1034.82 427.234 1069.69 465.953L1076.22 473.224C1103.35 503.521 1129.5 533.963 1159.62 569.275L1166.93 577.846C1201.59 618.508 1233.79 654.421 1265.5 687.744C1300.36 721.338 1336.78 753.039 1373.9 782.077C1410.26 807.744 1447.84 832.597 1483.59 855.996L1794.27 1059L1790.67 1121.78L1452.43 900.753C1412.48 874.564 1378.42 851.678 1344.97 827.33C1308.99 797.694 1273.64 764.84 1240.03 729.805L1233.87 722.659C1207.09 691.478 1179.25 657.445 1149.07 619.019L1128.75 593.121C1101.33 558.29 1076.81 527.75 1051.41 497.607C1017.31 457.161 984.17 422.07 950.097 390.33C932.247 373.702 913.825 357.925 894.969 343.088C891.877 340.658 888.763 338.289 885.645 335.904L881.051 332.372C877.759 329.89 874.441 327.473 871.125 325.054L866.611 321.735L863.329 319.413L860.038 317.104C857.178 315.087 854.324 313.062 851.449 311.088L849.906 310.054C845.968 307.365 842.026 304.69 838.059 302.086L836.455 301.038C796.916 275.245 753.953 252.3 708.766 232.843C665.801 214.332 620.123 198.037 569.13 183.027C523.219 169.508 475.63 157.011 433.531 146.157L423.125 143.478C369.74 129.754 322.407 116.396 278.608 102.705C232.412 85.5325 187.798 65.917 146.002 44.4018C106.674 21.09 68.4154 -3.61096 32.3686 -27.1729L-299.721 -244.188ZM-172.079 -308.406L-115.763 -336.754L158.339 -157.653C187.414 -138.682 215.008 -120.757 242.779 -102.938C283.834 -78.164 326.23 -54.6797 368.904 -33.0872C410.942 -13.5793 454.725 5.39095 502.795 24.9313L549.338 43.277C579.111 55.0341 609.311 67.0402 638.962 79.1661C687.448 99.0054 730.732 118.525 771.286 138.838C814.747 160.608 856.61 184.593 895.718 210.124C934.938 235.803 973.595 264.302 1010.88 295.224C1045.79 324.166 1080.92 355.806 1118.27 391.942C1146.41 419.172 1174.67 447.185 1202.21 474.553L1221.94 494.171C1258.62 529.897 1293.21 562.149 1327.81 592.856C1364.17 623.018 1402.18 652.249 1440.86 679.783L1451.46 686.857C1488.55 711.582 1525.72 735.87 1558.85 757.505L1802.41 916.652L1798.81 979.468L1528.79 803.027C1500.79 784.737 1473.27 766.692 1446.12 748.497L1435.77 741.533L1425.47 734.55C1420.83 731.408 1416.17 728.28 1411.56 725.116C1374.13 697.242 1337.05 666.966 1301.43 635.228C1267.95 603.007 1233.66 568.071 1199.53 531.394L1167.47 496.941C1144.93 472.743 1121.93 448.203 1098.92 424.349L1095.33 420.661L1091.76 417.002C1061.61 386.064 1032.52 358.318 1003.37 332.702L998.993 328.876C997.081 327.213 995.171 325.521 993.259 323.872C958.013 293.486 921.231 265.451 883.539 240.605L878.136 237.069C838.776 211.373 796.389 187.63 752.164 166.503C710.695 146.696 666.504 128.196 617.069 109.947C607.249 106.323 597.364 102.724 587.45 99.1505C582.154 97.2412 576.841 95.3592 571.536 93.4701C567.111 91.8887 562.688 90.2962 558.259 88.7259C546.059 84.4026 533.871 80.1165 521.762 75.8735L477.668 60.4551C429.981 43.7486 383.839 26.1507 340.656 8.19554C297.048 -11.9614 254.071 -34.1956 213.024 -57.8183C177.616 -80.0524 142.98 -102.542 105.415 -127.081L-172.079 -308.406ZM1798.32 987.815L1794.72 1050.6L1495.22 854.895C1457.62 830.32 1417.59 804.002 1378.26 776.243C1341.49 747.474 1305.26 715.937 1270.67 682.616C1239.19 649.513 1207.07 613.7 1172.47 573.124L1156.63 554.558C1131.05 524.6 1103.19 492.232 1075.11 461.081C1040.05 422.159 1006.2 388.185 971.633 357.215C935.73 325.056 897.866 295.845 859.058 270.372L857.246 269.186C817.857 243.467 775.184 220.121 730.418 199.791C688.095 180.572 643.167 163.168 593.061 146.597C545.048 130.718 494.725 115.522 450.33 102.118L438.964 98.6644C391.971 84.2924 349.503 70.1436 309.592 55.5677C264.782 36.8916 220.99 15.9321 179.578 -6.6455C139.031 -31.438 99.4068 -57.195 59.0135 -83.6047L-235.907 -276.316L-179.617 -304.643L115.529 -111.806C147.212 -91.155 175.756 -72.7009 205.166 -54.1856L209.301 -51.5905C250.505 -27.8563 293.679 -5.51881 337.753 14.8481C381.19 32.9101 427.464 50.5594 475.281 67.3122L520.717 83.1992C532.258 87.243 543.874 91.3263 555.501 95.4478C575.259 102.45 595.045 109.557 614.569 116.765C663.794 134.937 707.782 153.351 749.044 173.062C792.986 194.045 835.082 217.628 874.181 243.154C913.181 268.579 951.741 297.683 988.511 329.361L991.618 332.061L994.723 334.78C1024.37 360.644 1053.91 388.67 1084.56 420.011L1090.63 426.232C1091.65 427.275 1092.66 428.324 1093.68 429.381C1116.74 453.295 1139.8 477.899 1162.41 502.164L1194.2 536.33C1228.45 573.12 1262.83 608.147 1296.49 640.542C1332.37 672.523 1369.62 702.933 1407.33 731.009L1412.09 734.239C1445 756.715 1478.31 778.688 1512.28 800.904L1554.16 828.277L1798.32 987.815ZM1786.55 1192.98L1428.23 958.843L1415.06 950.143C1382.55 928.614 1346.34 904.11 1311.94 878.074C1275.36 846.111 1241.26 811.426 1210.6 774.979L1207.08 770.784C1182.44 741.262 1156.88 708.228 1125.51 665.335L1107.07 640.031C1081.66 605.21 1054.76 568.969 1027.5 534.462C994.419 492.593 961.998 456.391 928.392 423.8C926.565 422.028 924.702 420.31 922.861 418.56C920.25 416.078 917.653 413.574 915.017 411.132L914.013 410.221C884.51 382.998 853.432 358.433 821.329 337.014L816.23 333.645L814.589 332.592C785.292 313.522 753.88 296.214 720.828 280.947C709.703 275.806 698.396 270.897 686.923 266.226C643.556 248.553 597.143 233.364 545.033 219.778L541.082 218.762L526.853 215.132L520.72 213.606C516.376 212.521 512.022 211.438 507.639 210.366L495.957 207.546L486.326 205.252L474.889 202.565L463.193 199.858L452.404 197.385L434.488 193.341L416.245 189.278L384.627 182.301C329.87 170.112 287.633 159.37 248.881 147.808C203.02 134.132 157.235 116.4 112.79 95.0984L106.03 91.1951C103.214 89.568 100.385 87.954 97.5785 86.3117L93.6576 83.9811C89.8641 81.7471 86.0756 79.5121 82.305 77.2498L78.4432 74.9015C74.6989 72.639 70.9545 70.3765 67.2199 68.0858L61.5173 64.5553C58.4084 62.6404 55.3024 60.7276 52.2043 58.7895L41.4227 52.0141L34.0571 47.3551C19.8475 38.3318 5.64487 29.1656 -8.63983 19.9064L-363.579 -212.027L-307.281 -240.366L21.1574 -25.7537C59.6086 -0.610222 100.647 26.0062 142.554 50.8312C184.703 72.522 229.619 92.274 276.221 109.601C320.32 123.384 367.77 136.775 421.28 150.534L438.98 155.095C480.573 165.844 524.101 177.355 567.045 190.013C617.677 204.924 663.086 221.12 705.861 239.537C750.745 258.861 793.341 281.604 832.456 307.144C871.425 332.498 909.426 362.419 945.12 395.67C979.061 427.288 1012 462.171 1045.83 502.309C1074.66 536.511 1102.43 571.433 1128.68 604.847L1146.83 627.969C1178.11 667.665 1206.87 702.632 1234.64 734.72C1268.68 770.189 1304.24 803.243 1340.49 833.095C1376.85 859.549 1413.55 884.069 1457.4 912.734L1790.15 1130.16L1786.55 1192.98ZM1359.96 1061.89C1320.18 1035.38 1281.58 1009.02 1246.55 978.154C1212.26 947.943 1180.28 912.561 1148.77 869.985L1145.44 865.462C1121.53 832.875 1096.98 796.49 1066.83 748.995L1051.1 724.149C1024.74 682.651 1001.45 646.834 977.207 611.893C945.933 566.836 915.003 528.324 882.655 494.154C875.758 486.863 868.709 479.836 861.586 472.956C859.863 471.295 858.163 469.589 856.429 467.952L853.192 464.976C831.816 445.039 809.509 426.89 786.458 410.775C782.886 408.27 779.274 405.859 775.663 403.446L771.52 400.64C732.211 374.972 688.28 353.37 640.941 336.424C596.526 320.506 548.579 307.613 494.363 297.019C451.841 288.706 407.842 281.527 367.551 275.277L331.575 269.757C272.962 260.707 227.979 252.313 186.606 242.716C134.545 230.65 88.9486 215.103 47.2109 195.185C2.5251 173.86 -39.3533 147.022 -76.2795 123.357L-491.198 -147.777L-434.895 -176.113L-46.4055 77.7519L-33.7124 85.9147C4.04545 110.15 39.0977 132.128 76.331 152.599C121.485 172.86 168.541 189.443 216.186 201.882L221.646 203.297C260.023 213.161 301.889 222.214 355.285 232.185L387.078 238.057C428.231 245.694 473.935 254.509 518.646 264.673C571.4 276.669 618.256 290.621 661.884 307.328C707.981 324.983 751.108 346.824 790.062 372.259L790.954 372.844C793.051 374.225 795.132 375.669 797.219 377.078L802.285 380.48C803.127 381.051 803.968 381.627 804.805 382.209C826.069 397.002 846.776 413.329 866.768 431.033L874.637 438.05C875.952 439.248 877.235 440.493 878.543 441.707C886.101 448.717 893.576 455.889 900.901 463.301C933.63 496.389 965.088 533.477 997.071 576.686C1025.49 615.085 1053.4 655.656 1079.55 694.255L1085.12 702.494C1120.04 754.162 1147.53 792.42 1174.27 826.549C1204.3 864.884 1237.81 901.157 1274.07 934.556C1312.45 964.611 1352.27 991.378 1389.79 1016.23L1782.01 1272.53L1778.4 1335.32L1359.96 1061.89ZM1765.94 1678.97L1768.57 1632.91L1768.63 1632.95L1773.19 1553.43L1773.18 1553.42L1781.33 1411.09L1781.32 1411.08L1784.92 1348.26L1784.93 1348.27L1789.49 1268.75L1789.49 1268.75L1793.57 1197.57L1793.56 1197.56L1797.16 1134.69L1797.19 1134.71L1801.75 1055.19L1801.72 1055.17L1805.32 992.388L1805.33 992.396L1809.9 912.879L1523.44 725.686C1498.02 709.032 1471.36 691.468 1444.99 673.814C1406.53 646.441 1368.66 617.323 1332.53 587.35C1298.12 556.801 1263.6 524.624 1227.03 489.002L1217.62 479.635C1186.84 449.038 1155.01 417.398 1123.31 386.725C1085.83 350.459 1050.57 318.703 1015.51 289.633C980.715 260.786 944.655 233.91 908.188 209.653L899.69 204.047C860.346 178.366 818.242 154.245 774.537 132.353C733.816 111.956 690.366 92.3583 641.709 72.4497C612.024 60.3112 581.805 48.2953 552.013 36.5319L505.492 18.1911C457.568 -1.28793 413.889 -20.2116 372.07 -39.6155C329.669 -61.0761 287.431 -84.4698 246.61 -109.098L236.04 -115.892C209.613 -132.902 183.115 -150.141 155.132 -168.412L-115.291 -345.116L-179.104 -312.995L-179.134 -313.015L-250.452 -277.119L-250.443 -277.113L-314.237 -245.002L-314.225 -244.994L-378.127 -212.832L-378.118 -212.826L-441.912 -180.715L-441.906 -180.711L-498.218 -152.363L-498.272 -152.399L-569.594 -116.497L-569.533 -116.457L-625.872 -88.1141L-625.911 -88.1401L-697.233 -52.2035L-697.194 -52.1777L-753.582 -23.7983L-753.634 -23.8322L-795.868 -2.57072L-797.737 29.8495L-797.621 29.9252L-801.217 92.6928L-801.29 92.645L-805.851 172.169L-805.787 172.211L-809.393 235.054L-809.454 235.014L-814.011 314.54L-813.996 314.55L-817.593 377.347L-817.606 377.339L-822.161 456.862L-822.122 456.887L-826.204 528.02L-366.033 828.727C-355.813 834.895 -345.616 841.106 -335.427 847.332L-301.187 868.269C-285.281 877.98 -269.136 887.778 -252.985 897.37L-243.293 903.1C-203.36 926.573 -160.767 949.844 -116.705 972.265L-103.854 978.742C-72.6729 994.375 -38.8031 1010.76 3.10504 1030.48L25.8369 1041.16C60.0734 1057.29 102.247 1077.53 143.693 1099.03C188.58 1122.29 229.144 1145.85 267.704 1171.04C304.63 1195.08 340.777 1221.47 378.192 1251.45L383.302 1255.56C418.446 1283.92 452.705 1313.32 480.619 1337.65L508.472 1361.99C535.915 1385.9 569.076 1414.45 602.768 1442.17C640.529 1473.25 678.576 1502.71 715.849 1529.74C734.036 1542.93 752.588 1556 770.887 1568.8L789.077 1581.51C803.376 1591.5 817.663 1601.47 831.992 1611.6L1296.61 1915.22L1424.25 1850.96L1424.26 1850.97L1623.26 1750.8L1623.24 1750.78L1679.59 1722.42L1679.6 1722.43L1765.94 1678.97Z" fill="url(#paint0_linear_1_3566)" fill-opacity="0.3"/>
<defs>
<linearGradient id="paint0_linear_1_3566" x1="1802.9" y1="736.668" x2="739.278" y2="-572.5" gradientUnits="userSpaceOnUse">
<stop/>
<stop offset="0.538482"/>
<stop offset="1" stop-color="#00259E"/>
</linearGradient>
</defs>
</svg>
