<svg width="2061" height="390" viewBox="0 0 2061 390" fill="none" xmlns="http://www.w3.org/2000/svg">
<path d="M1627.5 28.1923C1759.48 -68.9236 2018.33 111.694 2060 165.977V385.977H0.5V281.467C202.482 318.673 424.5 263.341 624.138 165.761C755.221 101.69 918.5 102.833 1191.46 199.07C1345.97 232.38 1456.5 154.022 1627.5 28.1923Z" fill="#B2B1B1"/>
<path d="M1620.5 83.5352C1752.48 -14.7602 2018.83 167.833 2060.5 222.774V389.477H0V339.977C201.982 377.634 417.5 321.54 617.138 222.774C748.221 157.925 911.5 159.082 1184.46 256.489C1338.97 290.203 1449.5 210.893 1620.5 83.5352Z" fill="#C9C9C9"/>
</svg>
