{
    "asset" : {
        "generator" : "Khronos glTF Blender I/O v1.5.17",
        "version" : "2.0"
    },
    "scene" : 0,
    "scenes" : [
        {
            "name" : "Scene",
            "nodes" : [
                1,
                2,
                3
            ]
        }
    ],
    "nodes" : [
        {
            "mesh" : 0,
            "name" : "Cube_10",
            "rotation" : [
                0.44893452525138855,
                0.15009711682796478,
                0.42638492584228516,
                0.7707947492599487
            ],
            "scale" : [
                0.009999998845160007,
                0.010000000707805157,
                0.009999999776482582
            ],
            "translation" : [
                -0.29701629281044006,
                0.2662692368030548,
                -0.21823982894420624
            ]
        },
        {
            "children" : [
                0
            ],
            "name" : "Empty",
            "rotation" : [
                0.00032903242390602827,
                4.111045564059168e-05,
                0.0031313463114202023,
                0.9999950528144836
            ],
            "translation" : [
                0.0027438204269856215,
                -0.0030075509566813707,
                -0.009628896601498127
            ]
        },
        {
            "name" : "Light",
            "rotation" : [
                0.16907575726509094,
                0.7558803558349609,
                -0.27217137813568115,
                0.570947527885437
            ],
            "translation" : [
                4.076245307922363,
                5.903861999511719,
                -1.0054539442062378
            ]
        },
        {
            "name" : "Camera",
            "rotation" : [
                0.483536034822464,
                0.33687159419059753,
                -0.20870360732078552,
                0.7804827094078064
            ],
            "translation" : [
                7.358891487121582,
                4.958309173583984,
                6.925790786743164
            ]
        }
    ],
    "materials" : [
        {
            "doubleSided" : true,
            "name" : "coin.001",
            "normalTexture" : {
                "index" : 0
            },
            "pbrMetallicRoughness" : {
                "baseColorTexture" : {
                    "index" : 1
                },
                "metallicRoughnessTexture" : {
                    "index" : 2
                }
            }
        }
    ],
    "meshes" : [
        {
            "name" : "Mesh.003",
            "primitives" : [
                {
                    "attributes" : {
                        "POSITION" : 0,
                        "NORMAL" : 1,
                        "TEXCOORD_0" : 2
                    },
                    "indices" : 3,
                    "material" : 0
                }
            ]
        }
    ],
    "textures" : [
        {
            "sampler" : 0,
            "source" : 0
        },
        {
            "sampler" : 0,
            "source" : 1
        },
        {
            "sampler" : 0,
            "source" : 2
        }
    ],
    "images" : [
        {
            "mimeType" : "image/png",
            "name" : "Normal",
            "uri" : "Normal.png"
        },
        {
            "mimeType" : "image/png",
            "name" : "BaseColor",
            "uri" : "BaseColor.png"
        },
        {
            "mimeType" : "image/png",
            "name" : "Metallic-Roughness",
            "uri" : "Metallic-Roughness.png"
        }
    ],
    "accessors" : [
        {
            "bufferView" : 0,
            "componentType" : 5126,
            "count" : 780688,
            "max" : [
                50.45680236816406,
                1.4510877132415771,
                95.95680236816406
            ],
            "min" : [
                -50.45680236816406,
                -7.115562438964844,
                -4.956806182861328
            ],
            "type" : "VEC3"
        },
        {
            "bufferView" : 1,
            "componentType" : 5126,
            "count" : 780688,
            "type" : "VEC3"
        },
        {
            "bufferView" : 2,
            "componentType" : 5126,
            "count" : 780688,
            "type" : "VEC2"
        },
        {
            "bufferView" : 3,
            "componentType" : 5125,
            "count" : 2278008,
            "type" : "SCALAR"
        }
    ],
    "bufferViews" : [
        {
            "buffer" : 0,
            "byteLength" : 9368256,
            "byteOffset" : 0
        },
        {
            "buffer" : 0,
            "byteLength" : 9368256,
            "byteOffset" : 9368256
        },
        {
            "buffer" : 0,
            "byteLength" : 6245504,
            "byteOffset" : 18736512
        },
        {
            "buffer" : 0,
            "byteLength" : 9112032,
            "byteOffset" : 24982016
        }
    ],
    "samplers" : [
        {
            "magFilter" : 9729,
            "minFilter" : 9987
        }
    ],
    "buffers" : [
        {
            "byteLength" : 34094048,
            "uri" : "coin.bin"
        }
    ]
}
