<svg width="332" height="238" viewBox="0 0 332 238" fill="none" xmlns="http://www.w3.org/2000/svg">
<path d="M109.183 0.539062V68.078H0V0.539062H109.183ZM35.1458 15.0504C24.0548 15.0504 15.846 23.7244 15.846 34.7939V34.9074C15.846 46.2416 24.2737 54.55 34.7323 54.5249C42.8438 54.5249 47.5015 50.8938 50.9553 45.9517L43.3181 40.3161C41.1169 43.0897 38.8671 44.9304 35.0485 44.9304C29.9286 44.9304 26.3168 40.4926 26.3168 34.7939V34.6805C26.3168 29.1457 29.9165 24.6448 35.0485 24.6448C38.5509 24.6448 40.9588 26.3847 43.0506 29.0953L50.6878 22.968C47.4407 18.3032 42.6249 15.0504 35.1458 15.0504ZM65.5609 15.8195H54.2023L69.0633 54.0583H78.476L93.337 15.8195H82.1974L73.8791 39.8496L65.5609 15.8195Z" fill="#4F4F4F"/>
<path d="M332 68.0781V237.524H0V68.0781H332ZM254.485 124.245C241.703 124.245 233.859 131.671 233.859 141.921V142.072C233.859 153.432 242.615 156.747 253.95 159.433C261.173 161.16 262.925 162.433 262.925 164.715V164.879C262.925 167.237 260.784 168.662 256.832 168.662C250.666 168.662 244.804 166.367 239.551 162.03L231.33 172.204C237.873 178.281 246.86 181.357 256.309 181.357C269.248 181.357 277.846 174.65 277.846 163.366V163.215C277.846 152.877 270.246 148.779 257.987 146.018C250.605 144.278 248.781 143.169 248.781 140.647V140.496C248.781 138.517 250.532 136.941 254.108 136.941C258.826 136.941 264.153 138.832 269.017 142.387L276.399 131.583C270.61 126.767 263.545 124.245 254.485 124.245ZM68.9417 125.191H54.178V180.412H94.7355V166.997H68.9417V125.191ZM140.17 124.787H125.941L103.261 180.399H118.802L122.609 170.54H143.149L147.029 180.399H162.85L140.17 124.787ZM201.802 125.191H174.488V180.399H201.961C214.669 180.399 222.124 174.638 222.124 165.169V165.018C222.124 157.529 218.013 153.734 211.544 151.528C216.262 149.397 219.765 145.615 219.765 139.223V139.072C219.765 135.289 218.463 132.364 216.335 130.158C213.222 126.918 208.503 125.191 201.802 125.191ZM200.136 157.945C205.074 157.945 207.36 159.912 207.36 162.913V163.064C207.36 166.291 204.77 168.107 200.282 168.107V168.119H188.875V157.945H200.136ZM132.946 142.942L138.881 158.639H126.938L132.946 142.942ZM198.47 137.483C202.873 137.483 205.159 139.223 205.159 142.223V142.375C205.159 145.615 202.642 147.191 198.154 147.191H188.875V137.483H198.47Z" fill="#9F9F9F"/>
</svg>
