<svg width="101" height="70" viewBox="0 0 101 70" fill="none" xmlns="http://www.w3.org/2000/svg">
<path d="M101 19.95H0V70H101V19.95Z" fill="#4BDCFF"/>
<path d="M32.9892 0H0V19.924H32.9892V0Z" fill="#282D46"/>
<path d="M10.3926 15.9098C9.60773 15.9098 8.86602 15.7614 8.17605 15.4734C7.48608 15.1854 6.88235 14.784 6.38212 14.2603C5.87327 13.7454 5.46791 13.1258 5.17468 12.4189C4.87281 11.712 4.7262 10.9353 4.7262 10.0975V10.0626C4.7262 9.25099 4.87282 8.49173 5.16605 7.77611C5.45929 7.06922 5.86465 6.44087 6.3735 5.91724C6.88235 5.38489 7.4947 4.97471 8.20192 4.67799C8.90914 4.38127 9.67673 4.23291 10.5133 4.23291C11.0825 4.23291 11.5914 4.28527 12.0485 4.39873C12.5056 4.51218 12.9282 4.66926 13.3163 4.87872C13.6958 5.08817 14.0408 5.33252 14.3513 5.62052C14.6618 5.90851 14.9378 6.22269 15.1792 6.56304L12.8851 8.37828C12.5746 7.96811 12.2296 7.65393 11.8501 7.4183C11.4707 7.18267 11.0222 7.06922 10.4874 7.06922C10.0993 7.06922 9.74573 7.14776 9.42662 7.30485C9.10751 7.46193 8.83152 7.67139 8.59865 7.94193C8.36579 8.21246 8.18467 8.52664 8.0553 8.88445C7.92593 9.25099 7.85693 9.63498 7.85693 10.0364V10.0713C7.85693 10.4902 7.92593 10.883 8.0553 11.2495C8.18467 11.616 8.36579 11.9389 8.59865 12.2007C8.83152 12.4713 9.10751 12.6807 9.42662 12.8378C9.74573 12.9949 10.0993 13.0735 10.4874 13.0735C10.7721 13.0735 11.0308 13.0385 11.2637 12.9775C11.4965 12.9164 11.7121 12.8204 11.9105 12.6982C12.1003 12.576 12.29 12.4277 12.4625 12.2618C12.635 12.096 12.8075 11.9128 12.9713 11.712L15.2655 13.3789C15.0067 13.7454 14.7221 14.0771 14.4116 14.3912C14.1012 14.7054 13.7562 14.9672 13.3594 15.1941C12.9627 15.421 12.5315 15.5956 12.0399 15.7265C11.5483 15.8574 10.9963 15.9098 10.3926 15.9098Z" fill="white"/>
<path d="M16.5247 4.45972H19.9314L22.4239 11.5636L24.925 4.45972H28.2714L23.8125 15.77H20.9836L16.5247 4.45972Z" fill="white"/>
<path d="M16.2833 36.7847H20.6819V49.0724H28.375V53.0171H16.2833V36.7847Z" fill="white"/>
<path d="M37.9916 36.6711H42.2349L48.9966 53.017H44.2789L43.1232 50.1196H36.9997L35.8613 53.017H31.2299L37.9916 36.6711ZM41.8468 46.6375L40.0787 42.0208L38.2934 46.6375H41.8468Z" fill="white"/>
<path d="M52.7827 36.7847H60.9157C61.9162 36.7847 62.7614 36.9068 63.4772 37.1512C64.1845 37.3956 64.7796 37.7621 65.2453 38.2421C65.5644 38.565 65.8145 38.949 65.9956 39.3766C66.1767 39.813 66.2716 40.3017 66.2716 40.8602V40.9039C66.2716 41.8464 66.0388 42.6056 65.5816 43.1904C65.1245 43.7663 64.5381 44.2114 63.8308 44.5256C64.8054 44.8485 65.573 45.3198 66.1422 45.9307C66.7115 46.5416 66.9961 47.3968 66.9961 48.4964V48.5401C66.9961 49.9451 66.47 51.0447 65.4178 51.8302C64.3656 52.6156 62.8908 53.0083 60.9847 53.0083H52.7827V36.7847ZM59.8377 43.2514C60.519 43.2514 61.0365 43.138 61.3901 42.9024C61.7437 42.6667 61.9248 42.3176 61.9248 41.8377V41.794C61.9248 41.3489 61.7609 40.9999 61.4246 40.7642C61.0882 40.5286 60.5966 40.4064 59.9239 40.4064H57.0692V43.2602H59.8377V43.2514ZM60.4759 49.3953C61.1572 49.3953 61.6747 49.2644 62.0369 49.0113C62.3992 48.7582 62.5803 48.3917 62.5803 47.9117V47.8681C62.5803 47.423 62.4078 47.0652 62.0628 46.8034C61.7178 46.5416 61.1745 46.4106 60.4328 46.4106H57.0778V49.3953H60.4759Z" fill="white"/>
<path d="M77.4836 53.2964C76.0606 53.2964 74.7151 53.0694 73.4387 52.6244C72.1622 52.1706 71.0324 51.4986 70.0492 50.591L72.4986 47.5976C74.0855 48.8979 75.8018 49.5437 77.6475 49.5437C78.234 49.5437 78.6911 49.4477 78.9929 49.2557C79.3034 49.0637 79.4587 48.7932 79.4587 48.4354V48.3917C79.4587 48.2259 79.4242 48.0688 79.3465 47.9379C79.2689 47.807 79.1309 47.6761 78.9239 47.5539C78.7169 47.4318 78.4496 47.3096 78.1046 47.1961C77.7682 47.0827 77.3198 46.9605 76.7764 46.8383C75.9312 46.6376 75.1463 46.4194 74.4133 46.175C73.6888 45.9394 73.0592 45.6252 72.5158 45.25C71.9811 44.8747 71.5585 44.4034 71.248 43.8362C70.9375 43.2777 70.7823 42.5708 70.7823 41.7417V41.6981C70.7823 40.9388 70.9203 40.2494 71.2049 39.6123C71.4809 38.9839 71.8949 38.4341 72.4296 37.9716C72.9643 37.509 73.6112 37.1512 74.3701 36.8982C75.1291 36.6451 75.9829 36.5142 76.9316 36.5142C78.2943 36.5142 79.5104 36.6974 80.5712 37.064C81.6407 37.4305 82.598 37.9716 83.4605 38.6872L81.2612 41.8726C80.5367 41.349 79.7864 40.9475 79.0274 40.677C78.2598 40.4064 77.5267 40.2755 76.8195 40.2755C76.2934 40.2755 75.8967 40.3803 75.6293 40.5723C75.362 40.773 75.2326 41.0173 75.2326 41.3141V41.3577C75.2326 41.541 75.2757 41.7068 75.3533 41.8464C75.4396 41.986 75.5776 42.117 75.7846 42.2304C75.9916 42.3439 76.2676 42.466 76.6212 42.5795C76.9748 42.6929 77.4233 42.8151 77.9666 42.9373C78.8722 43.138 79.6915 43.3737 80.4246 43.6442C81.1577 43.9147 81.7787 44.2464 82.2962 44.6304C82.8136 45.0143 83.2018 45.4856 83.4777 46.0267C83.7537 46.5678 83.8831 47.2223 83.8831 47.9816V48.0252C83.8831 48.8543 83.7279 49.5961 83.4174 50.2506C83.1069 50.8964 82.6756 51.4462 82.115 51.9087C81.5544 52.3626 80.8817 52.7116 80.0969 52.9473C79.3293 53.1742 78.4496 53.2964 77.4836 53.2964Z" fill="white"/>
</svg>
