<?xml version="1.0" encoding="UTF-8"?>
<svg xmlns="http://www.w3.org/2000/svg" viewBox="0 0 198.17 195.79">
  <path d="m197.27 195.79h-154.75a42.52 42.52 0 0 1 -42.52-42.52v-152.37a.91.91 0 0 1 .9-.9h156.87a40.41 40.41 0 0 1 40.4 40.41v154.47a.9.9 0 0 1 -.9.91z" fill="#c06537"></path>
  <g fill="#fff">
    <path d="m43.5 118.8c0-7.81 5.11-13 12.67-13a17 17 0 0 1 8.75 2.49v5.07h-.92a7.92 7.92 0 0 0 -8-6.42c-5.32 0-8.54 4.33-8.54 11 0 7.19 3.68 11.34 9.24 11.34a9.46 9.46 0 0 0 8-4l.87.51a11.68 11.68 0 0 1 -10.25 5.59c-6.9 0-11.8-4.91-11.8-12.57z"></path>
    <path d="m106.47 118.83c0-7.39-3.5-11.89-8.79-11.89s-8.29 4.29-8.29 11.34c0 7.4 3.46 11.89 8.75 11.89s8.33-4.29 8.33-11.34zm-21.07-.1c0-7.84 5.11-13 12.67-13 7.38 0 12.35 4.7 12.35 12.64s-5.07 13-12.63 13-12.39-4.7-12.39-12.64z"></path>
    <path d="m146.23 112.74c0-3.67-2.49-5.6-7.11-5.6h-2.34v11.42a19.1 19.1 0 0 0 3 .28c4.31 0 6.41-2.59 6.41-6.1zm7.77 17.89v.74a15.81 15.81 0 0 1 -2.8.24c-2.13 0-3.39-.56-4.79-2.73l-5.22-8a1.89 1.89 0 0 0 -1.89-.87h-2.48v8.05c0 2.06.7 2.34 3 2.55v.74h-9.82v-.74c2.48-.21 3.18-.49 3.18-2.55v-18.89c0-2.06-.7-2.34-3.18-2.55v-.74h10.19c6.3 0 9.8 2 9.8 6.34 0 3.85-2.63 6.09-5.92 7.14l5.64 8.16c1.47 2.1 2.76 3.11 4.23 3.11z"></path>
    <path d="m43.64 88.46v-5.46h1.12c.72 4.06 4.27 6.44 9.12 6.44 4.53 0 7.72-2 7.72-5 0-2.38-1.93-3.78-6.6-5.21l-2.33-.74c-4.27-1.29-8.54-2.94-8.54-7.21s4.09-6.93 10.11-6.93a21.48 21.48 0 0 1 9.52 2v5h-1.13c-.85-3.6-4-5.81-8.48-5.81-3.73 0-6.06 1.86-6.06 4.55 0 2.35 1.88 3.68 6.46 5.11l2.38.74c6.06 1.85 8.62 3.78 8.62 7.38 0 4.52-4.62 7.36-11.67 7.36a22.18 22.18 0 0 1 -10.24-2.21z"></path>
    <path d="m110.42 83-.62 7.25h-24.23v-.74c3-.21 3-.49 3-2.55v-18.91c0-2.06 0-2.34-3-2.55v-.74h23.9v6.34h-1l-.84-2c-1.2-2.87-3.29-3.12-6.41-3.12h-8.75v10.51h6.59c2.91 0 4.2-.28 4.91-2.31l.29-1h1v7.91h-1l-.29-1c-.71-2-2-2.31-4.91-2.31h-6.59v10.85a37.85 37.85 0 0 0 6.46.36c5.92 0 7.91-.32 9.16-3.12l1.29-2.87z"></path>
    <path d="m146.26 71.62c0-3.67-2.48-5.6-7.1-5.6h-2.35v11.41a18.12 18.12 0 0 0 3.05.28c4.3 0 6.4-2.59 6.4-6.09zm7.74 17.89v.74a15.89 15.89 0 0 1 -2.8.24c-2.14 0-3.4-.56-4.8-2.73l-5.21-8a1.91 1.91 0 0 0 -1.89-.88h-2.49v8.12c0 2.06.7 2.34 3.05 2.55v.74h-9.81v-.74c2.49-.21 3.19-.49 3.19-2.55v-18.95c0-2.06-.7-2.34-3.19-2.55v-.74h10.19c6.3 0 9.8 2 9.8 6.34 0 3.85-2.62 6.09-5.91 7.14l5.63 8.15c1.47 2.11 2.77 3.12 4.24 3.12z"></path>
  </g>
</svg>
